<?xml version="1.0" encoding="UTF-8"?>
<svg width="512" height="512" version="1.1" viewBox="0 0 135.47 135.47" xmlns="http://www.w3.org/2000/svg">
 <g>
  <g transform="matrix(.88233 0 .23642 .88233 -43.547 -128.02)" opacity=".5">
   <g>
    <rect x="31.75" y="174.23" width="84.667" height="71.967" fill="#c79a40" opacity=".75" style="paint-order:normal"/>
    <rect x="4.2333" y="170" width="122.77" height="4.2333" fill="#d1ac61" opacity=".75" style="paint-order:normal"/>
    <rect x="4.2333" y="174.23" width="27.517" height="101.6" fill="#e6d1a8" opacity=".75" style="paint-order:normal"/>
    <rect x="31.75" y="246.2" width="95.25" height="29.633" fill="#d3af68" opacity=".75" style="paint-order:normal"/>
   </g>
   <rect x="116.42" y="174.23" width="10.583" height="71.967" fill="#e6d2a8" fill-opacity=".74902" opacity=".75" style="paint-order:normal"/>
   <g fill="#c79a40">
    <rect x="33.867" y="176.35" width="78.317" height="6.35" opacity="1" style="paint-order:normal"/>
    <rect x="33.867" y="184.82" width="31.75" height="6.35" opacity="1" style="paint-order:normal"/>
    <rect x="69.85" y="184.82" width="31.75" height="6.35" opacity="1" style="paint-order:normal"/>
    <rect x="33.867" y="193.28" width="16.933" height="6.35" opacity="1" style="paint-order:normal"/>
    <rect x="52.917" y="193.28" width="44.45" height="6.35" opacity="1" style="paint-order:normal"/>
    <rect x="99.483" y="193.28" width="16.933" height="6.35" opacity="1" style="paint-order:normal"/>
    <rect x="33.867" y="208.1" width="31.75" height="6.35" opacity="1" style="paint-order:normal"/>
    <rect x="67.733" y="208.1" width="16.933" height="6.35" opacity="1" style="paint-order:normal"/>
    <rect x="88.9" y="208.1" width="16.933" height="6.35" opacity="1" style="paint-order:normal"/>
    <rect x="33.867" y="218.68" width="44.45" height="6.35" opacity="1" style="paint-order:normal"/>
    <rect x="80.433" y="218.68" width="31.75" height="6.35" opacity="1" style="paint-order:normal"/>
    <rect x="33.867" y="227.15" width="78.317" height="6.35" opacity="1" style="paint-order:normal"/>
    <rect x="33.867" y="235.62" width="16.933" height="6.35" opacity="1" style="paint-order:normal"/>
    <rect x="6.35" y="178.47" width="16.933" height="6.35" opacity="1" style="paint-order:normal"/>
    <rect x="10.583" y="186.93" width="16.933" height="6.35" opacity="1" style="paint-order:normal"/>
    <rect x="10.583" y="195.4" width="16.933" height="6.35" opacity="1" style="paint-order:normal"/>
    <rect x="10.583" y="203.87" width="16.933" height="6.35" opacity="1" style="paint-order:normal"/>
    <rect x="10.583" y="212.33" width="16.933" height="6.35" opacity="1" style="paint-order:normal"/>
    <rect x="6.35" y="220.8" width="16.933" height="6.35" opacity="1" style="paint-order:normal"/>
    <rect x="10.583" y="229.27" width="16.933" height="6.35" opacity="1" style="paint-order:normal"/>
    <rect x="10.583" y="237.73" width="16.933" height="6.35" opacity="1" style="paint-order:normal"/>
    <rect x="6.35" y="246.2" width="23.283" height="27.517" opacity="1" style="paint-order:normal"/>
    <rect x="122.77" y="170" width="4.2333" height="4.2333" opacity="1" style="paint-order:normal"/>
    <rect x="6.35" y="170" width="23.283" height="2.1167" opacity="1" style="paint-order:normal"/>
    <rect x="118.53" y="178.47" width="6.35" height="2.1167" opacity="1" style="paint-order:normal"/>
    <rect x="118.53" y="182.7" width="2.1167" height="2.1167" opacity="1" style="paint-order:normal"/>
    <rect x="122.77" y="186.93" width="2.1167" height="2.1167" opacity="1" style="paint-order:normal"/>
    <rect x="118.53" y="193.28" width="6.35" height="2.1167" opacity="1" style="paint-order:normal"/>
    <rect x="118.53" y="197.52" width="6.35" height="2.1167" opacity="1" style="paint-order:normal"/>
    <rect x="118.53" y="205.98" width="6.35" height="2.1167" opacity="1" style="paint-order:normal"/>
    <rect x="118.53" y="201.75" width="4.2333" height="2.1167" opacity="1" style="paint-order:normal"/>
    <rect x="120.65" y="210.22" width="4.2333" height="2.1167" opacity="1" style="paint-order:normal"/>
    <rect x="118.53" y="214.45" width="2.1167" height="2.1167" opacity="1" style="paint-order:normal"/>
    <rect x="122.77" y="214.45" width="2.1167" height="2.1167" opacity="1" style="paint-order:normal"/>
    <rect x="118.53" y="218.68" width="6.35" height="2.1167" opacity="1" style="paint-order:normal"/>
    <rect x="118.53" y="222.92" width="6.35" height="2.1167" opacity="1" style="paint-order:normal"/>
    <rect x="118.53" y="227.15" width="4.2333" height="2.1167" opacity="1" style="paint-order:normal"/>
    <rect x="118.53" y="231.38" width="4.2333" height="2.1167" opacity="1" style="paint-order:normal"/>
    <rect x="122.77" y="235.62" width="2.1167" height="2.1167" opacity="1" style="paint-order:normal"/>
    <rect x="122.77" y="239.85" width="2.1167" height="2.1167" opacity="1" style="paint-order:normal"/>
    <rect x="118.53" y="239.85" width="2.1167" height="2.1167" opacity="1" style="paint-order:normal"/>
    <rect x="35.983" y="250.43" width="6.35" height="6.35" opacity="1" style="paint-order:normal"/>
    <rect x="44.45" y="250.43" width="55.033" height="6.35" opacity="1" style="paint-order:normal"/>
    <rect x="35.983" y="258.9" width="35.983" height="6.35" opacity="1" style="paint-order:normal"/>
    <rect x="35.983" y="267.37" width="35.983" height="6.35" opacity="1" style="paint-order:normal"/>
   </g>
  </g>
  <g transform="matrix(.88233 0 .23642 .88233 -42.18 -129.89)">
   <g>
    <rect x="31.75" y="174.23" width="84.667" height="71.967" fill="#c79a40" opacity=".75" style="paint-order:normal"/>
    <rect x="4.2333" y="170" width="122.77" height="4.2333" fill="#d1ac61" opacity=".75" style="paint-order:normal"/>
    <rect x="4.2333" y="174.23" width="27.517" height="101.6" fill="#e6d1a8" opacity=".75" style="paint-order:normal"/>
    <rect x="31.75" y="246.2" width="95.25" height="29.633" fill="#d3af68" opacity=".75" style="paint-order:normal"/>
   </g>
   <rect x="116.42" y="174.23" width="10.583" height="71.967" fill="#e6d2a8" fill-opacity=".74902" opacity=".75" style="paint-order:normal"/>
   <g fill="#c79a40">
    <rect x="33.867" y="176.35" width="78.317" height="6.35" style="paint-order:normal"/>
    <rect x="33.867" y="184.82" width="31.75" height="6.35" style="paint-order:normal"/>
    <rect x="69.85" y="184.82" width="31.75" height="6.35" style="paint-order:normal"/>
    <rect x="33.867" y="193.28" width="16.933" height="6.35" style="paint-order:normal"/>
    <rect x="52.917" y="193.28" width="44.45" height="6.35" style="paint-order:normal"/>
    <rect x="99.483" y="193.28" width="16.933" height="6.35" style="paint-order:normal"/>
    <rect x="33.867" y="208.1" width="31.75" height="6.35" style="paint-order:normal"/>
    <rect x="67.733" y="208.1" width="16.933" height="6.35" style="paint-order:normal"/>
    <rect x="88.9" y="208.1" width="16.933" height="6.35" style="paint-order:normal"/>
    <rect x="33.867" y="218.68" width="44.45" height="6.35" style="paint-order:normal"/>
    <rect x="80.433" y="218.68" width="31.75" height="6.35" style="paint-order:normal"/>
    <rect x="33.867" y="227.15" width="78.317" height="6.35" style="paint-order:normal"/>
    <rect x="33.867" y="235.62" width="16.933" height="6.35" style="paint-order:normal"/>
    <rect x="6.35" y="178.47" width="16.933" height="6.35" style="paint-order:normal"/>
    <rect x="10.583" y="186.93" width="16.933" height="6.35" style="paint-order:normal"/>
    <rect x="10.583" y="195.4" width="16.933" height="6.35" style="paint-order:normal"/>
    <rect x="10.583" y="203.87" width="16.933" height="6.35" style="paint-order:normal"/>
    <rect x="10.583" y="212.33" width="16.933" height="6.35" style="paint-order:normal"/>
    <rect x="6.35" y="220.8" width="16.933" height="6.35" style="paint-order:normal"/>
    <rect x="10.583" y="229.27" width="16.933" height="6.35" style="paint-order:normal"/>
    <rect x="10.583" y="237.73" width="16.933" height="6.35" style="paint-order:normal"/>
    <rect x="6.35" y="246.2" width="23.283" height="27.517" style="paint-order:normal"/>
    <rect x="122.77" y="170" width="4.2333" height="4.2333" style="paint-order:normal"/>
    <rect x="6.35" y="170" width="23.283" height="2.1167" style="paint-order:normal"/>
    <rect x="118.53" y="178.47" width="6.35" height="2.1167" style="paint-order:normal"/>
    <rect x="118.53" y="182.7" width="2.1167" height="2.1167" style="paint-order:normal"/>
    <rect x="122.77" y="186.93" width="2.1167" height="2.1167" style="paint-order:normal"/>
    <rect x="118.53" y="193.28" width="6.35" height="2.1167" style="paint-order:normal"/>
    <rect x="118.53" y="197.52" width="6.35" height="2.1167" style="paint-order:normal"/>
    <rect x="118.53" y="205.98" width="6.35" height="2.1167" style="paint-order:normal"/>
    <rect x="118.53" y="201.75" width="4.2333" height="2.1167" style="paint-order:normal"/>
    <rect x="120.65" y="210.22" width="4.2333" height="2.1167" style="paint-order:normal"/>
    <rect x="118.53" y="214.45" width="2.1167" height="2.1167" style="paint-order:normal"/>
    <rect x="122.77" y="214.45" width="2.1167" height="2.1167" style="paint-order:normal"/>
    <rect x="118.53" y="218.68" width="6.35" height="2.1167" style="paint-order:normal"/>
    <rect x="118.53" y="222.92" width="6.35" height="2.1167" style="paint-order:normal"/>
    <rect x="118.53" y="227.15" width="4.2333" height="2.1167" style="paint-order:normal"/>
    <rect x="118.53" y="231.38" width="4.2333" height="2.1167" style="paint-order:normal"/>
    <rect x="122.77" y="235.62" width="2.1167" height="2.1167" style="paint-order:normal"/>
    <rect x="122.77" y="239.85" width="2.1167" height="2.1167" style="paint-order:normal"/>
    <rect x="118.53" y="239.85" width="2.1167" height="2.1167" style="paint-order:normal"/>
    <rect x="35.983" y="250.43" width="6.35" height="6.35" style="paint-order:normal"/>
    <rect x="44.45" y="250.43" width="55.033" height="6.35" style="paint-order:normal"/>
    <rect x="35.983" y="258.9" width="35.983" height="6.35" style="paint-order:normal"/>
    <rect x="35.983" y="267.37" width="35.983" height="6.35" style="paint-order:normal"/>
   </g>
  </g>
 </g>
</svg>
