<?xml version="1.0" encoding="UTF-8"?>
<svg width="512" height="512" version="1.1" viewBox="0 0 135.47 135.47" xmlns="http://www.w3.org/2000/svg">
 <g opacity=".9">
  <g transform="matrix(1 0 .26795 1 -18.217 0)">
   <path d="m67.203 4.7418a4.2333 4.2333 0 0 0-4.2333 4.2333 4.2333 4.2333 0 0 0 3.7052 4.1951v4.779a4.2333 4.2333 0 0 0-3.6664 3.6664h-4.3093a4.2333 4.2333 0 0 0-4.1961-3.7036 4.2333 4.2333 0 0 0-4.2333 4.2333 4.2333 4.2333 0 0 0 4.2333 4.2333 4.2333 4.2333 0 0 0 4.1946-3.7042h4.3093a4.2333 4.2333 0 0 0 3.668 3.6659v4.779a4.2333 4.2333 0 0 0-3.667 3.668h-4.3088a4.2333 4.2333 0 0 0-4.1961-3.7052 4.2333 4.2333 0 0 0-4.1951 3.7052h-4.3088a4.2333 4.2333 0 0 0-4.1961-3.7052 4.2333 4.2333 0 0 0-4.2333 4.2333 4.2333 4.2333 0 0 0 4.2333 4.2333 4.2333 4.2333 0 0 0 4.1951-3.7047h4.3088a4.2333 4.2333 0 0 0 4.1961 3.7047 4.2333 4.2333 0 0 0 4.1951-3.7047h4.3088a4.2333 4.2333 0 0 0 3.668 3.6664v4.7796a4.2333 4.2333 0 0 0-3.667 3.6675h-4.3088a4.2333 4.2333 0 0 0-4.1961-3.7047 4.2333 4.2333 0 0 0-4.1951 3.7047h-4.3088a4.2333 4.2333 0 0 0-4.1961-3.7047 4.2333 4.2333 0 0 0-4.1951 3.7047h-4.3088a4.2333 4.2333 0 0 0-4.1961-3.7047 4.2333 4.2333 0 0 0-4.2333 4.2333 4.2333 4.2333 0 0 0 4.2333 4.2333 4.2333 4.2333 0 0 0 4.1946-3.7036h4.3093a4.2333 4.2333 0 0 0 4.1961 3.7036 4.2333 4.2333 0 0 0 4.1946-3.7036h4.3093a4.2333 4.2333 0 0 0 4.1961 3.7036 4.2333 4.2333 0 0 0 4.1946-3.7036h4.3093a4.2333 4.2333 0 0 0 3.668 3.6649v4.7796a4.2333 4.2333 0 0 0-3.6664 3.667h-4.3093a4.2333 4.2333 0 0 0-4.1961-3.7042 4.2333 4.2333 0 0 0-4.1946 3.7042h-4.3093a4.2333 4.2333 0 0 0-4.1961-3.7042 4.2333 4.2333 0 0 0-4.2333 4.2333 4.2333 4.2333 0 0 0 4.2333 4.2333 4.2333 4.2333 0 0 0 4.1946-3.7042h4.3093a4.2333 4.2333 0 0 0 4.1961 3.7042 4.2333 4.2333 0 0 0 4.1946-3.7042h4.3093a4.2333 4.2333 0 0 0 3.668 3.6659v4.779a4.2333 4.2333 0 0 0-3.6664 3.6664h-4.3093a4.2333 4.2333 0 0 0-4.1961-3.7037 4.2333 4.2333 0 0 0-4.1946 3.7037h-4.3093a4.2333 4.2333 0 0 0-4.1961-3.7037 4.2333 4.2333 0 0 0-4.1946 3.7037h-4.3093a4.2333 4.2333 0 0 0-4.1961-3.7037 4.2333 4.2333 0 0 0-4.2333 4.2333 4.2333 4.2333 0 0 0 4.2333 4.2333 4.2333 4.2333 0 0 0 4.1946-3.7042h4.3093a4.2333 4.2333 0 0 0 4.1961 3.7042 4.2333 4.2333 0 0 0 4.1946-3.7042h4.3093a4.2333 4.2333 0 0 0 4.1961 3.7042 4.2333 4.2333 0 0 0 4.1946-3.7042h4.3093a4.2333 4.2333 0 0 0 3.668 3.6659v4.779a4.2333 4.2333 0 0 0-3.6664 3.6664h-4.3093a4.2333 4.2333 0 0 0-4.1961-3.7036 4.2333 4.2333 0 0 0-4.1946 3.7036h-4.3093a4.2333 4.2333 0 0 0-4.1961-3.7036 4.2333 4.2333 0 0 0-4.1946 3.7036h-4.3093a4.2333 4.2333 0 0 0-4.1961-3.7036 4.2333 4.2333 0 0 0-4.1946 3.7036h-4.3093a4.2333 4.2333 0 0 0-4.1961-3.7036 4.2333 4.2333 0 0 0-4.2333 4.2333 4.2333 4.2333 0 0 0 4.2333 4.2333 4.2333 4.2333 0 0 0 4.1951-3.7047h4.3088a4.2333 4.2333 0 0 0 4.1961 3.7047 4.2333 4.2333 0 0 0 4.1951-3.7047h4.3088a4.2333 4.2333 0 0 0 4.1961 3.7047 4.2333 4.2333 0 0 0 4.1951-3.7047h4.3088a4.2333 4.2333 0 0 0 4.1961 3.7047 4.2333 4.2333 0 0 0 4.1951-3.7047h4.3088a4.2333 4.2333 0 0 0 3.668 3.6664v4.779a4.2333 4.2333 0 0 0-3.7052 4.1966 4.2333 4.2333 0 0 0 3.7052 4.1946v4.7796a4.2333 4.2333 0 0 0-3.7052 4.1961 4.2333 4.2333 0 0 0 3.7052 4.1951v4.779a4.2333 4.2333 0 0 0-3.7052 4.1961 4.2333 4.2333 0 0 0 4.2333 4.2333 4.2333 4.2333 0 0 0 4.2333-4.2333 4.2333 4.2333 0 0 0-3.7052-4.1951v-4.779a4.2333 4.2333 0 0 0 3.7052-4.1961 4.2333 4.2333 0 0 0-3.7052-4.1951v-4.779a4.2333 4.2333 0 0 0 3.7052-4.1961 4.2333 4.2333 0 0 0-3.7052-4.1951v-4.7796a4.2333 4.2333 0 0 0 3.667-3.6675h4.3088a4.2333 4.2333 0 0 0 4.1961 3.7047 4.2333 4.2333 0 0 0 4.1951-3.7047h4.3088a4.2333 4.2333 0 0 0 4.1961 3.7047 4.2333 4.2333 0 0 0 4.1951-3.7047h4.3088a4.2333 4.2333 0 0 0 4.1961 3.7047 4.2333 4.2333 0 0 0 4.1951-3.7047h4.3088a4.2333 4.2333 0 0 0 4.1961 3.7047 4.2333 4.2333 0 0 0 4.2333-4.2333 4.2333 4.2333 0 0 0-4.2333-4.2333 4.2333 4.2333 0 0 0-4.1946 3.7036h-4.3093a4.2333 4.2333 0 0 0-4.1961-3.7036 4.2333 4.2333 0 0 0-4.1946 3.7036h-4.3093a4.2333 4.2333 0 0 0-4.1961-3.7036 4.2333 4.2333 0 0 0-4.1946 3.7036h-4.3093a4.2333 4.2333 0 0 0-4.1961-3.7036 4.2333 4.2333 0 0 0-4.1946 3.7036h-4.3093a4.2333 4.2333 0 0 0-3.668-3.6649v-4.7796a4.2333 4.2333 0 0 0 3.6664-3.667h4.3093a4.2333 4.2333 0 0 0 4.1961 3.7042 4.2333 4.2333 0 0 0 4.1946-3.7042h4.3093a4.2333 4.2333 0 0 0 4.1961 3.7042 4.2333 4.2333 0 0 0 4.1946-3.7042h4.3093a4.2333 4.2333 0 0 0 4.1961 3.7042 4.2333 4.2333 0 0 0 4.2333-4.2333 4.2333 4.2333 0 0 0-4.2333-4.2333 4.2333 4.2333 0 0 0-4.1946 3.7037h-4.3093a4.2333 4.2333 0 0 0-4.1961-3.7037 4.2333 4.2333 0 0 0-4.1946 3.7037h-4.3093a4.2333 4.2333 0 0 0-4.1961-3.7037 4.2333 4.2333 0 0 0-4.1946 3.7037h-4.3093a4.2333 4.2333 0 0 0-3.668-3.6654v-4.779a4.2333 4.2333 0 0 0 3.6664-3.667h4.3093a4.2333 4.2333 0 0 0 4.1961 3.7042 4.2333 4.2333 0 0 0 4.1946-3.7042h4.3093a4.2333 4.2333 0 0 0 4.1961 3.7042 4.2333 4.2333 0 0 0 4.2333-4.2333 4.2333 4.2333 0 0 0-4.2333-4.2333 4.2333 4.2333 0 0 0-4.1946 3.7042h-4.3093a4.2333 4.2333 0 0 0-4.1961-3.7042 4.2333 4.2333 0 0 0-4.1946 3.7042h-4.3093a4.2333 4.2333 0 0 0-3.668-3.6659v-4.779a4.2333 4.2333 0 0 0 3.6664-3.6664h4.3093a4.2333 4.2333 0 0 0 4.1961 3.7036 4.2333 4.2333 0 0 0 4.1946-3.7036h4.3093a4.2333 4.2333 0 0 0 4.1961 3.7036 4.2333 4.2333 0 0 0 4.1946-3.7036h4.3093a4.2333 4.2333 0 0 0 4.1961 3.7036 4.2333 4.2333 0 0 0 4.2333-4.2333 4.2333 4.2333 0 0 0-4.2333-4.2333 4.2333 4.2333 0 0 0-4.1951 3.7047h-4.3088a4.2333 4.2333 0 0 0-4.1961-3.7047 4.2333 4.2333 0 0 0-4.1951 3.7047h-4.3088a4.2333 4.2333 0 0 0-4.1961-3.7047 4.2333 4.2333 0 0 0-4.1951 3.7047h-4.3088a4.2333 4.2333 0 0 0-3.668-3.6664v-4.779a4.2333 4.2333 0 0 0 3.667-3.668h4.3088a4.2333 4.2333 0 0 0 4.1961 3.7047 4.2333 4.2333 0 0 0 4.1951-3.7047h4.3088a4.2333 4.2333 0 0 0 4.1961 3.7047 4.2333 4.2333 0 0 0 4.2333-4.2333 4.2333 4.2333 0 0 0-4.2333-4.2333 4.2333 4.2333 0 0 0-4.1951 3.7052h-4.3088a4.2333 4.2333 0 0 0-4.1961-3.7052 4.2333 4.2333 0 0 0-4.1951 3.7052h-4.3088a4.2333 4.2333 0 0 0-3.668-3.6664v-4.7796a4.2333 4.2333 0 0 0 3.6664-3.667h4.3093a4.2333 4.2333 0 0 0 4.1961 3.7042 4.2333 4.2333 0 0 0 4.2333-4.2333 4.2333 4.2333 0 0 0-4.2333-4.2333 4.2333 4.2333 0 0 0-4.1946 3.7036h-4.3093a4.2333 4.2333 0 0 0-3.668-3.6654v-4.779a4.2333 4.2333 0 0 0 3.7052-4.1961 4.2333 4.2333 0 0 0-4.2333-4.2333zm0 1.2516a2.9818 2.9818 0 0 1 2.9817 2.9817 2.9818 2.9818 0 0 1-2.4536 2.9337v-0.93483a2.0686 2.0686 0 0 0 1.5405-1.9988 2.0686 2.0686 0 0 0-2.0686-2.0686 2.0686 2.0686 0 0 0-2.0686 2.0686 2.0686 2.0686 0 0 0 1.5405 1.9973v0.93483a2.9818 2.9818 0 0 1-2.4536-2.9321 2.9818 2.9818 0 0 1 2.9817-2.9817zm-12.7 13.17a2.9818 2.9818 0 0 1 2.9332 2.452h-0.93483a2.0686 2.0686 0 0 0-1.9983-1.5389 2.0686 2.0686 0 0 0-2.0686 2.0686 2.0686 2.0686 0 0 0 2.0686 2.0686 2.0686 2.0686 0 0 0 1.9973-1.5394h0.93483a2.9818 2.9818 0 0 1-2.9321 2.4526 2.9818 2.9818 0 0 1-2.9817-2.9817 2.9818 2.9818 0 0 1 2.9817-2.9817zm25.4 0a2.9818 2.9818 0 0 1 2.9817 2.9817 2.9818 2.9818 0 0 1-2.9817 2.9817 2.9818 2.9818 0 0 1-2.9332-2.4526h0.93431a2.0686 2.0686 0 0 0 1.9988 1.5394 2.0686 2.0686 0 0 0 2.0686-2.0686 2.0686 2.0686 0 0 0-2.0686-2.0686 2.0686 2.0686 0 0 0-1.9968 1.5389h-0.93482a2.9818 2.9818 0 0 1 2.9316-2.452zm-13.228 0.048059v0.93483a2.0686 2.0686 0 0 0-1.4686 1.4692h-0.93482a2.9818 2.9818 0 0 1 2.4035-2.404zm1.0563 0.0016a2.9818 2.9818 0 0 1 2.405 2.4024h-0.93483a2.0686 2.0686 0 0 0-1.4702-1.4676zm-3.4613 3.4613h0.93431a2.0686 2.0686 0 0 0 1.4707 1.4681v0.93483a2.9818 2.9818 0 0 1-2.405-2.403zm4.9304 0h0.93483a2.9818 2.9818 0 0 1-2.404 2.4045v-0.93483a2.0686 2.0686 0 0 0 1.4692-1.4697zm-27.397 9.6593a2.9818 2.9818 0 0 1 2.9337 2.4536h-0.93483a2.0686 2.0686 0 0 0-1.9988-1.54 2.0686 2.0686 0 0 0-2.0686 2.0681 2.0686 2.0686 0 0 0 2.0686 2.0686 2.0686 2.0686 0 0 0 1.9973-1.54h0.93483a2.9818 2.9818 0 0 1-2.9321 2.4536 2.9818 2.9818 0 0 1-2.9817-2.9822 2.9818 2.9818 0 0 1 2.9817-2.9817zm12.7 0a2.9818 2.9818 0 0 1 2.9337 2.4536h-0.93483a2.0686 2.0686 0 0 0-1.9988-1.54 2.0686 2.0686 0 0 0-1.9973 1.54h-0.93483a2.9818 2.9818 0 0 1 2.9321-2.4536zm25.4 0a2.9818 2.9818 0 0 1 2.9337 2.4536h-0.93483a2.0686 2.0686 0 0 0-1.9988-1.54 2.0686 2.0686 0 0 0-1.9973 1.54h-0.93482a2.9818 2.9818 0 0 1 2.9321-2.4536zm12.7 0a2.9818 2.9818 0 0 1 2.9817 2.9817 2.9818 2.9818 0 0 1-2.9817 2.9822 2.9818 2.9818 0 0 1-2.9337-2.4536h0.93483a2.0686 2.0686 0 0 0 1.9988 1.54 2.0686 2.0686 0 0 0 2.0686-2.0686 2.0686 2.0686 0 0 0-2.0686-2.0681 2.0686 2.0686 0 0 0-1.9973 1.54h-0.93483a2.9818 2.9818 0 0 1 2.9321-2.4536zm-25.928 0.04802v0.93483a2.0686 2.0686 0 0 0-1.4692 1.4707h-0.93483a2.9818 2.9818 0 0 1 2.404-2.4055zm1.0563 0.0016a2.9818 2.9818 0 0 1 2.4055 2.404h-0.93483a2.0686 2.0686 0 0 0-1.4707-1.4692zm-16.162 3.4608h0.93483a2.0686 2.0686 0 0 0 1.9988 1.54 2.0686 2.0686 0 0 0 1.9973-1.54h0.93483a2.9818 2.9818 0 0 1-2.9321 2.4536 2.9818 2.9818 0 0 1-2.9337-2.4536zm12.7 0h0.93483a2.0686 2.0686 0 0 0 1.4707 1.4692v0.93483a2.9818 2.9818 0 0 1-2.4055-2.404zm4.931 0h0.93483a2.9818 2.9818 0 0 1-2.404 2.4055v-0.93483a2.0686 2.0686 0 0 0 1.4692-1.4707zm7.769 0h0.93483a2.0686 2.0686 0 0 0 1.9988 1.54 2.0686 2.0686 0 0 0 1.9973-1.54h0.93482a2.9818 2.9818 0 0 1-2.9321 2.4536 2.9818 2.9818 0 0 1-2.9337-2.4536zm-47.866 9.6598a2.9818 2.9818 0 0 1 2.9337 2.4536h-0.93482a2.0686 2.0686 0 0 0-1.9988-1.54 2.0686 2.0686 0 0 0-2.0686 2.0686 2.0686 2.0686 0 0 0 2.0686 2.0686 2.0686 2.0686 0 0 0 1.9968-1.5389h0.93483a2.9818 2.9818 0 0 1-2.9316 2.452 2.9818 2.9818 0 0 1-2.9817-2.9817 2.9818 2.9818 0 0 1 2.9817-2.9822zm12.7 0a2.9818 2.9818 0 0 1 2.9337 2.4536h-0.93483a2.0686 2.0686 0 0 0-1.9988-1.54 2.0686 2.0686 0 0 0-1.9973 1.54h-0.93483a2.9818 2.9818 0 0 1 2.9321-2.4536zm12.7 0a2.9818 2.9818 0 0 1 2.9337 2.4536h-0.93483a2.0686 2.0686 0 0 0-1.9988-1.54 2.0686 2.0686 0 0 0-1.9973 1.54h-0.93483a2.9818 2.9818 0 0 1 2.9321-2.4536zm25.4 0a2.9818 2.9818 0 0 1 2.9337 2.4536h-0.93483a2.0686 2.0686 0 0 0-1.9988-1.54 2.0686 2.0686 0 0 0-1.9973 1.54h-0.93482a2.9818 2.9818 0 0 1 2.9321-2.4536zm12.7 0a2.9818 2.9818 0 0 1 2.9337 2.4536h-0.93483a2.0686 2.0686 0 0 0-1.9988-1.54 2.0686 2.0686 0 0 0-1.9973 1.54h-0.93483a2.9818 2.9818 0 0 1 2.9321-2.4536zm12.7 0a2.9818 2.9818 0 0 1 2.9817 2.9822 2.9818 2.9818 0 0 1-2.9817 2.9817 2.9818 2.9818 0 0 1-2.9332-2.452h0.93483a2.0686 2.0686 0 0 0 1.9983 1.5389 2.0686 2.0686 0 0 0 2.0686-2.0686 2.0686 2.0686 0 0 0-2.0686-2.0686 2.0686 2.0686 0 0 0-1.9973 1.54h-0.93483a2.9818 2.9818 0 0 1 2.9321-2.4536zm-38.628 0.048047v0.93534a2.0686 2.0686 0 0 0-1.4692 1.4702h-0.93483a2.9818 2.9818 0 0 1 2.404-2.4055zm1.0563 0.0016a2.9818 2.9818 0 0 1 2.4055 2.404h-0.93483a2.0686 2.0686 0 0 0-1.4707-1.4686zm-28.861 3.4623h0.93483a2.0686 2.0686 0 0 0 1.9983 1.5389 2.0686 2.0686 0 0 0 1.9968-1.5389h0.93483a2.9818 2.9818 0 0 1-2.9316 2.452 2.9818 2.9818 0 0 1-2.9332-2.452zm12.7 0h0.93483a2.0686 2.0686 0 0 0 1.9983 1.5389 2.0686 2.0686 0 0 0 1.9968-1.5389h0.93483a2.9818 2.9818 0 0 1-2.9316 2.452 2.9818 2.9818 0 0 1-2.9332-2.452zm12.7 0h0.93483a2.0686 2.0686 0 0 0 1.4702 1.4676v0.93483a2.9818 2.9818 0 0 1-2.405-2.4024zm4.9299 0h0.93483a2.9818 2.9818 0 0 1-2.4035 2.404v-0.93483a2.0686 2.0686 0 0 0 1.4686-1.4692zm7.7701 0h0.93483a2.0686 2.0686 0 0 0 1.9983 1.5389 2.0686 2.0686 0 0 0 1.9968-1.5389h0.93482a2.9818 2.9818 0 0 1-2.9316 2.452 2.9818 2.9818 0 0 1-2.9332-2.452zm12.7 0h0.93483a2.0686 2.0686 0 0 0 1.9983 1.5389 2.0686 2.0686 0 0 0 1.9968-1.5389h0.93483a2.9818 2.9818 0 0 1-2.9316 2.452 2.9818 2.9818 0 0 1-2.9332-2.452zm-47.867 9.6588a2.9818 2.9818 0 0 1 2.9332 2.4526h-0.93431a2.0686 2.0686 0 0 0-1.9988-1.5394 2.0686 2.0686 0 0 0-2.0686 2.0686 2.0686 2.0686 0 0 0 2.0686 2.0686 2.0686 2.0686 0 0 0 1.9973-1.5394h0.93431a2.9818 2.9818 0 0 1-2.9316 2.4526 2.9818 2.9818 0 0 1-2.9817-2.9817 2.9818 2.9818 0 0 1 2.9817-2.9817zm12.7 0a2.9818 2.9818 0 0 1 2.9332 2.4526h-0.93431a2.0686 2.0686 0 0 0-1.9988-1.5394 2.0686 2.0686 0 0 0-1.9973 1.5394h-0.93431a2.9818 2.9818 0 0 1 2.9316-2.4526zm25.4 0a2.9818 2.9818 0 0 1 2.9332 2.4526h-0.93431a2.0686 2.0686 0 0 0-1.9988-1.5394 2.0686 2.0686 0 0 0-1.9973 1.5394h-0.93431a2.9818 2.9818 0 0 1 2.9316-2.4526zm12.7 0a2.9818 2.9818 0 0 1 2.9817 2.9817 2.9818 2.9818 0 0 1-2.9817 2.9817 2.9818 2.9818 0 0 1-2.9332-2.4526h0.93431a2.0686 2.0686 0 0 0 1.9988 1.5394 2.0686 2.0686 0 0 0 2.0686-2.0686 2.0686 2.0686 0 0 0-2.0686-2.0686 2.0686 2.0686 0 0 0-1.9973 1.5394h-0.93431a2.9818 2.9818 0 0 1 2.9316-2.4526zm-25.928 0.048047v0.93483a2.0686 2.0686 0 0 0-1.4692 1.4697h-0.93431a2.9818 2.9818 0 0 1 2.4035-2.4045zm1.0563 0.0016a2.9818 2.9818 0 0 1 2.405 2.403h-0.93431a2.0686 2.0686 0 0 0-1.4707-1.4681zm-16.161 3.4613h0.93431a2.0686 2.0686 0 0 0 1.9988 1.5394 2.0686 2.0686 0 0 0 1.9973-1.5394h0.93431a2.9818 2.9818 0 0 1-2.9316 2.4525 2.9818 2.9818 0 0 1-2.9332-2.4526zm12.7 0h0.93431a2.0686 2.0686 0 0 0 1.4707 1.4681v0.93483a2.9818 2.9818 0 0 1-2.405-2.403zm4.9304 0h0.93431a2.9818 2.9818 0 0 1-2.4035 2.4045v-0.93483a2.0686 2.0686 0 0 0 1.4692-1.4697zm7.7696 0h0.93431a2.0686 2.0686 0 0 0 1.9988 1.5394 2.0686 2.0686 0 0 0 1.9973-1.5394h0.93431a2.9818 2.9818 0 0 1-2.9316 2.4525 2.9818 2.9818 0 0 1-2.9332-2.4526zm-47.867 9.6593a2.9818 2.9818 0 0 1 2.9332 2.452h-0.93483a2.0686 2.0686 0 0 0-1.9983-1.5389 2.0686 2.0686 0 0 0-2.0686 2.0686 2.0686 2.0686 0 0 0 2.0686 2.0686 2.0686 2.0686 0 0 0 1.9973-1.5394h0.93431a2.9818 2.9818 0 0 1-2.9316 2.4526 2.9818 2.9818 0 0 1-2.9817-2.9817 2.9818 2.9818 0 0 1 2.9817-2.9817zm12.7 0a2.9818 2.9818 0 0 1 2.9332 2.452h-0.93483a2.0686 2.0686 0 0 0-1.9983-1.5389 2.0686 2.0686 0 0 0-1.9968 1.5389h-0.93483a2.9818 2.9818 0 0 1 2.9316-2.452zm12.7 0a2.9818 2.9818 0 0 1 2.9332 2.452h-0.93483a2.0686 2.0686 0 0 0-1.9983-1.5389 2.0686 2.0686 0 0 0-1.9968 1.5389h-0.93483a2.9818 2.9818 0 0 1 2.9316-2.452zm25.4 0a2.9818 2.9818 0 0 1 2.9332 2.452h-0.93483a2.0686 2.0686 0 0 0-1.9983-1.5389 2.0686 2.0686 0 0 0-1.9968 1.5389h-0.93482a2.9818 2.9818 0 0 1 2.9316-2.452zm12.7 0a2.9818 2.9818 0 0 1 2.9332 2.452h-0.93483a2.0686 2.0686 0 0 0-1.9983-1.5389 2.0686 2.0686 0 0 0-1.9968 1.5389h-0.93483a2.9818 2.9818 0 0 1 2.9316-2.452zm12.7 0a2.9818 2.9818 0 0 1 2.9817 2.9817 2.9818 2.9818 0 0 1-2.9817 2.9817 2.9818 2.9818 0 0 1-2.9332-2.4526h0.93431a2.0686 2.0686 0 0 0 1.9988 1.5394 2.0686 2.0686 0 0 0 2.0686-2.0686 2.0686 2.0686 0 0 0-2.0686-2.0686 2.0686 2.0686 0 0 0-1.9968 1.5389h-0.93482a2.9818 2.9818 0 0 1 2.9316-2.452zm-38.628 0.048047v0.93483a2.0686 2.0686 0 0 0-1.4686 1.4692h-0.93482a2.9818 2.9818 0 0 1 2.4035-2.404zm1.0563 0.0016a2.9818 2.9818 0 0 1 2.405 2.4024h-0.93483a2.0686 2.0686 0 0 0-1.4702-1.4676zm-28.861 3.4613h0.93431a2.0686 2.0686 0 0 0 1.9988 1.5394 2.0686 2.0686 0 0 0 1.9973-1.5394h0.93431a2.9818 2.9818 0 0 1-2.9316 2.4525 2.9818 2.9818 0 0 1-2.9332-2.4526zm12.7 0h0.93431a2.0686 2.0686 0 0 0 1.9988 1.5394 2.0686 2.0686 0 0 0 1.9973-1.5394h0.93431a2.9818 2.9818 0 0 1-2.9316 2.4525 2.9818 2.9818 0 0 1-2.9332-2.4526zm12.7 0h0.93431a2.0686 2.0686 0 0 0 1.4707 1.4681v0.93483a2.9818 2.9818 0 0 1-2.405-2.403zm4.9304 0h0.93431a2.9818 2.9818 0 0 1-2.4035 2.4045v-0.93482a2.0686 2.0686 0 0 0 1.4692-1.4697zm7.7696 0h0.93431a2.0686 2.0686 0 0 0 1.9988 1.5394 2.0686 2.0686 0 0 0 1.9973-1.5394h0.93431a2.9818 2.9818 0 0 1-2.9316 2.4525 2.9818 2.9818 0 0 1-2.9332-2.4526zm12.7 0h0.93431a2.0686 2.0686 0 0 0 1.9988 1.5394 2.0686 2.0686 0 0 0 1.9973-1.5394h0.93431a2.9818 2.9818 0 0 1-2.9316 2.4525 2.9818 2.9818 0 0 1-2.9332-2.4526zm-73.267 9.6593a2.9818 2.9818 0 0 1 2.9332 2.452h-0.93483a2.0686 2.0686 0 0 0-1.9983-1.5389 2.0686 2.0686 0 0 0-2.0686 2.0686 2.0686 2.0686 0 0 0 2.0686 2.0686 2.0686 2.0686 0 0 0 1.9973-1.54h0.93483a2.9818 2.9818 0 0 1-2.9321 2.4536 2.9818 2.9818 0 0 1-2.9817-2.9822 2.9818 2.9818 0 0 1 2.9817-2.9817zm12.7 0a2.9818 2.9818 0 0 1 2.9332 2.452h-0.93483a2.0686 2.0686 0 0 0-1.9983-1.5389 2.0686 2.0686 0 0 0-1.9968 1.5389h-0.93483a2.9818 2.9818 0 0 1 2.9316-2.452zm12.7 0a2.9818 2.9818 0 0 1 2.9332 2.452h-0.93483a2.0686 2.0686 0 0 0-1.9983-1.5389 2.0686 2.0686 0 0 0-1.9968 1.5389h-0.93483a2.9818 2.9818 0 0 1 2.9316-2.452zm12.7 0a2.9818 2.9818 0 0 1 2.9332 2.452h-0.93483a2.0686 2.0686 0 0 0-1.9983-1.5389 2.0686 2.0686 0 0 0-1.9968 1.5389h-0.93483a2.9818 2.9818 0 0 1 2.9316-2.452zm25.4 0a2.9818 2.9818 0 0 1 2.9332 2.452h-0.93483a2.0686 2.0686 0 0 0-1.9983-1.5389 2.0686 2.0686 0 0 0-1.9968 1.5389h-0.93482a2.9818 2.9818 0 0 1 2.9316-2.452zm12.7 0a2.9818 2.9818 0 0 1 2.9332 2.452h-0.93483a2.0686 2.0686 0 0 0-1.9983-1.5389 2.0686 2.0686 0 0 0-1.9968 1.5389h-0.93483a2.9818 2.9818 0 0 1 2.9316-2.452zm12.7 0a2.9818 2.9818 0 0 1 2.9332 2.452h-0.93483a2.0686 2.0686 0 0 0-1.9983-1.5389 2.0686 2.0686 0 0 0-1.9968 1.5389h-0.93482a2.9818 2.9818 0 0 1 2.9316-2.452zm12.7 0a2.9818 2.9818 0 0 1 2.9817 2.9817 2.9818 2.9818 0 0 1-2.9817 2.9822 2.9818 2.9818 0 0 1-2.9337-2.4536h0.93483a2.0686 2.0686 0 0 0 1.9988 1.54 2.0686 2.0686 0 0 0 2.0686-2.0686 2.0686 2.0686 0 0 0-2.0686-2.0686 2.0686 2.0686 0 0 0-1.9968 1.5389h-0.93482a2.9818 2.9818 0 0 1 2.9316-2.452zm-51.328 0.048046v0.93483a2.0686 2.0686 0 0 0-1.4686 1.4692h-0.93482a2.9818 2.9818 0 0 1 2.4035-2.404zm1.0563 0.0016a2.9818 2.9818 0 0 1 2.405 2.4024h-0.93483a2.0686 2.0686 0 0 0-1.4702-1.4676zm-41.562 3.4608h0.93483a2.0686 2.0686 0 0 0 1.9988 1.54 2.0686 2.0686 0 0 0 1.9973-1.54h0.93483a2.9818 2.9818 0 0 1-2.9321 2.4536 2.9818 2.9818 0 0 1-2.9337-2.4536zm12.7 0h0.93482a2.0686 2.0686 0 0 0 1.9988 1.54 2.0686 2.0686 0 0 0 1.9973-1.54h0.93483a2.9818 2.9818 0 0 1-2.9321 2.4536 2.9818 2.9818 0 0 1-2.9337-2.4536zm12.7 0h0.93483a2.0686 2.0686 0 0 0 1.9988 1.54 2.0686 2.0686 0 0 0 1.9973-1.54h0.93483a2.9818 2.9818 0 0 1-2.9321 2.4536 2.9818 2.9818 0 0 1-2.9337-2.4536zm12.7 0h0.93483a2.0686 2.0686 0 0 0 1.4707 1.4686v0.93531a2.9818 2.9818 0 0 1-2.4055-2.404zm4.931 0h0.93483a2.9818 2.9818 0 0 1-2.404 2.4055v-0.93534a2.0686 2.0686 0 0 0 1.4692-1.4702zm7.769 0h0.93483a2.0686 2.0686 0 0 0 1.9988 1.54 2.0686 2.0686 0 0 0 1.9973-1.54h0.93482a2.9818 2.9818 0 0 1-2.9321 2.4536 2.9818 2.9818 0 0 1-2.9337-2.4536zm12.7 0h0.93483a2.0686 2.0686 0 0 0 1.9988 1.54 2.0686 2.0686 0 0 0 1.9973-1.54h0.93483a2.9818 2.9818 0 0 1-2.9321 2.4536 2.9818 2.9818 0 0 1-2.9337-2.4536zm12.7 0h0.93483a2.0686 2.0686 0 0 0 1.9988 1.54 2.0686 2.0686 0 0 0 1.9973-1.54h0.93482a2.9818 2.9818 0 0 1-2.9321 2.4536 2.9818 2.9818 0 0 1-2.9337-2.4536zm-35.694 9.7079v0.93534a2.0686 2.0686 0 0 0-1.5405 1.9988 2.0686 2.0686 0 0 0 1.5405 1.9973v0.93482a2.9818 2.9818 0 0 1-2.4536-2.9321 2.9818 2.9818 0 0 1 2.4536-2.9342zm1.0563 0.0016a2.9818 2.9818 0 0 1 2.4536 2.9326 2.9818 2.9818 0 0 1-2.4536 2.9337v-0.9349a2.0686 2.0686 0 0 0 1.5405-1.9988 2.0686 2.0686 0 0 0-1.5405-1.9978zm-1.0563 13.169v0.93482a2.0686 2.0686 0 0 0-1.5405 1.9988 2.0686 2.0686 0 0 0 1.5405 1.9973v0.93483a2.9818 2.9818 0 0 1-2.4536-2.9321 2.9818 2.9818 0 0 1 2.4536-2.9337zm1.0563 2e-3a2.9818 2.9818 0 0 1 2.4536 2.9321 2.9818 2.9818 0 0 1-2.4536 2.9337v-0.93483a2.0686 2.0686 0 0 0 1.5405-1.9988 2.0686 2.0686 0 0 0-1.5405-1.9973zm-1.0563 13.168v0.93483a2.0686 2.0686 0 0 0-1.5405 1.9987 2.0686 2.0686 0 0 0 2.0686 2.0686 2.0686 2.0686 0 0 0 2.0686-2.0686 2.0686 2.0686 0 0 0-1.5405-1.9973v-0.93482a2.9818 2.9818 0 0 1 2.4536 2.9321 2.9818 2.9818 0 0 1-2.9817 2.9817 2.9818 2.9818 0 0 1-2.9817-2.9817 2.9818 2.9818 0 0 1 2.4536-2.9337z" fill="#c79a40" opacity=".75" style="paint-order:normal"/>
   <path transform="scale(.26458)" d="m256 16a16 16 0 0 0-16 16 16 16 0 0 0 14.004 15.855v18.062a16 16 0 0 0-13.857 13.857h-16.287a16 16 0 0 0-15.859-13.998 16 16 0 0 0-16 16 16 16 0 0 0 16 16 16 16 0 0 0 15.854-14h16.287a16 16 0 0 0 13.863 13.855v18.062a16 16 0 0 0-13.859 13.863h-16.285a16 16 0 0 0-15.859-14.004 16 16 0 0 0-15.855 14.004h-16.285a16 16 0 0 0-15.859-14.004 16 16 0 0 0-16 16 16 16 0 0 0 16 16 16 16 0 0 0 15.855-14.002h16.285a16 16 0 0 0 15.859 14.002 16 16 0 0 0 15.855-14.002h16.285a16 16 0 0 0 13.863 13.857v18.064a16 16 0 0 0-13.859 13.861h-16.285a16 16 0 0 0-15.859-14.002 16 16 0 0 0-15.855 14.002h-16.285a16 16 0 0 0-15.859-14.002 16 16 0 0 0-15.855 14.002h-16.285a16 16 0 0 0-15.859-14.002 16 16 0 0 0-16 16 16 16 0 0 0 16 16 16 16 0 0 0 15.854-13.998h16.287a16 16 0 0 0 15.859 13.998 16 16 0 0 0 15.854-13.998h16.287a16 16 0 0 0 15.859 13.998 16 16 0 0 0 15.854-13.998h16.287a16 16 0 0 0 13.863 13.852v18.064a16 16 0 0 0-13.857 13.859h-16.287a16 16 0 0 0-15.859-14 16 16 0 0 0-15.854 14h-16.287a16 16 0 0 0-15.859-14 16 16 0 0 0-16 16 16 16 0 0 0 16 16 16 16 0 0 0 15.854-14h16.287a16 16 0 0 0 15.859 14 16 16 0 0 0 15.854-14h16.287a16 16 0 0 0 13.863 13.855v18.062a16 16 0 0 0-13.857 13.857h-16.287a16 16 0 0 0-15.859-13.998 16 16 0 0 0-15.854 13.998h-16.287a16 16 0 0 0-15.859-13.998 16 16 0 0 0-15.854 13.998h-16.287a16 16 0 0 0-15.859-13.998 16 16 0 0 0-16 16 16 16 0 0 0 16 16 16 16 0 0 0 15.854-14h16.287a16 16 0 0 0 15.859 14 16 16 0 0 0 15.854-14h16.287a16 16 0 0 0 15.859 14 16 16 0 0 0 15.854-14h16.287a16 16 0 0 0 13.863 13.855v18.062a16 16 0 0 0-13.857 13.857h-16.287a16 16 0 0 0-15.859-13.998 16 16 0 0 0-15.854 13.998h-16.287a16 16 0 0 0-15.859-13.998 16 16 0 0 0-15.854 13.998h-16.287a16 16 0 0 0-15.859-13.998 16 16 0 0 0-15.854 13.998h-16.287a16 16 0 0 0-15.859-13.998 16 16 0 0 0-16 16 16 16 0 0 0 16 16 16 16 0 0 0 15.855-14.002h16.285a16 16 0 0 0 15.859 14.002 16 16 0 0 0 15.855-14.002h16.285a16 16 0 0 0 15.859 14.002 16 16 0 0 0 15.855-14.002h16.285a16 16 0 0 0 15.859 14.002 16 16 0 0 0 15.855-14.002h16.285a16 16 0 0 0 13.863 13.857v18.062a16 16 0 0 0-14.004 15.861 16 16 0 0 0 14.004 15.854v18.064a16 16 0 0 0-14.004 15.859 16 16 0 0 0 14.004 15.855v18.062a16 16 0 0 0-14.004 15.859 16 16 0 0 0 16 16 16 16 0 0 0 16-16 16 16 0 0 0-14.004-15.855v-18.062a16 16 0 0 0 14.004-15.859 16 16 0 0 0-14.004-15.855v-18.062a16 16 0 0 0 14.004-15.859 16 16 0 0 0-14.004-15.855v-18.064a16 16 0 0 0 13.859-13.861h16.285a16 16 0 0 0 15.859 14.002 16 16 0 0 0 15.855-14.002h16.285a16 16 0 0 0 15.859 14.002 16 16 0 0 0 15.855-14.002h16.285a16 16 0 0 0 15.859 14.002 16 16 0 0 0 15.855-14.002h16.285a16 16 0 0 0 15.859 14.002 16 16 0 0 0 16-16 16 16 0 0 0-16-16 16 16 0 0 0-15.854 13.998h-16.287a16 16 0 0 0-15.859-13.998 16 16 0 0 0-15.854 13.998h-16.287a16 16 0 0 0-15.859-13.998 16 16 0 0 0-15.854 13.998h-16.287a16 16 0 0 0-15.859-13.998 16 16 0 0 0-15.854 13.998h-16.287a16 16 0 0 0-13.863-13.852v-18.064a16 16 0 0 0 13.857-13.859h16.287a16 16 0 0 0 15.859 14 16 16 0 0 0 15.854-14h16.287a16 16 0 0 0 15.859 14 16 16 0 0 0 15.854-14h16.287a16 16 0 0 0 15.859 14 16 16 0 0 0 16-16 16 16 0 0 0-16-16 16 16 0 0 0-15.854 13.998h-16.287a16 16 0 0 0-15.859-13.998 16 16 0 0 0-15.854 13.998h-16.287a16 16 0 0 0-15.859-13.998 16 16 0 0 0-15.854 13.998h-16.287a16 16 0 0 0-13.863-13.854v-18.062a16 16 0 0 0 13.857-13.859h16.287a16 16 0 0 0 15.859 14 16 16 0 0 0 15.854-14h16.287a16 16 0 0 0 15.859 14 16 16 0 0 0 16-16 16 16 0 0 0-16-16 16 16 0 0 0-15.854 14h-16.287a16 16 0 0 0-15.859-14 16 16 0 0 0-15.854 14h-16.287a16 16 0 0 0-13.863-13.855v-18.062a16 16 0 0 0 13.857-13.857h16.287a16 16 0 0 0 15.859 13.998 16 16 0 0 0 15.854-13.998h16.287a16 16 0 0 0 15.859 13.998 16 16 0 0 0 15.854-13.998h16.287a16 16 0 0 0 15.859 13.998 16 16 0 0 0 16-16 16 16 0 0 0-16-16 16 16 0 0 0-15.855 14.002h-16.285a16 16 0 0 0-15.859-14.002 16 16 0 0 0-15.855 14.002h-16.285a16 16 0 0 0-15.859-14.002 16 16 0 0 0-15.855 14.002h-16.285a16 16 0 0 0-13.863-13.857v-18.062a16 16 0 0 0 13.859-13.863h16.285a16 16 0 0 0 15.859 14.002 16 16 0 0 0 15.855-14.002h16.285a16 16 0 0 0 15.859 14.002 16 16 0 0 0 16-16 16 16 0 0 0-16-16 16 16 0 0 0-15.855 14.004h-16.285a16 16 0 0 0-15.859-14.004 16 16 0 0 0-15.855 14.004h-16.285a16 16 0 0 0-13.863-13.857v-18.064a16 16 0 0 0 13.857-13.859h16.287a16 16 0 0 0 15.859 14 16 16 0 0 0 16-16 16 16 0 0 0-16-16 16 16 0 0 0-15.854 13.998h-16.287a16 16 0 0 0-13.863-13.854v-18.062a16 16 0 0 0 14.004-15.859 16 16 0 0 0-16-16zm0 4.7305a11.27 11.27 0 0 1 11.27 11.27 11.27 11.27 0 0 1-9.2734 11.088v-3.5332a7.8182 7.8182 0 0 0 5.8223-7.5547 7.8182 7.8182 0 0 0-7.8184-7.8184 7.8182 7.8182 0 0 0-7.8184 7.8184 7.8182 7.8182 0 0 0 5.8223 7.5488v3.5332a11.27 11.27 0 0 1-9.2734-11.082 11.27 11.27 0 0 1 11.27-11.27zm-48 49.777a11.27 11.27 0 0 1 11.086 9.2676h-3.5332a7.8182 7.8182 0 0 0-7.5527-5.8164 7.8182 7.8182 0 0 0-7.8184 7.8184 7.8182 7.8182 0 0 0 7.8184 7.8184 7.8182 7.8182 0 0 0 7.5488-5.8184h3.5332a11.27 11.27 0 0 1-11.082 9.2695 11.27 11.27 0 0 1-11.27-11.27 11.27 11.27 0 0 1 11.27-11.27zm96 0a11.27 11.27 0 0 1 11.27 11.27 11.27 11.27 0 0 1-11.27 11.27 11.27 11.27 0 0 1-11.086-9.2695h3.5312a7.8182 7.8182 0 0 0 7.5547 5.8184 7.8182 7.8182 0 0 0 7.8184-7.8184 7.8182 7.8182 0 0 0-7.8184-7.8184 7.8182 7.8182 0 0 0-7.5469 5.8164h-3.5332a11.27 11.27 0 0 1 11.08-9.2676zm-49.996 0.18164v3.5332a7.8182 7.8182 0 0 0-5.5508 5.5527h-3.5332a11.27 11.27 0 0 1 9.084-9.0859zm3.9922 0.0059a11.27 11.27 0 0 1 9.0898 9.0801h-3.5332a7.8182 7.8182 0 0 0-5.5566-5.5469zm-13.082 13.082h3.5312a7.8182 7.8182 0 0 0 5.5586 5.5488v3.5332a11.27 11.27 0 0 1-9.0898-9.082zm18.635 0h3.5332a11.27 11.27 0 0 1-9.0859 9.0879v-3.5332a7.8182 7.8182 0 0 0 5.5527-5.5547zm-103.55 36.508a11.27 11.27 0 0 1 11.088 9.2734h-3.5332a7.8182 7.8182 0 0 0-7.5547-5.8203 7.8182 7.8182 0 0 0-7.8184 7.8164 7.8182 7.8182 0 0 0 7.8184 7.8184 7.8182 7.8182 0 0 0 7.5488-5.8203h3.5332a11.27 11.27 0 0 1-11.082 9.2734 11.27 11.27 0 0 1-11.27-11.271 11.27 11.27 0 0 1 11.27-11.27zm48 0a11.27 11.27 0 0 1 11.088 9.2734h-3.5332a7.8182 7.8182 0 0 0-7.5547-5.8203 7.8182 7.8182 0 0 0-7.5488 5.8203h-3.5332a11.27 11.27 0 0 1 11.082-9.2734zm96 0a11.27 11.27 0 0 1 11.088 9.2734h-3.5332a7.8182 7.8182 0 0 0-7.5547-5.8203 7.8182 7.8182 0 0 0-7.5488 5.8203h-3.5332a11.27 11.27 0 0 1 11.082-9.2734zm48 0a11.27 11.27 0 0 1 11.27 11.27 11.27 11.27 0 0 1-11.27 11.271 11.27 11.27 0 0 1-11.088-9.2734h3.5332a7.8182 7.8182 0 0 0 7.5547 5.8203 7.8182 7.8182 0 0 0 7.8184-7.8184 7.8182 7.8182 0 0 0-7.8184-7.8164 7.8182 7.8182 0 0 0-7.5488 5.8203h-3.5332a11.27 11.27 0 0 1 11.082-9.2734zm-97.996 0.18164v3.5332a7.8182 7.8182 0 0 0-5.5527 5.5586h-3.5332a11.27 11.27 0 0 1 9.0859-9.0918zm3.9922 6e-3a11.27 11.27 0 0 1 9.0918 9.0859h-3.5332a7.8182 7.8182 0 0 0-5.5586-5.5527zm-61.084 13.08h3.5332a7.8182 7.8182 0 0 0 7.5547 5.8203 7.8182 7.8182 0 0 0 7.5488-5.8203h3.5332a11.27 11.27 0 0 1-11.082 9.2733 11.27 11.27 0 0 1-11.088-9.2734zm48 0h3.5332a7.8182 7.8182 0 0 0 5.5586 5.5527v3.5332a11.27 11.27 0 0 1-9.0918-9.0859zm18.637 0h3.5332a11.27 11.27 0 0 1-9.0859 9.0918v-3.5332a7.8182 7.8182 0 0 0 5.5527-5.5586zm29.363 0h3.5332a7.8182 7.8182 0 0 0 7.5547 5.8203 7.8182 7.8182 0 0 0 7.5488-5.8203h3.5332a11.27 11.27 0 0 1-11.082 9.2733 11.27 11.27 0 0 1-11.088-9.2734zm-180.91 36.51a11.27 11.27 0 0 1 11.088 9.2734h-3.5332a7.8182 7.8182 0 0 0-7.5547-5.8203 7.8182 7.8182 0 0 0-7.8184 7.8184 7.8182 7.8182 0 0 0 7.8184 7.8184 7.8182 7.8182 0 0 0 7.5469-5.8164h3.5332a11.27 11.27 0 0 1-11.08 9.2676 11.27 11.27 0 0 1-11.27-11.27 11.27 11.27 0 0 1 11.27-11.271zm48 0a11.27 11.27 0 0 1 11.088 9.2734h-3.5332a7.8182 7.8182 0 0 0-7.5547-5.8203 7.8182 7.8182 0 0 0-7.5488 5.8203h-3.5332a11.27 11.27 0 0 1 11.082-9.2734zm48 0a11.27 11.27 0 0 1 11.088 9.2734h-3.5332a7.8182 7.8182 0 0 0-7.5547-5.8203 7.8182 7.8182 0 0 0-7.5488 5.8203h-3.5332a11.27 11.27 0 0 1 11.082-9.2734zm96 0a11.27 11.27 0 0 1 11.088 9.2734h-3.5332a7.8182 7.8182 0 0 0-7.5547-5.8203 7.8182 7.8182 0 0 0-7.5488 5.8203h-3.5332a11.27 11.27 0 0 1 11.082-9.2734zm48 0a11.27 11.27 0 0 1 11.088 9.2734h-3.5332a7.8182 7.8182 0 0 0-7.5547-5.8203 7.8182 7.8182 0 0 0-7.5488 5.8203h-3.5332a11.27 11.27 0 0 1 11.082-9.2734zm48 0a11.27 11.27 0 0 1 11.27 11.271 11.27 11.27 0 0 1-11.27 11.27 11.27 11.27 0 0 1-11.086-9.2676h3.5332a7.8182 7.8182 0 0 0 7.5527 5.8164 7.8182 7.8182 0 0 0 7.8184-7.8184 7.8182 7.8182 0 0 0-7.8184-7.8184 7.8182 7.8182 0 0 0-7.5488 5.8203h-3.5332a11.27 11.27 0 0 1 11.082-9.2734zm-146 0.18164v3.5352a7.8182 7.8182 0 0 0-5.5527 5.5566h-3.5332a11.27 11.27 0 0 1 9.0859-9.0918zm3.9922 6e-3a11.27 11.27 0 0 1 9.0918 9.0859h-3.5332a7.8182 7.8182 0 0 0-5.5586-5.5508zm-109.08 13.086h3.5332a7.8182 7.8182 0 0 0 7.5527 5.8164 7.8182 7.8182 0 0 0 7.5469-5.8164h3.5332a11.27 11.27 0 0 1-11.08 9.2674 11.27 11.27 0 0 1-11.086-9.2676zm48 0h3.5332a7.8182 7.8182 0 0 0 7.5527 5.8164 7.8182 7.8182 0 0 0 7.5469-5.8164h3.5332a11.27 11.27 0 0 1-11.08 9.2674 11.27 11.27 0 0 1-11.086-9.2676zm48 0h3.5332a7.8182 7.8182 0 0 0 5.5566 5.5469v3.5332a11.27 11.27 0 0 1-9.0898-9.0801zm18.633 0h3.5332a11.27 11.27 0 0 1-9.084 9.0859v-3.5332a7.8182 7.8182 0 0 0 5.5508-5.5527zm29.367 0h3.5332a7.8182 7.8182 0 0 0 7.5527 5.8164 7.8182 7.8182 0 0 0 7.5469-5.8164h3.5332a11.27 11.27 0 0 1-11.08 9.2674 11.27 11.27 0 0 1-11.086-9.2676zm48 0h3.5332a7.8182 7.8182 0 0 0 7.5527 5.8164 7.8182 7.8182 0 0 0 7.5469-5.8164h3.5332a11.27 11.27 0 0 1-11.08 9.2674 11.27 11.27 0 0 1-11.086-9.2676zm-180.91 36.506a11.27 11.27 0 0 1 11.086 9.2695h-3.5312a7.8182 7.8182 0 0 0-7.5547-5.8184 7.8182 7.8182 0 0 0-7.8184 7.8184 7.8182 7.8182 0 0 0 7.8184 7.8184 7.8182 7.8182 0 0 0 7.5488-5.8184h3.5312a11.27 11.27 0 0 1-11.08 9.2695 11.27 11.27 0 0 1-11.27-11.27 11.27 11.27 0 0 1 11.27-11.27zm48 0a11.27 11.27 0 0 1 11.086 9.2695h-3.5312a7.8182 7.8182 0 0 0-7.5547-5.8184 7.8182 7.8182 0 0 0-7.5488 5.8184h-3.5312a11.27 11.27 0 0 1 11.08-9.2695zm96 0a11.27 11.27 0 0 1 11.086 9.2695h-3.5312a7.8182 7.8182 0 0 0-7.5547-5.8184 7.8182 7.8182 0 0 0-7.5488 5.8184h-3.5312a11.27 11.27 0 0 1 11.08-9.2695zm48 0a11.27 11.27 0 0 1 11.27 11.27 11.27 11.27 0 0 1-11.27 11.27 11.27 11.27 0 0 1-11.086-9.2695h3.5312a7.8182 7.8182 0 0 0 7.5547 5.8184 7.8182 7.8182 0 0 0 7.8184-7.8184 7.8182 7.8182 0 0 0-7.8184-7.8184 7.8182 7.8182 0 0 0-7.5488 5.8184h-3.5312a11.27 11.27 0 0 1 11.08-9.2695zm-97.996 0.18164v3.5332a7.8182 7.8182 0 0 0-5.5527 5.5547h-3.5312a11.27 11.27 0 0 1 9.084-9.0879zm3.9922 6e-3a11.27 11.27 0 0 1 9.0898 9.082h-3.5312a7.8182 7.8182 0 0 0-5.5586-5.5488zm-61.082 13.082h3.5312a7.8182 7.8182 0 0 0 7.5547 5.8184 7.8182 7.8182 0 0 0 7.5488-5.8184h3.5312a11.27 11.27 0 0 1-11.08 9.2694 11.27 11.27 0 0 1-11.086-9.2695zm48 0h3.5312a7.8182 7.8182 0 0 0 5.5586 5.5488v3.5332a11.27 11.27 0 0 1-9.0898-9.082zm18.635 0h3.5312a11.27 11.27 0 0 1-9.084 9.0879v-3.5332a7.8182 7.8182 0 0 0 5.5527-5.5547zm29.365 0h3.5312a7.8182 7.8182 0 0 0 7.5547 5.8184 7.8182 7.8182 0 0 0 7.5488-5.8184h3.5312a11.27 11.27 0 0 1-11.08 9.2694 11.27 11.27 0 0 1-11.086-9.2695zm-180.91 36.508a11.27 11.27 0 0 1 11.086 9.2676h-3.5332a7.8182 7.8182 0 0 0-7.5527-5.8164 7.8182 7.8182 0 0 0-7.8184 7.8184 7.8182 7.8182 0 0 0 7.8184 7.8184 7.8182 7.8182 0 0 0 7.5488-5.8184h3.5312a11.27 11.27 0 0 1-11.08 9.2695 11.27 11.27 0 0 1-11.27-11.27 11.27 11.27 0 0 1 11.27-11.27zm48 0a11.27 11.27 0 0 1 11.086 9.2676h-3.5332a7.8182 7.8182 0 0 0-7.5527-5.8164 7.8182 7.8182 0 0 0-7.5469 5.8164h-3.5332a11.27 11.27 0 0 1 11.08-9.2676zm48 0a11.27 11.27 0 0 1 11.086 9.2676h-3.5332a7.8182 7.8182 0 0 0-7.5527-5.8164 7.8182 7.8182 0 0 0-7.5469 5.8164h-3.5332a11.27 11.27 0 0 1 11.08-9.2676zm96 0a11.27 11.27 0 0 1 11.086 9.2676h-3.5332a7.8182 7.8182 0 0 0-7.5527-5.8164 7.8182 7.8182 0 0 0-7.5469 5.8164h-3.5332a11.27 11.27 0 0 1 11.08-9.2676zm48 0a11.27 11.27 0 0 1 11.086 9.2676h-3.5332a7.8182 7.8182 0 0 0-7.5527-5.8164 7.8182 7.8182 0 0 0-7.5469 5.8164h-3.5332a11.27 11.27 0 0 1 11.08-9.2676zm48 0a11.27 11.27 0 0 1 11.27 11.27 11.27 11.27 0 0 1-11.27 11.27 11.27 11.27 0 0 1-11.086-9.2695h3.5312a7.8182 7.8182 0 0 0 7.5547 5.8184 7.8182 7.8182 0 0 0 7.8184-7.8184 7.8182 7.8182 0 0 0-7.8184-7.8184 7.8182 7.8182 0 0 0-7.5469 5.8164h-3.5332a11.27 11.27 0 0 1 11.08-9.2676zm-146 0.18164v3.5332a7.8182 7.8182 0 0 0-5.5508 5.5527h-3.5332a11.27 11.27 0 0 1 9.084-9.0859zm3.9922 6e-3a11.27 11.27 0 0 1 9.0898 9.0801h-3.5332a7.8182 7.8182 0 0 0-5.5566-5.5469zm-109.08 13.082h3.5312a7.8182 7.8182 0 0 0 7.5547 5.8184 7.8182 7.8182 0 0 0 7.5488-5.8184h3.5312a11.27 11.27 0 0 1-11.08 9.2694 11.27 11.27 0 0 1-11.086-9.2695zm48 0h3.5312a7.8182 7.8182 0 0 0 7.5547 5.8184 7.8182 7.8182 0 0 0 7.5488-5.8184h3.5312a11.27 11.27 0 0 1-11.08 9.2694 11.27 11.27 0 0 1-11.086-9.2695zm48 0h3.5312a7.8182 7.8182 0 0 0 5.5586 5.5488v3.5332a11.27 11.27 0 0 1-9.0898-9.082zm18.635 0h3.5312a11.27 11.27 0 0 1-9.084 9.0879v-3.5332a7.8182 7.8182 0 0 0 5.5527-5.5547zm29.365 0h3.5312a7.8182 7.8182 0 0 0 7.5547 5.8184 7.8182 7.8182 0 0 0 7.5488-5.8184h3.5312a11.27 11.27 0 0 1-11.08 9.2694 11.27 11.27 0 0 1-11.086-9.2695zm48 0h3.5312a7.8182 7.8182 0 0 0 7.5547 5.8184 7.8182 7.8182 0 0 0 7.5488-5.8184h3.5312a11.27 11.27 0 0 1-11.08 9.2694 11.27 11.27 0 0 1-11.086-9.2695zm-276.91 36.508a11.27 11.27 0 0 1 11.086 9.2676h-3.5332a7.8182 7.8182 0 0 0-7.5527-5.8164 7.8182 7.8182 0 0 0-7.8184 7.8184 7.8182 7.8182 0 0 0 7.8184 7.8184 7.8182 7.8182 0 0 0 7.5488-5.8203h3.5332a11.27 11.27 0 0 1-11.082 9.2734 11.27 11.27 0 0 1-11.27-11.271 11.27 11.27 0 0 1 11.27-11.27zm48 0a11.27 11.27 0 0 1 11.086 9.2676h-3.5332a7.8182 7.8182 0 0 0-7.5527-5.8164 7.8182 7.8182 0 0 0-7.5469 5.8164h-3.5332a11.27 11.27 0 0 1 11.08-9.2676zm48 0a11.27 11.27 0 0 1 11.086 9.2676h-3.5332a7.8182 7.8182 0 0 0-7.5527-5.8164 7.8182 7.8182 0 0 0-7.5469 5.8164h-3.5332a11.27 11.27 0 0 1 11.08-9.2676zm48 0a11.27 11.27 0 0 1 11.086 9.2676h-3.5332a7.8182 7.8182 0 0 0-7.5527-5.8164 7.8182 7.8182 0 0 0-7.5469 5.8164h-3.5332a11.27 11.27 0 0 1 11.08-9.2676zm96 0a11.27 11.27 0 0 1 11.086 9.2676h-3.5332a7.8182 7.8182 0 0 0-7.5527-5.8164 7.8182 7.8182 0 0 0-7.5469 5.8164h-3.5332a11.27 11.27 0 0 1 11.08-9.2676zm48 0a11.27 11.27 0 0 1 11.086 9.2676h-3.5332a7.8182 7.8182 0 0 0-7.5527-5.8164 7.8182 7.8182 0 0 0-7.5469 5.8164h-3.5332a11.27 11.27 0 0 1 11.08-9.2676zm48 0a11.27 11.27 0 0 1 11.086 9.2676h-3.5332a7.8182 7.8182 0 0 0-7.5527-5.8164 7.8182 7.8182 0 0 0-7.5469 5.8164h-3.5332a11.27 11.27 0 0 1 11.08-9.2676zm48 0a11.27 11.27 0 0 1 11.27 11.27 11.27 11.27 0 0 1-11.27 11.271 11.27 11.27 0 0 1-11.088-9.2734h3.5332a7.8182 7.8182 0 0 0 7.5547 5.8203 7.8182 7.8182 0 0 0 7.8184-7.8184 7.8182 7.8182 0 0 0-7.8184-7.8184 7.8182 7.8182 0 0 0-7.5469 5.8164h-3.5332a11.27 11.27 0 0 1 11.08-9.2676zm-194 0.18164v3.5332a7.8182 7.8182 0 0 0-5.5508 5.5527h-3.5332a11.27 11.27 0 0 1 9.084-9.0859zm3.9922 6e-3a11.27 11.27 0 0 1 9.0898 9.0801h-3.5332a7.8182 7.8182 0 0 0-5.5566-5.5469zm-157.08 13.08h3.5332a7.8182 7.8182 0 0 0 7.5547 5.8203 7.8182 7.8182 0 0 0 7.5488-5.8203h3.5332a11.27 11.27 0 0 1-11.082 9.2733 11.27 11.27 0 0 1-11.088-9.2734zm48 0h3.5332a7.8182 7.8182 0 0 0 7.5547 5.8203 7.8182 7.8182 0 0 0 7.5488-5.8203h3.5332a11.27 11.27 0 0 1-11.082 9.2733 11.27 11.27 0 0 1-11.088-9.2734zm48 0h3.5332a7.8182 7.8182 0 0 0 7.5547 5.8203 7.8182 7.8182 0 0 0 7.5488-5.8203h3.5332a11.27 11.27 0 0 1-11.082 9.2733 11.27 11.27 0 0 1-11.088-9.2734zm48 0h3.5332a7.8182 7.8182 0 0 0 5.5586 5.5508v3.535a11.27 11.27 0 0 1-9.0918-9.0859zm18.637 0h3.5332a11.27 11.27 0 0 1-9.0859 9.0918v-3.5352a7.8182 7.8182 0 0 0 5.5527-5.5566zm29.363 0h3.5332a7.8182 7.8182 0 0 0 7.5547 5.8203 7.8182 7.8182 0 0 0 7.5488-5.8203h3.5332a11.27 11.27 0 0 1-11.082 9.2733 11.27 11.27 0 0 1-11.088-9.2734zm48 0h3.5332a7.8182 7.8182 0 0 0 7.5547 5.8203 7.8182 7.8182 0 0 0 7.5488-5.8203h3.5332a11.27 11.27 0 0 1-11.082 9.2733 11.27 11.27 0 0 1-11.088-9.2734zm48 0h3.5332a7.8182 7.8182 0 0 0 7.5547 5.8203 7.8182 7.8182 0 0 0 7.5488-5.8203h3.5332a11.27 11.27 0 0 1-11.082 9.2733 11.27 11.27 0 0 1-11.088-9.2734zm-134.91 36.691v3.5352a7.8182 7.8182 0 0 0-5.8223 7.5547 7.8182 7.8182 0 0 0 5.8223 7.5488v3.5332a11.27 11.27 0 0 1-9.2734-11.082 11.27 11.27 0 0 1 9.2734-11.09zm3.9922 6e-3a11.27 11.27 0 0 1 9.2734 11.084 11.27 11.27 0 0 1-9.2734 11.088v-3.5335a7.8182 7.8182 0 0 0 5.8223-7.5547 7.8182 7.8182 0 0 0-5.8223-7.5508zm-3.9922 49.773v3.5332a7.8182 7.8182 0 0 0-5.8223 7.5547 7.8182 7.8182 0 0 0 5.8223 7.5488v3.5332a11.27 11.27 0 0 1-9.2734-11.082 11.27 11.27 0 0 1 9.2734-11.088zm3.9922 6e-3a11.27 11.27 0 0 1 9.2734 11.082 11.27 11.27 0 0 1-9.2734 11.088v-3.5332a7.8182 7.8182 0 0 0 5.8223-7.5547 7.8182 7.8182 0 0 0-5.8223-7.5488zm-3.9922 49.771v3.5332a7.8182 7.8182 0 0 0-5.8223 7.5543 7.8182 7.8182 0 0 0 7.8184 7.8184 7.8182 7.8182 0 0 0 7.8184-7.8184 7.8182 7.8182 0 0 0-5.8223-7.5488v-3.5332a11.27 11.27 0 0 1 9.2734 11.082 11.27 11.27 0 0 1-11.27 11.27 11.27 11.27 0 0 1-11.27-11.27 11.27 11.27 0 0 1 9.2734-11.088z" fill="#c79a40" opacity="1" style="paint-order:normal"/>
   <g stroke="#c79a40" stroke-linecap="round" stroke-linejoin="bevel" stroke-opacity=".6549">
    <path transform="scale(.26458)" d="m64 314.67a16 16 0 0 0-16 16 16 16 0 0 0 16 16 16 16 0 0 0 15.855-14.002h16.285a16 16 0 0 0 15.859 14.002 16 16 0 0 0 15.855-14.002h16.285a16 16 0 0 0 15.859 14.002 16 16 0 0 0 15.855-14.002h16.285a16 16 0 0 0 15.859 14.002 16 16 0 0 0 15.855-14.002h0.14453v-4h-0.14062a16 16 0 0 0-15.859-13.998 16 16 0 0 0-15.854 13.998h-16.287a16 16 0 0 0-15.859-13.998 16 16 0 0 0-15.854 13.998h-16.287a16 16 0 0 0-15.859-13.998 16 16 0 0 0-15.854 13.998h-16.287a16 16 0 0 0-15.859-13.998zm0 4.7305a11.27 11.27 0 0 1 11.086 9.2676h-3.5332a7.8182 7.8182 0 0 0-7.5527-5.8164 7.8182 7.8182 0 0 0-7.8184 7.8184 7.8182 7.8182 0 0 0 7.8184 7.8184 7.8182 7.8182 0 0 0 7.5488-5.8203h3.5332a11.27 11.27 0 0 1-11.082 9.2734 11.27 11.27 0 0 1-11.27-11.271 11.27 11.27 0 0 1 11.27-11.27zm48 0a11.27 11.27 0 0 1 11.086 9.2676h-3.5332a7.8182 7.8182 0 0 0-7.5527-5.8164 7.8182 7.8182 0 0 0-7.5469 5.8164h-3.5332a11.27 11.27 0 0 1 11.08-9.2676zm48 0a11.27 11.27 0 0 1 11.086 9.2676h-3.5332a7.8182 7.8182 0 0 0-7.5527-5.8164 7.8182 7.8182 0 0 0-7.5469 5.8164h-3.5332a11.27 11.27 0 0 1 11.08-9.2676zm48 0a11.27 11.27 0 0 1 11.086 9.2676h-3.5332a7.8182 7.8182 0 0 0-7.5527-5.8164 7.8182 7.8182 0 0 0-7.5469 5.8164h-3.5332a11.27 11.27 0 0 1 11.08-9.2676zm-107.09 13.268h3.5332a7.8182 7.8182 0 0 0 7.5547 5.8203 7.8182 7.8182 0 0 0 7.5488-5.8203h3.5332a11.27 11.27 0 0 1-11.082 9.2734 11.27 11.27 0 0 1-11.088-9.2734zm48 0h3.5332a7.8182 7.8182 0 0 0 7.5547 5.8203 7.8182 7.8182 0 0 0 7.5488-5.8203h3.5332a11.27 11.27 0 0 1-11.082 9.2734 11.27 11.27 0 0 1-11.088-9.2734zm48 0h3.5332a7.8182 7.8182 0 0 0 7.5547 5.8203 7.8182 7.8182 0 0 0 7.5488-5.8203h3.5332a11.27 11.27 0 0 1-11.082 9.2734 11.27 11.27 0 0 1-11.088-9.2734z" fill="#c76940" opacity=".75" style="paint-order:normal"/>
    <path d="m118.65 83.08a4.2333 4.2333 0 0 1 4.2333 4.2333 4.2333 4.2333 0 0 1-4.2333 4.2333 4.2333 4.2333 0 0 1-4.1951-3.7047h-4.3088a4.2333 4.2333 0 0 1-4.1961 3.7047 4.2333 4.2333 0 0 1-4.1951-3.7047h-4.3088a4.2333 4.2333 0 0 1-4.1961 3.7047 4.2333 4.2333 0 0 1-4.1951-3.7047h-4.3088a4.2333 4.2333 0 0 1-4.1961 3.7047 4.2333 4.2333 0 0 1-4.1951-3.7047h-0.0382v-1.0583h0.0372a4.2333 4.2333 0 0 1 4.1961-3.7036 4.2333 4.2333 0 0 1 4.1946 3.7036h4.3093a4.2333 4.2333 0 0 1 4.1961-3.7036 4.2333 4.2333 0 0 1 4.1946 3.7036h4.3093a4.2333 4.2333 0 0 1 4.1961-3.7036 4.2333 4.2333 0 0 1 4.1946 3.7036h4.3093a4.2333 4.2333 0 0 1 4.1961-3.7036zm0 1.2516a2.9818 2.9818 0 0 0-2.9332 2.452h0.93483a2.0686 2.0686 0 0 1 1.9983-1.5389 2.0686 2.0686 0 0 1 2.0686 2.0686 2.0686 2.0686 0 0 1-2.0686 2.0686 2.0686 2.0686 0 0 1-1.9973-1.54h-0.93482a2.9818 2.9818 0 0 0 2.9321 2.4536 2.9818 2.9818 0 0 0 2.9817-2.9822 2.9818 2.9818 0 0 0-2.9817-2.9817zm-12.7 0a2.9818 2.9818 0 0 0-2.9332 2.452h0.93483a2.0686 2.0686 0 0 1 1.9983-1.5389 2.0686 2.0686 0 0 1 1.9968 1.5389h0.93482a2.9818 2.9818 0 0 0-2.9316-2.452zm-12.7 0a2.9818 2.9818 0 0 0-2.9332 2.452h0.93483a2.0686 2.0686 0 0 1 1.9983-1.5389 2.0686 2.0686 0 0 1 1.9968 1.5389h0.93482a2.9818 2.9818 0 0 0-2.9316-2.452zm-12.7 0a2.9818 2.9818 0 0 0-2.9332 2.452h0.93483a2.0686 2.0686 0 0 1 1.9983-1.5389 2.0686 2.0686 0 0 1 1.9968 1.5389h0.93482a2.9818 2.9818 0 0 0-2.9316-2.452zm28.334 3.5104h-0.93483a2.0686 2.0686 0 0 1-1.9988 1.54 2.0686 2.0686 0 0 1-1.9973-1.54h-0.93482a2.9818 2.9818 0 0 0 2.9321 2.4536 2.9818 2.9818 0 0 0 2.9337-2.4536zm-12.7 0h-0.93483a2.0686 2.0686 0 0 1-1.9988 1.54 2.0686 2.0686 0 0 1-1.9973-1.54h-0.93482a2.9818 2.9818 0 0 0 2.9321 2.4536 2.9818 2.9818 0 0 0 2.9337-2.4536zm-12.7 0h-0.93483a2.0686 2.0686 0 0 1-1.9988 1.54 2.0686 2.0686 0 0 1-1.9973-1.54h-0.93482a2.9818 2.9818 0 0 0 2.9321 2.4536 2.9818 2.9818 0 0 0 2.9337-2.4536z" fill="#c78f40" opacity=".75" stroke-width=".26458" style="paint-order:normal"/>
    <path transform="scale(.26458)" d="m304 264.89a16 16 0 0 0-15.854 13.998h-0.14648v4.002h0.14062a16 16 0 0 0 10.643 13.111h10.402a16 16 0 0 0 10.668-13.111h16.287a16 16 0 0 0 10.643 13.111h10.402a16 16 0 0 0 10.668-13.111h16.287a16 16 0 0 0 10.643 13.111h10.422a16 16 0 0 0 10.795-15.111 16 16 0 0 0-16-16 16 16 0 0 0-15.854 13.998h-16.287a16 16 0 0 0-15.859-13.998 16 16 0 0 0-15.854 13.998h-16.287a16 16 0 0 0-15.859-13.998zm0 4.7305a11.27 11.27 0 0 1 11.086 9.2676h-3.5332a7.8182 7.8182 0 0 0-7.5527-5.8164 7.8182 7.8182 0 0 0-7.5469 5.8164h-3.5332a11.27 11.27 0 0 1 11.08-9.2676zm48 0a11.27 11.27 0 0 1 11.086 9.2676h-3.5332a7.8182 7.8182 0 0 0-7.5527-5.8164 7.8182 7.8182 0 0 0-7.5469 5.8164h-3.5332a11.27 11.27 0 0 1 11.08-9.2676zm48 0a11.27 11.27 0 0 1 11.27 11.27 11.27 11.27 0 0 1-11.27 11.27 11.27 11.27 0 0 1-11.086-9.2695h3.5312a7.8182 7.8182 0 0 0 7.5547 5.8184 7.8182 7.8182 0 0 0 7.8184-7.8184 7.8182 7.8182 0 0 0-7.8184-7.8184 7.8182 7.8182 0 0 0-7.5469 5.8164h-3.5332a11.27 11.27 0 0 1 11.08-9.2676zm-107.09 13.27h3.5312a7.8182 7.8182 0 0 0 7.5547 5.8184 7.8182 7.8182 0 0 0 7.5488-5.8184h3.5312a11.27 11.27 0 0 1-11.08 9.2695 11.27 11.27 0 0 1-11.086-9.2695zm48 0h3.5312a7.8182 7.8182 0 0 0 7.5547 5.8184 7.8182 7.8182 0 0 0 7.5488-5.8184h3.5312a11.27 11.27 0 0 1-11.08 9.2695 11.27 11.27 0 0 1-11.086-9.2695z" fill="#c7af40" opacity=".75" style="paint-order:normal"/>
    <g stroke-width=".26458">
     <path d="m55.033 69.968a4.2333 4.2333 0 0 1 4.1946 3.7036h0.03876v1.0588h-0.03721a4.2333 4.2333 0 0 1-2.8158 3.469h-2.7523a4.2333 4.2333 0 0 1-2.8226-3.469h-4.3093a4.2333 4.2333 0 0 1-2.8158 3.469h-2.7523a4.2333 4.2333 0 0 1-2.8226-3.469h-4.3093a4.2333 4.2333 0 0 1-2.8158 3.469h-2.7575a4.2333 4.2333 0 0 1-2.8562-3.9982 4.2333 4.2333 0 0 1 4.2333-4.2333 4.2333 4.2333 0 0 1 4.1946 3.7036h4.3093a4.2333 4.2333 0 0 1 4.1961-3.7036 4.2333 4.2333 0 0 1 4.1946 3.7036h4.3093a4.2333 4.2333 0 0 1 4.1961-3.7036zm0 1.2516a2.9818 2.9818 0 0 0-2.9332 2.452h0.93483a2.0686 2.0686 0 0 1 1.9983-1.5389 2.0686 2.0686 0 0 1 1.9968 1.5389h0.93483a2.9818 2.9818 0 0 0-2.9316-2.452zm-12.7 0a2.9818 2.9818 0 0 0-2.9332 2.452h0.93483a2.0686 2.0686 0 0 1 1.9983-1.5389 2.0686 2.0686 0 0 1 1.9968 1.5389h0.93483a2.9818 2.9818 0 0 0-2.9316-2.452zm-12.7 0a2.9818 2.9818 0 0 0-2.9817 2.9817 2.9818 2.9818 0 0 0 2.9817 2.9817 2.9818 2.9818 0 0 0 2.9332-2.4526h-0.93431a2.0686 2.0686 0 0 1-1.9988 1.5394 2.0686 2.0686 0 0 1-2.0686-2.0686 2.0686 2.0686 0 0 1 2.0686-2.0686 2.0686 2.0686 0 0 1 1.9968 1.5389h0.93483a2.9818 2.9818 0 0 0-2.9316-2.452zm28.333 3.5109h-0.93431a2.0686 2.0686 0 0 1-1.9988 1.5394 2.0686 2.0686 0 0 1-1.9973-1.5394h-0.93431a2.9818 2.9818 0 0 0 2.9316 2.4526 2.9818 2.9818 0 0 0 2.9332-2.4526zm-12.7 0h-0.93431a2.0686 2.0686 0 0 1-1.9988 1.5394 2.0686 2.0686 0 0 1-1.9973-1.5394h-0.93431a2.9818 2.9818 0 0 0 2.9316 2.4526 2.9818 2.9818 0 0 0 2.9332-2.4526z" fill="#c3c740" opacity=".75" style="paint-order:normal"/>
     <path d="m55.153 43.921a4.2333 4.2333 0 0 1 4.1946 3.7036h0.03876v1.0588h-0.03721a4.2333 4.2333 0 0 1-2.8158 3.469h-2.7523a4.2333 4.2333 0 0 1-2.8226-3.469h-4.3093a4.2333 4.2333 0 0 1-2.8158 3.469h-2.7523a4.2333 4.2333 0 0 1-2.8226-3.469h-4.3093a4.2333 4.2333 0 0 1-2.8158 3.469h-2.7575a4.2333 4.2333 0 0 1-2.8562-3.9982 4.2333 4.2333 0 0 1 4.2333-4.2333 4.2333 4.2333 0 0 1 4.1946 3.7036h4.3093a4.2333 4.2333 0 0 1 4.1961-3.7036 4.2333 4.2333 0 0 1 4.1946 3.7036h4.3093a4.2333 4.2333 0 0 1 4.1961-3.7036zm0 1.2516a2.9818 2.9818 0 0 0-2.9332 2.452h0.93483a2.0686 2.0686 0 0 1 1.9983-1.5389 2.0686 2.0686 0 0 1 1.9968 1.5389h0.93483a2.9818 2.9818 0 0 0-2.9316-2.452zm-12.7 0a2.9818 2.9818 0 0 0-2.9332 2.452h0.93483a2.0686 2.0686 0 0 1 1.9983-1.5389 2.0686 2.0686 0 0 1 1.9968 1.5389h0.93483a2.9818 2.9818 0 0 0-2.9316-2.452zm-12.7 0a2.9818 2.9818 0 0 0-2.9817 2.9817 2.9818 2.9818 0 0 0 2.9817 2.9817 2.9818 2.9818 0 0 0 2.9332-2.4526h-0.93431a2.0686 2.0686 0 0 1-1.9988 1.5394 2.0686 2.0686 0 0 1-2.0686-2.0686 2.0686 2.0686 0 0 1 2.0686-2.0686 2.0686 2.0686 0 0 1 1.9968 1.5389h0.93483a2.9818 2.9818 0 0 0-2.9316-2.452zm28.333 3.5109h-0.93431a2.0686 2.0686 0 0 1-1.9988 1.5394 2.0686 2.0686 0 0 1-1.9973-1.5394h-0.93431a2.9818 2.9818 0 0 0 2.9316 2.4526 2.9818 2.9818 0 0 0 2.9332-2.4526zm-12.7 0h-0.93431a2.0686 2.0686 0 0 1-1.9988 1.5394 2.0686 2.0686 0 0 1-1.9973-1.5394h-0.93431a2.9818 2.9818 0 0 0 2.9316 2.4526 2.9818 2.9818 0 0 0 2.9332-2.4526z" fill="#c74c40" opacity=".75" style="paint-order:normal"/>
     <path d="m80.553 43.921a4.2333 4.2333 0 0 0-4.1946 3.7036h-0.03876v1.0588h0.03721a4.2333 4.2333 0 0 0 2.8158 3.469h2.7523a4.2333 4.2333 0 0 0 2.8226-3.469h4.3093a4.2333 4.2333 0 0 0 2.8158 3.469h2.7523a4.2333 4.2333 0 0 0 2.8226-3.469h4.3093a4.2333 4.2333 0 0 0 2.8158 3.469h2.7574a4.2333 4.2333 0 0 0 2.8562-3.9982 4.2333 4.2333 0 0 0-4.2333-4.2333 4.2333 4.2333 0 0 0-4.1946 3.7036h-4.3093a4.2333 4.2333 0 0 0-4.1961-3.7036 4.2333 4.2333 0 0 0-4.1946 3.7036h-4.3093a4.2333 4.2333 0 0 0-4.1961-3.7036zm0 1.2516a2.9818 2.9818 0 0 1 2.9332 2.452h-0.93483a2.0686 2.0686 0 0 0-1.9983-1.5389 2.0686 2.0686 0 0 0-1.9968 1.5389h-0.93483a2.9818 2.9818 0 0 1 2.9316-2.452zm12.7 0a2.9818 2.9818 0 0 1 2.9332 2.452h-0.93483a2.0686 2.0686 0 0 0-1.9983-1.5389 2.0686 2.0686 0 0 0-1.9968 1.5389h-0.93483a2.9818 2.9818 0 0 1 2.9316-2.452zm12.7 0a2.9818 2.9818 0 0 1 2.9817 2.9817 2.9818 2.9818 0 0 1-2.9817 2.9817 2.9818 2.9818 0 0 1-2.9332-2.4526h0.93431a2.0686 2.0686 0 0 0 1.9988 1.5394 2.0686 2.0686 0 0 0 2.0686-2.0686 2.0686 2.0686 0 0 0-2.0686-2.0686 2.0686 2.0686 0 0 0-1.9968 1.5389h-0.93483a2.9818 2.9818 0 0 1 2.9316-2.452zm-28.333 3.5109h0.93431a2.0686 2.0686 0 0 0 1.9988 1.5394 2.0686 2.0686 0 0 0 1.9973-1.5394h0.93431a2.9818 2.9818 0 0 1-2.9316 2.4526 2.9818 2.9818 0 0 1-2.9332-2.4526zm12.7 0h0.93431a2.0686 2.0686 0 0 0 1.9988 1.5394 2.0686 2.0686 0 0 0 1.9973-1.5394h0.93431a2.9818 2.9818 0 0 1-2.9316 2.4526 2.9818 2.9818 0 0 1-2.9332-2.4526z" fill="#c7ba40" opacity=".75" style="paint-order:normal"/>
    </g>
    <path transform="scale(.26458)" d="m160 215.11a16 16 0 0 0-16 16 16 16 0 0 0 16 16 16 16 0 0 0 15.854-14h16.287a16 16 0 0 0 15.859 14 16 16 0 0 0 15.854-14h0.14648v-4h-0.14062a16 16 0 0 0-15.859-14 16 16 0 0 0-15.854 14h-16.287a16 16 0 0 0-15.859-14zm0 4.7305a11.27 11.27 0 0 1 11.086 9.2695h-3.5312a7.8182 7.8182 0 0 0-7.5547-5.8184 7.8182 7.8182 0 0 0-7.8184 7.8184 7.8182 7.8182 0 0 0 7.8184 7.8184 7.8182 7.8182 0 0 0 7.5488-5.8184h3.5312a11.27 11.27 0 0 1-11.08 9.2695 11.27 11.27 0 0 1-11.27-11.27 11.27 11.27 0 0 1 11.27-11.27zm48 0a11.27 11.27 0 0 1 11.086 9.2695h-3.5312a7.8182 7.8182 0 0 0-7.5547-5.8184 7.8182 7.8182 0 0 0-7.5488 5.8184h-3.5312a11.27 11.27 0 0 1 11.08-9.2695zm-11.086 13.27h3.5312a7.8182 7.8182 0 0 0 7.5547 5.8184 7.8182 7.8182 0 0 0 7.5488-5.8184h3.5312a11.27 11.27 0 0 1-11.08 9.2695 11.27 11.27 0 0 1-11.086-9.2695z" fill="#c79340" opacity=".75" style="paint-order:normal"/>
    <g stroke-width=".26458">
     <path d="m93.133 56.915a4.2333 4.2333 0 0 1 4.2333 4.2333 4.2333 4.2333 0 0 1-4.2333 4.2333 4.2333 4.2333 0 0 1-4.1946-3.7042h-4.3093a4.2333 4.2333 0 0 1-4.1961 3.7042 4.2333 4.2333 0 0 1-4.1946-3.7042h-0.03876v-1.0583h0.03721a4.2333 4.2333 0 0 1 4.1961-3.7042 4.2333 4.2333 0 0 1 4.1946 3.7042h4.3093a4.2333 4.2333 0 0 1 4.1961-3.7042zm0 1.2516a2.9818 2.9818 0 0 0-2.9332 2.4526h0.93431a2.0686 2.0686 0 0 1 1.9988-1.5394 2.0686 2.0686 0 0 1 2.0686 2.0686 2.0686 2.0686 0 0 1-2.0686 2.0686 2.0686 2.0686 0 0 1-1.9973-1.5394h-0.93431a2.9818 2.9818 0 0 0 2.9316 2.4526 2.9818 2.9818 0 0 0 2.9817-2.9817 2.9818 2.9818 0 0 0-2.9817-2.9817zm-12.7 0a2.9818 2.9818 0 0 0-2.9332 2.4526h0.93431a2.0686 2.0686 0 0 1 1.9988-1.5394 2.0686 2.0686 0 0 1 1.9973 1.5394h0.93431a2.9818 2.9818 0 0 0-2.9316-2.4526zm2.9332 3.5109h-0.93431a2.0686 2.0686 0 0 1-1.9988 1.5394 2.0686 2.0686 0 0 1-1.9973-1.5394h-0.93431a2.9818 2.9818 0 0 0 2.9316 2.4526 2.9818 2.9818 0 0 0 2.9332-2.4526z" fill="#c76540" opacity=".75" style="paint-order:normal"/>
     <path d="m93.133 30.574a4.2333 4.2333 0 0 1 4.2333 4.2333 4.2333 4.2333 0 0 1-4.2333 4.2333 4.2333 4.2333 0 0 1-4.1946-3.7042h-4.3093a4.2333 4.2333 0 0 1-4.1961 3.7042 4.2333 4.2333 0 0 1-4.1946-3.7042h-0.03876v-1.0583h0.03721a4.2333 4.2333 0 0 1 4.1961-3.7042 4.2333 4.2333 0 0 1 4.1946 3.7042h4.3093a4.2333 4.2333 0 0 1 4.1961-3.7042zm0 1.2516a2.9818 2.9818 0 0 0-2.9332 2.4526h0.93431a2.0686 2.0686 0 0 1 1.9988-1.5394 2.0686 2.0686 0 0 1 2.0686 2.0686 2.0686 2.0686 0 0 1-2.0686 2.0686 2.0686 2.0686 0 0 1-1.9973-1.5394h-0.93431a2.9818 2.9818 0 0 0 2.9316 2.4526 2.9818 2.9818 0 0 0 2.9817-2.9817 2.9818 2.9818 0 0 0-2.9817-2.9817zm-12.7 0a2.9818 2.9818 0 0 0-2.9332 2.4526h0.93431a2.0686 2.0686 0 0 1 1.9988-1.5394 2.0686 2.0686 0 0 1 1.9973 1.5394h0.93431a2.9818 2.9818 0 0 0-2.9316-2.4526zm2.9332 3.5109h-0.93431a2.0686 2.0686 0 0 1-1.9988 1.5394 2.0686 2.0686 0 0 1-1.9973-1.5394h-0.93431a2.9818 2.9818 0 0 0 2.9316 2.4526 2.9818 2.9818 0 0 0 2.9332-2.4526z" fill="#c76040" opacity=".75" style="paint-order:normal"/>
     <path d="m42.333 30.573a4.2333 4.2333 0 0 0-4.2333 4.2333 4.2333 4.2333 0 0 0 4.2333 4.2333 4.2333 4.2333 0 0 0 4.1946-3.7042h4.3093a4.2333 4.2333 0 0 0 4.1961 3.7042 4.2333 4.2333 0 0 0 4.1946-3.7042h0.03876v-1.0583h-0.03721a4.2333 4.2333 0 0 0-4.1961-3.7042 4.2333 4.2333 0 0 0-4.1946 3.7042h-4.3093a4.2333 4.2333 0 0 0-4.1961-3.7042zm0 1.2516a2.9818 2.9818 0 0 1 2.9332 2.4526h-0.93431a2.0686 2.0686 0 0 0-1.9988-1.5394 2.0686 2.0686 0 0 0-2.0686 2.0686 2.0686 2.0686 0 0 0 2.0686 2.0686 2.0686 2.0686 0 0 0 1.9973-1.5394h0.93431a2.9818 2.9818 0 0 1-2.9316 2.4526 2.9818 2.9818 0 0 1-2.9817-2.9817 2.9818 2.9818 0 0 1 2.9817-2.9817zm12.7 0a2.9818 2.9818 0 0 1 2.9332 2.4526h-0.93431a2.0686 2.0686 0 0 0-1.9988-1.5394 2.0686 2.0686 0 0 0-1.9973 1.5394h-0.93431a2.9818 2.9818 0 0 1 2.9316-2.4526zm-2.9332 3.5109h0.93431a2.0686 2.0686 0 0 0 1.9988 1.5394 2.0686 2.0686 0 0 0 1.9973-1.5394h0.93431a2.9818 2.9818 0 0 1-2.9316 2.4526 2.9818 2.9818 0 0 1-2.9332-2.4526z" fill="#c7a740" opacity=".75" style="paint-order:normal"/>
    </g>
    <path transform="scale(.26458)" d="m208 65.777a16 16 0 0 0-16 16 16 16 0 0 0 16 16 16 16 0 0 0 15.854-14h1.6562v-4.002h-1.6504a16 16 0 0 0-15.859-13.998zm0 4.7305a11.27 11.27 0 0 1 11.086 9.2676h-3.5332a7.8182 7.8182 0 0 0-7.5527-5.8164 7.8182 7.8182 0 0 0-7.8184 7.8184 7.8182 7.8182 0 0 0 7.8184 7.8184 7.8182 7.8182 0 0 0 7.5488-5.8184h3.5332a11.27 11.27 0 0 1-11.082 9.2695 11.27 11.27 0 0 1-11.27-11.27 11.27 11.27 0 0 1 11.27-11.27z" fill="#c76640" opacity=".75" style="paint-order:normal"/>
    <path d="m80.435 17.404a4.2333 4.2333 0 0 1 4.2333 4.2333 4.2333 4.2333 0 0 1-4.2333 4.2333 4.2333 4.2333 0 0 1-4.1946-3.7042h-0.43822v-1.0588h0.43667a4.2333 4.2333 0 0 1 4.1961-3.7036zm0 1.2516a2.9818 2.9818 0 0 0-2.9332 2.452h0.93483a2.0686 2.0686 0 0 1 1.9983-1.5389 2.0686 2.0686 0 0 1 2.0686 2.0686 2.0686 2.0686 0 0 1-2.0686 2.0686 2.0686 2.0686 0 0 1-1.9973-1.5394h-0.93483a2.9818 2.9818 0 0 0 2.9321 2.4526 2.9818 2.9818 0 0 0 2.9817-2.9817 2.9818 2.9818 0 0 0-2.9817-2.9817z" fill="#c78b40" opacity=".75" stroke-width=".26458" style="paint-order:normal"/>
   </g>
  </g>
 </g>
</svg>
