<?xml version="1.0" encoding="UTF-8"?>
<svg width="512" height="512" version="1.1" viewBox="0 0 4.2333 4.2333" xmlns="http://www.w3.org/2000/svg">
 <g>
  <path d="m1.8521 0.26458h-0.79375v2.9104h2.1167v-0.79375h-1.3229z" fill="#6be2ff"/>
  <path d="m1.0583 0.26458c0.091046 0.08154 0.24125 0.025053 0.26458 0.26458v2.3813c-0.012715 0.23915-0.15786 0.21344-0.26458 0.26458z" fill="#5df"/>
  <path d="m1.8521 0.26458c-0.10113 0.070945-0.23357 0.10015-0.26458 0.26458v2.1167c0.11021-0.050457 0.23887-0.069279 0.26458-0.26458z" fill="#2ad4ff"/>
  <path d="m1.8521 0.26458-0.26458 0.26458h-0.26458l-0.26458-0.26458z" fill="#80e5ff"/>
  <path d="m1.5875 2.6458 0.26458-0.26458h1.3229c-0.062525 0.1113-0.083545 0.25995-0.26458 0.26458z" fill="#5df"/>
  <path d="m3.175 3.175c-0.078015-0.13909-0.1614-0.25134-0.26458-0.26458h-1.5875l-0.26458 0.26458z" fill="#00aad4"/>
  <path d="m3.175 3.175v-0.79375l-0.26458 0.26458v0.26458z" fill="#2ad4ff"/>
 </g>
</svg>
