<?xml version="1.0" encoding="UTF-8"?>
<svg width="512" height="512" version="1.1" viewBox="0 0 4.2333 4.2333" xmlns="http://www.w3.org/2000/svg">
 <g transform="translate(0 -292.77)">
  <path transform="matrix(.26458 0 0 .26458 0 292.77)" d="m13 13c0.98344 0.37058 1.9752 0.72238 3 1v-13l-2-1v1z" fill="#06f"/>
  <path transform="matrix(.26458 0 0 .26458 0 292.77)" d="m0 1v13c1.019-0.25749 2.0417-0.50004 3-1l-1-12v-1z" fill="#acf"/>
  <path transform="matrix(.26458 0 0 .26458 0 292.77)" d="m3 13c-0.372 0.98066-0.74945 1.9586-1 3h12c-0.32447-1.0111-0.63643-2.0378-1-3z" fill="#59f"/>
  <path transform="translate(0 292.77)" d="m0.52917 4.2333 0.17622-0.52917-0.17622-0.17622-0.52917 0.17622z" fill="#80b3ff"/>
  <path transform="translate(0 292.77)" d="m3.7042 4.2333-0.17622-0.52917c0.043931-0.066712 0.096673-0.12868 0.17622-0.17622l0.52917 0.17622z" fill="#2a7fff"/>
  <path transform="matrix(.26458 0 0 .26458 0 292.77)" d="m2 1v12.334c0.32988-0.080235 0.65994-0.16209 1-0.33398v-11z" fill="#1b78ff"/>
  <path transform="matrix(.26458 0 0 .26458 0 292.77)" d="m3 13c-0.17472 0.31925-0.24979 0.66064-0.33398 1h10.668c-0.056552-0.3379-0.15282-0.67249-0.33398-1z" fill="#3284ff"/>
  <path transform="translate(0 292.77)" d="m3.7042 0.26458v3.2634c-0.099729-0.020484-0.18963-0.048609-0.26458-0.088367v-2.9104z" fill="#59f"/>
  <path transform="translate(0 292.77)" d="m0.79375 3.4396-0.26458 0.088367 0.17622 0.17622z" fill="#267eff"/>
  <path transform="translate(0 292.77)" d="m3.4396 3.4396 0.26458 0.088367-0.17622 0.17622z" fill="#4992ff"/>
 </g>
 <g>
  <path d="m3.4396 0.52917h-2.6458v2.9104h2.6458z" fill="#231f1d" opacity=".9"/>
  <path transform="scale(.26458)" d="m3 1v1c3.2641 1.2836 6.5921 1.3823 10 0v-1c-3.4079 1.3823-6.7359 1.2836-10 0z" fill="#def2f2"/>
  <g fill="#231f1d" fill-opacity=".90196">
   <path d="m0.79375 1.0583v0.26458c0.86363 0.33963 1.7442 0.36572 2.6458 0v-0.26458c-0.90167 0.36572-1.7822 0.33963-2.6458 0z"/>
   <path d="m0.79375 1.8521v0.26458c0.86363 0.33963 1.7442 0.36572 2.6458 0v-0.26458c-0.90167 0.36572-1.7822 0.33963-2.6458 0z"/>
   <path d="m0.79375 2.6458v0.26458c0.86363 0.33963 1.7442 0.36572 2.6458 0v-0.26458c-0.90167 0.36572-1.7822 0.33963-2.6458 0z"/>
  </g>
  <path d="m0.79375 0.52917-0.26458-0.26458v-0.26458l0.26458 0.26458z" fill="#ecf6f7"/>
  <path d="m3.4396 0.52917 0.26458-0.26458v-0.26458l-0.26458 0.26458z" fill="#ecf6f7"/>
 </g>
</svg>
