<?xml version="1.0" encoding="UTF-8"?>
<svg width="512" height="512" version="1.1" viewBox="0 0 135.47 135.47" xmlns="http://www.w3.org/2000/svg">
 <g>
  <g transform="matrix(.7349 0 .19692 .7349 -34.941 -52.549)" opacity=".5">
   <g>
    <rect x="29.633" y="172.12" width="97.367" height="12.7" fill="#c79a40" opacity="1" style="paint-order:normal"/>
    <rect x="16.933" y="172.12" width="16.933" height="12.7" fill="#d3af68" opacity="1" style="paint-order:normal"/>
    <rect x="52.917" y="186.93" width="61.383" height="12.7" fill="#c79a40" opacity="1" style="paint-order:normal"/>
   </g>
   <g fill="none" stroke="#d3af68" stroke-width="2.1167">
    <path d="m33.867 193.28h4.2333"/>
    <path d="m8.4667 161.53 1e-7 31.75h8.4667"/>
    <path d="m8.4667 178.47h8.4667"/>
   </g>
   <rect x="16.933" y="186.93" width="16.933" height="12.7" fill="#d3af68" opacity="1" style="paint-order:normal"/>
   <rect x="38.1" y="186.93" width="16.933" height="12.7" fill="#d3af68" opacity="1" style="paint-order:normal"/>
   <path d="m25.4 199.63v8.4667h12.7" fill="none" stroke="#d3af68" stroke-width="2.1167"/>
   <g>
    <rect x="38.1" y="201.75" width="16.933" height="12.7" fill="#d3af68" opacity="1" style="paint-order:normal"/>
    <rect x="74.083" y="201.75" width="55.033" height="12.7" fill="#c79a40" opacity="1" style="paint-order:normal"/>
    <rect x="59.267" y="201.75" width="16.933" height="12.7" fill="#d3af68" opacity="1" style="paint-order:normal"/>
   </g>
   <path d="m55.033 208.1h4.2333" fill="none" stroke="#d3af68" stroke-width="2.1167"/>
   <path d="m25.4 208.1v14.817h12.7" fill="none" stroke="#d3af68" stroke-width="2.1167"/>
   <g>
    <rect x="38.1" y="216.57" width="16.933" height="12.7" fill="#d3af68" opacity="1" style="paint-order:normal"/>
    <rect x="74.083" y="216.57" width="61.383" height="12.7" fill="#c79a40" opacity="1" style="paint-order:normal"/>
    <rect x="59.267" y="216.57" width="16.933" height="12.7" fill="#d3af68" opacity="1" style="paint-order:normal"/>
   </g>
   <path d="m55.033 222.92h4.2333" fill="none" stroke="#d3af68" stroke-width="2.1167"/>
   <path d="m46.567 229.27v8.4667h12.7" fill="none" stroke="#d3af68" stroke-width="2.1167"/>
   <rect x="74.083" y="231.38" width="61.383" height="12.7" fill="#c79a40" opacity="1" style="paint-order:normal"/>
   <rect x="59.267" y="231.38" width="16.933" height="12.7" fill="#d3af68" opacity="1" style="paint-order:normal"/>
  </g>
  <g transform="matrix(.7349 0 .19692 .7349 -34.347 -53.44)">
   <g>
    <rect x="29.633" y="172.12" width="97.367" height="12.7" fill="#c79a40" style="paint-order:normal"/>
    <rect x="16.933" y="172.12" width="16.933" height="12.7" fill="#d3af68" style="paint-order:normal"/>
    <rect x="52.917" y="186.93" width="61.383" height="12.7" fill="#c79a40" style="paint-order:normal"/>
   </g>
   <g fill="none" stroke="#d3af68" stroke-width="2.1167">
    <path d="m33.867 193.28h4.2333"/>
    <path d="m8.4667 161.53 1e-7 31.75h8.4667"/>
    <path d="m8.4667 178.47h8.4667"/>
   </g>
   <g>
    <g fill="#f9f9f9" aria-label="C">
     <path d="m28.01 179.97q-0.06718 0.52193-0.26872 0.96118-0.20154 0.43408-0.5271 0.74931-0.32039 0.31006-0.76481 0.48576-0.43925 0.17053-0.98185 0.17053-0.46509 0-0.84749-0.12919-0.37724-0.13436-0.67696-0.3669-0.29456-0.23255-0.5116-0.54777-0.21187-0.31523-0.35657-0.6873-0.13953-0.37207-0.21187-0.78031-0.06718-0.40825-0.07235-0.82683v-1.049q0.0052-0.41858 0.07235-0.82682 0.07235-0.40824 0.21187-0.78031 0.14469-0.37207 0.35657-0.6873 0.21704-0.32039 0.5116-0.55294 0.29972-0.23254 0.67696-0.36173 0.37724-0.13436 0.84749-0.13436 0.56327 0 1.0077 0.1757 0.44442 0.17053 0.76481 0.49092 0.32039 0.31523 0.5116 0.75965 0.19637 0.44441 0.25838 0.98185h-0.95601q-0.04651-0.34107-0.1602-0.63562-0.11369-0.29456-0.30489-0.51677-0.1912-0.2222-0.47026-0.34623-0.27388-0.12919-0.65112-0.12919-0.34106 0-0.60461 0.11369-0.25838 0.10852-0.44958 0.29972-0.18604 0.19121-0.31523 0.44442-0.12402 0.25321-0.20154 0.53744-0.07751 0.28422-0.11369 0.58394-0.03101 0.29455-0.03101 0.57361v1.0594q0 0.27906 0.03101 0.57878 0.03617 0.29456 0.11369 0.58394 0.07751 0.28422 0.20154 0.53744 0.12402 0.25321 0.31523 0.44958 0.1912 0.19121 0.44958 0.30489 0.25838 0.10853 0.60461 0.10853 0.37724 0 0.65112-0.11886 0.27905-0.11886 0.47026-0.33073 0.1912-0.21704 0.30489-0.50643 0.11369-0.29455 0.1602-0.63562z" fill="#f9f9f9" stroke-width=".26458"/>
    </g>
    <text x="35.983334" y="182.69998" fill="#f9f9f9" font-family="'Roboto Mono'" font-size="10.583px" letter-spacing="0px" stroke-width=".26458" word-spacing="0px" style="line-height:1.25" xml:space="preserve"><tspan x="35.983334" y="182.69998" fill="#f9f9f9" stroke-width=".26458">blah blah blah</tspan></text>
    <rect x="16.933" y="186.93" width="16.933" height="12.7" fill="#d3af68" style="paint-order:normal"/>
    <g fill="#f9f9f9" stroke-width=".26458" aria-label="if">
     <path d="m19.829 191.77h2.8577v4.7646h1.8242v0.82682h-4.6819v-0.82682h1.9017v-3.9326h-1.9017zm1.7777-1.4676q0-0.23771 0.13953-0.3979 0.14469-0.16537 0.43408-0.16537 0.28422 0 0.42891 0.16537 0.14469 0.16019 0.14469 0.3979 0 0.23255-0.14469 0.38758t-0.42891 0.15503q-0.28939 0-0.43408-0.15503-0.13953-0.15503-0.13953-0.38758z"/>
     <path d="m27.452 197.36v-4.8524h-1.54v-0.73898h1.54v-0.39274q0-0.53743 0.15503-0.94051 0.1602-0.40824 0.44442-0.68213 0.28939-0.27388 0.69246-0.41341 0.40308-0.13952 0.89917-0.13952 0.34106 0 0.66146 0.0568 0.32556 0.0568 0.66663 0.14469l-0.11369 0.79065q-0.21187-0.0723-0.49609-0.12402-0.27905-0.0568-0.59945-0.0568-0.67179 5e-3 -1.0129 0.34106-0.3359 0.3359-0.3359 1.0232v0.39274h2.1549v0.73898h-2.1549v4.8524z"/>
    </g>
    <rect x="38.1" y="186.93" width="16.933" height="12.7" fill="#d3af68" style="paint-order:normal"/>
   </g>
   <g fill="#f9f9f9">
    <g aria-label="V">
     <path d="m46.556 195.51 1.7777-5.9841h1.018l-2.3719 7.5241h-0.83199l-2.3771-7.5241h1.0232z" fill="#f9f9f9" stroke-width=".26458"/>
    </g>
    <g stroke-width=".26458" aria-label="blah blah blah">
     <path d="m41.621 179.97q0 0.59945-0.14469 1.1214-0.14469 0.51676-0.42375 0.89917-0.27905 0.3824-0.69246 0.59944-0.40824 0.21704-0.94051 0.21704-0.53744 0-0.93534-0.1912-0.39274-0.1912-0.67179-0.54777l-0.04651 0.63562h-0.8785v-7.9375h0.95601v2.9456q0.27388-0.34107 0.66146-0.52193 0.38757-0.18087 0.90434-0.18087 0.53744 0 0.95085 0.21187 0.41341 0.21188 0.69246 0.58911 0.27905 0.37724 0.42375 0.90434 0.14469 0.52193 0.14469 1.1472zm-0.95601-0.10852q0-0.40825-0.08268-0.77515-0.07751-0.37207-0.25322-0.65112-0.1757-0.28422-0.45992-0.44959-0.28422-0.16536-0.69763-0.16536-0.24805 0-0.45475 0.0672-0.20671 0.062-0.37207 0.18087-0.1602 0.11368-0.28939 0.27388-0.12402 0.15503-0.21187 0.34107v2.4443q0.09302 0.18604 0.21704 0.34623 0.12919 0.15503 0.29456 0.27389 0.16536 0.11885 0.37207 0.18603 0.20671 0.062 0.45475 0.062 0.39274 0 0.67179-0.16019 0.28422-0.16537 0.45992-0.44442 0.18087-0.27905 0.26355-0.64596 0.08785-0.3669 0.08785-0.77514z"/>
     <path d="m43.378 174.76h2.8577v7.1107h1.8242v0.82682h-4.6819v-0.82682h1.9017v-6.2787h-1.9017z"/>
     <path d="m53.248 182.7q-0.05684-0.10852-0.09302-0.26872-0.03101-0.16536-0.04651-0.34106-0.14469 0.14469-0.32556 0.27388-0.1757 0.1292-0.39274 0.22738-0.21187 0.0982-0.45475 0.15503-0.24288 0.0568-0.51676 0.0568-0.44442 0-0.80615-0.12919-0.35657-0.12919-0.60978-0.34623-0.24805-0.22221-0.38757-0.52193-0.13436-0.30489-0.13436-0.65629 0-0.45992 0.18087-0.80615 0.18604-0.34624 0.52193-0.57361 0.3359-0.23255 0.80615-0.34623 0.47542-0.11369 1.0594-0.11369h1.0439v-0.43925q0-0.25322-0.09302-0.45475-0.09302-0.20154-0.26355-0.34107-0.17053-0.14469-0.41858-0.22221-0.24288-0.0775-0.54777-0.0775-0.28422 0-0.5116 0.0723-0.22221 0.0724-0.37724 0.19121-0.15503 0.11885-0.24288 0.28422-0.08268 0.16019-0.08268 0.33589h-0.96118q0.0052-0.30489 0.15503-0.59944 0.15503-0.29456 0.43925-0.5271 0.28939-0.23771 0.69763-0.38241 0.41341-0.14469 0.93534-0.14469 0.47542 0 0.88367 0.11885 0.40824 0.11369 0.7028 0.3514 0.29972 0.23255 0.47026 0.58395 0.17053 0.3514 0.17053 0.82165v2.5993q0 0.27905 0.05168 0.59428 0.05168 0.31006 0.14469 0.5426v0.0827zm-1.6898-0.72864q0.27905 0 0.52193-0.0723 0.24288-0.0724 0.43925-0.19121 0.20154-0.11885 0.34623-0.26871 0.14469-0.15503 0.22738-0.3204v-1.1317h-0.88884q-0.83716 0-1.3022 0.24805-0.46509 0.24804-0.46509 0.78031 0 0.20671 0.06718 0.38241 0.07235 0.1757 0.21187 0.30489 0.13953 0.12402 0.3514 0.19637 0.21187 0.0723 0.49093 0.0723z"/>
     <path d="m56.876 177.94q0.29972-0.43925 0.73897-0.68213 0.43925-0.24804 0.98702-0.25321 0.43925 0 0.79582 0.12919 0.36174 0.12402 0.61495 0.39274 0.25322 0.26872 0.38757 0.68213 0.13953 0.40824 0.13953 0.97152v3.5192h-0.95601v-3.5295q0-0.6873-0.33073-1.0232-0.32556-0.3359-0.93534-0.33073-0.45992 0-0.83716 0.22738-0.37207 0.2222-0.60461 0.59427v4.0618h-0.95601v-7.9375h0.95601z"/>
     <path d="m73.351 179.97q0 0.59945-0.14469 1.1214-0.14469 0.51676-0.42375 0.89917-0.27905 0.3824-0.69246 0.59944-0.40824 0.21704-0.94051 0.21704-0.53743 0-0.93534-0.1912-0.39274-0.1912-0.67179-0.54777l-0.04651 0.63562h-0.8785v-7.9375h0.95601v2.9456q0.27388-0.34107 0.66146-0.52193 0.38757-0.18087 0.90434-0.18087 0.53744 0 0.95085 0.21187 0.41341 0.21188 0.69246 0.58911 0.27905 0.37724 0.42375 0.90434 0.14469 0.52193 0.14469 1.1472zm-0.95601-0.10852q0-0.40825-0.08268-0.77515-0.07752-0.37207-0.25321-0.65112-0.1757-0.28422-0.45992-0.44959-0.28422-0.16536-0.69763-0.16536-0.24805 0-0.45475 0.0672-0.20671 0.062-0.37207 0.18087-0.1602 0.11368-0.28939 0.27388-0.12402 0.15503-0.21187 0.34107v2.4443q0.09302 0.18604 0.21704 0.34623 0.12919 0.15503 0.29456 0.27389 0.16536 0.11885 0.37207 0.18603 0.20671 0.062 0.45475 0.062 0.39274 0 0.67179-0.16019 0.28422-0.16537 0.45992-0.44442 0.18087-0.27905 0.26355-0.64596 0.08785-0.3669 0.08785-0.77514z"/>
     <path d="m75.108 174.76h2.8577v7.1107h1.8242v0.82682h-4.6819v-0.82682h1.9017v-6.2787h-1.9017z"/>
     <path d="m84.978 182.7q-0.05684-0.10852-0.09302-0.26872-0.03101-0.16536-0.04651-0.34106-0.14469 0.14469-0.32556 0.27388-0.1757 0.1292-0.39274 0.22738-0.21187 0.0982-0.45475 0.15503-0.24288 0.0568-0.51676 0.0568-0.44442 0-0.80615-0.12919-0.35657-0.12919-0.60978-0.34623-0.24805-0.22221-0.38757-0.52193-0.13436-0.30489-0.13436-0.65629 0-0.45992 0.18087-0.80615 0.18604-0.34624 0.52193-0.57361 0.3359-0.23255 0.80615-0.34623 0.47542-0.11369 1.0594-0.11369h1.0439v-0.43925q0-0.25322-0.09302-0.45475-0.09302-0.20154-0.26355-0.34107-0.17053-0.14469-0.41858-0.22221-0.24288-0.0775-0.54777-0.0775-0.28422 0-0.5116 0.0723-0.22221 0.0724-0.37724 0.19121-0.15503 0.11885-0.24288 0.28422-0.08268 0.16019-0.08268 0.33589h-0.96118q0.0052-0.30489 0.15503-0.59944 0.15503-0.29456 0.43925-0.5271 0.28939-0.23771 0.69763-0.38241 0.41341-0.14469 0.93534-0.14469 0.47542 0 0.88367 0.11885 0.40824 0.11369 0.7028 0.3514 0.29972 0.23255 0.47026 0.58395t0.17053 0.82165v2.5993q0 0.27905 0.05168 0.59428 0.05168 0.31006 0.14469 0.5426v0.0827zm-1.6898-0.72864q0.27905 0 0.52193-0.0723 0.24288-0.0724 0.43925-0.19121 0.20154-0.11885 0.34623-0.26871 0.14469-0.15503 0.22738-0.3204v-1.1317h-0.88884q-0.83716 0-1.3022 0.24805-0.46509 0.24804-0.46509 0.78031 0 0.20671 0.06718 0.38241 0.07235 0.1757 0.21187 0.30489 0.13953 0.12402 0.3514 0.19637 0.21187 0.0723 0.49093 0.0723z"/>
     <path d="m88.605 177.94q0.29972-0.43925 0.73897-0.68213 0.43925-0.24804 0.98702-0.25321 0.43925 0 0.79582 0.12919 0.36174 0.12402 0.61495 0.39274 0.25321 0.26872 0.38757 0.68213 0.13953 0.40824 0.13953 0.97152v3.5192h-0.95601v-3.5295q0-0.6873-0.33073-1.0232-0.32556-0.3359-0.93534-0.33073-0.45992 0-0.83716 0.22738-0.37207 0.2222-0.60462 0.59427v4.0618h-0.95601v-7.9375h0.95601z"/>
     <path d="m105.08 179.97q0 0.59945-0.1447 1.1214-0.14469 0.51676-0.42374 0.89917-0.27905 0.3824-0.69247 0.59944-0.40824 0.21704-0.94051 0.21704-0.53743 0-0.93534-0.1912-0.39274-0.1912-0.67179-0.54777l-0.0465 0.63562h-0.8785v-7.9375h0.95601v2.9456q0.27389-0.34107 0.66146-0.52193 0.38757-0.18087 0.90434-0.18087 0.53743 0 0.95084 0.21187 0.41342 0.21188 0.69247 0.58911 0.27905 0.37724 0.42374 0.90434 0.1447 0.52193 0.1447 1.1472zm-0.95602-0.10852q0-0.40825-0.0827-0.77515-0.0775-0.37207-0.25321-0.65112-0.1757-0.28422-0.45992-0.44959-0.28422-0.16536-0.69763-0.16536-0.24805 0-0.45476 0.0672-0.2067 0.062-0.37207 0.18087-0.16019 0.11368-0.28939 0.27388-0.12402 0.15503-0.21187 0.34107v2.4443q0.093 0.18604 0.21704 0.34623 0.12919 0.15503 0.29456 0.27389 0.16536 0.11885 0.37207 0.18603 0.2067 0.062 0.45475 0.062 0.39274 0 0.67179-0.16019 0.28422-0.16537 0.45992-0.44442 0.18087-0.27905 0.26355-0.64596 0.0879-0.3669 0.0879-0.77514z"/>
     <path d="m106.84 174.76h2.8577v7.1107h1.8242v0.82682h-4.6819v-0.82682h1.9017v-6.2787h-1.9017z"/>
     <path d="m116.71 182.7q-0.0568-0.10852-0.093-0.26872-0.031-0.16536-0.0465-0.34106-0.14469 0.14469-0.32556 0.27388-0.1757 0.1292-0.39274 0.22738-0.21187 0.0982-0.45475 0.15503-0.24288 0.0568-0.51677 0.0568-0.44441 0-0.80615-0.12919-0.35657-0.12919-0.60978-0.34623-0.24805-0.22221-0.38757-0.52193-0.13436-0.30489-0.13436-0.65629 0-0.45992 0.18086-0.80615 0.18604-0.34624 0.52194-0.57361 0.33589-0.23255 0.80615-0.34623 0.47542-0.11369 1.0594-0.11369h1.0439v-0.43925q0-0.25322-0.093-0.45475-0.093-0.20154-0.26355-0.34107-0.17053-0.14469-0.41858-0.22221-0.24288-0.0775-0.54777-0.0775-0.28422 0-0.51159 0.0723-0.22221 0.0724-0.37724 0.19121-0.15503 0.11885-0.24288 0.28422-0.0827 0.16019-0.0827 0.33589h-0.96119q5e-3 -0.30489 0.15503-0.59944 0.15503-0.29456 0.43925-0.5271 0.28939-0.23771 0.69764-0.38241 0.41341-0.14469 0.93534-0.14469 0.47542 0 0.88367 0.11885 0.40824 0.11369 0.7028 0.3514 0.29972 0.23255 0.47025 0.58395t0.17053 0.82165v2.5993q0 0.27905 0.0517 0.59428 0.0517 0.31006 0.14469 0.5426v0.0827zm-1.6898-0.72864q0.27905 0 0.52193-0.0723 0.24288-0.0724 0.43925-0.19121 0.20154-0.11885 0.34623-0.26871 0.1447-0.15503 0.22738-0.3204v-1.1317h-0.88884q-0.83715 0-1.3022 0.24805-0.46509 0.24804-0.46509 0.78031 0 0.20671 0.0672 0.38241 0.0724 0.1757 0.21187 0.30489 0.13953 0.12402 0.3514 0.19637 0.21188 0.0723 0.49093 0.0723z"/>
     <path d="m120.33 177.94q0.29972-0.43925 0.73897-0.68213 0.43925-0.24804 0.98702-0.25321 0.43925 0 0.79582 0.12919 0.36174 0.12402 0.61495 0.39274 0.25322 0.26872 0.38757 0.68213 0.13953 0.40824 0.13953 0.97152v3.5192h-0.95601v-3.5295q0-0.6873-0.33073-1.0232-0.32556-0.3359-0.93535-0.33073-0.45992 0-0.83715 0.22738-0.37207 0.2222-0.60462 0.59427v4.0618h-0.95601v-7.9375h0.95601z"/>
    </g>
    <g stroke-width=".26458" aria-label="something">
     <path d="m60.725 194.67q0-0.17053-0.06718-0.30489-0.06718-0.13953-0.22738-0.25322-0.1602-0.11369-0.42375-0.2067-0.26355-0.0982-0.65629-0.1757-0.48059-0.0982-0.8785-0.23771-0.39274-0.13953-0.67696-0.33073-0.27905-0.19637-0.43408-0.45476-0.15503-0.26355-0.15503-0.60978 0-0.34106 0.1602-0.63562 0.1602-0.29972 0.44958-0.52193t0.6873-0.3514q0.40308-0.12919 0.88367-0.12919 0.51676 0 0.93018 0.13436 0.41341 0.13436 0.7028 0.37207t0.44442 0.5581q0.1602 0.31523 0.1602 0.68213h-0.95601q0-0.18086-0.09302-0.3514-0.09302-0.1757-0.25838-0.31006-0.16536-0.13435-0.40308-0.21704-0.23254-0.0827-0.5271-0.0827-0.30489 0-0.53744 0.0672-0.22738 0.0672-0.3824 0.18087-0.14986 0.11369-0.22738 0.26355-0.07751 0.14986-0.07751 0.31006 0 0.16536 0.06201 0.29455t0.21187 0.23255q0.15503 0.10335 0.40824 0.18603 0.25838 0.0827 0.65112 0.1602 0.51676 0.10852 0.92501 0.25321 0.40824 0.13953 0.6873 0.34107 0.27905 0.19637 0.42375 0.45992 0.14986 0.26355 0.14986 0.60978 0 0.37207-0.17053 0.67696-0.16536 0.30489-0.46509 0.52193-0.29972 0.21704-0.7183 0.3359-0.41858 0.11885-0.91467 0.11885-0.56844 0-1.0129-0.14986-0.44442-0.15503-0.75448-0.40307-0.30489-0.25322-0.47026-0.58395-0.1602-0.33073-0.1602-0.68729h0.95601q0.02067 0.29455 0.15503 0.49609 0.13953 0.20154 0.34106 0.32556 0.2067 0.12403 0.45475 0.1757 0.24805 0.0517 0.49093 0.0517 0.60461 0 0.95601-0.22221t0.35657-0.58911z"/>
     <path d="m63.087 193.3q0-0.60461 0.1757-1.1214 0.1757-0.52193 0.50126-0.90434 0.33073-0.3824 0.80098-0.59944 0.47026-0.22221 1.0594-0.22221 0.59428 0 1.0645 0.22221 0.47542 0.21704 0.80098 0.59944 0.33073 0.38241 0.50643 0.90434 0.1757 0.51677 0.1757 1.1214v0.11369q0 0.60461-0.1757 1.1214-0.1757 0.51676-0.50643 0.89917-0.32556 0.3824-0.79582 0.59944-0.47026 0.21704-1.0594 0.21704-0.59428 0-1.0697-0.21704-0.47026-0.21704-0.80098-0.59944-0.32556-0.38241-0.50126-0.89917-0.1757-0.51677-0.1757-1.1214zm0.95601 0.11369q0 0.41341 0.09819 0.79065 0.09819 0.37207 0.29456 0.65629 0.20154 0.28422 0.50126 0.44958 0.29972 0.16537 0.69763 0.16537 0.39274 0 0.6873-0.16537 0.29972-0.16536 0.49609-0.44958 0.20154-0.28422 0.29972-0.65629 0.09819-0.37724 0.09819-0.79065v-0.11369q0-0.40824-0.10335-0.78031-0.09819-0.37724-0.29972-0.66146-0.19637-0.28422-0.49609-0.44959-0.29456-0.17053-0.69246-0.17053-0.39791 0-0.69246 0.17053-0.29456 0.16537-0.49609 0.44959-0.19637 0.28422-0.29456 0.66146-0.09819 0.37207-0.09819 0.78031z"/>
     <path d="m70.14 190.56 0.02584 0.5271q0.17053-0.29455 0.44442-0.45992 0.27905-0.16536 0.67179-0.17053 0.76998 0 1.0284 0.59945 0.16536-0.26872 0.43408-0.42892 0.27388-0.16536 0.66146-0.17053 0.61495 0 0.94568 0.37724 0.33073 0.37724 0.33073 1.142v4.1754h-0.90951v-4.1858q0-0.7028-0.64596-0.69763-0.17053 0-0.29456 0.0465-0.12402 0.0465-0.2067 0.12919-0.08268 0.0775-0.12919 0.18603-0.04651 0.10336-0.06201 0.21705v4.3046h-0.9095v-4.191q0-0.33589-0.14986-0.51676t-0.47542-0.1757q-0.29972 0-0.46509 0.11886-0.16536 0.11885-0.24288 0.31522v4.4493h-0.9095v-5.5914z"/>
     <path d="m78.517 196.25q-0.58911 0-1.0852-0.20153-0.49093-0.20154-0.84233-0.56328-0.3514-0.36173-0.54777-0.85783-0.19637-0.49609-0.19637-1.08v-0.21704q0-0.67696 0.21704-1.2092 0.21704-0.53744 0.57361-0.90434 0.36174-0.37207 0.81649-0.56844 0.45992-0.19637 0.94051-0.19637 0.60461 0 1.0542 0.21187 0.45475 0.20671 0.75448 0.57878 0.29972 0.3669 0.44442 0.86816 0.14986 0.50126 0.14986 1.0852v0.42891h-3.9946q0.0155 0.38241 0.14469 0.7183 0.13436 0.3359 0.36174 0.58912 0.23254 0.24804 0.55294 0.39274 0.32039 0.14469 0.70797 0.14469 0.5116 0 0.9095-0.20671 0.39791-0.2067 0.66146-0.54777l0.58394 0.45476q-0.13953 0.21187-0.3514 0.40824-0.20671 0.1912-0.48059 0.34107-0.27388 0.14986-0.62012 0.23771-0.34623 0.093-0.75448 0.093zm-0.12402-5.0126q-0.28939 0-0.54777 0.10852-0.25838 0.10335-0.46509 0.31006-0.20671 0.20154-0.3514 0.50126-0.13953 0.29456-0.19637 0.68213h3.0076v-0.0724q-0.0155-0.27905-0.10852-0.55293-0.08785-0.27389-0.26355-0.49093-0.1757-0.21704-0.44442-0.3514-0.26355-0.13436-0.63045-0.13436z"/>
     <path d="m84.656 189.21v1.3539h2.1291v0.73898h-2.1291v3.0386q0 0.32556 0.08268 0.53743 0.08268 0.21188 0.22738 0.34107 0.14469 0.12402 0.33073 0.1757 0.1912 0.0517 0.40308 0.0517 0.15503 0 0.32039-0.0155 0.16536-0.0207 0.32039-0.0465 0.1602-0.0258 0.29456-0.0517 0.13953-0.031 0.22738-0.0517l0.13436 0.67696q-0.11886 0.0724-0.28939 0.12919-0.17053 0.0517-0.37207 0.0879-0.20154 0.0413-0.42892 0.062-0.22221 0.0207-0.44442 0.0207-0.37207 0-0.69763-0.10335-0.32039-0.10852-0.5581-0.33589-0.23771-0.23255-0.37724-0.59428-0.13436-0.36691-0.13436-0.88367v-3.0386h-1.4676v-0.73898h1.4676v-1.3539z"/>
     <path d="m89.695 191.39q0.29972-0.43925 0.73897-0.68213 0.43925-0.24804 0.98702-0.25321 0.43925 0 0.79582 0.12919 0.36174 0.12402 0.61495 0.39274 0.25321 0.26872 0.38757 0.68213 0.13953 0.40824 0.13953 0.97152v3.5192h-0.95601v-3.5295q0-0.68729-0.33073-1.0232-0.32556-0.3359-0.93534-0.33073-0.45992 0-0.83716 0.22738-0.37207 0.2222-0.60462 0.59427v4.0618h-0.95601v-7.9375h0.95601z"/>
     <path d="m95.235 190.56h2.8577v4.7646h1.8242v0.82682h-4.6819v-0.82682h1.9017v-3.9326h-1.9017zm1.7777-1.4676q0-0.23771 0.13953-0.39791 0.14469-0.16536 0.43408-0.16536 0.28422 0 0.42891 0.16536 0.14469 0.1602 0.14469 0.39791 0 0.23255-0.14469 0.38757-0.14469 0.15503-0.42891 0.15503-0.28939 0-0.43408-0.15503-0.13953-0.15502-0.13953-0.38757z"/>
     <path d="m102.29 190.56 0.0672 0.82683q0.30489-0.43409 0.74931-0.67697 0.44442-0.24804 0.99219-0.25321 0.43925 0 0.79581 0.12402 0.36174 0.12403 0.61495 0.38758 0.25322 0.26355 0.38758 0.67179 0.13952 0.40308 0.13952 0.96118v3.5502h-0.95601v-3.5295q0-0.37207-0.0827-0.63045t-0.24805-0.41858q-0.1602-0.1602-0.39791-0.23254-0.23254-0.0724-0.53743-0.0724-0.48059 0-0.8475 0.24288-0.36173 0.23771-0.57877 0.63045v4.0101h-0.95602v-5.5914z"/>
     <path d="m107.6 193.31q0-0.62529 0.14986-1.1472 0.15503-0.5271 0.44442-0.90434 0.28939-0.37723 0.7028-0.58911 0.41341-0.21187 0.93534-0.21187 0.51677 0 0.90434 0.18603 0.39274 0.18087 0.66663 0.5271l0.0465-0.60978h0.86816v5.4725q0 0.55293-0.1757 0.98185-0.17053 0.42891-0.48576 0.72864-0.31006 0.29972-0.74414 0.45475t-0.96118 0.15503q-0.21704 0-0.4961-0.0517-0.27905-0.0465-0.56844-0.1602-0.28422-0.10852-0.55293-0.29455-0.26355-0.18604-0.45476-0.45992l0.4961-0.57361q0.1757 0.21187 0.36173 0.35657 0.18604 0.14986 0.37724 0.23771 0.1912 0.0879 0.38241 0.12402 0.1912 0.0413 0.3824 0.0413 0.34107 0 0.61495-0.0982 0.27389-0.0982 0.46509-0.28939 0.19637-0.18603 0.29972-0.46509 0.10336-0.27905 0.10336-0.64079v-0.48059q-0.27906 0.3204-0.66146 0.49093-0.37724 0.16536-0.8785 0.16536-0.5116 0-0.92501-0.21704t-0.7028-0.59944q-0.28422-0.38241-0.43925-0.89917-0.15503-0.52193-0.15503-1.1214zm0.95602 0.10852q0 0.40824 0.0827 0.77515 0.0879 0.3669 0.26871 0.64595 0.18604 0.27905 0.47026 0.44442 0.28422 0.16019 0.68213 0.16019 0.24805 0 0.44442-0.0568 0.20153-0.062 0.35656-0.17053 0.1602-0.10852 0.28422-0.25838 0.12403-0.14987 0.21705-0.33073v-2.5632q-0.093-0.1757-0.21705-0.3204-0.12402-0.14469-0.28422-0.24804-0.16019-0.10852-0.35656-0.16537-0.19637-0.062-0.43409-0.062-0.40307 0-0.69246 0.16536-0.28422 0.16537-0.47026 0.44959-0.18086 0.27905-0.26871 0.65112-0.0827 0.3669-0.0827 0.77515z"/>
    </g>
   </g>
   <path d="m25.4 199.63v8.4667h12.7" fill="none" stroke="#d3af68" stroke-width="2.1167"/>
   <g>
    <rect x="38.1" y="201.75" width="16.933" height="12.7" fill="#d3af68" style="paint-order:normal"/>
    <g fill="#f9f9f9" stroke-width=".26458" aria-label="FC">
     <path d="m45.099 208.54h-3.1316v3.3228h-0.96635v-7.5241h4.6199v0.81649h-3.6535v2.5735h3.1316z"/>
     <path d="m52.132 209.6q-0.06718 0.52193-0.26872 0.96118-0.20154 0.43409-0.5271 0.74931-0.32039 0.31006-0.76481 0.48576-0.43925 0.17053-0.98185 0.17053-0.46509 0-0.84749-0.12919-0.37724-0.13436-0.67696-0.3669-0.29456-0.23254-0.5116-0.54777-0.21187-0.31523-0.35657-0.6873-0.13953-0.37207-0.21187-0.78031-0.06718-0.40825-0.07235-0.82682v-1.049q0.0052-0.41858 0.07235-0.82682 0.07235-0.40824 0.21187-0.78031 0.14469-0.37207 0.35657-0.6873 0.21704-0.32039 0.5116-0.55294 0.29972-0.23254 0.67696-0.36173 0.37724-0.13436 0.84749-0.13436 0.56327 0 1.0077 0.1757 0.44442 0.17053 0.76481 0.49092 0.32039 0.31523 0.5116 0.75965 0.19637 0.44442 0.25838 0.98185h-0.95601q-0.04651-0.34106-0.1602-0.63562-0.11369-0.29456-0.30489-0.51676-0.1912-0.22221-0.47026-0.34624-0.27388-0.12919-0.65112-0.12919-0.34106 0-0.60462 0.11369-0.25838 0.10852-0.44958 0.29972-0.18604 0.19121-0.31523 0.44442-0.12402 0.25322-0.20154 0.53744-0.07751 0.28422-0.11369 0.58394-0.03101 0.29456-0.03101 0.57361v1.0594q0 0.27905 0.03101 0.57877 0.03617 0.29456 0.11369 0.58395 0.07751 0.28422 0.20154 0.53743 0.12402 0.25321 0.31523 0.44958 0.1912 0.19121 0.44958 0.3049 0.25838 0.10852 0.60462 0.10852 0.37724 0 0.65112-0.11886 0.27905-0.11886 0.47026-0.33073 0.1912-0.21704 0.30489-0.50643 0.11369-0.29455 0.1602-0.63562z"/>
    </g>
    <rect x="74.083" y="201.75" width="55.033" height="12.7" fill="#c79a40" style="paint-order:normal"/>
    <rect x="59.267" y="201.75" width="16.933" height="12.7" fill="#d3af68" style="paint-order:normal"/>
    <g fill="#f9f9f9" aria-label="F">
     <path d="m69.521 208.54h-3.1316v3.3228h-0.96635v-7.5241h4.6199v0.81649h-3.6535v2.5735h3.1316z" fill="#f9f9f9" stroke-width=".26458"/>
    </g>
    <g fill="#f9f9f9" stroke-width=".26458" aria-label="do_stuff">
     <path d="m77.995 208.13q0-0.62528 0.15503-1.1472 0.1602-0.5271 0.44958-0.90434 0.29456-0.37724 0.70797-0.58911 0.41341-0.21188 0.92501-0.21188 0.50126 0 0.87333 0.17054 0.37724 0.16536 0.65112 0.48576v-2.899h0.95601v7.9375h-0.8785l-0.04134-0.58911q-0.27905 0.34106-0.66663 0.51676-0.38757 0.1757-0.90434 0.1757-0.50643 0-0.91984-0.21704-0.40824-0.21704-0.69763-0.59945-0.28939-0.3824-0.44958-0.89917-0.1602-0.52193-0.1602-1.1214zm0.95601 0.10852q0 0.40825 0.08785 0.77515t0.26872 0.64596q0.18604 0.27905 0.47026 0.44441 0.28422 0.1602 0.68213 0.1602 0.24288 0 0.43925-0.0568 0.19637-0.0569 0.35657-0.1602 0.1602-0.10852 0.28422-0.25322 0.12402-0.14986 0.21704-0.33072v-2.5942q-0.18604-0.34107-0.50126-0.55811-0.31523-0.22221-0.78548-0.22221-0.40308 0-0.69246 0.16537-0.28422 0.16536-0.47026 0.44958-0.18087 0.27906-0.26872 0.65113-0.08785 0.3669-0.08785 0.77514z"/>
     <path d="m84.253 208.12q0-0.60462 0.1757-1.1214 0.1757-0.52193 0.50126-0.90434 0.33073-0.38241 0.80098-0.59945 0.47026-0.22221 1.0594-0.22221 0.59428 0 1.0645 0.22221 0.47542 0.21704 0.80098 0.59945 0.33073 0.38241 0.50643 0.90434 0.1757 0.51676 0.1757 1.1214v0.11368q0 0.60462-0.1757 1.1214-0.1757 0.51677-0.50643 0.89917-0.32556 0.38241-0.79582 0.59945-0.47026 0.21704-1.0594 0.21704-0.59428 0-1.0697-0.21704-0.47026-0.21704-0.80098-0.59945-0.32556-0.3824-0.50126-0.89917-0.1757-0.51676-0.1757-1.1214zm0.95601 0.11368q0 0.41342 0.09819 0.79065 0.09819 0.37207 0.29456 0.65629 0.20154 0.28422 0.50126 0.44959 0.29972 0.16536 0.69763 0.16536 0.39274 0 0.6873-0.16536 0.29972-0.16537 0.49609-0.44959 0.20154-0.28422 0.29972-0.65629 0.09819-0.37723 0.09819-0.79065v-0.11368q0-0.40825-0.10335-0.78032-0.09819-0.37724-0.29972-0.66146-0.19637-0.28422-0.49609-0.44958-0.29456-0.17053-0.69246-0.17053-0.39791 0-0.69246 0.17053-0.29456 0.16536-0.49609 0.44958-0.19637 0.28422-0.29456 0.66146-0.09819 0.37207-0.09819 0.78032z"/>
     <path d="m95.508 211.75h-4.7387v-0.78031h4.7387z"/>
     <path d="m100.93 209.48q0-0.17053-0.0672-0.30489-0.0672-0.13952-0.22737-0.25321-0.1602-0.11369-0.42375-0.20671-0.26355-0.0982-0.65629-0.1757-0.48059-0.0982-0.8785-0.23771-0.39274-0.13952-0.67696-0.33073-0.27905-0.19637-0.43408-0.45475-0.15503-0.26355-0.15503-0.60978 0-0.34107 0.1602-0.63562 0.1602-0.29973 0.44958-0.52193 0.28939-0.22221 0.6873-0.3514 0.40308-0.1292 0.88367-0.1292 0.51677 0 0.93018 0.13436t0.7028 0.37207q0.28939 0.23772 0.44442 0.55811 0.16019 0.31523 0.16019 0.68213h-0.95601q0-0.18087-0.093-0.3514-0.093-0.1757-0.25838-0.31006-0.16537-0.13436-0.40308-0.21704-0.23254-0.0827-0.5271-0.0827-0.30489 0-0.53744 0.0672-0.22738 0.0672-0.38241 0.18086-0.14986 0.11369-0.22738 0.26355-0.07752 0.14986-0.07752 0.31006 0 0.16537 0.06201 0.29456t0.21187 0.23254q0.15503 0.10335 0.40824 0.18604 0.25838 0.0827 0.65112 0.16019 0.51676 0.10852 0.925 0.25322 0.40825 0.13952 0.6873 0.34106 0.27905 0.19637 0.42374 0.45992 0.14987 0.26355 0.14987 0.60978 0 0.37207-0.17054 0.67697-0.16536 0.30489-0.46508 0.52193-0.29973 0.21704-0.71831 0.33589-0.41858 0.11886-0.91467 0.11886-0.56844 0-1.0129-0.14986-0.44442-0.15503-0.75448-0.40308-0.30489-0.25321-0.47026-0.58394-0.1602-0.33073-0.1602-0.6873h0.95601q0.02067 0.29456 0.15503 0.4961 0.13953 0.20153 0.34106 0.32556 0.20671 0.12402 0.45475 0.1757 0.24805 0.0517 0.49093 0.0517 0.60462 0 0.95601-0.2222 0.3514-0.22221 0.35657-0.58912z"/>
     <path d="m105.82 204.02v1.3539h2.1291v0.73897h-2.1291v3.0386q0 0.32557 0.0827 0.53744t0.22738 0.34106q0.14469 0.12403 0.33073 0.1757 0.1912 0.0517 0.40307 0.0517 0.15503 0 0.3204-0.0155 0.16536-0.0207 0.32039-0.0465 0.1602-0.0258 0.29456-0.0517 0.13952-0.031 0.22737-0.0517l0.13436 0.67696q-0.11885 0.0723-0.28939 0.12919-0.17053 0.0517-0.37207 0.0879-0.20153 0.0413-0.42891 0.062-0.22221 0.0207-0.44442 0.0207-0.37207 0-0.69763-0.10335-0.32039-0.10852-0.55811-0.3359-0.23771-0.23254-0.37723-0.59428-0.13436-0.3669-0.13436-0.88367v-3.0386h-1.4676v-0.73897h1.4676v-1.3539z"/>
     <path d="m113.53 210.2q-0.27905 0.41341-0.69763 0.64595-0.41858 0.22738-0.96635 0.22738-0.43925 0-0.79582-0.13436-0.35656-0.13952-0.60978-0.42891-0.25321-0.28939-0.39274-0.73381-0.13436-0.44958-0.13436-1.0749v-3.3228h0.95602v3.3331q0 0.45475 0.0723 0.75447 0.0724 0.29973 0.21705 0.48059 0.14469 0.1757 0.3514 0.24805 0.21187 0.0724 0.48575 0.0724 0.58395 0 0.94051-0.23771 0.36174-0.23772 0.53744-0.64079v-4.0101h0.96118v5.5914h-0.86816z"/>
     <path d="m117.68 210.97v-4.8524h-1.54v-0.73897h1.54v-0.39274q0-0.53744 0.15503-0.94051 0.1602-0.40825 0.44442-0.68213 0.28939-0.27389 0.69246-0.41341 0.40308-0.13953 0.89917-0.13953 0.34107 0 0.66146 0.0568 0.32556 0.0568 0.66663 0.1447l-0.11369 0.79065q-0.21187-0.0724-0.49609-0.12403-0.27906-0.0568-0.59945-0.0568-0.67179 5e-3 -1.0129 0.34106-0.33589 0.3359-0.33589 1.0232v0.39274h2.1549v0.73897h-2.1549v4.8524z"/>
     <path d="m124.04 210.97v-4.8524h-1.54v-0.73897h1.54v-0.39274q0-0.53744 0.15503-0.94051 0.1602-0.40825 0.44442-0.68213 0.28938-0.27389 0.69246-0.41341 0.40308-0.13953 0.89917-0.13953 0.34106 0 0.66146 0.0568 0.32556 0.0568 0.66662 0.1447l-0.11368 0.79065q-0.21188-0.0724-0.4961-0.12403-0.27905-0.0568-0.59944-0.0568-0.6718 5e-3 -1.0129 0.34106-0.3359 0.3359-0.3359 1.0232v0.39274h2.1549v0.73897h-2.1549v4.8524z"/>
    </g>
   </g>
   <path d="m55.033 208.1h4.2333" fill="none" stroke="#d3af68" stroke-width="2.1167"/>
   <path d="m25.4 208.1v14.817h12.7" fill="none" stroke="#d3af68" stroke-width="2.1167"/>
   <g>
    <rect x="38.1" y="216.57" width="16.933" height="12.7" fill="#d3af68" style="paint-order:normal"/>
    <g fill="#f9f9f9" stroke-width=".26458" aria-label="FC">
     <path d="m45.099 223.36h-3.1316v3.3228h-0.96635v-7.5241h4.6199v0.81648h-3.6535v2.5735h3.1316z"/>
     <path d="m52.132 224.42q-0.06718 0.52193-0.26872 0.96118-0.20154 0.43408-0.5271 0.74931-0.32039 0.31006-0.76481 0.48576-0.43925 0.17053-0.98185 0.17053-0.46509 0-0.84749-0.12919-0.37724-0.13436-0.67696-0.36691-0.29456-0.23254-0.5116-0.54777-0.21187-0.31522-0.35657-0.68729-0.13953-0.37207-0.21187-0.78032-0.06718-0.40824-0.07235-0.82682v-1.049q0.0052-0.41858 0.07235-0.82682 0.07235-0.40825 0.21187-0.78032 0.14469-0.37207 0.35657-0.68729 0.21704-0.3204 0.5116-0.55294 0.29972-0.23255 0.67696-0.36174 0.37724-0.13436 0.84749-0.13436 0.56327 0 1.0077 0.1757 0.44442 0.17054 0.76481 0.49093 0.32039 0.31523 0.5116 0.75964 0.19637 0.44442 0.25838 0.98186h-0.95601q-0.04651-0.34107-0.1602-0.63562-0.11369-0.29456-0.30489-0.51677-0.1912-0.22221-0.47026-0.34623-0.27388-0.12919-0.65112-0.12919-0.34106 0-0.60461 0.11369-0.25838 0.10852-0.44958 0.29972-0.18604 0.1912-0.31523 0.44442-0.12402 0.25321-0.20154 0.53743-0.07751 0.28422-0.11369 0.58395-0.03101 0.29455-0.03101 0.5736v1.0594q0 0.27905 0.03101 0.57878 0.03617 0.29455 0.11369 0.58394 0.07751 0.28422 0.20154 0.53744 0.12402 0.25321 0.31523 0.44958 0.1912 0.1912 0.44958 0.30489 0.25838 0.10852 0.60461 0.10852 0.37724 0 0.65112-0.11885 0.27905-0.11886 0.47026-0.33073 0.1912-0.21704 0.30489-0.50643 0.11369-0.29456 0.1602-0.63562z"/>
    </g>
    <rect x="74.083" y="216.57" width="61.383" height="12.7" fill="#c79a40" style="paint-order:normal"/>
    <rect x="59.267" y="216.57" width="16.933" height="12.7" fill="#d3af68" style="paint-order:normal"/>
    <g fill="#f9f9f9" aria-label="F">
     <path d="m69.521 223.36h-3.1316v3.3228h-0.96635v-7.5241h4.6199v0.81648h-3.6535v2.5735h3.1316z" fill="#f9f9f9" stroke-width=".26458"/>
    </g>
    <g fill="#f9f9f9" stroke-width=".26458" aria-label="increment">
     <path d="m78.326 220.19h2.8577v4.7646h1.8242v0.82682h-4.6819v-0.82682h1.9017v-3.9326h-1.9017zm1.7777-1.4676q0-0.23771 0.13953-0.39791 0.14469-0.16536 0.43408-0.16536 0.28422 0 0.42891 0.16536 0.14469 0.1602 0.14469 0.39791 0 0.23255-0.14469 0.38758t-0.42891 0.15503q-0.28939 0-0.43408-0.15503-0.13953-0.15503-0.13953-0.38758z"/>
     <path d="m85.38 220.19 0.06718 0.82683q0.30489-0.43409 0.74931-0.67696 0.44442-0.24805 0.99219-0.25322 0.43925 0 0.79582 0.12402 0.36174 0.12403 0.61495 0.38758 0.25322 0.26355 0.38757 0.67179 0.13953 0.40308 0.13953 0.96118v3.5502h-0.95601v-3.5295q0-0.37207-0.08268-0.63045t-0.24805-0.41858q-0.1602-0.1602-0.39791-0.23254-0.23254-0.0724-0.53744-0.0724-0.48059 0-0.84749 0.24288-0.36174 0.23771-0.57878 0.63045v4.0101h-0.95601v-5.5914z"/>
     <path d="m93.25 225.11q0.25838 0 0.50126-0.0827 0.24805-0.0827 0.43925-0.22738 0.1912-0.14986 0.30489-0.34623 0.11886-0.20154 0.12402-0.43408h0.90434q-0.0052 0.37207-0.19637 0.71313-0.18604 0.3359-0.50126 0.59428-0.31523 0.25322-0.72347 0.40824-0.40824 0.14987-0.85266 0.14987-0.63562 0-1.111-0.22738t-0.79582-0.60978q-0.31523-0.38758-0.47542-0.88884-0.1602-0.50643-0.1602-1.0645v-0.21704q0-0.55294 0.1602-1.0594t0.47542-0.88883q0.32039-0.38758 0.79582-0.61495 0.47542-0.22738 1.111-0.22738 0.49609 0 0.9095 0.1602 0.41858 0.15503 0.7183 0.42891 0.30489 0.26872 0.47542 0.64079t0.17053 0.79582h-0.90434q-0.0052-0.25322-0.11369-0.47543-0.10335-0.22737-0.28422-0.39791-0.18087-0.17053-0.43408-0.26871-0.24805-0.0982-0.53744-0.0982-0.44442 0-0.74931 0.18087-0.29972 0.1757-0.48576 0.46509-0.18604 0.28422-0.26872 0.64079-0.07752 0.35656-0.07752 0.7183v0.21704q0 0.3669 0.07752 0.72864 0.08268 0.35656 0.26355 0.64595 0.18604 0.28422 0.48576 0.46509 0.30489 0.1757 0.75448 0.1757z"/>
     <path d="m100.88 220.09q0.13435 0 0.27905 0.0103 0.14469 5e-3 0.27388 0.0258 0.13436 0.0155 0.24288 0.0413 0.11369 0.0258 0.18604 0.0568l-0.12919 0.93534q-0.27906-0.062-0.53227-0.0879-0.24805-0.031-0.52193-0.031-0.6718 0-1.0904 0.30489-0.41341 0.30489-0.60978 0.85266v3.5863h-0.96118v-5.5914h0.9095l0.04651 0.88884q0.34106-0.45992 0.81649-0.72347 0.48059-0.26872 1.0904-0.26872z"/>
     <path d="m106.03 225.89q-0.58912 0-1.0852-0.20154-0.49093-0.20154-0.84233-0.56328-0.3514-0.36173-0.54777-0.85782-0.19637-0.4961-0.19637-1.08v-0.21704q0-0.67696 0.21705-1.2092 0.21704-0.53744 0.5736-0.90434 0.36174-0.37207 0.81649-0.56844 0.45992-0.19637 0.94051-0.19637 0.60462 0 1.0542 0.21187 0.45475 0.20671 0.75448 0.57878 0.29972 0.3669 0.44441 0.86816 0.14987 0.50127 0.14987 1.0852v0.42891h-3.9946q0.0155 0.38241 0.14469 0.71831 0.13436 0.33589 0.36174 0.58911 0.23254 0.24804 0.55293 0.39274 0.3204 0.14469 0.70797 0.14469 0.5116 0 0.90951-0.2067 0.39791-0.20671 0.66146-0.54777l0.58394 0.45475q-0.13953 0.21187-0.3514 0.40824-0.20671 0.19121-0.48059 0.34107-0.27389 0.14986-0.62012 0.23771-0.34623 0.093-0.75447 0.093zm-0.12403-5.0126q-0.28939 0-0.54777 0.10852-0.25838 0.10336-0.46509 0.31006-0.2067 0.20154-0.3514 0.50126-0.13952 0.29456-0.19637 0.68213h3.0076v-0.0724q-0.0155-0.27905-0.10852-0.55293-0.0879-0.27389-0.26355-0.49093-0.1757-0.21704-0.44442-0.3514-0.26355-0.13436-0.63045-0.13436z"/>
     <path d="m110.34 220.19 0.0258 0.5271q0.17053-0.29455 0.44441-0.45992 0.27906-0.16536 0.6718-0.17053 0.76998 0 1.0284 0.59945 0.16536-0.26872 0.43408-0.42892 0.27388-0.16536 0.66146-0.17053 0.61495 0 0.94568 0.37724t0.33073 1.142v4.1754h-0.90951v-4.1858q0-0.7028-0.64596-0.69763-0.17053 0-0.29455 0.0465t-0.20671 0.12919q-0.0827 0.0775-0.12919 0.18604-0.0465 0.10335-0.062 0.21704v4.3046h-0.9095v-4.191q0-0.33589-0.14987-0.51676-0.14986-0.18087-0.47542-0.1757-0.29972 0-0.46509 0.11886-0.16536 0.11885-0.24288 0.31522v4.4493h-0.9095v-5.5914z"/>
     <path d="m118.72 225.89q-0.58911 0-1.0852-0.20154-0.49092-0.20154-0.84232-0.56328-0.3514-0.36173-0.54777-0.85782-0.19637-0.4961-0.19637-1.08v-0.21704q0-0.67696 0.21704-1.2092 0.21704-0.53744 0.57361-0.90434 0.36173-0.37207 0.81648-0.56844 0.45992-0.19637 0.94051-0.19637 0.60462 0 1.0542 0.21187 0.45476 0.20671 0.75448 0.57878 0.29972 0.3669 0.44442 0.86816 0.14986 0.50127 0.14986 1.0852v0.42891h-3.9946q0.0155 0.38241 0.14469 0.71831 0.13436 0.33589 0.36174 0.58911 0.23254 0.24804 0.55294 0.39274 0.32039 0.14469 0.70796 0.14469 0.5116 0 0.90951-0.2067 0.39791-0.20671 0.66146-0.54777l0.58394 0.45475q-0.13952 0.21187-0.3514 0.40824-0.2067 0.19121-0.48059 0.34107-0.27388 0.14986-0.62012 0.23771-0.34623 0.093-0.75447 0.093zm-0.12403-5.0126q-0.28938 0-0.54777 0.10852-0.25838 0.10336-0.46508 0.31006-0.20671 0.20154-0.3514 0.50126-0.13953 0.29456-0.19637 0.68213h3.0076v-0.0724q-0.0155-0.27905-0.10852-0.55293-0.0878-0.27389-0.26355-0.49093-0.1757-0.21704-0.44441-0.3514-0.26355-0.13436-0.63046-0.13436z"/>
     <path d="m123.46 220.19 0.0672 0.82683q0.30489-0.43409 0.7493-0.67696 0.44442-0.24805 0.99219-0.25322 0.43925 0 0.79582 0.12402 0.36173 0.12403 0.61495 0.38758 0.25321 0.26355 0.38757 0.67179 0.13953 0.40308 0.13953 0.96118v3.5502h-0.95602v-3.5295q0-0.37207-0.0827-0.63045t-0.24805-0.41858q-0.16019-0.1602-0.3979-0.23254-0.23255-0.0724-0.53744-0.0724-0.48059 0-0.84749 0.24288-0.36174 0.23771-0.57878 0.63045v4.0101h-0.95601v-5.5914z"/>
     <path d="m131.21 218.84v1.3539h2.1291v0.73898h-2.1291v3.0386q0 0.32556 0.0827 0.53744 0.0827 0.21187 0.22737 0.34106 0.1447 0.12402 0.33073 0.1757 0.1912 0.0517 0.40308 0.0517 0.15503 0 0.32039-0.0155 0.16537-0.0207 0.32039-0.0465 0.1602-0.0258 0.29456-0.0517 0.13953-0.031 0.22738-0.0517l0.13436 0.67696q-0.11886 0.0724-0.28939 0.12919-0.17054 0.0517-0.37207 0.0879-0.20154 0.0413-0.42892 0.062-0.22221 0.0207-0.44441 0.0207-0.37208 0-0.69764-0.10336-0.32039-0.10852-0.5581-0.33589-0.23771-0.23255-0.37724-0.59428-0.13436-0.36691-0.13436-0.88367v-3.0386h-1.4676v-0.73898h1.4676v-1.3539z"/>
    </g>
   </g>
   <path d="m55.033 222.92h4.2333" fill="none" stroke="#d3af68" stroke-width="2.1167"/>
   <path d="m46.567 229.27v8.4667h12.7" fill="none" stroke="#d3af68" stroke-width="2.1167"/>
   <g>
    <rect x="74.083" y="231.38" width="61.383" height="12.7" fill="#c79a40" style="paint-order:normal"/>
    <rect x="59.267" y="231.38" width="16.933" height="12.7" fill="#d3af68" style="paint-order:normal"/>
    <g fill="#f9f9f9" aria-label="V">
     <path d="m67.723 239.96 1.7777-5.9841h1.018l-2.3719 7.5241h-0.83199l-2.3771-7.5241h1.0232z" fill="#f9f9f9" stroke-width=".26458"/>
    </g>
    <g fill="#f9f9f9" stroke-width=".26458" aria-label="something">
     <path d="m81.892 239.12q0-0.17053-0.06718-0.30489-0.06718-0.13953-0.22738-0.25321-0.1602-0.11369-0.42375-0.20671-0.26355-0.0982-0.65629-0.1757-0.48059-0.0982-0.8785-0.23771-0.39274-0.13953-0.67696-0.33073-0.27905-0.19637-0.43408-0.45475-0.15503-0.26355-0.15503-0.60979 0-0.34106 0.1602-0.63562 0.1602-0.29972 0.44958-0.52193t0.6873-0.3514q0.40308-0.12919 0.88367-0.12919 0.51676 0 0.93018 0.13436 0.41341 0.13436 0.7028 0.37207t0.44442 0.55811q0.1602 0.31522 0.1602 0.68212h-0.95601q0-0.18086-0.09302-0.35139-0.09302-0.1757-0.25838-0.31006-0.16536-0.13436-0.40308-0.21704-0.23254-0.0827-0.5271-0.0827-0.30489 0-0.53744 0.0672-0.22738 0.0672-0.38241 0.18087-0.14986 0.11369-0.22738 0.26355-0.07751 0.14986-0.07751 0.31006 0 0.16536 0.06201 0.29455 0.06201 0.1292 0.21187 0.23255 0.15503 0.10335 0.40824 0.18603 0.25838 0.0827 0.65112 0.1602 0.51676 0.10852 0.92501 0.25321 0.40824 0.13953 0.6873 0.34107 0.27905 0.19637 0.42375 0.45992 0.14986 0.26355 0.14986 0.60978 0 0.37207-0.17053 0.67696-0.16536 0.30489-0.46509 0.52193-0.29972 0.21705-0.7183 0.3359-0.41858 0.11886-0.91467 0.11886-0.56844 0-1.0129-0.14986-0.44442-0.15503-0.75448-0.40308-0.30489-0.25322-0.47026-0.58394-0.1602-0.33073-0.1602-0.6873h0.95601q0.02067 0.29455 0.15503 0.49609 0.13953 0.20154 0.34106 0.32556 0.20671 0.12403 0.45475 0.1757 0.24805 0.0517 0.49093 0.0517 0.60461 0 0.95601-0.22221t0.35657-0.58911z"/>
     <path d="m84.253 237.75q0-0.60461 0.1757-1.1214 0.1757-0.52193 0.50126-0.90433 0.33073-0.38241 0.80098-0.59945 0.47026-0.22221 1.0594-0.22221 0.59428 0 1.0645 0.22221 0.47542 0.21704 0.80098 0.59945 0.33073 0.3824 0.50643 0.90433 0.1757 0.51677 0.1757 1.1214v0.11369q0 0.60462-0.1757 1.1214t-0.50643 0.89917q-0.32556 0.3824-0.79582 0.59945-0.47026 0.21704-1.0594 0.21704-0.59428 0-1.0697-0.21704-0.47026-0.21705-0.80098-0.59945-0.32556-0.38241-0.50126-0.89917t-0.1757-1.1214zm0.95601 0.11369q0 0.41341 0.09819 0.79065 0.09819 0.37207 0.29456 0.65629 0.20154 0.28422 0.50126 0.44959 0.29972 0.16536 0.69763 0.16536 0.39274 0 0.6873-0.16536 0.29972-0.16537 0.49609-0.44959 0.20154-0.28422 0.29972-0.65629 0.09819-0.37724 0.09819-0.79065v-0.11369q0-0.40824-0.10335-0.78031-0.09819-0.37724-0.29972-0.66146-0.19637-0.28422-0.49609-0.44958-0.29456-0.17054-0.69246-0.17054-0.39791 0-0.69246 0.17054-0.29456 0.16536-0.49609 0.44958-0.19637 0.28422-0.29456 0.66146-0.09819 0.37207-0.09819 0.78031z"/>
     <path d="m91.307 235.01 0.02584 0.5271q0.17053-0.29455 0.44442-0.45992 0.27905-0.16536 0.67179-0.17053 0.76998 0 1.0284 0.59945 0.16536-0.26872 0.43408-0.42892 0.27388-0.16536 0.66146-0.17053 0.61495 0 0.94568 0.37724t0.33073 1.142v4.1754h-0.9095v-4.1858q0-0.7028-0.64596-0.69763-0.17053 0-0.29456 0.0465-0.12402 0.0465-0.20671 0.12919-0.08268 0.0775-0.12919 0.18604-0.04651 0.10335-0.06201 0.21704v4.3046h-0.90951v-4.191q0-0.3359-0.14986-0.51677-0.14986-0.18087-0.47542-0.1757-0.29972 0-0.46509 0.11886-0.16536 0.11885-0.24288 0.31522v4.4493h-0.9095v-5.5914z"/>
     <path d="m99.684 240.7q-0.58911 0-1.0852-0.20154-0.49093-0.20154-0.84233-0.56327-0.3514-0.36174-0.54777-0.85783-0.19637-0.4961-0.19637-1.08v-0.21704q0-0.67696 0.21704-1.2092 0.21704-0.53743 0.57361-0.90434 0.36174-0.37207 0.81649-0.56844 0.45992-0.19637 0.94051-0.19637 0.60462 0 1.0542 0.21187 0.45476 0.20671 0.75448 0.57878 0.29972 0.3669 0.44442 0.86816 0.14986 0.50127 0.14986 1.0852v0.42891h-3.9946q0.0155 0.38241 0.14469 0.71831 0.13436 0.33589 0.36174 0.58911 0.23254 0.24804 0.55294 0.39274 0.32039 0.14469 0.70797 0.14469 0.5116 0 0.90951-0.2067 0.39791-0.20671 0.66146-0.54777l0.58394 0.45475q-0.13952 0.21187-0.3514 0.40824-0.2067 0.19121-0.48059 0.34107-0.27388 0.14986-0.62012 0.23771-0.34623 0.093-0.75447 0.093zm-0.12402-5.0126q-0.28939 0-0.54777 0.10852-0.25838 0.10336-0.46509 0.31006-0.2067 0.20154-0.3514 0.50126-0.13953 0.29456-0.19637 0.68213h3.0076v-0.0723q-0.0155-0.27906-0.10852-0.55294-0.0879-0.27389-0.26355-0.49093-0.1757-0.21704-0.44441-0.3514-0.26355-0.13436-0.63046-0.13436z"/>
     <path d="m105.82 233.66v1.3539h2.1291v0.73898h-2.1291v3.0386q0 0.32556 0.0827 0.53744 0.0827 0.21187 0.22738 0.34106 0.14469 0.12402 0.33073 0.1757 0.1912 0.0517 0.40307 0.0517 0.15503 0 0.3204-0.0155 0.16536-0.0207 0.32039-0.0465 0.1602-0.0258 0.29455-0.0517 0.13953-0.031 0.22738-0.0517l0.13436 0.67696q-0.11886 0.0724-0.28939 0.12919-0.17053 0.0517-0.37207 0.0879-0.20154 0.0413-0.42891 0.062-0.22221 0.0207-0.44442 0.0207-0.37207 0-0.69763-0.10336-0.3204-0.10852-0.55811-0.33589-0.23771-0.23255-0.37724-0.59428-0.13435-0.3669-0.13435-0.88367v-3.0386h-1.4676v-0.73898h1.4676v-1.3539z"/>
     <path d="m110.86 235.84q0.29972-0.43924 0.73897-0.68212 0.43925-0.24805 0.98702-0.25322 0.43925 0 0.79582 0.12919 0.36173 0.12403 0.61495 0.39274 0.25321 0.26872 0.38757 0.68213 0.13953 0.40825 0.13953 0.97152v3.5192h-0.95602v-3.5295q0-0.68729-0.33073-1.0232-0.32556-0.3359-0.93534-0.33073-0.45992 0-0.83716 0.22738-0.37207 0.22221-0.60461 0.59428v4.0618h-0.95601v-7.9375h0.95601z"/>
     <path d="m116.4 235.01h2.8577v4.7646h1.8242v0.82682h-4.6819v-0.82682h1.9017v-3.9326h-1.9017zm1.7777-1.4676q0-0.23771 0.13953-0.3979 0.14469-0.16537 0.43408-0.16537 0.28422 0 0.42892 0.16537 0.14469 0.16019 0.14469 0.3979 0 0.23255-0.14469 0.38758-0.1447 0.15503-0.42892 0.15503-0.28939 0-0.43408-0.15503-0.13953-0.15503-0.13953-0.38758z"/>
     <path d="m123.46 235.01 0.0672 0.82683q0.30489-0.43408 0.74931-0.67696 0.44442-0.24805 0.99219-0.25322 0.43925 0 0.79582 0.12402 0.36173 0.12403 0.61495 0.38758 0.25321 0.26355 0.38757 0.67179 0.13953 0.40308 0.13953 0.96118v3.5502h-0.95602v-3.5295q0-0.37207-0.0827-0.63045t-0.24805-0.41858q-0.16019-0.16019-0.39791-0.23254-0.23254-0.0724-0.53743-0.0724-0.48059 0-0.84749 0.24288-0.36174 0.23771-0.57878 0.63045v4.0101h-0.95601v-5.5914z"/>
     <path d="m128.77 237.76q0-0.62528 0.14986-1.1472 0.15503-0.5271 0.44442-0.90433 0.28939-0.37724 0.7028-0.58912 0.41341-0.21187 0.93534-0.21187 0.51677 0 0.90434 0.18604 0.39274 0.18086 0.66663 0.5271l0.0465-0.60979h0.86816v5.4725q0 0.55294-0.1757 0.98185-0.17053 0.42891-0.48576 0.72864-0.31006 0.29972-0.74414 0.45475t-0.96118 0.15503q-0.21704 0-0.49609-0.0517-0.27906-0.0465-0.56844-0.16019-0.28422-0.10852-0.55294-0.29456-0.26355-0.18603-0.45475-0.45992l0.49609-0.57361q0.1757 0.21188 0.36173 0.35657 0.18604 0.14986 0.37724 0.23771 0.19121 0.0879 0.38241 0.12402 0.1912 0.0413 0.3824 0.0413 0.34107 0 0.61495-0.0982 0.27389-0.0982 0.46509-0.28939 0.19637-0.18603 0.29972-0.46509 0.10336-0.27905 0.10336-0.64078v-0.48059q-0.27906 0.32039-0.66146 0.49092-0.37724 0.16537-0.8785 0.16537-0.5116 0-0.92501-0.21704-0.41341-0.21705-0.7028-0.59945-0.28422-0.38241-0.43925-0.89917-0.15503-0.52193-0.15503-1.1214zm0.95602 0.10852q0 0.40824 0.0827 0.77515 0.0879 0.3669 0.26872 0.64595 0.18603 0.27906 0.47025 0.44442 0.28422 0.1602 0.68213 0.1602 0.24805 0 0.44442-0.0569 0.20154-0.062 0.35657-0.17053 0.16019-0.10852 0.28422-0.25838 0.12402-0.14986 0.21704-0.33073v-2.5632q-0.093-0.1757-0.21704-0.3204-0.12403-0.14469-0.28422-0.24804-0.1602-0.10852-0.35657-0.16537-0.19637-0.062-0.43408-0.062-0.40308 0-0.69247 0.16537-0.28422 0.16536-0.47025 0.44958-0.18087 0.27905-0.26872 0.65112-0.0827 0.36691-0.0827 0.77515z"/>
    </g>
   </g>
  </g>
 </g>
 <g>
  <g fill="#f00" stroke="#f00">
   <g stroke-width=".51622">
    <path d="m56.08 41.374v57.223"/>
    <path d="m63.878 52.374v66.949"/>
    <path d="m20.913 27.018 0.14849 61.974"/>
    <path d="m58.627 14.807 0.14849 61.974"/>
    <path d="m48.657 26.65v57.817"/>
   </g>
   <path d="m95.689 53.896v53.25" stroke-width=".46039"/>
  </g>
  <path d="m40.282 98.619v-50.061l15.887 0.13036" fill="none" stroke="#f00" stroke-dasharray="1.33800001, 0.446" stroke-width=".446"/>
  <path d="m43.326 110.19v-50.061l52.418 0.13036" fill="none" stroke="#f00" stroke-dasharray="1.33800001, 0.446" stroke-width=".446"/>
  <g>
   <ellipse cx="95.664" cy="60.275" rx="1.2938" ry="1.2546" fill="#f00" style="paint-order:normal"/>
   <ellipse cx="55.937" cy="48.403" rx="1.2938" ry="1.2546" fill="#f00" style="paint-order:normal"/>
   <rect transform="matrix(1 0 .23767 .97135 0 0)" x="-1.142" y="8.8934" width="118.05" height="65.121" fill="#221a0f" opacity=".75" style="paint-order:normal"/>
  </g>
  <g transform="translate(20.548 -.30442)">
   <ellipse transform="matrix(1 0 .25882 .96593 0 0)" cx="29.001" cy="55.187" rx="1.1412" ry="1.1814" fill="#f00" style="paint-order:normal"/>
   <ellipse transform="matrix(1 0 .25882 .96593 0 0)" cx="29.115" cy="55.018" rx="1.1412" ry="1.1814" fill="#ff7f7f" style="paint-order:normal"/>
  </g>
  <g transform="translate(12.813 -11.989)">
   <ellipse transform="matrix(1 0 .25882 .96593 0 0)" cx="29.001" cy="55.187" rx="1.1412" ry="1.1814" fill="#f00" style="paint-order:normal"/>
   <ellipse transform="matrix(1 0 .25882 .96593 0 0)" cx="29.115" cy="55.018" rx="1.1412" ry="1.1814" fill="#ff7f7f" style="paint-order:normal"/>
  </g>
  <g transform="translate(-22.214 -26.028)">
   <ellipse transform="matrix(1 0 .25882 .96593 0 0)" cx="29.001" cy="55.187" rx="1.1412" ry="1.1814" fill="#f00" style="paint-order:normal"/>
   <ellipse transform="matrix(1 0 .25882 .96593 0 0)" cx="29.115" cy="55.018" rx="1.1412" ry="1.1814" fill="#ff7f7f" style="paint-order:normal"/>
  </g>
  <g transform="translate(15.37 -38.481)">
   <ellipse transform="matrix(1 0 .25882 .96593 0 0)" cx="29.001" cy="55.187" rx="1.1412" ry="1.1814" fill="#f00" style="paint-order:normal"/>
   <ellipse transform="matrix(1 0 .25882 .96593 0 0)" cx="29.115" cy="55.018" rx="1.1412" ry="1.1814" fill="#ff7f7f" style="paint-order:normal"/>
  </g>
  <g transform="translate(5.3273 -26.028)">
   <ellipse transform="matrix(1 0 .25882 .96593 0 0)" cx="29.001" cy="55.187" rx="1.1412" ry="1.1814" fill="#f00" style="paint-order:normal"/>
   <ellipse transform="matrix(1 0 .25882 .96593 0 0)" cx="29.115" cy="55.018" rx="1.1412" ry="1.1814" fill="#ff7f7f" style="paint-order:normal"/>
  </g>
  <g transform="translate(52.36 1.2177)">
   <ellipse transform="matrix(1 0 .25882 .96593 0 0)" cx="29.001" cy="55.187" rx="1.1412" ry="1.1814" fill="#f00" style="paint-order:normal"/>
   <ellipse transform="matrix(1 0 .25882 .96593 0 0)" cx="29.115" cy="55.018" rx="1.1412" ry="1.1814" fill="#ff7f7f" style="paint-order:normal"/>
  </g>
 </g>
 <g stroke-width=".25811">
  <text transform="skewX(15)" x="7.1449637" y="17.436331" fill="#d3af68" font-family="'Roboto Mono'" font-size="10.324px" letter-spacing="0px" word-spacing="0px" style="line-height:1.25" xml:space="preserve"><tspan x="7.1449637" y="17.436331">// blah blah blah</tspan><tspan x="7.1449637" y="30.341841">if (something) {</tspan><tspan x="7.1449637" y="43.247353">  do_stuff();</tspan><tspan x="7.1449637" y="56.152863">  something++;</tspan><tspan x="7.1449637" y="69.058372">}</tspan><tspan x="7.1449637" y="81.963882"/></text>
  <g transform="skewX(15)" fill="#e6d1a8" aria-label="// blah blah blah if (something) {   do_stuff();   something++; } ">
   <path d="m9.6685 17.621h-0.83684l3.0651-7.9702h0.8318z"/>
   <path d="m15.859 17.621h-0.83684l3.0651-7.9702h0.8318z"/>
   <path d="m31.633 14.324q0 0.58478-0.14115 1.0939-0.14115 0.50412-0.41338 0.87717t-0.67552 0.58478q-0.39826 0.21173-0.9175 0.21173-0.52429 0-0.91246-0.18652-0.38313-0.18652-0.65536-0.53437l-0.04537 0.62007h-0.85701v-7.7433h0.93262v2.8735q0.26718-0.33272 0.64528-0.50916 0.37809-0.17644 0.88221-0.17644 0.52429 0 0.92758 0.20669t0.67552 0.5747q0.27223 0.36801 0.41338 0.88221 0.14115 0.50916 0.14115 1.1192zm-0.93262-0.10587q0-0.39826-0.08066-0.75618-0.07562-0.36297-0.24702-0.63519-0.1714-0.27727-0.44867-0.43859t-0.68056-0.16132q-0.24198 0-0.44363 0.06554-0.20165 0.06049-0.36297 0.17644-0.15628 0.11091-0.28231 0.26718-0.12099 0.15124-0.20669 0.33272v2.3845q0.09074 0.18148 0.21173 0.33776 0.12603 0.15124 0.28735 0.26718 0.16132 0.11595 0.36297 0.18148 0.20165 0.06049 0.44363 0.06049 0.38313 0 0.65536-0.15628 0.27727-0.16132 0.44867-0.43354 0.17644-0.27223 0.2571-0.63015 0.0857-0.35793 0.0857-0.75618z"/>
   <path d="m33.347 9.2476h2.7878v6.9367h1.7795v0.80659h-4.5673v-0.80659h1.8552v-6.1251h-1.8552z"/>
   <path d="m42.976 16.991q-0.05545-0.10586-0.09074-0.26214-0.03025-0.16132-0.04537-0.33272-0.14115 0.14115-0.3176 0.26718-0.1714 0.12603-0.38313 0.22181-0.20669 0.09578-0.44363 0.15124-0.23694 0.05545-0.50412 0.05545-0.43354 0-0.78643-0.12603-0.34784-0.12603-0.59486-0.33776-0.24198-0.21677-0.37809-0.50916-0.13107-0.29743-0.13107-0.64023 0-0.44867 0.17644-0.78643 0.18148-0.33776 0.50916-0.55958 0.32768-0.22685 0.78643-0.33776 0.46379-0.11091 1.0334-0.11091h1.0183v-0.4285q0-0.24702-0.09074-0.44363t-0.2571-0.33272q-0.16636-0.14115-0.40834-0.21677-0.23694-0.07562-0.53437-0.07562-0.27727 0-0.49908 0.07058-0.21677 0.07058-0.36801 0.18652-0.15124 0.11595-0.23694 0.27727-0.08066 0.15628-0.08066 0.32768h-0.93767q5e-3 -0.29743 0.15124-0.58478 0.15124-0.28735 0.4285-0.5142 0.28231-0.2319 0.68056-0.37305 0.4033-0.14115 0.91246-0.14115 0.46379 0 0.86205 0.11595 0.39826 0.11091 0.68561 0.3428 0.29239 0.22686 0.45875 0.56966 0.16636 0.3428 0.16636 0.80155v2.5357q0 0.27222 0.05041 0.57974 0.05041 0.30247 0.14115 0.52933v0.08066zm-1.6485-0.71081q0.27222 0 0.50916-0.07058t0.4285-0.18652q0.19661-0.11595 0.33776-0.26214 0.14115-0.15124 0.22181-0.31256v-1.104h-0.86709q-0.81668 0-1.2704 0.24198-0.45371 0.24198-0.45371 0.76122 0 0.20165 0.06554 0.37305 0.07058 0.1714 0.20669 0.29743 0.13611 0.12099 0.3428 0.19157 0.20669 0.07058 0.47892 0.07058z"/>
   <path d="m46.515 12.348q0.29239-0.4285 0.72089-0.66544 0.4285-0.24198 0.96287-0.24702 0.4285 0 0.77635 0.12603 0.35288 0.12099 0.5999 0.38313 0.24702 0.26214 0.37809 0.66544 0.13611 0.39826 0.13611 0.94775v3.4331h-0.93262v-3.4432q0-0.67048-0.32264-0.99816-0.3176-0.32768-0.91246-0.32264-0.44867 0-0.81668 0.22181-0.36297 0.21677-0.58982 0.57974v3.9624h-0.93262v-7.7433h0.93262z"/>
   <path d="m62.586 14.324q0 0.58478-0.14115 1.0939-0.14115 0.50412-0.41338 0.87717t-0.67552 0.58478q-0.39826 0.21173-0.9175 0.21173-0.52429 0-0.91246-0.18652-0.38313-0.18652-0.65536-0.53437l-0.04537 0.62007h-0.85701v-7.7433h0.93262v2.8735q0.26718-0.33272 0.64528-0.50916 0.37809-0.17644 0.88221-0.17644 0.52429 0 0.92758 0.20669t0.67552 0.5747q0.27223 0.36801 0.41338 0.88221 0.14115 0.50916 0.14115 1.1192zm-0.93262-0.10587q0-0.39826-0.08066-0.75618-0.07562-0.36297-0.24702-0.63519-0.1714-0.27727-0.44867-0.43859t-0.68056-0.16132q-0.24198 0-0.44363 0.06554-0.20165 0.06049-0.36297 0.17644-0.15628 0.11091-0.28231 0.26718-0.12099 0.15124-0.20669 0.33272v2.3845q0.09074 0.18148 0.21173 0.33776 0.12603 0.15124 0.28735 0.26718 0.16132 0.11595 0.36297 0.18148 0.20165 0.06049 0.44363 0.06049 0.38313 0 0.65536-0.15628 0.27727-0.16132 0.44867-0.43354 0.17644-0.27223 0.2571-0.63015 0.0857-0.35793 0.0857-0.75618z"/>
   <path d="m64.3 9.2476h2.7878v6.9367h1.7795v0.80659h-4.5673v-0.80659h1.8552v-6.1251h-1.8552z"/>
   <path d="m73.929 16.991q-0.05545-0.10586-0.09074-0.26214-0.03025-0.16132-0.04537-0.33272-0.14115 0.14115-0.3176 0.26718-0.1714 0.12603-0.38313 0.22181-0.20669 0.09578-0.44363 0.15124-0.23694 0.05545-0.50412 0.05545-0.43354 0-0.78643-0.12603-0.34784-0.12603-0.59486-0.33776-0.24198-0.21677-0.37809-0.50916-0.13107-0.29743-0.13107-0.64023 0-0.44867 0.17644-0.78643 0.18148-0.33776 0.50916-0.55958 0.32768-0.22685 0.78643-0.33776 0.46379-0.11091 1.0334-0.11091h1.0183v-0.4285q0-0.24702-0.09074-0.44363t-0.2571-0.33272q-0.16636-0.14115-0.40834-0.21677-0.23694-0.07562-0.53437-0.07562-0.27727 0-0.49908 0.07058-0.21677 0.07058-0.36801 0.18652-0.15124 0.11595-0.23694 0.27727-0.08066 0.15628-0.08066 0.32768h-0.93767q5e-3 -0.29743 0.15124-0.58478 0.15124-0.28735 0.4285-0.5142 0.28231-0.2319 0.68056-0.37305 0.4033-0.14115 0.91246-0.14115 0.46379 0 0.86205 0.11595 0.39826 0.11091 0.68561 0.3428 0.29239 0.22686 0.45875 0.56966 0.16636 0.3428 0.16636 0.80155v2.5357q0 0.27222 0.05041 0.57974 0.05041 0.30247 0.14116 0.52933v0.08066zm-1.6485-0.71081q0.27222 0 0.50916-0.07058t0.4285-0.18652q0.19661-0.11595 0.33776-0.26214 0.14115-0.15124 0.22181-0.31256v-1.104h-0.86709q-0.81668 0-1.2704 0.24198-0.45371 0.24198-0.45371 0.76122 0 0.20165 0.06554 0.37305 0.07058 0.1714 0.20669 0.29743 0.13611 0.12099 0.3428 0.19157 0.20669 0.07058 0.47892 0.07058z"/>
   <path d="m77.468 12.348q0.29239-0.4285 0.72089-0.66544 0.4285-0.24198 0.96287-0.24702 0.4285 0 0.77635 0.12603 0.35288 0.12099 0.5999 0.38313 0.24702 0.26214 0.37809 0.66544 0.13611 0.39826 0.13611 0.94775v3.4331h-0.93262v-3.4432q0-0.67048-0.32264-0.99816-0.3176-0.32768-0.91246-0.32264-0.44867 0-0.81668 0.22181-0.36297 0.21677-0.58982 0.57974v3.9624h-0.93262v-7.7433h0.93262z"/>
   <path d="m93.539 14.324q0 0.58478-0.14115 1.0939-0.14115 0.50412-0.41338 0.87717-0.27222 0.37305-0.67552 0.58478-0.39826 0.21173-0.9175 0.21173-0.52429 0-0.91246-0.18652-0.38313-0.18652-0.65536-0.53437l-0.04537 0.62007h-0.85701v-7.7433h0.93262v2.8735q0.26718-0.33272 0.64528-0.50916 0.37809-0.17644 0.88221-0.17644 0.52429 0 0.92758 0.20669 0.4033 0.20669 0.67552 0.5747 0.27223 0.36801 0.41338 0.88221 0.14115 0.50916 0.14115 1.1192zm-0.93262-0.10587q0-0.39826-0.08066-0.75618-0.07562-0.36297-0.24702-0.63519-0.1714-0.27727-0.44867-0.43859t-0.68056-0.16132q-0.24198 0-0.44363 0.06554-0.20165 0.06049-0.36297 0.17644-0.15628 0.11091-0.28231 0.26718-0.12099 0.15124-0.20669 0.33272v2.3845q0.09074 0.18148 0.21173 0.33776 0.12603 0.15124 0.28735 0.26718 0.16132 0.11595 0.36297 0.18148 0.20165 0.06049 0.44363 0.06049 0.38313 0 0.65536-0.15628 0.27727-0.16132 0.44867-0.43354 0.17644-0.27223 0.2571-0.63015 0.0857-0.35793 0.0857-0.75618z"/>
   <path d="m95.253 9.2476h2.7878v6.9367h1.7795v0.80659h-4.5673v-0.80659h1.8552v-6.1251h-1.8552z"/>
   <path d="m104.88 16.991q-0.0555-0.10586-0.0907-0.26214-0.0302-0.16132-0.0454-0.33272-0.14115 0.14115-0.31759 0.26718-0.17141 0.12603-0.38314 0.22181-0.20669 0.09578-0.44362 0.15124-0.23694 0.05545-0.50413 0.05545-0.43354 0-0.78642-0.12603-0.34785-0.12603-0.59487-0.33776-0.24198-0.21677-0.37809-0.50916-0.13107-0.29743-0.13107-0.64023 0-0.44867 0.17644-0.78643 0.18149-0.33776 0.50916-0.55958 0.32768-0.22685 0.78643-0.33776 0.4638-0.11091 1.0334-0.11091h1.0183v-0.4285q0-0.24702-0.0907-0.44363t-0.25711-0.33272q-0.16636-0.14115-0.40833-0.21677-0.23694-0.07562-0.53437-0.07562-0.27727 0-0.49908 0.07058-0.21677 0.07058-0.36801 0.18652-0.15124 0.11595-0.23694 0.27727-0.0807 0.15628-0.0807 0.32768h-0.93766q5e-3 -0.29743 0.15123-0.58478 0.15124-0.28735 0.42851-0.5142 0.2823-0.2319 0.68056-0.37305 0.4033-0.14115 0.91246-0.14115 0.46379 0 0.86205 0.11595 0.39825 0.11091 0.6856 0.3428 0.29239 0.22686 0.45875 0.56966 0.16636 0.3428 0.16636 0.80155v2.5357q0 0.27222 0.0504 0.57974 0.0504 0.30247 0.14115 0.52933v0.08066zm-1.6485-0.71081q0.27222 0 0.50916-0.07058t0.4285-0.18652q0.19661-0.11595 0.33777-0.26214 0.14115-0.15124 0.22181-0.31256v-1.104h-0.86709q-0.81668 0-1.2704 0.24198-0.45371 0.24198-0.45371 0.76122 0 0.20165 0.0655 0.37305 0.0706 0.1714 0.20669 0.29743 0.13611 0.12099 0.3428 0.19157 0.20669 0.07058 0.47892 0.07058z"/>
   <path d="m108.42 12.348q0.29239-0.4285 0.72089-0.66544 0.42851-0.24198 0.96287-0.24702 0.42851 0 0.77635 0.12603 0.35289 0.12099 0.59991 0.38313t0.37809 0.66544q0.13611 0.39826 0.13611 0.94775v3.4331h-0.93262v-3.4432q0-0.67048-0.32264-0.99816-0.3176-0.32768-0.91246-0.32264-0.44867 0-0.81668 0.22181-0.36297 0.21677-0.58982 0.57974v3.9624h-0.93263v-7.7433h0.93263z"/>
   <path d="m8.5847 24.442h2.7878v4.648h1.7795v0.80659h-4.5673v-0.80659h1.8552v-3.8364h-1.8552zm1.7342-1.4317q0-0.2319 0.13611-0.38817 0.14115-0.16132 0.42346-0.16132 0.27727 0 0.41842 0.16132 0.14115 0.15628 0.14115 0.38817 0 0.22686-0.14115 0.37809-0.14115 0.15124-0.41842 0.15124-0.28231 0-0.42346-0.15124-0.13611-0.15124-0.13611-0.37809z"/>
   <path d="m16.02 29.896v-4.7337h-1.5023v-0.72089h1.5023v-0.38313q0-0.52429 0.15124-0.9175 0.15628-0.39826 0.43354-0.66544 0.28231-0.26718 0.67552-0.4033 0.39322-0.13611 0.87717-0.13611 0.33272 0 0.64528 0.05545 0.3176 0.05545 0.65032 0.14115l-0.11091 0.77131q-0.20669-0.07058-0.48396-0.12099-0.27223-0.05545-0.58478-0.05545-0.65536 5e-3 -0.98808 0.33272-0.32768 0.32768-0.32768 0.99816v0.38313h2.1022v0.72089h-2.1022v4.7337z"/>
   <path d="m27.953 26.917q0-0.72089 0.11091-1.3561 0.11595-0.63519 0.30751-1.1746 0.19157-0.54445 0.43859-0.99312 0.25206-0.44867 0.52429-0.79651 0.27727-0.34784 0.55453-0.59486 0.27727-0.24702 0.52933-0.38817l0.19661 0.61503q-0.31256 0.23694-0.62511 0.64528-0.30751 0.40834-0.55453 0.99312-0.24198 0.57974-0.39826 1.341-0.15124 0.75618-0.15124 1.6989v0.07058q0 0.94271 0.15124 1.7039 0.15628 0.76122 0.39826 1.346 0.24702 0.58478 0.55453 0.99816 0.31256 0.41842 0.62511 0.67048l-0.19661 0.56966q-0.25206-0.14116-0.53437-0.38818-0.27727-0.24198-0.55453-0.59486-0.27223-0.34784-0.52429-0.79651-0.24702-0.44363-0.43859-0.98304-0.18652-0.54445-0.30247-1.1796-0.11091-0.63519-0.11091-1.3561z"/>
   <path d="m36.846 28.45q0-0.16636-0.06554-0.29743-0.06554-0.13611-0.22181-0.24702-0.15628-0.11091-0.41338-0.20165-0.2571-0.09578-0.64023-0.1714-0.46883-0.09578-0.85701-0.2319-0.38313-0.13611-0.6604-0.32264-0.27222-0.19157-0.42346-0.44363-0.15124-0.2571-0.15124-0.59486 0-0.33272 0.15628-0.62007 0.15628-0.29239 0.43858-0.50916t0.67048-0.3428q0.39322-0.12603 0.86205-0.12603 0.50412 0 0.90742 0.13107 0.4033 0.13107 0.68561 0.36297t0.43354 0.54445q0.15628 0.30751 0.15628 0.66544h-0.93262q0-0.17644-0.09074-0.3428-0.09074-0.1714-0.25206-0.30247-0.16132-0.13107-0.39321-0.21173-0.22686-0.08066-0.5142-0.08066-0.29743 0-0.52429 0.06553-0.22181 0.06554-0.37305 0.17644-0.1462 0.11091-0.22181 0.2571-0.07562 0.1462-0.07562 0.30247 0 0.16132 0.06049 0.28735 0.0605 0.12603 0.20669 0.22686 0.15124 0.10082 0.39826 0.18148 0.25206 0.08066 0.63519 0.15628 0.50412 0.10587 0.90238 0.24702 0.39826 0.13611 0.67048 0.33272 0.27223 0.19157 0.41338 0.44867 0.1462 0.2571 0.1462 0.59486 0 0.36297-0.16636 0.6604-0.16132 0.29743-0.45371 0.50916-0.29239 0.21173-0.70073 0.32768-0.40834 0.11595-0.8923 0.11595-0.55453 0-0.98808-0.1462-0.43354-0.15124-0.73602-0.39322-0.29743-0.24702-0.45875-0.56966-0.15628-0.32264-0.15628-0.67048h0.93262q0.02016 0.28735 0.15124 0.48396 0.13611 0.19661 0.33272 0.3176 0.20165 0.12099 0.44363 0.1714 0.24198 0.05041 0.47892 0.05041 0.58982 0 0.93262-0.21677 0.3428-0.21677 0.34784-0.5747z"/>
   <path d="m39.15 27.119q0-0.58982 0.1714-1.0939 0.1714-0.50916 0.489-0.88221 0.32264-0.37305 0.78139-0.58478 0.45875-0.21677 1.0334-0.21677 0.57974 0 1.0385 0.21677 0.46379 0.21173 0.78139 0.58478 0.32264 0.37305 0.49404 0.88221 0.1714 0.50412 0.1714 1.0939v0.11091q0 0.58982-0.1714 1.0939-0.1714 0.50412-0.49404 0.87717-0.3176 0.37305-0.77635 0.58478-0.45875 0.21173-1.0334 0.21173-0.57974 0-1.0435-0.21173-0.45875-0.21173-0.78139-0.58478-0.3176-0.37305-0.489-0.87717-0.1714-0.50412-0.1714-1.0939zm0.93262 0.11091q0 0.4033 0.09578 0.77131 0.09578 0.36297 0.28735 0.64023 0.19661 0.27727 0.489 0.43859 0.29239 0.16132 0.68056 0.16132 0.38313 0 0.67048-0.16132 0.29239-0.16132 0.48396-0.43859 0.19661-0.27727 0.29239-0.64023 0.09578-0.36801 0.09578-0.77131v-0.11091q0-0.39826-0.10082-0.76122-0.09578-0.36801-0.29239-0.64528-0.19157-0.27727-0.48396-0.43858-0.28735-0.16636-0.67552-0.16636-0.38817 0-0.67552 0.16636-0.28735 0.16132-0.48396 0.43858-0.19157 0.27727-0.28735 0.64528-0.09578 0.36297-0.09578 0.76122z"/>
   <path d="m46.031 24.442 0.02521 0.5142q0.16636-0.28735 0.43354-0.44867 0.27223-0.16132 0.65536-0.16636 0.75114 0 1.0032 0.58478 0.16132-0.26214 0.42346-0.41842 0.26718-0.16132 0.64528-0.16636 0.5999 0 0.92254 0.36801 0.32264 0.36801 0.32264 1.1141v4.0733h-0.88726v-4.0834q0-0.6856-0.63015-0.68056-0.16636 0-0.28735 0.04537t-0.20165 0.12603q-0.08066 0.07562-0.12603 0.18148-0.04537 0.10082-0.0605 0.21173v4.1993h-0.88725v-4.0884q0-0.32768-0.1462-0.50412-0.1462-0.17644-0.46379-0.1714-0.29239 0-0.45371 0.11595t-0.23694 0.30751v4.3405h-0.88725v-5.4546z"/>
   <path d="m54.203 29.997q-0.5747 0-1.0587-0.19661-0.47892-0.19661-0.82172-0.54949-0.3428-0.35288-0.53437-0.83684-0.19157-0.48396-0.19157-1.0536v-0.21173q0-0.6604 0.21173-1.1796 0.21173-0.52429 0.55958-0.88221 0.35288-0.36297 0.79651-0.55453 0.44867-0.19157 0.9175-0.19157 0.58982 0 1.0284 0.20669 0.44363 0.20165 0.73602 0.56462 0.29239 0.35793 0.43354 0.84692 0.1462 0.489 0.1462 1.0587v0.41842h-3.8969q0.01512 0.37305 0.14115 0.70073 0.13107 0.32768 0.35288 0.5747 0.22685 0.24198 0.53941 0.38313 0.31256 0.14115 0.69065 0.14115 0.49908 0 0.88725-0.20165 0.38817-0.20165 0.64528-0.53437l0.56966 0.44363q-0.13611 0.20669-0.3428 0.39826-0.20165 0.18652-0.46883 0.33272-0.26718 0.1462-0.60495 0.2319-0.33776 0.09074-0.73602 0.09074zm-0.12099-4.89q-0.28231 0-0.53437 0.10586-0.25206 0.10082-0.45371 0.30247-0.20165 0.19661-0.3428 0.489-0.13611 0.28735-0.19157 0.66544h2.934v-0.07058q-0.01512-0.27222-0.10586-0.53941-0.0857-0.26718-0.2571-0.47892-0.1714-0.21173-0.43354-0.3428-0.2571-0.13107-0.61503-0.13107z"/>
   <path d="m60.192 23.121v1.3208h2.077v0.72089h-2.077v2.9642q0 0.3176 0.08066 0.52429t0.22181 0.33272q0.14115 0.12099 0.32264 0.1714 0.18652 0.05041 0.39322 0.05041 0.15124 0 0.31256-0.01512 0.16132-0.02016 0.31256-0.04537 0.15628-0.02521 0.28735-0.05041 0.13611-0.03025 0.22181-0.05041l0.13107 0.6604q-0.11595 0.07058-0.28231 0.12603-0.16636 0.05041-0.36297 0.0857-0.19661 0.04033-0.41842 0.06049-0.21677 0.02017-0.43354 0.02017-0.36297 0-0.68056-0.10082-0.31256-0.10587-0.54445-0.32768-0.2319-0.22686-0.36801-0.57974-0.13107-0.35793-0.13107-0.86205v-2.9642h-1.4317v-0.72089h1.4317v-1.3208z"/>
   <path d="m65.107 25.253q0.29239-0.4285 0.72089-0.66544 0.4285-0.24198 0.96287-0.24702 0.4285 0 0.77635 0.12603 0.35288 0.12099 0.5999 0.38313 0.24702 0.26214 0.37809 0.66544 0.13611 0.39826 0.13611 0.94775v3.4331h-0.93262v-3.4432q0-0.67048-0.32264-0.99816-0.3176-0.32768-0.91246-0.32264-0.44867 0-0.81668 0.22181-0.36297 0.21677-0.58982 0.57974v3.9624h-0.93262v-7.7433h0.93262z"/>
   <path d="m70.511 24.442h2.7878v4.648h1.7795v0.80659h-4.5673v-0.80659h1.8552v-3.8364h-1.8552zm1.7342-1.4317q0-0.2319 0.13611-0.38817 0.14115-0.16132 0.42346-0.16132 0.27727 0 0.41842 0.16132 0.14115 0.15628 0.14115 0.38817 0 0.22686-0.14115 0.37809-0.14116 0.15124-0.41842 0.15124-0.28231 0-0.42346-0.15124-0.13611-0.15124-0.13611-0.37809z"/>
   <path d="m77.392 24.442 0.06554 0.8066q0.29743-0.42346 0.73098-0.6604 0.43354-0.24198 0.96791-0.24702 0.4285 0 0.77635 0.12099 0.35288 0.12099 0.5999 0.37809 0.24702 0.2571 0.37809 0.65536 0.13611 0.39322 0.13611 0.93767v3.4633h-0.93262v-3.4432q0-0.36297-0.08066-0.61503t-0.24198-0.40834q-0.15628-0.15628-0.38817-0.22685-0.22686-0.07058-0.52429-0.07058-0.46883 0-0.82676 0.23694-0.35288 0.2319-0.56462 0.61503v3.912h-0.93262v-5.4546z"/>
   <path d="m82.575 27.124q0-0.60999 0.1462-1.1192 0.15124-0.5142 0.43354-0.88221 0.28231-0.36801 0.6856-0.5747t0.91246-0.20669q0.50412 0 0.88221 0.18148 0.38313 0.17644 0.65032 0.5142l0.04537-0.59486h0.84692v5.3386q0 0.53941-0.1714 0.95783-0.16636 0.41842-0.47387 0.71081-0.30247 0.29239-0.72594 0.44363-0.42346 0.15124-0.93767 0.15124-0.21173 0-0.48396-0.05041-0.27222-0.04537-0.55453-0.15628-0.27727-0.10587-0.53941-0.28735-0.2571-0.18148-0.44363-0.44867l0.48396-0.55957q0.1714 0.20669 0.35288 0.34784 0.18148 0.1462 0.36801 0.2319t0.37305 0.12099q0.18652 0.04033 0.37305 0.04033 0.33272 0 0.5999-0.09578 0.26718-0.09578 0.45371-0.28231 0.19157-0.18148 0.29239-0.45371 0.10082-0.27223 0.10082-0.62511v-0.46883q-0.27223 0.31256-0.64528 0.47892-0.36801 0.16132-0.85701 0.16132-0.49908 0-0.90238-0.21173t-0.6856-0.58478q-0.27727-0.37305-0.4285-0.87717-0.15124-0.50916-0.15124-1.0939zm0.93262 0.10586q0 0.39826 0.08066 0.75618 0.0857 0.35793 0.26214 0.63015 0.18148 0.27223 0.45875 0.43354 0.27727 0.15628 0.66544 0.15628 0.24198 0 0.43354-0.05545 0.19661-0.06049 0.34784-0.16636 0.15628-0.10586 0.27727-0.25206 0.12099-0.1462 0.21173-0.32264v-2.5004q-0.09074-0.1714-0.21173-0.31256-0.12099-0.14116-0.27727-0.24198-0.15628-0.10586-0.34784-0.16132-0.19157-0.06049-0.42346-0.06049-0.39322 0-0.67552 0.16132-0.27727 0.16132-0.45875 0.43858-0.17644 0.27223-0.26214 0.63519-0.08066 0.35793-0.08066 0.75618z"/>
   <path d="m92.339 26.967q0 0.72089-0.11595 1.3561-0.11091 0.63519-0.30247 1.1796-0.19157 0.53941-0.44363 0.98304-0.24702 0.44867-0.52429 0.79651-0.27222 0.35288-0.55453 0.59486-0.27727 0.24702-0.52933 0.38817l-0.19661-0.56966q0.31256-0.2319 0.62007-0.65032 0.31256-0.41338 0.55453-1.0032 0.24702-0.58982 0.39826-1.3561 0.15628-0.76626 0.15628-1.709v-0.07058q0-0.94271-0.16132-1.709-0.16132-0.77131-0.41842-1.3611-0.25206-0.59486-0.55958-1.0082-0.30247-0.41338-0.58982-0.64528l0.19661-0.56966q0.25206 0.14115 0.52933 0.38817 0.28231 0.24702 0.55453 0.59486 0.27727 0.34784 0.52429 0.79651 0.25206 0.44867 0.44363 0.99312 0.19157 0.53941 0.30247 1.1746 0.11595 0.63519 0.11595 1.3561z"/>
   <path d="m105.37 31.741q-0.32768-0.01008-0.59486-0.11091-0.26719-0.10082-0.47892-0.27223-0.21173-0.1714-0.368-0.39826-0.15124-0.22685-0.25711-0.489-0.10082-0.2571-0.15123-0.53437-0.0504-0.27223-0.0504-0.53941v-0.85197q0-0.72594-0.34784-1.0536-0.3428-0.32768-1.0536-0.33272v-0.73098q0.71081 0 1.0536-0.32264 0.34784-0.32768 0.34784-1.0587v-0.85701q0-0.26718 0.0454-0.53941 0.0454-0.27727 0.14115-0.53437 0.0958-0.26214 0.24198-0.489 0.15123-0.22686 0.36297-0.39826 0.21173-0.1714 0.48395-0.27223 0.27727-0.10082 0.62511-0.11091l0.10587 0.57974q-0.36297 0.01008-0.57974 0.1714-0.21173 0.16132-0.32264 0.41338-0.10586 0.24702-0.13611 0.55958-0.0302 0.31256-0.0302 0.62007v0.85701q-5e-3 0.60495-0.28231 1.0637-0.27726 0.45371-0.86205 0.69065 0.58479 0.2319 0.86205 0.69065 0.27727 0.45371 0.28231 1.0536v0.85197q0 0.31256 0.0504 0.62007 0.0504 0.31256 0.1714 0.55958 0.12603 0.25206 0.32768 0.41338 0.20669 0.16132 0.51925 0.1714z"/>
   <path d="m20.643 40.029q0-0.60999 0.15124-1.1191 0.15628-0.5142 0.43859-0.88221 0.28735-0.36801 0.69065-0.5747 0.4033-0.20669 0.90238-0.20669 0.489 0 0.85197 0.16636 0.36801 0.16132 0.63519 0.47387v-2.8281h0.93262v7.7433h-0.85701l-0.04033-0.5747q-0.27222 0.33272-0.65032 0.50412-0.37809 0.1714-0.88221 0.1714-0.49404 0-0.89734-0.21173-0.39826-0.21173-0.68056-0.58478t-0.43858-0.87717q-0.15628-0.50916-0.15628-1.0939zm0.93262 0.10587q0 0.39826 0.0857 0.75618t0.26214 0.63015q0.18148 0.27223 0.45875 0.43354 0.27727 0.15628 0.66544 0.15628 0.23694 0 0.4285-0.05545t0.34784-0.15628q0.15628-0.10586 0.27727-0.24702 0.12099-0.1462 0.21173-0.32264v-2.5307q-0.18148-0.33272-0.489-0.54445-0.30751-0.21677-0.76626-0.21677-0.39322 0-0.67552 0.16132-0.27727 0.16132-0.45875 0.43859-0.17644 0.27223-0.26214 0.63519-0.0857 0.35793-0.0857 0.75618z"/>
   <path d="m26.748 40.024q0-0.58982 0.1714-1.0939 0.1714-0.50916 0.489-0.88221 0.32264-0.37305 0.78139-0.58478 0.45875-0.21677 1.0334-0.21677 0.57974 0 1.0385 0.21677 0.46379 0.21173 0.78139 0.58478 0.32264 0.37305 0.49404 0.88221 0.1714 0.50412 0.1714 1.0939v0.11091q0 0.58982-0.1714 1.0939-0.1714 0.50412-0.49404 0.87717-0.3176 0.37305-0.77635 0.58478-0.45875 0.21173-1.0334 0.21173-0.57974 0-1.0435-0.21173-0.45875-0.21173-0.78139-0.58478-0.3176-0.37305-0.489-0.87717-0.1714-0.50412-0.1714-1.0939zm0.93262 0.11091q0 0.4033 0.09578 0.77131 0.09578 0.36297 0.28735 0.64023 0.19661 0.27727 0.489 0.43859 0.29239 0.16132 0.68056 0.16132 0.38313 0 0.67048-0.16132 0.29239-0.16132 0.48396-0.43859 0.19661-0.27727 0.29239-0.64023 0.09578-0.36801 0.09578-0.77131v-0.11091q0-0.39826-0.10082-0.76122-0.09578-0.36801-0.29239-0.64528-0.19157-0.27727-0.48396-0.43859-0.28735-0.16636-0.67552-0.16636-0.38817 0-0.67552 0.16636-0.28735 0.16132-0.48396 0.43859-0.19157 0.27727-0.28735 0.64528-0.09578 0.36297-0.09578 0.76122z"/>
   <path d="m37.728 43.563h-4.6228v-0.76122h4.6228z"/>
   <path d="m43.016 41.355q0-0.16636-0.06554-0.29743-0.06554-0.13611-0.22181-0.24702-0.15628-0.11091-0.41338-0.20165-0.2571-0.09578-0.64024-0.1714-0.46883-0.09578-0.85701-0.2319-0.38313-0.13611-0.6604-0.32264-0.27223-0.19157-0.42346-0.44363-0.15124-0.2571-0.15124-0.59486 0-0.33272 0.15628-0.62007 0.15628-0.29239 0.43859-0.50916 0.28231-0.21677 0.67048-0.3428 0.39322-0.12603 0.86205-0.12603 0.50412 0 0.90742 0.13107 0.4033 0.13107 0.6856 0.36297t0.43354 0.54445q0.15628 0.30751 0.15628 0.66544h-0.93262q0-0.17644-0.09074-0.3428-0.09074-0.1714-0.25206-0.30247-0.16132-0.13107-0.39322-0.21173-0.22686-0.08066-0.5142-0.08066-0.29743 0-0.52429 0.06554-0.22181 0.06554-0.37305 0.17644-0.1462 0.11091-0.22181 0.2571-0.07562 0.1462-0.07562 0.30247 0 0.16132 0.06049 0.28735 0.06049 0.12603 0.20669 0.22685 0.15124 0.10082 0.39826 0.18148 0.25206 0.08066 0.63519 0.15628 0.50412 0.10586 0.90238 0.24702 0.39826 0.13611 0.67048 0.33272 0.27222 0.19157 0.41338 0.44867 0.1462 0.2571 0.1462 0.59486 0 0.36297-0.16636 0.6604-0.16132 0.29743-0.45371 0.50916t-0.70073 0.32768q-0.40834 0.11595-0.8923 0.11595-0.55453 0-0.98808-0.1462-0.43354-0.15124-0.73602-0.39322-0.29743-0.24702-0.45875-0.56966-0.15627-0.32264-0.15627-0.67049h0.93262q0.02016 0.28735 0.15124 0.48396 0.13611 0.19661 0.33272 0.3176 0.20165 0.12099 0.44363 0.1714 0.24198 0.05041 0.47892 0.05041 0.58982 0 0.93262-0.21677 0.3428-0.21677 0.34784-0.5747z"/>
   <path d="m47.79 36.027v1.3208h2.077v0.72089h-2.077v2.9642q0 0.3176 0.08066 0.52429 0.08066 0.20669 0.22181 0.33272 0.14115 0.12099 0.32264 0.1714 0.18652 0.05041 0.39322 0.05041 0.15124 0 0.31256-0.01512 0.16132-0.02016 0.31256-0.04537 0.15628-0.02521 0.28735-0.05041 0.13611-0.03025 0.22181-0.05041l0.13107 0.6604q-0.11595 0.07058-0.28231 0.12603-0.16636 0.05041-0.36297 0.0857-0.19661 0.04033-0.41842 0.06049-0.21677 0.02016-0.43354 0.02016-0.36297 0-0.68056-0.10082-0.31256-0.10587-0.54445-0.32768-0.2319-0.22686-0.36801-0.57974-0.13107-0.35793-0.13107-0.86205v-2.9642h-1.4317v-0.72089h1.4317v-1.3208z"/>
   <path d="m55.312 42.051q-0.27223 0.4033-0.68056 0.63015-0.40834 0.22181-0.94271 0.22181-0.4285 0-0.77635-0.13107-0.34784-0.13611-0.59486-0.41842-0.24702-0.28231-0.38313-0.71585-0.13107-0.43859-0.13107-1.0486v-3.2415h0.93262v3.2516q0 0.44363 0.07058 0.73602 0.07058 0.29239 0.21173 0.46883 0.14115 0.1714 0.3428 0.24198 0.20669 0.07058 0.47388 0.07058 0.56966 0 0.9175-0.2319 0.35288-0.2319 0.52429-0.62511v-3.912h0.93767v5.4546h-0.84692z"/>
   <path d="m59.355 42.802v-4.7337h-1.5023v-0.72089h1.5023v-0.38313q0-0.52429 0.15124-0.9175 0.15628-0.39826 0.43354-0.66544 0.28231-0.26718 0.67552-0.4033 0.39321-0.13611 0.87717-0.13611 0.33272 0 0.64528 0.05545 0.3176 0.05545 0.65032 0.14115l-0.11091 0.77131q-0.20669-0.07058-0.48396-0.12099-0.27223-0.05545-0.58478-0.05545-0.65536 5e-3 -0.98808 0.33272-0.32768 0.32768-0.32768 0.99816v0.38313h2.1022v0.72089h-2.1022v4.7337z"/>
   <path d="m65.566 42.802v-4.7337h-1.5023v-0.72089h1.5023v-0.38313q0-0.52429 0.15124-0.9175 0.15628-0.39826 0.43354-0.66544 0.28231-0.26718 0.67552-0.4033t0.87717-0.13611q0.33272 0 0.64528 0.05545 0.3176 0.05545 0.65032 0.14115l-0.11091 0.77131q-0.20669-0.07058-0.48396-0.12099-0.27222-0.05545-0.58478-0.05545-0.65536 5e-3 -0.98808 0.33272-0.32768 0.32768-0.32768 0.99816v0.38313h2.1022v0.72089h-2.1022v4.7337z"/>
   <path d="m71.307 39.823q0-0.72089 0.11091-1.3561 0.11595-0.63519 0.30751-1.1746 0.19157-0.54445 0.43859-0.99312 0.25206-0.44867 0.52429-0.79651 0.27727-0.34784 0.55453-0.59486 0.27727-0.24702 0.52933-0.38817l0.19661 0.61503q-0.31256 0.23694-0.62511 0.64528-0.30751 0.40834-0.55453 0.99312-0.24198 0.57974-0.39826 1.341-0.15124 0.75618-0.15124 1.6989v0.07058q0 0.94271 0.15124 1.7039 0.15628 0.76122 0.39826 1.346 0.24702 0.58478 0.55453 0.99816 0.31256 0.41842 0.62511 0.67048l-0.19661 0.56966q-0.25206-0.14116-0.53437-0.38818-0.27727-0.24198-0.55453-0.59486-0.27222-0.34784-0.52429-0.79651-0.24702-0.44363-0.43859-0.98304-0.18652-0.54445-0.30247-1.1796-0.11091-0.63519-0.11091-1.3561z"/>
   <path d="m79.978 39.873q0 0.72089-0.11595 1.3561-0.11091 0.63519-0.30247 1.1796-0.19157 0.53941-0.44363 0.98304-0.24702 0.44867-0.52429 0.79651-0.27223 0.35288-0.55453 0.59486-0.27727 0.24702-0.52933 0.38817l-0.19661-0.56966q0.31256-0.2319 0.62007-0.65032 0.31256-0.41338 0.55453-1.0032 0.24702-0.58982 0.39826-1.3561 0.15628-0.76626 0.15628-1.709v-0.07058q0-0.94271-0.16132-1.709-0.16132-0.77131-0.41842-1.3611-0.25206-0.59486-0.55957-1.0082-0.30247-0.41338-0.58982-0.64528l0.19661-0.56966q0.25206 0.14115 0.52933 0.38817 0.28231 0.24702 0.55453 0.59486 0.27727 0.34784 0.52429 0.79651 0.25206 0.44867 0.44363 0.99312 0.19157 0.53941 0.30247 1.1746 0.11595 0.63519 0.11595 1.3561z"/>
   <path d="m84.596 37.781q0-0.15124 0.04537-0.28231 0.05041-0.13107 0.14115-0.22685 0.09074-0.10082 0.22686-0.15628 0.13611-0.05545 0.3176-0.05545t0.3176 0.05545q0.14115 0.05545 0.2319 0.15628 0.09578 0.09578 0.14115 0.22685 0.05041 0.13107 0.05041 0.28231 0 0.1462-0.05041 0.27727-0.04537 0.12603-0.14115 0.22181-0.09074 0.09578-0.2319 0.15124-0.13611 0.05041-0.3176 0.05041t-0.3176-0.05041q-0.13611-0.05545-0.22686-0.15124-0.09074-0.09578-0.14115-0.22181-0.04537-0.13107-0.04537-0.27727zm1.1998 4.8043q0 0.23694-0.0605 0.49404-0.05545 0.26214-0.1714 0.5142-0.11091 0.2571-0.27222 0.489-0.16132 0.2319-0.37305 0.41338l-0.57974-0.3176q0.24198-0.35288 0.3428-0.75114 0.10082-0.39826 0.10082-0.82676v-0.90238h1.0133z"/>
   <path d="m24.444 54.261q0-0.16636-0.06554-0.29743-0.06554-0.13611-0.22181-0.24702-0.15628-0.11091-0.41338-0.20165-0.2571-0.09578-0.64023-0.1714-0.46883-0.09578-0.85701-0.2319-0.38313-0.13611-0.6604-0.32264-0.27222-0.19157-0.42346-0.44363-0.15124-0.2571-0.15124-0.59486 0-0.33272 0.15628-0.62007 0.15628-0.29239 0.43859-0.50916 0.28231-0.21677 0.67048-0.3428 0.39322-0.12603 0.86205-0.12603 0.50412 0 0.90742 0.13107 0.4033 0.13107 0.6856 0.36297 0.28231 0.2319 0.43354 0.54445 0.15628 0.30751 0.15628 0.66544h-0.93262q0-0.17644-0.09074-0.3428-0.09074-0.1714-0.25206-0.30247-0.16132-0.13107-0.39322-0.21173-0.22685-0.08066-0.5142-0.08066-0.29743 0-0.52429 0.06554-0.22181 0.06554-0.37305 0.17644-0.1462 0.11091-0.22181 0.2571-0.07562 0.1462-0.07562 0.30247 0 0.16132 0.06049 0.28735 0.06049 0.12603 0.20669 0.22686 0.15124 0.10082 0.39826 0.18148 0.25206 0.08066 0.63519 0.15628 0.50412 0.10586 0.90238 0.24702 0.39826 0.13611 0.67048 0.33272 0.27223 0.19157 0.41338 0.44867 0.1462 0.2571 0.1462 0.59486 0 0.36297-0.16636 0.6604-0.16132 0.29743-0.45371 0.50916-0.29239 0.21173-0.70073 0.32768-0.40834 0.11595-0.8923 0.11595-0.55453 0-0.98808-0.1462-0.43354-0.15124-0.73601-0.39322-0.29743-0.24702-0.45875-0.56966-0.15628-0.32264-0.15628-0.67048h0.93262q0.02016 0.28735 0.15124 0.48396 0.13611 0.19661 0.33272 0.3176 0.20165 0.12099 0.44363 0.1714 0.24198 0.05041 0.47892 0.05041 0.58982 0 0.93262-0.21677 0.3428-0.21677 0.34784-0.5747z"/>
   <path d="m26.748 52.93q0-0.58982 0.1714-1.0939 0.1714-0.50916 0.489-0.88221 0.32264-0.37305 0.78139-0.58478 0.45875-0.21677 1.0334-0.21677 0.57974 0 1.0385 0.21677 0.46379 0.21173 0.78139 0.58478 0.32264 0.37305 0.49404 0.88221 0.1714 0.50412 0.1714 1.0939v0.11091q0 0.58982-0.1714 1.0939-0.1714 0.50412-0.49404 0.87717-0.3176 0.37305-0.77635 0.58478-0.45875 0.21173-1.0334 0.21173-0.57974 0-1.0435-0.21173-0.45875-0.21173-0.78139-0.58478-0.3176-0.37305-0.489-0.87717-0.1714-0.50412-0.1714-1.0939zm0.93262 0.11091q0 0.4033 0.09578 0.7713 0.09578 0.36297 0.28735 0.64024 0.19661 0.27727 0.489 0.43858 0.29239 0.16132 0.68056 0.16132 0.38313 0 0.67048-0.16132 0.29239-0.16132 0.48396-0.43858 0.19661-0.27727 0.29239-0.64024 0.09578-0.36801 0.09578-0.7713v-0.11091q0-0.39826-0.10082-0.76122-0.09578-0.36801-0.29239-0.64528-0.19157-0.27727-0.48396-0.43859-0.28735-0.16636-0.67552-0.16636-0.38817 0-0.67552 0.16636-0.28735 0.16132-0.48396 0.43859-0.19157 0.27727-0.28735 0.64528-0.09578 0.36297-0.09578 0.76122z"/>
   <path d="m33.629 50.253 0.02521 0.5142q0.16636-0.28735 0.43354-0.44867 0.27223-0.16132 0.65536-0.16636 0.75114 0 1.0032 0.58478 0.16132-0.26214 0.42346-0.41842 0.26718-0.16132 0.64528-0.16636 0.5999 0 0.92254 0.36801t0.32264 1.1141v4.0733h-0.88725v-4.0834q0-0.6856-0.63015-0.68056-0.16636 0-0.28735 0.04537-0.12099 0.04537-0.20165 0.12603-0.08066 0.07562-0.12603 0.18148-0.04537 0.10082-0.06049 0.21173v4.1993h-0.88726v-4.0884q0-0.32768-0.1462-0.50412-0.1462-0.17644-0.46379-0.1714-0.29239 0-0.45371 0.11595t-0.23694 0.30751v4.3405h-0.88725v-5.4546z"/>
   <path d="m41.801 55.808q-0.5747 0-1.0587-0.19661-0.47892-0.19661-0.82172-0.54949-0.3428-0.35288-0.53437-0.83684t-0.19157-1.0536v-0.21173q0-0.6604 0.21173-1.1796 0.21173-0.52429 0.55958-0.88221 0.35288-0.36297 0.79651-0.55453 0.44867-0.19157 0.9175-0.19157 0.58982 0 1.0284 0.20669 0.44363 0.20165 0.73602 0.56462 0.29239 0.35793 0.43354 0.84692 0.1462 0.489 0.1462 1.0587v0.41842h-3.8969q0.01512 0.37305 0.14115 0.70073 0.13107 0.32768 0.35288 0.5747 0.22686 0.24198 0.53941 0.38313 0.31256 0.14115 0.69065 0.14115 0.49908 0 0.88725-0.20165 0.38817-0.20165 0.64528-0.53437l0.56966 0.44363q-0.13611 0.20669-0.3428 0.39826-0.20165 0.18652-0.46883 0.33272t-0.60495 0.2319q-0.33776 0.09074-0.73602 0.09074zm-0.12099-4.89q-0.28231 0-0.53437 0.10586-0.25206 0.10082-0.45371 0.30247-0.20165 0.19661-0.3428 0.489-0.13611 0.28735-0.19157 0.66544h2.934v-0.07058q-0.01512-0.27223-0.10587-0.53941-0.0857-0.26718-0.2571-0.47892-0.1714-0.21173-0.43354-0.3428-0.2571-0.13107-0.61503-0.13107z"/>
   <path d="m47.79 48.932v1.3208h2.077v0.72089h-2.077v2.9642q0 0.3176 0.08066 0.52429t0.22181 0.33272q0.14115 0.12099 0.32264 0.1714 0.18652 0.05041 0.39322 0.05041 0.15124 0 0.31256-0.01512 0.16132-0.02016 0.31256-0.04537 0.15628-0.02521 0.28735-0.05041 0.13611-0.03025 0.22181-0.05041l0.13107 0.6604q-0.11595 0.07058-0.28231 0.12603-0.16636 0.05041-0.36297 0.0857-0.19661 0.04033-0.41842 0.0605-0.21677 0.02016-0.43354 0.02016-0.36297 0-0.68056-0.10082-0.31256-0.10587-0.54445-0.32769-0.2319-0.22685-0.36801-0.57974-0.13107-0.35793-0.13107-0.86205v-2.9642h-1.4317v-0.72089h1.4317v-1.3208z"/>
   <path d="m52.705 51.064q0.29239-0.4285 0.72089-0.66544 0.4285-0.24198 0.96287-0.24702 0.4285 0 0.77635 0.12603 0.35288 0.12099 0.5999 0.38313t0.37809 0.66544q0.13611 0.39826 0.13611 0.94775v3.4331h-0.93262v-3.4432q0-0.67048-0.32264-0.99816-0.3176-0.32768-0.91246-0.32264-0.44867 0-0.81668 0.22181-0.36297 0.21677-0.58982 0.57974v3.9624h-0.93262v-7.7433h0.93262z"/>
   <path d="m58.11 50.253h2.7878v4.648h1.7795v0.80659h-4.5673v-0.80659h1.8552v-3.8364h-1.8552zm1.7342-1.4317q0-0.2319 0.13611-0.38817 0.14115-0.16132 0.42346-0.16132 0.27727 0 0.41842 0.16132 0.14115 0.15628 0.14115 0.38817 0 0.22686-0.14115 0.37809-0.14115 0.15124-0.41842 0.15124-0.28231 0-0.42346-0.15124-0.13611-0.15124-0.13611-0.37809z"/>
   <path d="m64.991 50.253 0.06554 0.80659q0.29743-0.42346 0.73098-0.6604 0.43354-0.24198 0.96791-0.24702 0.4285 0 0.77635 0.12099 0.35288 0.12099 0.5999 0.37809t0.37809 0.65536q0.13611 0.39321 0.13611 0.93767v3.4633h-0.93262v-3.4432q0-0.36297-0.08066-0.61503t-0.24198-0.40834q-0.15628-0.15628-0.38817-0.22686-0.22686-0.07058-0.52429-0.07058-0.46883 0-0.82676 0.23694-0.35288 0.2319-0.56462 0.61503v3.912h-0.93262v-5.4546z"/>
   <path d="m70.173 52.935q0-0.60999 0.1462-1.1192 0.15124-0.5142 0.43354-0.88221 0.28231-0.36801 0.68561-0.5747t0.91246-0.20669q0.50412 0 0.88221 0.18148 0.38313 0.17644 0.65032 0.5142l0.04537-0.59486h0.84692v5.3386q0 0.53941-0.1714 0.95783-0.16636 0.41842-0.47387 0.71081-0.30247 0.29239-0.72594 0.44363-0.42346 0.15124-0.93767 0.15124-0.21173 0-0.48396-0.05041-0.27223-0.04537-0.55453-0.15628-0.27727-0.10586-0.53941-0.28735-0.2571-0.18148-0.44363-0.44867l0.48396-0.55958q0.1714 0.20669 0.35288 0.34784 0.18148 0.1462 0.36801 0.2319 0.18652 0.0857 0.37305 0.12099 0.18652 0.04033 0.37305 0.04033 0.33272 0 0.5999-0.09578 0.26718-0.09578 0.45371-0.28231 0.19157-0.18148 0.29239-0.45371t0.10082-0.62511v-0.46883q-0.27222 0.31256-0.64528 0.47892-0.36801 0.16132-0.85701 0.16132-0.49908 0-0.90238-0.21173t-0.68561-0.58478q-0.27727-0.37305-0.4285-0.87717-0.15124-0.50916-0.15124-1.0939zm0.93262 0.10587q0 0.39826 0.08066 0.75618 0.0857 0.35793 0.26214 0.63015 0.18148 0.27222 0.45875 0.43354 0.27727 0.15628 0.66544 0.15628 0.24198 0 0.43354-0.05545 0.19661-0.06049 0.34784-0.16636 0.15628-0.10586 0.27727-0.25206 0.12099-0.1462 0.21173-0.32264v-2.5004q-0.09074-0.1714-0.21173-0.31256-0.12099-0.14115-0.27727-0.24198-0.15628-0.10587-0.34784-0.16132-0.19157-0.06049-0.42346-0.06049-0.39322 0-0.67552 0.16132-0.27727 0.16132-0.45875 0.43859-0.17644 0.27222-0.26214 0.63519-0.08066 0.35793-0.08066 0.75618z"/>
   <path d="m79.237 51.77h2.0518v0.92758h-2.0518v2.2736h-0.93262v-2.2736h-2.0467v-0.92758h2.0467v-2.1425h0.93262z"/>
   <path d="m85.428 51.77h2.0518v0.92758h-2.0518v2.2736h-0.93262v-2.2736h-2.0467v-0.92758h2.0467v-2.1425h0.93262z"/>
   <path d="m90.746 50.686q0-0.15124 0.04537-0.28231 0.05041-0.13107 0.14115-0.22686 0.09074-0.10082 0.22685-0.15628 0.13611-0.05545 0.3176-0.05545t0.3176 0.05545q0.14115 0.05545 0.2319 0.15628 0.09578 0.09578 0.14115 0.22686 0.05041 0.13107 0.05041 0.28231 0 0.1462-0.05041 0.27727-0.04537 0.12603-0.14115 0.22181-0.09074 0.09578-0.2319 0.15124-0.13611 0.05041-0.3176 0.05041t-0.3176-0.05041q-0.13611-0.05545-0.22685-0.15124-0.09074-0.09578-0.14115-0.22181-0.04537-0.13107-0.04537-0.27727zm1.1998 4.8043q0 0.23694-0.0605 0.49404-0.05545 0.26214-0.1714 0.5142-0.11091 0.2571-0.27223 0.489t-0.37305 0.41338l-0.57974-0.3176q0.24198-0.35288 0.3428-0.75114 0.10082-0.39826 0.10082-0.82676v-0.90238h1.0133z"/>
   <path d="m9.1896 69.878q0.30751-0.01008 0.5142-0.1714 0.20669-0.16132 0.32768-0.41338 0.12603-0.24702 0.17644-0.55958 0.05545-0.30751 0.05545-0.62007v-0.85197q0-0.5999 0.27727-1.0536 0.27727-0.45875 0.86205-0.69065-0.58478-0.23694-0.86205-0.69065-0.27727-0.45875-0.27727-1.0637v-0.85701q0-0.30751-0.03529-0.62007-0.03025-0.31256-0.14115-0.55958-0.10586-0.25206-0.31759-0.41338-0.21173-0.16132-0.5747-0.1714l0.10082-0.57974q0.34784 0.01008 0.62007 0.11091 0.27727 0.10082 0.489 0.27223t0.35793 0.39826q0.15124 0.22685 0.24702 0.489 0.09578 0.2571 0.14115 0.53437 0.04537 0.27223 0.04537 0.53941v0.85701q0 0.73098 0.34784 1.0587 0.34784 0.32264 1.0536 0.32264v0.73098q-0.70577 5e-3 -1.0536 0.33272-0.34784 0.32768-0.34784 1.0536v0.85197q0 0.4033-0.11091 0.81164-0.11091 0.41338-0.34784 0.75114-0.2319 0.33776-0.58982 0.55453-0.35793 0.21677-0.85197 0.22686z"/>
  </g>
 </g>
</svg>
