<?xml version="1.0" encoding="UTF-8"?>
<svg width="512" height="512" version="1.1" viewBox="0 0 135.47 135.47" xmlns="http://www.w3.org/2000/svg">
 <g>
  <g transform="matrix(.82526 0 .22113 .82526 -6.7059 -.53586)">
   <rect transform="translate(0 -161.53)" y="216.57" width="110.07" height="80.433" fill="#221a0f" opacity=".75" style="paint-order:normal"/>
   <g transform="translate(0 -161.53)" fill="#c79a40">
    <rect x="16.933" y="233.5" width="88.9" height="8.4667" style="paint-order:normal"/>
    <rect x="16.933" y="271.6" width="80.433" height="8.4667" style="paint-order:normal"/>
    <rect x="16.933" y="258.9" width="88.9" height="8.4667" style="paint-order:normal"/>
    <rect x="16.933" y="246.2" width="33.867" height="8.4666" style="paint-order:normal"/>
    <rect x="55.033" y="246.2" width="33.867" height="8.4667" style="paint-order:normal"/>
    <rect x="38.1" y="284.3" width="67.733" height="8.4667" style="paint-order:normal"/>
    <rect x="16.933" y="284.3" width="16.933" height="8.4667" style="paint-order:normal"/>
    <rect x="4.2333" y="220.8" width="21.167" height="8.4667" style="paint-order:normal"/>
    <rect x="29.633" y="220.8" width="12.7" height="8.4667" style="paint-order:normal"/>
    <rect x="46.567" y="220.8" width="12.7" height="8.4667" style="paint-order:normal"/>
    <rect x="63.5" y="220.8" width="12.7" height="8.4667" style="paint-order:normal"/>
   </g>
   <g transform="translate(0 -161.53)" fill="none" stroke="#f00" stroke-width=".52917">
    <path d="m105.83 234.56h2.1167v31.75h-2.1167"/>
    <path d="m107.95 250.43h4.2333"/>
   </g>
   <g transform="rotate(90 80.767 -80.767)" fill="#d3af68" stroke-width=".26458" aria-label="Refactor this because [...]">
    <path d="m218.5-130.21h-1.5038v3.0696h-0.95084v-7.5241h2.2066q0.5271 0.0103 0.99219 0.14986 0.46508 0.13953 0.81132 0.41858 0.3514 0.27906 0.54777 0.7028 0.20153 0.41858 0.20153 0.98702 0 0.3669-0.10852 0.6718-0.10335 0.30489-0.28938 0.55293-0.18604 0.24805-0.44442 0.43925-0.25838 0.19121-0.56844 0.32556l1.5968 3.2143-5e-3 0.062h-1.0077zm-1.5038-0.78548h1.2816q0.32039-5e-3 0.60461-0.0982 0.28422-0.0982 0.49609-0.27905 0.21705-0.18087 0.34107-0.43925 0.12402-0.26355 0.12402-0.60461 0-0.36174-0.11885-0.63046-0.11886-0.27388-0.33073-0.45475-0.21188-0.18603-0.50643-0.27905-0.28939-0.093-0.63562-0.0982h-1.2557z"/>
    <path d="m224.82-127.04q-0.58911 0-1.0852-0.20153-0.49093-0.20154-0.84233-0.56328-0.3514-0.36173-0.54777-0.85783-0.19637-0.49609-0.19637-1.08v-0.21705q0-0.67696 0.21704-1.2092 0.21704-0.53744 0.57361-0.90434 0.36173-0.37207 0.81649-0.56844 0.45992-0.19637 0.94051-0.19637 0.60461 0 1.0542 0.21187 0.45475 0.20671 0.75447 0.57878 0.29973 0.3669 0.44442 0.86816 0.14986 0.50126 0.14986 1.0852v0.42891h-3.9946q0.0155 0.38241 0.1447 0.7183 0.13436 0.3359 0.36173 0.58911 0.23255 0.24805 0.55294 0.39275 0.32039 0.14469 0.70797 0.14469 0.51159 0 0.9095-0.20671 0.39791-0.2067 0.66146-0.54777l0.58394 0.45476q-0.13952 0.21187-0.3514 0.40824-0.2067 0.1912-0.48059 0.34106-0.27388 0.14987-0.62011 0.23772-0.34624 0.093-0.75448 0.093zm-0.12402-5.0126q-0.28939 0-0.54777 0.10852-0.25838 0.10335-0.46509 0.31006-0.20671 0.20154-0.3514 0.50126-0.13953 0.29456-0.19637 0.68213h3.0076v-0.0724q-0.0155-0.27905-0.10852-0.55294-0.0878-0.27388-0.26355-0.49092-0.1757-0.21704-0.44442-0.3514-0.26355-0.13436-0.63045-0.13436z"/>
    <path d="m230.12-127.14v-4.8524h-1.54v-0.73897h1.54v-0.39274q0-0.53744 0.15503-0.94051 0.1602-0.40825 0.44442-0.68213 0.28939-0.27389 0.69246-0.41341 0.40308-0.13953 0.89917-0.13953 0.34107 0 0.66146 0.0568 0.32556 0.0568 0.66663 0.14469l-0.11369 0.79065q-0.21187-0.0724-0.49609-0.12402-0.27906-0.0568-0.59945-0.0568-0.67179 5e-3 -1.0129 0.34107-0.3359 0.33589-0.3359 1.0232v0.39274h2.1549v0.73897h-2.1549v4.8524z"/>
    <path d="m238.74-127.14q-0.0568-0.10852-0.093-0.26872-0.031-0.16536-0.0465-0.34106-0.1447 0.14469-0.32556 0.27388-0.1757 0.12919-0.39275 0.22738-0.21187 0.0982-0.45475 0.15503-0.24288 0.0568-0.51676 0.0568-0.44442 0-0.80615-0.12919-0.35657-0.12919-0.60979-0.34623-0.24804-0.22221-0.38757-0.52193-0.13436-0.30489-0.13436-0.65629 0-0.45992 0.18087-0.80615 0.18603-0.34624 0.52193-0.57361 0.3359-0.23255 0.80615-0.34624 0.47543-0.11368 1.0594-0.11368h1.0439v-0.43925q0-0.25322-0.093-0.45476-0.093-0.20153-0.26355-0.34106-0.17054-0.14469-0.41858-0.22221-0.24288-0.0775-0.54777-0.0775-0.28422 0-0.5116 0.0723-0.22221 0.0724-0.37724 0.19121-0.15503 0.11885-0.24288 0.28422-0.0827 0.16019-0.0827 0.33589h-0.96118q5e-3 -0.30489 0.15503-0.59944 0.15503-0.29456 0.43925-0.5271 0.28939-0.23771 0.69763-0.38241 0.41341-0.14469 0.93534-0.14469 0.47543 0 0.88367 0.11885 0.40824 0.11369 0.7028 0.3514 0.29972 0.23255 0.47026 0.58395 0.17053 0.3514 0.17053 0.82165v2.5993q0 0.27905 0.0517 0.59428 0.0517 0.31005 0.1447 0.5426v0.0827zm-1.6898-0.72864q0.27906 0 0.52194-0.0723t0.43925-0.19121q0.20153-0.11885 0.34623-0.26871 0.14469-0.15503 0.22737-0.3204v-1.1317h-0.88883q-0.83716 0-1.3022 0.24804-0.46508 0.24805-0.46508 0.78032 0 0.2067 0.0672 0.3824 0.0723 0.1757 0.21187 0.3049 0.13952 0.12402 0.3514 0.19637 0.21187 0.0723 0.49092 0.0723z"/>
    <path d="m243.79-127.81q0.25838 0 0.50126-0.0827 0.24805-0.0827 0.43925-0.22737 0.1912-0.14986 0.30489-0.34623 0.11886-0.20154 0.12402-0.43409h0.90434q-5e-3 0.37207-0.19637 0.71314-0.18603 0.3359-0.50126 0.59428-0.31523 0.25321-0.72347 0.40824-0.40824 0.14986-0.85266 0.14986-0.63562 0-1.111-0.22737-0.47542-0.22738-0.79581-0.60978-0.31523-0.38758-0.47543-0.88884-0.16019-0.50643-0.16019-1.0645v-0.21705q0-0.55293 0.16019-1.0594 0.1602-0.50643 0.47543-0.88884 0.32039-0.38757 0.79581-0.61495 0.47543-0.22737 1.111-0.22737 0.49609 0 0.9095 0.16019 0.41858 0.15503 0.71831 0.42892 0.30489 0.26872 0.47542 0.64079t0.17053 0.79581h-0.90434q-5e-3 -0.25321-0.11368-0.47542-0.10336-0.22738-0.28423-0.39791-0.18086-0.17053-0.43408-0.26872-0.24804-0.0982-0.53743-0.0982-0.44442 0-0.74931 0.18087-0.29972 0.1757-0.48576 0.46508-0.18603 0.28423-0.26872 0.64079-0.0775 0.35657-0.0775 0.7183v0.21705q0 0.3669 0.0775 0.72863 0.0827 0.35657 0.26355 0.64596 0.18604 0.28422 0.48576 0.46509 0.30489 0.1757 0.75448 0.1757z"/>
    <path d="m250.02-134.09v1.3539h2.1291v0.73897h-2.1291v3.0386q0 0.32556 0.0827 0.53743 0.0827 0.21188 0.22738 0.34107 0.14469 0.12402 0.33073 0.1757 0.1912 0.0517 0.40307 0.0517 0.15503 0 0.3204-0.0155 0.16536-0.0207 0.32039-0.0465 0.1602-0.0258 0.29456-0.0517 0.13952-0.031 0.22737-0.0517l0.13436 0.67696q-0.11885 0.0724-0.28939 0.12919-0.17053 0.0517-0.37207 0.0879-0.20153 0.0413-0.42891 0.062-0.22221 0.0207-0.44442 0.0207-0.37207 0-0.69763-0.10335-0.32039-0.10852-0.55811-0.3359-0.23771-0.23254-0.37723-0.59428-0.13436-0.3669-0.13436-0.88366v-3.0386h-1.4676v-0.73897h1.4676v-1.3539z"/>
    <path d="m253.83-129.99q0-0.60462 0.1757-1.1214 0.1757-0.52193 0.50126-0.90434 0.33073-0.3824 0.80098-0.59944 0.47026-0.22221 1.0594-0.22221 0.59428 0 1.0645 0.22221 0.47543 0.21704 0.80099 0.59944 0.33073 0.38241 0.50643 0.90434 0.1757 0.51676 0.1757 1.1214v0.11369q0 0.60461-0.1757 1.1214-0.1757 0.51676-0.50643 0.89917-0.32556 0.3824-0.79582 0.59944-0.47025 0.21704-1.0594 0.21704-0.59428 0-1.0697-0.21704-0.47025-0.21704-0.80098-0.59944-0.32556-0.38241-0.50126-0.89917-0.1757-0.51677-0.1757-1.1214zm0.95601 0.11369q0 0.41341 0.0982 0.79065 0.0982 0.37207 0.29455 0.65629 0.20154 0.28422 0.50126 0.44958 0.29973 0.16537 0.69764 0.16537 0.39274 0 0.68729-0.16537 0.29973-0.16536 0.4961-0.44958 0.20153-0.28422 0.29972-0.65629 0.0982-0.37724 0.0982-0.79065v-0.11369q0-0.40824-0.10335-0.78032-0.0982-0.37723-0.29972-0.66145-0.19637-0.28422-0.4961-0.44959-0.29455-0.17053-0.69246-0.17053t-0.69246 0.17053q-0.29456 0.16537-0.4961 0.44959-0.19637 0.28422-0.29455 0.66145-0.0982 0.37208-0.0982 0.78032z"/>
    <path d="m264.11-132.84q0.13436 0 0.27905 0.0103 0.1447 5e-3 0.27389 0.0258 0.13436 0.0155 0.24288 0.0413 0.11369 0.0258 0.18603 0.0568l-0.12919 0.93534q-0.27905-0.062-0.53227-0.0879-0.24804-0.031-0.52193-0.031-0.67179 0-1.0904 0.30489-0.41341 0.3049-0.60978 0.85267v3.5863h-0.96118v-5.5914h0.9095l0.0465 0.88884q0.34107-0.45993 0.81649-0.72347 0.48059-0.26872 1.0904-0.26872z"/>
    <path d="m275.4-134.09v1.3539h2.1291v0.73897h-2.1291v3.0386q0 0.32556 0.0827 0.53743 0.0827 0.21188 0.22738 0.34107 0.14469 0.12402 0.33073 0.1757 0.1912 0.0517 0.40307 0.0517 0.15503 0 0.3204-0.0155 0.16536-0.0207 0.32039-0.0465 0.1602-0.0258 0.29456-0.0517 0.13952-0.031 0.22737-0.0517l0.13436 0.67696q-0.11885 0.0724-0.28939 0.12919-0.17053 0.0517-0.37207 0.0879-0.20153 0.0413-0.42891 0.062-0.22221 0.0207-0.44442 0.0207-0.37207 0-0.69763-0.10335-0.32039-0.10852-0.5581-0.3359-0.23772-0.23254-0.37724-0.59428-0.13436-0.3669-0.13436-0.88366v-3.0386h-1.4676v-0.73897h1.4676v-1.3539z"/>
    <path d="m280.44-131.9q0.29973-0.43925 0.73898-0.68213 0.43925-0.24804 0.98702-0.25321 0.43925 0 0.79581 0.12919 0.36174 0.12402 0.61495 0.39274 0.25322 0.26872 0.38758 0.68213 0.13952 0.40824 0.13952 0.97152v3.5192h-0.95601v-3.5295q0-0.6873-0.33073-1.0232-0.32556-0.3359-0.93534-0.33073-0.45992 0-0.83716 0.22737-0.37207 0.22221-0.60462 0.59428v4.0618h-0.95601v-7.9375h0.95601z"/>
    <path d="m285.98-132.73h2.8577v4.7646h1.8242v0.82682h-4.6819v-0.82682h1.9017v-3.9326h-1.9017zm1.7777-1.4676q0-0.23771 0.13952-0.39791 0.1447-0.16536 0.43409-0.16536 0.28422 0 0.42891 0.16536 0.14469 0.1602 0.14469 0.39791 0 0.23254-0.14469 0.38757t-0.42891 0.15503q-0.28939 0-0.43409-0.15503-0.13952-0.15503-0.13952-0.38757z"/>
    <path d="m295.89-128.63q0-0.17054-0.0672-0.30489-0.0672-0.13953-0.22738-0.25322-0.1602-0.11369-0.42375-0.2067-0.26355-0.0982-0.65629-0.1757-0.48059-0.0982-0.8785-0.23772-0.39274-0.13952-0.67696-0.33073-0.27905-0.19637-0.43408-0.45475-0.15503-0.26355-0.15503-0.60978 0-0.34106 0.1602-0.63562 0.16019-0.29972 0.44958-0.52193t0.6873-0.3514q0.40308-0.12919 0.88367-0.12919 0.51676 0 0.93017 0.13436t0.7028 0.37207 0.44442 0.5581q0.1602 0.31523 0.1602 0.68213h-0.95602q0-0.18087-0.093-0.3514-0.093-0.1757-0.25838-0.31006-0.16536-0.13436-0.40307-0.21704-0.23255-0.0827-0.5271-0.0827-0.30489 0-0.53744 0.0672-0.22738 0.0672-0.3824 0.18087-0.14987 0.11368-0.22738 0.26355-0.0775 0.14986-0.0775 0.31005 0 0.16537 0.062 0.29456t0.21187 0.23254q0.15503 0.10336 0.40824 0.18604 0.25839 0.0827 0.65113 0.1602 0.51676 0.10852 0.925 0.25321 0.40825 0.13953 0.6873 0.34107 0.27905 0.19637 0.42375 0.45992 0.14986 0.26355 0.14986 0.60978 0 0.37207-0.17053 0.67696-0.16537 0.30489-0.46509 0.52193t-0.7183 0.3359q-0.41858 0.11885-0.91468 0.11885-0.56844 0-1.0128-0.14986-0.44442-0.15503-0.75448-0.40307-0.30489-0.25322-0.47026-0.58395-0.16019-0.33073-0.16019-0.68729h0.95601q0.0207 0.29455 0.15503 0.49609 0.13953 0.20154 0.34107 0.32556 0.2067 0.12402 0.45475 0.1757 0.24805 0.0517 0.49092 0.0517 0.60462 0 0.95602-0.22221t0.35657-0.58911z"/>
    <path d="m220.74-116.65q0 0.59945-0.14469 1.1214-0.1447 0.51677-0.42375 0.89917-0.27905 0.38241-0.69246 0.59945-0.40825 0.21704-0.94052 0.21704-0.53743 0-0.93534-0.1912-0.39274-0.19121-0.67179-0.54777l-0.0465 0.63562h-0.8785v-7.9375h0.95601v2.9456q0.27389-0.34106 0.66146-0.52193t0.90434-0.18087q0.53743 0 0.95085 0.21188 0.41341 0.21187 0.69246 0.58911t0.42375 0.90434q0.14469 0.52193 0.14469 1.1472zm-0.95601-0.10852q0-0.40824-0.0827-0.77514-0.0775-0.37207-0.25321-0.65113-0.1757-0.28422-0.45992-0.44958-0.28422-0.16537-0.69763-0.16537-0.24805 0-0.45476 0.0672-0.2067 0.062-0.37207 0.18087-0.16019 0.11369-0.28938 0.27389-0.12403 0.15503-0.21188 0.34106v2.4443q0.093 0.18603 0.21704 0.34623 0.1292 0.15503 0.29456 0.27388 0.16536 0.11886 0.37207 0.18604 0.20671 0.062 0.45475 0.062 0.39274 0 0.6718-0.1602 0.28422-0.16536 0.45992-0.44441 0.18086-0.27906 0.26355-0.64596 0.0879-0.3669 0.0879-0.77515z"/>
    <path d="m224.82-113.81q-0.58911 0-1.0852-0.20154-0.49093-0.20154-0.84233-0.56327-0.3514-0.36174-0.54777-0.85783t-0.19637-1.08v-0.21704q0-0.67696 0.21704-1.2092 0.21704-0.53743 0.57361-0.90433 0.36173-0.37208 0.81649-0.56845 0.45992-0.19637 0.94051-0.19637 0.60461 0 1.0542 0.21188 0.45475 0.2067 0.75447 0.57877 0.29973 0.36691 0.44442 0.86817 0.14986 0.50126 0.14986 1.0852v0.42892h-3.9946q0.0155 0.3824 0.1447 0.7183 0.13436 0.3359 0.36173 0.58911 0.23255 0.24805 0.55294 0.39274 0.32039 0.1447 0.70797 0.1447 0.51159 0 0.9095-0.20671t0.66146-0.54777l0.58394 0.45475q-0.13952 0.21188-0.3514 0.40825-0.2067 0.1912-0.48059 0.34106-0.27388 0.14986-0.62011 0.23771-0.34624 0.093-0.75448 0.093zm-0.12402-5.0126q-0.28939 0-0.54777 0.10852-0.25838 0.10335-0.46509 0.31005-0.20671 0.20154-0.3514 0.50127-0.13953 0.29455-0.19637 0.68213h3.0076v-0.0724q-0.0155-0.27905-0.10852-0.55294-0.0878-0.27388-0.26355-0.49093-0.1757-0.21704-0.44442-0.3514-0.26355-0.13435-0.63045-0.13435z"/>
    <path d="m231.08-114.59q0.25838 0 0.50126-0.0827 0.24804-0.0827 0.43925-0.22738 0.1912-0.14986 0.30489-0.34623 0.11885-0.20154 0.12402-0.43408h0.90434q-5e-3 0.37207-0.19637 0.71314-0.18604 0.33589-0.50126 0.59427-0.31523 0.25322-0.72347 0.40825-0.40825 0.14986-0.85266 0.14986-0.63562 0-1.111-0.22738-0.47542-0.22737-0.79581-0.60978-0.31523-0.38757-0.47543-0.88883-0.16019-0.50643-0.16019-1.0645v-0.21704q0-0.55294 0.16019-1.0594 0.1602-0.50642 0.47543-0.88883 0.32039-0.38757 0.79581-0.61495 0.47543-0.22738 1.111-0.22738 0.49609 0 0.9095 0.1602 0.41858 0.15503 0.7183 0.42892 0.3049 0.26871 0.47543 0.64078t0.17053 0.79582h-0.90434q-5e-3 -0.25321-0.11369-0.47542-0.10335-0.22738-0.28422-0.39791-0.18086-0.17053-0.43408-0.26872-0.24805-0.0982-0.53743-0.0982-0.44442 0-0.74931 0.18086-0.29972 0.1757-0.48576 0.46509-0.18604 0.28422-0.26872 0.64079-0.0775 0.35657-0.0775 0.7183v0.21704q0 0.3669 0.0775 0.72864 0.0827 0.35657 0.26355 0.64596 0.18604 0.28422 0.48576 0.46508 0.30489 0.1757 0.75448 0.1757z"/>
    <path d="m238.72-113.91q-0.0568-0.10852-0.093-0.26872-0.031-0.16537-0.0465-0.34107-0.1447 0.1447-0.32556 0.27389-0.1757 0.12919-0.39275 0.22738-0.21187 0.0982-0.45475 0.15503-0.24288 0.0568-0.51676 0.0568-0.44442 0-0.80615-0.12919-0.35657-0.12919-0.60979-0.34623-0.24804-0.22221-0.38757-0.52194-0.13436-0.30489-0.13436-0.65629 0-0.45992 0.18087-0.80615 0.18603-0.34623 0.52193-0.57361 0.3359-0.23254 0.80615-0.34623 0.47543-0.11369 1.0594-0.11369h1.0439v-0.43925q0-0.25321-0.093-0.45475t-0.26355-0.34106q-0.17054-0.1447-0.41858-0.22221-0.24288-0.0775-0.54777-0.0775-0.28422 0-0.5116 0.0724-0.22221 0.0724-0.37724 0.1912-0.15503 0.11886-0.24288 0.28422-0.0827 0.1602-0.0827 0.3359h-0.96118q5e-3 -0.30489 0.15503-0.59945 0.15503-0.29455 0.43925-0.5271 0.28939-0.23771 0.69763-0.3824 0.41341-0.1447 0.93534-0.1447 0.47543 0 0.88367 0.11886 0.40824 0.11369 0.7028 0.3514 0.29972 0.23254 0.47026 0.58394 0.17053 0.3514 0.17053 0.82166v2.5993q0 0.27906 0.0517 0.59428 0.0517 0.31006 0.1447 0.5426v0.0827zm-1.6898-0.72864q0.27906 0 0.52194-0.0724t0.43925-0.1912q0.20153-0.11886 0.34623-0.26872 0.14469-0.15503 0.22737-0.32039v-1.1317h-0.88883q-0.83716 0-1.3022 0.24805-0.46508 0.24805-0.46508 0.78031 0 0.20671 0.0672 0.38241 0.0723 0.1757 0.21187 0.30489 0.13952 0.12402 0.3514 0.19637 0.21187 0.0724 0.49092 0.0724z"/>
    <path d="m245.02-114.68q-0.27905 0.41341-0.69763 0.64595-0.41858 0.22738-0.96635 0.22738-0.43925 0-0.79582-0.13436-0.35657-0.13953-0.60978-0.42891-0.25321-0.28939-0.39274-0.73381-0.13436-0.44958-0.13436-1.0749v-3.3228h0.95601v3.3331q0 0.45475 0.0724 0.75447 0.0724 0.29973 0.21704 0.48059 0.1447 0.1757 0.3514 0.24805 0.21188 0.0724 0.48576 0.0724 0.58394 0 0.94051-0.23771 0.36174-0.23772 0.53744-0.64079v-4.0101h0.96118v5.5914h-0.86817z"/>
    <path d="m251.45-115.4q0-0.17053-0.0672-0.30489-0.0672-0.13952-0.22738-0.25321-0.1602-0.11369-0.42375-0.20671-0.26355-0.0982-0.65629-0.1757-0.48059-0.0982-0.8785-0.23771-0.39274-0.13953-0.67696-0.33073-0.27905-0.19637-0.43408-0.45475-0.15503-0.26355-0.15503-0.60978 0-0.34107 0.1602-0.63562 0.16019-0.29973 0.44958-0.52194 0.28939-0.2222 0.6873-0.35139 0.40307-0.1292 0.88367-0.1292 0.51676 0 0.93017 0.13436t0.7028 0.37207 0.44442 0.55811q0.1602 0.31522 0.1602 0.68213h-0.95602q0-0.18087-0.093-0.3514-0.093-0.1757-0.25838-0.31006-0.16536-0.13436-0.40307-0.21704-0.23255-0.0827-0.5271-0.0827-0.3049 0-0.53744 0.0672-0.22738 0.0672-0.3824 0.18086-0.14987 0.11369-0.22738 0.26355-0.0775 0.14986-0.0775 0.31006 0 0.16537 0.062 0.29456t0.21187 0.23254q0.15503 0.10335 0.40824 0.18604 0.25839 0.0827 0.65113 0.16019 0.51676 0.10852 0.925 0.25322 0.40825 0.13952 0.6873 0.34106 0.27905 0.19637 0.42375 0.45992 0.14986 0.26355 0.14986 0.60978 0 0.37207-0.17053 0.67696-0.16537 0.3049-0.46509 0.52194t-0.7183 0.33589q-0.41858 0.11886-0.91468 0.11886-0.56844 0-1.0128-0.14986-0.44442-0.15503-0.75448-0.40308-0.30489-0.25321-0.47026-0.58394-0.16019-0.33073-0.16019-0.6873h0.95601q0.0207 0.29456 0.15503 0.4961 0.13953 0.20153 0.34107 0.32556 0.2067 0.12402 0.45475 0.1757 0.24804 0.0517 0.49092 0.0517 0.60462 0 0.95602-0.22221 0.3514-0.2222 0.35657-0.58911z"/>
    <path d="m256.55-113.81q-0.58911 0-1.0852-0.20154-0.49093-0.20154-0.84233-0.56327-0.3514-0.36174-0.54777-0.85783t-0.19637-1.08v-0.21704q0-0.67696 0.21704-1.2092 0.21704-0.53743 0.57361-0.90433 0.36173-0.37208 0.81649-0.56845 0.45992-0.19637 0.94051-0.19637 0.60461 0 1.0542 0.21188 0.45475 0.2067 0.75447 0.57877 0.29973 0.36691 0.44442 0.86817 0.14986 0.50126 0.14986 1.0852v0.42892h-3.9946q0.0155 0.3824 0.1447 0.7183 0.13436 0.3359 0.36173 0.58911 0.23255 0.24805 0.55294 0.39274 0.32039 0.1447 0.70797 0.1447 0.51159 0 0.9095-0.20671t0.66146-0.54777l0.58394 0.45475q-0.13952 0.21188-0.3514 0.40825-0.2067 0.1912-0.48059 0.34106-0.27388 0.14986-0.62011 0.23771-0.34624 0.093-0.75448 0.093zm-0.12402-5.0126q-0.28939 0-0.54777 0.10852-0.25839 0.10335-0.46509 0.31005-0.20671 0.20154-0.3514 0.50127-0.13953 0.29455-0.19637 0.68213h3.0076v-0.0724q-0.0155-0.27905-0.10852-0.55294-0.0879-0.27388-0.26355-0.49093-0.1757-0.21704-0.44442-0.3514-0.26355-0.13435-0.63045-0.13435z"/>
    <path d="m270.12-121.73h-1.142v8.6403h1.142v0.78548h-2.0464v-10.211h2.0464z"/>
    <path d="m274.78-114.53q0-0.15503 0.0465-0.28939 0.0517-0.13436 0.1447-0.23254 0.093-0.10336 0.23254-0.1602 0.13953-0.0568 0.32556-0.0568 0.18604 0 0.32557 0.0568 0.14469 0.0568 0.23771 0.1602 0.0982 0.0982 0.14469 0.23254 0.0517 0.13436 0.0517 0.28939 0 0.14986-0.0517 0.28422-0.0465 0.12919-0.14469 0.22738-0.093 0.0982-0.23771 0.14986-0.13953 0.0568-0.32557 0.0568-0.18603 0-0.32556-0.0568-0.13952-0.0517-0.23254-0.14986-0.093-0.0982-0.1447-0.22738-0.0465-0.13436-0.0465-0.28422z"/>
    <path d="m281.13-114.53q0-0.15503 0.0465-0.28939 0.0517-0.13436 0.14469-0.23254 0.093-0.10336 0.23255-0.1602 0.13952-0.0568 0.32556-0.0568 0.18603 0 0.32556 0.0568 0.14469 0.0568 0.23771 0.1602 0.0982 0.0982 0.14469 0.23254 0.0517 0.13436 0.0517 0.28939 0 0.14986-0.0517 0.28422-0.0465 0.12919-0.14469 0.22738-0.093 0.0982-0.23771 0.14986-0.13953 0.0568-0.32556 0.0568-0.18604 0-0.32556-0.0568-0.13953-0.0517-0.23255-0.14986-0.093-0.0982-0.14469-0.22738-0.0465-0.13436-0.0465-0.28422z"/>
    <path d="m287.47-114.53q0-0.15503 0.0465-0.28939 0.0517-0.13436 0.1447-0.23254 0.093-0.10336 0.23254-0.1602 0.13953-0.0568 0.32556-0.0568 0.18604 0 0.32556 0.0568 0.1447 0.0568 0.23771 0.1602 0.0982 0.0982 0.1447 0.23254 0.0517 0.13436 0.0517 0.28939 0 0.14986-0.0517 0.28422-0.0465 0.12919-0.1447 0.22738-0.093 0.0982-0.23771 0.14986-0.13952 0.0568-0.32556 0.0568-0.18603 0-0.32556-0.0568-0.13953-0.0517-0.23254-0.14986-0.093-0.0982-0.1447-0.22738-0.0465-0.13436-0.0465-0.28422z"/>
    <path d="m293.35-122.51h2.0516v10.211h-2.0516v-0.78548h1.1472v-8.6403h-1.1472z"/>
   </g>
   <g transform="translate(0 -161.53)" fill="#d3af68" stroke-width=".26458" aria-label="This parameter means [...]">
    <path d="m8.832 192.33h-2.3254v6.7076h-0.93018v-6.7076h-2.3254v-0.81649h5.5811z"/>
    <path d="m11.059 194.27q0.29972-0.43925 0.73897-0.68213 0.43925-0.24805 0.98702-0.25322 0.43925 0 0.79582 0.12919 0.36174 0.12403 0.61495 0.39275 0.25322 0.26871 0.38757 0.68212 0.13953 0.40825 0.13953 0.97152v3.5192h-0.95601v-3.5295q0-0.6873-0.33073-1.0232-0.32556-0.33589-0.93534-0.33073-0.45992 0-0.83716 0.22738-0.37207 0.22221-0.60461 0.59428v4.0618h-0.95601v-7.9375h0.95601z"/>
    <path d="m16.599 193.44h2.8577v4.7646h1.8242v0.82683h-4.6819v-0.82683h1.9017v-3.9326h-1.9017zm1.7777-1.4676q0-0.23772 0.13953-0.39791 0.14469-0.16537 0.43408-0.16537 0.28422 0 0.42891 0.16537 0.14469 0.16019 0.14469 0.39791 0 0.23254-0.14469 0.38757t-0.42891 0.15503q-0.28939 0-0.43408-0.15503-0.13953-0.15503-0.13953-0.38757z"/>
    <path d="m26.511 197.55q0-0.17053-0.06718-0.30489-0.06718-0.13952-0.22738-0.25321-0.1602-0.11369-0.42375-0.20671-0.26355-0.0982-0.65629-0.1757-0.48059-0.0982-0.8785-0.23771-0.39274-0.13953-0.67696-0.33073-0.27905-0.19637-0.43408-0.45475-0.15503-0.26355-0.15503-0.60978 0-0.34107 0.1602-0.63562 0.1602-0.29973 0.44958-0.52194 0.28939-0.2222 0.6873-0.3514 0.40308-0.12919 0.88367-0.12919 0.51676 0 0.93018 0.13436 0.41341 0.13436 0.7028 0.37207t0.44442 0.55811q0.1602 0.31522 0.1602 0.68213h-0.95601q0-0.18087-0.09302-0.3514-0.09302-0.1757-0.25838-0.31006-0.16536-0.13436-0.40308-0.21704-0.23254-0.0827-0.5271-0.0827-0.30489 0-0.53744 0.0672-0.22738 0.0672-0.38241 0.18087-0.14986 0.11369-0.22738 0.26355-0.07751 0.14986-0.07751 0.31006 0 0.16536 0.06201 0.29456 0.06201 0.12919 0.21187 0.23254 0.15503 0.10335 0.40824 0.18604 0.25838 0.0827 0.65112 0.16019 0.51676 0.10852 0.92501 0.25322 0.40824 0.13952 0.6873 0.34106 0.27905 0.19637 0.42375 0.45992 0.14986 0.26355 0.14986 0.60978 0 0.37207-0.17053 0.67696-0.16536 0.3049-0.46509 0.52194-0.29972 0.21704-0.7183 0.33589-0.41858 0.11886-0.91467 0.11886-0.56844 0-1.0129-0.14986-0.44442-0.15503-0.75448-0.40308-0.30489-0.25321-0.47026-0.58394-0.1602-0.33073-0.1602-0.6873h0.95601q0.02067 0.29456 0.15503 0.49609 0.13953 0.20154 0.34106 0.32557 0.20671 0.12402 0.45475 0.1757 0.24805 0.0517 0.49093 0.0517 0.60461 0 0.95601-0.22221 0.3514-0.2222 0.35657-0.58911z"/>
    <path d="m40.205 196.3q0 0.59945-0.14469 1.1214-0.14469 0.51677-0.42375 0.89917-0.27905 0.38241-0.69246 0.59945-0.40824 0.21704-0.93534 0.21704-0.5116 0-0.90434-0.16537-0.38757-0.16536-0.66663-0.47542v2.6872h-0.95601v-7.7411h0.87333l0.04651 0.60978q0.27905-0.34623 0.67179-0.5271 0.39791-0.18604 0.91984-0.18604 0.53744 0 0.95085 0.21188 0.41341 0.21187 0.69246 0.58911t0.42375 0.90434q0.14469 0.52193 0.14469 1.1472zm-0.95601-0.10852q0-0.40824-0.09302-0.77514-0.08785-0.37207-0.27905-0.65113-0.18604-0.28422-0.47542-0.44958-0.28939-0.16537-0.69246-0.16537-0.45992 0-0.77515 0.21704-0.31006 0.21188-0.49609 0.54777v2.6924q0.18604 0.33073 0.49609 0.5426 0.31006 0.2067 0.78548 0.2067 0.39791 0 0.6873-0.16536 0.28939-0.17053 0.47542-0.45475t0.27388-0.65629q0.09302-0.37207 0.09302-0.78032z"/>
    <path d="m45.507 199.03q-0.05684-0.10852-0.09302-0.26872-0.03101-0.16537-0.04651-0.34107-0.14469 0.1447-0.32556 0.27389-0.1757 0.12919-0.39274 0.22738-0.21187 0.0982-0.45475 0.15502-0.24288 0.0568-0.51676 0.0568-0.44442 0-0.80615-0.12919-0.35657-0.12919-0.60978-0.34623-0.24805-0.22221-0.38757-0.52194-0.13436-0.30489-0.13436-0.65629 0-0.45992 0.18087-0.80615 0.18604-0.34623 0.52193-0.57361 0.3359-0.23254 0.80615-0.34623 0.47542-0.11369 1.0594-0.11369h1.0439v-0.43925q0-0.25321-0.09302-0.45475t-0.26355-0.34106q-0.17053-0.1447-0.41858-0.22221-0.24288-0.0775-0.54777-0.0775-0.28422 0-0.5116 0.0724-0.22221 0.0724-0.37724 0.1912-0.15503 0.11886-0.24288 0.28422-0.08268 0.1602-0.08268 0.3359h-0.96118q0.0052-0.30489 0.15503-0.59945 0.15503-0.29455 0.43925-0.5271 0.28939-0.23771 0.69763-0.3824 0.41341-0.1447 0.93534-0.1447 0.47542 0 0.88367 0.11886 0.40824 0.11369 0.7028 0.3514 0.29972 0.23254 0.47026 0.58394 0.17053 0.3514 0.17053 0.82166v2.5993q0 0.27906 0.05168 0.59428 0.05168 0.31006 0.14469 0.5426v0.0827zm-1.6898-0.72864q0.27905 0 0.52193-0.0724 0.24288-0.0724 0.43925-0.1912 0.20154-0.11886 0.34623-0.26872 0.14469-0.15503 0.22738-0.32039v-1.1317h-0.88884q-0.83716 0-1.3022 0.24805t-0.46509 0.78031q0 0.20671 0.06718 0.38241 0.07235 0.1757 0.21187 0.30489 0.13953 0.12402 0.3514 0.19637 0.21187 0.0724 0.49093 0.0724z"/>
    <path d="m51.842 193.34q0.13436 0 0.27905 0.0103 0.14469 5e-3 0.27388 0.0258 0.13436 0.0155 0.24288 0.0413 0.11369 0.0258 0.18604 0.0568l-0.12919 0.93535q-0.27905-0.062-0.53227-0.0879-0.24805-0.031-0.52193-0.031-0.67179 0-1.0904 0.30489-0.41341 0.30489-0.60978 0.85266v3.5864h-0.96118v-5.5914h0.9095l0.04651 0.88883q0.34106-0.45992 0.81649-0.72347 0.48059-0.26872 1.0904-0.26872z"/>
    <path d="m58.199 199.03q-0.05684-0.10852-0.09302-0.26872-0.03101-0.16537-0.04651-0.34107-0.14469 0.1447-0.32556 0.27389-0.1757 0.12919-0.39274 0.22738-0.21187 0.0982-0.45475 0.15502-0.24288 0.0568-0.51676 0.0568-0.44442 0-0.80615-0.12919-0.35657-0.12919-0.60978-0.34623-0.24805-0.22221-0.38757-0.52194-0.13436-0.30489-0.13436-0.65629 0-0.45992 0.18087-0.80615 0.18604-0.34623 0.52193-0.57361 0.3359-0.23254 0.80615-0.34623 0.47542-0.11369 1.0594-0.11369h1.0439v-0.43925q0-0.25321-0.09302-0.45475t-0.26355-0.34106q-0.17053-0.1447-0.41858-0.22221-0.24288-0.0775-0.54777-0.0775-0.28422 0-0.5116 0.0724-0.22221 0.0724-0.37724 0.1912-0.15503 0.11886-0.24288 0.28422-0.08268 0.1602-0.08268 0.3359h-0.96118q0.0052-0.30489 0.15503-0.59945 0.15503-0.29455 0.43925-0.5271 0.28939-0.23771 0.69763-0.3824 0.41341-0.1447 0.93534-0.1447 0.47542 0 0.88367 0.11886 0.40824 0.11369 0.7028 0.3514 0.29972 0.23254 0.47026 0.58394t0.17053 0.82166v2.5993q0 0.27906 0.05168 0.59428 0.05168 0.31006 0.14469 0.5426v0.0827zm-1.6898-0.72864q0.27905 0 0.52193-0.0724t0.43925-0.1912q0.20154-0.11886 0.34623-0.26872 0.14469-0.15503 0.22738-0.32039v-1.1317h-0.88884q-0.83716 0-1.3022 0.24805-0.46509 0.24805-0.46509 0.78031 0 0.20671 0.06718 0.38241 0.07235 0.1757 0.21187 0.30489 0.13953 0.12402 0.3514 0.19637 0.21187 0.0724 0.49093 0.0724z"/>
    <path d="m61.309 193.44 0.02584 0.5271q0.17053-0.29456 0.44442-0.45992 0.27905-0.16537 0.67179-0.17054 0.76998 0 1.0284 0.59945 0.16536-0.26872 0.43408-0.42891 0.27388-0.16537 0.66146-0.17054 0.61495 0 0.94568 0.37724t0.33073 1.142v4.1755h-0.9095v-4.1858q0-0.7028-0.64596-0.69764-0.17053 0-0.29456 0.0465t-0.20671 0.12919q-0.08268 0.0775-0.12919 0.18604-0.04651 0.10335-0.06201 0.21704v4.3046h-0.90951v-4.191q0-0.3359-0.14986-0.51677-0.14986-0.18086-0.47542-0.1757-0.29972 0-0.46509 0.11886-0.16536 0.11885-0.24288 0.31523v4.4493h-0.9095v-5.5914z"/>
    <path d="m69.686 199.14q-0.58911 0-1.0852-0.20154-0.49093-0.20154-0.84233-0.56327-0.3514-0.36174-0.54777-0.85783t-0.19637-1.08v-0.21704q0-0.67696 0.21704-1.2092 0.21704-0.53743 0.57361-0.90434 0.36174-0.37207 0.81649-0.56844 0.45992-0.19637 0.94051-0.19637 0.60461 0 1.0542 0.21188 0.45475 0.2067 0.75448 0.57877 0.29972 0.36691 0.44442 0.86817 0.14986 0.50126 0.14986 1.0852v0.42892h-3.9946q0.0155 0.3824 0.14469 0.7183 0.13436 0.3359 0.36174 0.58911 0.23254 0.24805 0.55294 0.39274 0.32039 0.14469 0.70797 0.14469 0.5116 0 0.90951-0.2067 0.39791-0.20671 0.66146-0.54777l0.58394 0.45475q-0.13953 0.21187-0.3514 0.40825-0.20671 0.1912-0.48059 0.34106t-0.62012 0.23771q-0.34623 0.093-0.75448 0.093zm-0.12402-5.0126q-0.28939 0-0.54777 0.10852-0.25838 0.10335-0.46509 0.31005-0.20671 0.20154-0.3514 0.50127-0.13953 0.29455-0.19637 0.68212h3.0076v-0.0723q-0.0155-0.27906-0.10852-0.55294-0.08785-0.27389-0.26355-0.49093-0.1757-0.21704-0.44442-0.3514-0.26355-0.13435-0.63045-0.13435z"/>
    <path d="m75.825 192.09v1.3539h2.1291v0.73897h-2.1291v3.0386q0 0.32556 0.08268 0.53744 0.08268 0.21187 0.22738 0.34106 0.14469 0.12403 0.33073 0.1757 0.1912 0.0517 0.40308 0.0517 0.15503 0 0.32039-0.0155 0.16536-0.0207 0.32039-0.0465 0.1602-0.0258 0.29456-0.0517 0.13953-0.031 0.22738-0.0517l0.13436 0.67697q-0.11886 0.0723-0.28939 0.12919-0.17053 0.0517-0.37207 0.0879-0.20154 0.0413-0.42892 0.062-0.22221 0.0207-0.44442 0.0207-0.37207 0-0.69763-0.10335-0.32039-0.10852-0.5581-0.3359-0.23771-0.23254-0.37724-0.59428-0.13436-0.3669-0.13436-0.88367v-3.0386h-1.4676v-0.73897h1.4676v-1.3539z"/>
    <path d="m82.378 199.14q-0.58911 0-1.0852-0.20154-0.49093-0.20154-0.84232-0.56327-0.3514-0.36174-0.54777-0.85783-0.19637-0.49609-0.19637-1.08v-0.21704q0-0.67696 0.21704-1.2092 0.21704-0.53743 0.57361-0.90434 0.36174-0.37207 0.81649-0.56844 0.45992-0.19637 0.94051-0.19637 0.60461 0 1.0542 0.21188 0.45475 0.2067 0.75448 0.57877 0.29972 0.36691 0.44442 0.86817 0.14986 0.50126 0.14986 1.0852v0.42892h-3.9946q0.0155 0.3824 0.14469 0.7183 0.13436 0.3359 0.36174 0.58911 0.23254 0.24805 0.55294 0.39274t0.70797 0.14469q0.5116 0 0.9095-0.2067 0.39791-0.20671 0.66146-0.54777l0.58394 0.45475q-0.13953 0.21187-0.3514 0.40825-0.2067 0.1912-0.48059 0.34106-0.27388 0.14986-0.62012 0.23771-0.34623 0.093-0.75448 0.093zm-0.12402-5.0126q-0.28939 0-0.54777 0.10852-0.25838 0.10335-0.46509 0.31005-0.20671 0.20154-0.3514 0.50127-0.13953 0.29455-0.19637 0.68212h3.0076v-0.0723q-0.0155-0.27906-0.10852-0.55294-0.08785-0.27389-0.26355-0.49093-0.1757-0.21704-0.44442-0.3514-0.26355-0.13435-0.63045-0.13435z"/>
    <path d="m89.918 193.34q0.13436 0 0.27905 0.0103 0.14469 5e-3 0.27388 0.0258 0.13436 0.0155 0.24288 0.0413 0.11369 0.0258 0.18604 0.0568l-0.12919 0.93535q-0.27905-0.062-0.53227-0.0879-0.24805-0.031-0.52193-0.031-0.67179 0-1.0904 0.30489-0.41341 0.30489-0.60978 0.85266v3.5864h-0.96118v-5.5914h0.9095l0.04651 0.88883q0.34106-0.45992 0.81649-0.72347 0.48059-0.26872 1.0904-0.26872z"/>
    <path d="m4.1967 206.67 0.025838 0.5271q0.17053-0.29455 0.44442-0.45992 0.27905-0.16536 0.67179-0.17053 0.76998 0 1.0284 0.59945 0.16536-0.26872 0.43408-0.42892 0.27389-0.16536 0.66146-0.17053 0.61495 0 0.94568 0.37724 0.33073 0.37724 0.33073 1.142v4.1754h-0.9095v-4.1858q0-0.7028-0.64596-0.69763-0.17053 0-0.29456 0.0465-0.12402 0.0465-0.20671 0.12919-0.082682 0.0775-0.12919 0.18603-0.046509 0.10336-0.062012 0.21705v4.3046h-0.9095v-4.191q0-0.33589-0.14986-0.51676-0.14986-0.18087-0.47542-0.1757-0.29972 0-0.46509 0.11886-0.16536 0.11885-0.24288 0.31522v4.4493h-0.90951v-5.5914z"/>
    <path d="m12.573 212.37q-0.58911 0-1.0852-0.20154-0.49093-0.20154-0.84232-0.56328-0.3514-0.36173-0.54777-0.85782-0.19637-0.4961-0.19637-1.08v-0.21704q0-0.67696 0.21704-1.2092 0.21704-0.53744 0.57361-0.90434 0.36174-0.37207 0.81649-0.56844 0.45992-0.19637 0.94051-0.19637 0.60461 0 1.0542 0.21187 0.45475 0.20671 0.75448 0.57878 0.29972 0.3669 0.44442 0.86816 0.14986 0.50126 0.14986 1.0852v0.42891h-3.9946q0.0155 0.38241 0.14469 0.7183 0.13436 0.3359 0.36174 0.58912 0.23254 0.24804 0.55294 0.39274 0.32039 0.14469 0.70797 0.14469 0.5116 0 0.9095-0.2067 0.39791-0.20671 0.66146-0.54777l0.58394 0.45475q-0.13953 0.21187-0.3514 0.40824-0.2067 0.1912-0.48059 0.34107-0.27389 0.14986-0.62012 0.23771-0.34623 0.093-0.75448 0.093zm-0.12402-5.0126q-0.28939 0-0.54777 0.10852-0.25838 0.10335-0.46509 0.31006-0.20671 0.20154-0.3514 0.50126-0.13953 0.29456-0.19637 0.68213h3.0076v-0.0724q-0.0155-0.27905-0.10852-0.55293-0.08785-0.27389-0.26355-0.49093t-0.44442-0.3514q-0.26355-0.13436-0.63045-0.13436z"/>
    <path d="m20.123 212.26q-0.05684-0.10852-0.09302-0.26872-0.03101-0.16536-0.04651-0.34106-0.14469 0.14469-0.32556 0.27389-0.1757 0.12919-0.39274 0.22737-0.21187 0.0982-0.45475 0.15503-0.24288 0.0568-0.51676 0.0568-0.44442 0-0.80615-0.1292-0.35657-0.12919-0.60978-0.34623-0.24805-0.22221-0.38757-0.52193-0.13436-0.30489-0.13436-0.65629 0-0.45992 0.18087-0.80615 0.18604-0.34623 0.52193-0.57361 0.3359-0.23255 0.80615-0.34623 0.47542-0.11369 1.0594-0.11369h1.0439v-0.43925q0-0.25322-0.09302-0.45475-0.09302-0.20154-0.26355-0.34107-0.17053-0.14469-0.41858-0.22221-0.24288-0.0775-0.54777-0.0775-0.28422 0-0.5116 0.0724-0.22221 0.0723-0.37724 0.1912-0.15503 0.11885-0.24288 0.28422-0.08268 0.1602-0.08268 0.3359h-0.96118q0.0052-0.3049 0.15503-0.59945 0.15503-0.29456 0.43925-0.5271 0.28939-0.23771 0.69763-0.38241 0.41341-0.14469 0.93534-0.14469 0.47542 0 0.88367 0.11886 0.40824 0.11368 0.7028 0.3514 0.29972 0.23254 0.47026 0.58394 0.17053 0.3514 0.17053 0.82165v2.5993q0 0.27905 0.05168 0.59428 0.05168 0.31006 0.14469 0.5426v0.0827zm-1.6898-0.72864q0.27905 0 0.52193-0.0723 0.24288-0.0724 0.43925-0.19121 0.20154-0.11885 0.34623-0.26871 0.14469-0.15503 0.22738-0.3204v-1.1317h-0.88884q-0.83716 0-1.3022 0.24805-0.46509 0.24804-0.46509 0.78031 0 0.20671 0.06718 0.38241 0.07235 0.1757 0.21187 0.30489 0.13953 0.12402 0.3514 0.19637 0.21187 0.0723 0.49093 0.0723z"/>
    <path d="m23.653 206.67 0.06718 0.82683q0.30489-0.43409 0.74931-0.67697 0.44442-0.24804 0.99219-0.25321 0.43925 0 0.79582 0.12402 0.36174 0.12403 0.61495 0.38758 0.25322 0.26355 0.38757 0.67179 0.13953 0.40308 0.13953 0.96118v3.5502h-0.95601v-3.5295q0-0.37207-0.08268-0.63045t-0.24805-0.41858q-0.1602-0.1602-0.39791-0.23254-0.23254-0.0724-0.53744-0.0724-0.48059 0-0.84749 0.24288-0.36174 0.23771-0.57878 0.63045v4.0101h-0.95601v-5.5914z"/>
    <path d="m32.856 210.78q0-0.17053-0.06718-0.30489-0.06718-0.13953-0.22738-0.25322-0.1602-0.11368-0.42375-0.2067-0.26355-0.0982-0.65629-0.1757-0.48059-0.0982-0.8785-0.23771-0.39274-0.13953-0.67696-0.33073-0.27905-0.19637-0.43408-0.45476-0.15503-0.26355-0.15503-0.60978 0-0.34106 0.1602-0.63562 0.1602-0.29972 0.44958-0.52193t0.6873-0.3514q0.40308-0.12919 0.88367-0.12919 0.51676 0 0.93018 0.13436 0.41341 0.13436 0.7028 0.37207t0.44442 0.5581q0.1602 0.31523 0.1602 0.68213h-0.95601q0-0.18086-0.09302-0.3514-0.09302-0.1757-0.25838-0.31006-0.16536-0.13435-0.40308-0.21704-0.23254-0.0827-0.5271-0.0827-0.30489 0-0.53744 0.0672-0.22738 0.0672-0.3824 0.18087-0.14986 0.11369-0.22738 0.26355-0.07751 0.14986-0.07751 0.31006 0 0.16536 0.06201 0.29455t0.21187 0.23255q0.15503 0.10335 0.40824 0.18603 0.25838 0.0827 0.65112 0.1602 0.51676 0.10852 0.92501 0.25321 0.40824 0.13953 0.6873 0.34107 0.27905 0.19637 0.42375 0.45992 0.14986 0.26355 0.14986 0.60978 0 0.37207-0.17053 0.67696-0.16536 0.30489-0.46509 0.52193-0.29972 0.21704-0.7183 0.3359t-0.91467 0.11886q-0.56844 0-1.0129-0.14987-0.44442-0.15503-0.75448-0.40307-0.30489-0.25322-0.47026-0.58395-0.1602-0.33073-0.1602-0.68729h0.95601q0.02067 0.29455 0.15503 0.49609 0.13953 0.20154 0.34106 0.32556 0.2067 0.12403 0.45475 0.1757 0.24805 0.0517 0.49093 0.0517 0.60462 0 0.95601-0.22221 0.3514-0.22221 0.35657-0.58911z"/>
    <path d="m45.181 204.45h-1.142v8.6403h1.142v0.78548h-2.0464v-10.211h2.0464z"/>
    <path d="m49.842 211.64q0-0.15503 0.04651-0.28939 0.05168-0.13436 0.14469-0.23255 0.09302-0.10335 0.23254-0.16019 0.13953-0.0568 0.32556-0.0568t0.32556 0.0568q0.14469 0.0568 0.23771 0.16019 0.09819 0.0982 0.14469 0.23255 0.05168 0.13436 0.05168 0.28939 0 0.14986-0.05168 0.28422-0.04651 0.12919-0.14469 0.22737-0.09302 0.0982-0.23771 0.14986-0.13953 0.0568-0.32556 0.0568t-0.32556-0.0568q-0.13953-0.0517-0.23254-0.14986-0.09302-0.0982-0.14469-0.22737-0.04651-0.13436-0.04651-0.28422z"/>
    <path d="m56.188 211.64q0-0.15503 0.04651-0.28939 0.05168-0.13436 0.14469-0.23255 0.09302-0.10335 0.23254-0.16019 0.13953-0.0568 0.32556-0.0568 0.18604 0 0.32556 0.0568 0.14469 0.0568 0.23771 0.16019 0.09818 0.0982 0.14469 0.23255 0.05168 0.13436 0.05168 0.28939 0 0.14986-0.05168 0.28422-0.04651 0.12919-0.14469 0.22737-0.09302 0.0982-0.23771 0.14986-0.13953 0.0568-0.32556 0.0568-0.18604 0-0.32556-0.0568-0.13953-0.0517-0.23254-0.14986-0.09302-0.0982-0.14469-0.22737-0.04651-0.13436-0.04651-0.28422z"/>
    <path d="m62.534 211.64q0-0.15503 0.04651-0.28939 0.05168-0.13436 0.14469-0.23255 0.09302-0.10335 0.23254-0.16019 0.13953-0.0568 0.32556-0.0568 0.18604 0 0.32556 0.0568 0.14469 0.0568 0.23771 0.16019 0.09819 0.0982 0.14469 0.23255 0.05168 0.13436 0.05168 0.28939 0 0.14986-0.05168 0.28422-0.04651 0.12919-0.14469 0.22737-0.09302 0.0982-0.23771 0.14986-0.13953 0.0568-0.32556 0.0568-0.18604 0-0.32556-0.0568-0.13953-0.0517-0.23254-0.14986-0.09302-0.0982-0.14469-0.22737-0.04651-0.13436-0.04651-0.28422z"/>
    <path d="m68.41 203.66h2.0516v10.211h-2.0516v-0.78548h1.1472v-8.6403h-1.1472z"/>
   </g>
   <g transform="translate(4.2333 -216.57)" stroke="#f00" stroke-width=".52917">
    <path d="m31.75 275.83v-6.35" fill="none" stroke="#f00" stroke-width=".52917"/>
   </g>
   <g transform="translate(-.52915 -161)" fill="#c79a40" opacity=".75">
    <rect x="16.933" y="233.5" width="88.9" height="8.4667" opacity="1" style="paint-order:normal"/>
    <rect x="16.933" y="271.6" width="80.433" height="8.4667" opacity="1" style="paint-order:normal"/>
    <rect x="16.933" y="258.9" width="88.9" height="8.4667" opacity="1" style="paint-order:normal"/>
    <rect x="16.933" y="246.2" width="33.867" height="8.4666" opacity="1" style="paint-order:normal"/>
    <rect x="55.033" y="246.2" width="33.867" height="8.4667" opacity="1" style="paint-order:normal"/>
    <rect x="38.1" y="284.3" width="67.733" height="8.4667" opacity="1" style="paint-order:normal"/>
    <rect x="16.933" y="284.3" width="16.933" height="8.4667" opacity="1" style="paint-order:normal"/>
    <rect x="4.2333" y="220.8" width="21.167" height="8.4667" opacity="1" style="paint-order:normal"/>
    <rect x="29.633" y="220.8" width="12.7" height="8.4667" opacity="1" style="paint-order:normal"/>
    <rect x="46.567" y="220.8" width="12.7" height="8.4667" opacity="1" style="paint-order:normal"/>
    <rect x="63.5" y="220.8" width="12.7" height="8.4667" opacity="1" style="paint-order:normal"/>
   </g>
   <g fill="#d3af68" opacity=".75" stroke-width=".26458" aria-label="This parameter means [...]">
    <path d="m8.4654 31.24h-2.3254v6.7076h-0.93018v-6.7076h-2.3254v-0.81649h5.5811z"/>
    <path d="m10.693 33.189q0.29972-0.43925 0.73897-0.68213 0.43925-0.24805 0.98702-0.25322 0.43925 0 0.79582 0.12919 0.36174 0.12402 0.61495 0.39274 0.25321 0.26872 0.38757 0.68213 0.13953 0.40824 0.13953 0.97152v3.5192h-0.95601v-3.5295q0-0.6873-0.33073-1.0232-0.32556-0.3359-0.93534-0.33073-0.45992 0-0.83716 0.22738-0.37207 0.22221-0.60461 0.59428v4.0618h-0.95601v-7.9375h0.95601z"/>
    <path d="m16.232 32.357h2.8577v4.7646h1.8242v0.82682h-4.6819v-0.82682h1.9017v-3.9326h-1.9017zm1.7777-1.4676q0-0.23771 0.13953-0.39791 0.14469-0.16536 0.43408-0.16536 0.28422 0 0.42892 0.16536 0.14469 0.1602 0.14469 0.39791 0 0.23254-0.14469 0.38757-0.14469 0.15503-0.42892 0.15503-0.28939 0-0.43408-0.15503-0.13953-0.15503-0.13953-0.38757z"/>
    <path d="m26.144 36.465q0-0.17053-0.06718-0.30489-0.06718-0.13953-0.22738-0.25321-0.1602-0.11369-0.42375-0.20671-0.26355-0.09819-0.65629-0.1757-0.48059-0.09819-0.8785-0.23771-0.39274-0.13953-0.67696-0.33073-0.27905-0.19637-0.43408-0.45475-0.15503-0.26355-0.15503-0.60978 0-0.34106 0.1602-0.63562 0.1602-0.29972 0.44958-0.52193t0.6873-0.3514q0.40308-0.12919 0.88367-0.12919 0.51676 0 0.93018 0.13436 0.41341 0.13436 0.7028 0.37207 0.28939 0.23771 0.44442 0.55811 0.1602 0.31523 0.1602 0.68213h-0.95601q0-0.18087-0.09302-0.3514-0.09302-0.1757-0.25838-0.31006-0.16536-0.13436-0.40308-0.21704-0.23254-0.08268-0.5271-0.08268-0.30489 0-0.53744 0.06718-0.22738 0.06718-0.38241 0.18087-0.14986 0.11369-0.22738 0.26355-0.07751 0.14986-0.07751 0.31006 0 0.16536 0.06201 0.29456t0.21187 0.23254q0.15503 0.10335 0.40824 0.18604 0.25838 0.08268 0.65112 0.1602 0.51676 0.10852 0.92501 0.25321 0.40824 0.13953 0.6873 0.34106 0.27905 0.19637 0.42375 0.45992 0.14986 0.26355 0.14986 0.60978 0 0.37207-0.17053 0.67696-0.16536 0.30489-0.46509 0.52193-0.29972 0.21704-0.7183 0.3359t-0.91467 0.11886q-0.56844 0-1.0129-0.14986-0.44442-0.15503-0.75448-0.40308-0.30489-0.25322-0.47026-0.58394-0.1602-0.33073-0.1602-0.6873h0.95601q0.02067 0.29456 0.15503 0.49609 0.13953 0.20154 0.34106 0.32556 0.20671 0.12402 0.45475 0.1757 0.24805 0.05168 0.49093 0.05168 0.60461 0 0.95601-0.22221 0.3514-0.22221 0.35657-0.58911z"/>
    <path d="m39.838 35.214q0 0.59945-0.14469 1.1214-0.14469 0.51676-0.42375 0.89917t-0.69246 0.59945q-0.40824 0.21704-0.93534 0.21704-0.5116 0-0.90434-0.16536-0.38757-0.16536-0.66663-0.47542v2.6872h-0.95601v-7.7411h0.87333l0.04651 0.60978q0.27905-0.34623 0.67179-0.5271 0.39791-0.18604 0.91984-0.18604 0.53743 0 0.95085 0.21187 0.41341 0.21187 0.69246 0.58911t0.42375 0.90434q0.14469 0.52193 0.14469 1.1472zm-0.95601-0.10852q0-0.40824-0.09302-0.77515-0.08785-0.37207-0.27905-0.65112-0.18604-0.28422-0.47542-0.44958-0.28939-0.16536-0.69246-0.16536-0.45992 0-0.77515 0.21704-0.31006 0.21187-0.49609 0.54777v2.6923q0.18604 0.33073 0.49609 0.5426 0.31006 0.20671 0.78548 0.20671 0.39791 0 0.6873-0.16536 0.28939-0.17053 0.47542-0.45475 0.18604-0.28422 0.27388-0.65629 0.09302-0.37207 0.09302-0.78031z"/>
    <path d="m45.14 37.948q-0.05684-0.10852-0.09302-0.26872-0.03101-0.16536-0.04651-0.34106-0.14469 0.14469-0.32556 0.27388-0.1757 0.12919-0.39274 0.22738-0.21187 0.09819-0.45475 0.15503-0.24288 0.05684-0.51676 0.05684-0.44442 0-0.80615-0.12919-0.35657-0.12919-0.60978-0.34623-0.24805-0.22221-0.38757-0.52193-0.13436-0.30489-0.13436-0.65629 0-0.45992 0.18087-0.80615 0.18604-0.34623 0.52193-0.57361 0.3359-0.23254 0.80615-0.34623 0.47542-0.11369 1.0594-0.11369h1.0439v-0.43925q0-0.25321-0.09302-0.45475t-0.26355-0.34106q-0.17053-0.14469-0.41858-0.22221-0.24288-0.07751-0.54777-0.07751-0.28422 0-0.5116 0.07235-0.22221 0.07235-0.37724 0.1912-0.15503 0.11886-0.24288 0.28422-0.08268 0.1602-0.08268 0.3359h-0.96118q0.0052-0.30489 0.15503-0.59945 0.15503-0.29456 0.43925-0.5271 0.28939-0.23771 0.69763-0.38241 0.41341-0.14469 0.93534-0.14469 0.47542 0 0.88367 0.11886 0.40824 0.11369 0.7028 0.3514 0.29972 0.23254 0.47026 0.58394 0.17053 0.3514 0.17053 0.82166v2.5993q0 0.27905 0.05168 0.59428 0.05168 0.31006 0.14469 0.5426v0.08268zm-1.6898-0.72864q0.27905 0 0.52193-0.07235 0.24288-0.07235 0.43925-0.1912 0.20154-0.11886 0.34623-0.26872 0.14469-0.15503 0.22738-0.32039v-1.1317h-0.88884q-0.83716 0-1.3022 0.24805t-0.46509 0.78031q0 0.20671 0.06718 0.38241 0.07235 0.1757 0.21187 0.30489 0.13953 0.12402 0.3514 0.19637 0.21187 0.07235 0.49093 0.07235z"/>
    <path d="m51.476 32.253q0.13436 0 0.27905 0.01033 0.14469 0.0052 0.27388 0.02584 0.13436 0.0155 0.24288 0.04134 0.11369 0.02584 0.18604 0.05684l-0.12919 0.93534q-0.27905-0.06201-0.53227-0.08785-0.24805-0.03101-0.52193-0.03101-0.67179 0-1.0904 0.30489-0.41341 0.30489-0.60978 0.85266v3.5863h-0.96118v-5.5914h0.9095l0.04651 0.88884q0.34106-0.45992 0.81649-0.72347 0.48059-0.26872 1.0904-0.26872z"/>
    <path d="m57.832 37.948q-0.05684-0.10852-0.09302-0.26872-0.03101-0.16536-0.04651-0.34106-0.14469 0.14469-0.32556 0.27388-0.1757 0.12919-0.39274 0.22738-0.21187 0.09819-0.45475 0.15503t-0.51676 0.05684q-0.44442 0-0.80615-0.12919-0.35657-0.12919-0.60978-0.34623-0.24805-0.22221-0.38757-0.52193-0.13436-0.30489-0.13436-0.65629 0-0.45992 0.18087-0.80615 0.18604-0.34623 0.52193-0.57361 0.3359-0.23254 0.80615-0.34623 0.47542-0.11369 1.0594-0.11369h1.0439v-0.43925q0-0.25321-0.09302-0.45475t-0.26355-0.34106q-0.17053-0.14469-0.41858-0.22221-0.24288-0.07751-0.54777-0.07751-0.28422 0-0.5116 0.07235-0.22221 0.07235-0.37724 0.1912-0.15503 0.11886-0.24288 0.28422-0.08268 0.1602-0.08268 0.3359h-0.96118q0.0052-0.30489 0.15503-0.59945 0.15503-0.29456 0.43925-0.5271 0.28939-0.23771 0.69763-0.38241 0.41341-0.14469 0.93534-0.14469 0.47542 0 0.88367 0.11886 0.40824 0.11369 0.7028 0.3514 0.29972 0.23254 0.47026 0.58394 0.17053 0.3514 0.17053 0.82166v2.5993q0 0.27905 0.05168 0.59428 0.05168 0.31006 0.14469 0.5426v0.08268zm-1.6898-0.72864q0.27905 0 0.52193-0.07235t0.43925-0.1912q0.20154-0.11886 0.34623-0.26872 0.14469-0.15503 0.22738-0.32039v-1.1317h-0.88883q-0.83716 0-1.3022 0.24805-0.46509 0.24805-0.46509 0.78031 0 0.20671 0.06718 0.38241 0.07235 0.1757 0.21187 0.30489 0.13953 0.12402 0.3514 0.19637 0.21187 0.07235 0.49093 0.07235z"/>
    <path d="m60.943 32.357 0.02584 0.5271q0.17053-0.29456 0.44442-0.45992 0.27905-0.16536 0.67179-0.17053 0.76998 0 1.0284 0.59945 0.16536-0.26872 0.43408-0.42892 0.27388-0.16536 0.66146-0.17053 0.61495 0 0.94568 0.37724t0.33073 1.142v4.1755h-0.9095v-4.1858q0-0.7028-0.64596-0.69763-0.17053 0-0.29456 0.04651-0.12402 0.04651-0.20671 0.12919-0.08268 0.07751-0.12919 0.18604-0.04651 0.10335-0.06201 0.21704v4.3046h-0.90951v-4.191q0-0.3359-0.14986-0.51676-0.14986-0.18087-0.47542-0.1757-0.29972 0-0.46509 0.11886-0.16536 0.11886-0.24288 0.31523v4.4493h-0.90951v-5.5914z"/>
    <path d="m69.32 38.051q-0.58911 0-1.0852-0.20154-0.49093-0.20154-0.84233-0.56327-0.3514-0.36174-0.54777-0.85783-0.19637-0.49609-0.19637-1.08v-0.21704q0-0.67696 0.21704-1.2092 0.21704-0.53744 0.57361-0.90434 0.36174-0.37207 0.81649-0.56844 0.45992-0.19637 0.94051-0.19637 0.60461 0 1.0542 0.21187 0.45475 0.2067 0.75448 0.57878 0.29972 0.3669 0.44442 0.86816 0.14986 0.50126 0.14986 1.0852v0.42891h-3.9946q0.0155 0.38241 0.14469 0.7183 0.13436 0.3359 0.36174 0.58911 0.23254 0.24805 0.55294 0.39274 0.32039 0.14469 0.70797 0.14469 0.5116 0 0.9095-0.20671 0.39791-0.20671 0.66146-0.54777l0.58394 0.45475q-0.13953 0.21187-0.3514 0.40824-0.20671 0.1912-0.48059 0.34106-0.27388 0.14986-0.62012 0.23771-0.34623 0.09302-0.75448 0.09302zm-0.12402-5.0126q-0.28939 0-0.54777 0.10852-0.25838 0.10335-0.46509 0.31006-0.20671 0.20154-0.3514 0.50126-0.13953 0.29456-0.19637 0.68213h3.0076v-0.07235q-0.0155-0.27905-0.10852-0.55294-0.08785-0.27388-0.26355-0.49093-0.1757-0.21704-0.44442-0.3514-0.26355-0.13436-0.63045-0.13436z"/>
    <path d="m75.459 31.003v1.3539h2.1291v0.73897h-2.1291v3.0386q0 0.32556 0.08268 0.53744t0.22738 0.34106q0.14469 0.12402 0.33073 0.1757 0.1912 0.05168 0.40308 0.05168 0.15503 0 0.32039-0.0155 0.16536-0.02067 0.32039-0.04651 0.1602-0.02584 0.29456-0.05168 0.13953-0.03101 0.22738-0.05168l0.13436 0.67696q-0.11886 0.07235-0.28939 0.12919-0.17053 0.05168-0.37207 0.08785-0.20154 0.04134-0.42892 0.06201-0.22221 0.02067-0.44442 0.02067-0.37207 0-0.69763-0.10335-0.32039-0.10852-0.5581-0.3359-0.23771-0.23254-0.37724-0.59428-0.13436-0.3669-0.13436-0.88367v-3.0386h-1.4676v-0.73897h1.4676v-1.3539z"/>
    <path d="m82.011 38.051q-0.58911 0-1.0852-0.20154-0.49093-0.20154-0.84232-0.56327-0.3514-0.36174-0.54777-0.85783-0.19637-0.49609-0.19637-1.08v-0.21704q0-0.67696 0.21704-1.2092 0.21704-0.53744 0.57361-0.90434 0.36174-0.37207 0.81649-0.56844 0.45992-0.19637 0.94051-0.19637 0.60461 0 1.0542 0.21187 0.45475 0.2067 0.75448 0.57878 0.29972 0.3669 0.44442 0.86816 0.14986 0.50126 0.14986 1.0852v0.42891h-3.9946q0.0155 0.38241 0.14469 0.7183 0.13436 0.3359 0.36174 0.58911 0.23254 0.24805 0.55294 0.39274t0.70797 0.14469q0.5116 0 0.9095-0.20671 0.39791-0.20671 0.66146-0.54777l0.58394 0.45475q-0.13953 0.21187-0.3514 0.40824-0.2067 0.1912-0.48059 0.34106-0.27389 0.14986-0.62012 0.23771-0.34623 0.09302-0.75448 0.09302zm-0.12402-5.0126q-0.28939 0-0.54777 0.10852-0.25838 0.10335-0.46509 0.31006-0.20671 0.20154-0.3514 0.50126-0.13953 0.29456-0.19637 0.68213h3.0076v-0.07235q-0.0155-0.27905-0.10852-0.55294-0.08785-0.27388-0.26355-0.49093t-0.44442-0.3514q-0.26355-0.13436-0.63045-0.13436z"/>
    <path d="m89.551 32.253q0.13436 0 0.27905 0.01033 0.14469 0.0052 0.27388 0.02584 0.13436 0.0155 0.24288 0.04134 0.11369 0.02584 0.18604 0.05684l-0.12919 0.93534q-0.27905-0.06201-0.53227-0.08785-0.24805-0.03101-0.52193-0.03101-0.67179 0-1.0904 0.30489-0.41341 0.30489-0.60978 0.85266v3.5863h-0.96118v-5.5914h0.9095l0.04651 0.88884q0.34106-0.45992 0.81649-0.72347 0.48059-0.26872 1.0904-0.26872z"/>
    <path d="m3.83 45.586 0.025838 0.5271q0.17053-0.29456 0.44442-0.45992 0.27905-0.16536 0.67179-0.17053 0.76998 0 1.0284 0.59945 0.16536-0.26872 0.43408-0.42891 0.27389-0.16536 0.66146-0.17053 0.61495 0 0.94568 0.37724 0.33073 0.37724 0.33073 1.142v4.1755h-0.9095v-4.1858q0-0.7028-0.64596-0.69763-0.17053 0-0.29456 0.04651-0.12402 0.04651-0.20671 0.12919-0.082682 0.07751-0.12919 0.18604-0.046509 0.10335-0.062012 0.21704v4.3046h-0.9095v-4.191q0-0.3359-0.14986-0.51676-0.14986-0.18087-0.47542-0.1757-0.29972 0-0.46509 0.11886t-0.24288 0.31523v4.4493h-0.90951v-5.5914z"/>
    <path d="m12.207 51.281q-0.58911 0-1.0852-0.20154-0.49093-0.20154-0.84233-0.56327-0.3514-0.36174-0.54777-0.85783-0.19637-0.49609-0.19637-1.08v-0.21704q0-0.67696 0.21704-1.2092 0.21704-0.53744 0.57361-0.90434 0.36174-0.37207 0.81649-0.56844 0.45992-0.19637 0.94051-0.19637 0.60461 0 1.0542 0.21187 0.45475 0.20671 0.75448 0.57878 0.29972 0.3669 0.44442 0.86816 0.14986 0.50126 0.14986 1.0852v0.42891h-3.9946q0.0155 0.38241 0.14469 0.7183 0.13436 0.3359 0.36174 0.58911 0.23254 0.24805 0.55294 0.39274t0.70797 0.14469q0.5116 0 0.9095-0.20671 0.39791-0.20671 0.66146-0.54777l0.58394 0.45475q-0.13953 0.21187-0.3514 0.40824-0.2067 0.1912-0.48059 0.34106-0.27388 0.14986-0.62012 0.23771-0.34623 0.09302-0.75448 0.09302zm-0.12402-5.0126q-0.28939 0-0.54777 0.10852-0.25838 0.10335-0.46509 0.31006-0.20671 0.20154-0.3514 0.50126-0.13953 0.29456-0.19637 0.68213h3.0076v-0.07235q-0.0155-0.27905-0.10852-0.55294-0.08785-0.27388-0.26355-0.49093t-0.44442-0.3514q-0.26355-0.13436-0.63045-0.13436z"/>
    <path d="m19.757 51.177q-0.05684-0.10852-0.09302-0.26872-0.03101-0.16536-0.04651-0.34106-0.14469 0.14469-0.32556 0.27388-0.1757 0.12919-0.39274 0.22738-0.21187 0.09819-0.45475 0.15503-0.24288 0.05684-0.51676 0.05684-0.44442 0-0.80615-0.12919-0.35657-0.12919-0.60978-0.34623-0.24805-0.22221-0.38757-0.52193-0.13436-0.30489-0.13436-0.65629 0-0.45992 0.18087-0.80615 0.18604-0.34623 0.52193-0.57361 0.3359-0.23254 0.80615-0.34623 0.47542-0.11369 1.0594-0.11369h1.0439v-0.43925q0-0.25322-0.09302-0.45475t-0.26355-0.34106q-0.17053-0.14469-0.41858-0.22221-0.24288-0.07751-0.54777-0.07751-0.28422 0-0.5116 0.07235-0.22221 0.07235-0.37724 0.1912-0.15503 0.11886-0.24288 0.28422-0.08268 0.1602-0.08268 0.3359h-0.96118q0.0052-0.30489 0.15503-0.59945 0.15503-0.29456 0.43925-0.5271 0.28939-0.23771 0.69763-0.38241 0.41341-0.14469 0.93534-0.14469 0.47542 0 0.88367 0.11886 0.40824 0.11369 0.7028 0.3514 0.29972 0.23254 0.47026 0.58394 0.17053 0.3514 0.17053 0.82166v2.5993q0 0.27905 0.05168 0.59428 0.05168 0.31006 0.14469 0.5426v0.08268zm-1.6898-0.72864q0.27905 0 0.52193-0.07235t0.43925-0.1912q0.20154-0.11886 0.34623-0.26872 0.14469-0.15503 0.22738-0.32039v-1.1317h-0.88884q-0.83716 0-1.3022 0.24805t-0.46509 0.78031q0 0.20671 0.06718 0.38241 0.07235 0.1757 0.21187 0.30489 0.13953 0.12402 0.3514 0.19637 0.21187 0.07235 0.49093 0.07235z"/>
    <path d="m23.286 45.586 0.06718 0.82682q0.30489-0.43408 0.74931-0.67696 0.44442-0.24805 0.99219-0.25322 0.43925 0 0.79582 0.12402 0.36174 0.12402 0.61495 0.38757 0.25321 0.26355 0.38757 0.67179 0.13953 0.40308 0.13953 0.96118v3.5502h-0.95601v-3.5295q0-0.37207-0.08268-0.63045-0.08268-0.25838-0.24805-0.41858-0.1602-0.1602-0.39791-0.23254-0.23254-0.07235-0.53743-0.07235-0.48059 0-0.84749 0.24288-0.36174 0.23771-0.57878 0.63045v4.0101h-0.95601v-5.5914z"/>
    <path d="m32.49 49.694q0-0.17053-0.06718-0.30489-0.06718-0.13953-0.22738-0.25322-0.1602-0.11369-0.42375-0.20671-0.26355-0.09819-0.65629-0.1757-0.48059-0.09819-0.8785-0.23771-0.39274-0.13953-0.67696-0.33073-0.27905-0.19637-0.43408-0.45475-0.15503-0.26355-0.15503-0.60978 0-0.34106 0.1602-0.63562 0.1602-0.29972 0.44958-0.52193 0.28939-0.22221 0.6873-0.3514 0.40308-0.12919 0.88367-0.12919 0.51676 0 0.93018 0.13436 0.41341 0.13436 0.7028 0.37207 0.28939 0.23771 0.44442 0.55811 0.1602 0.31523 0.1602 0.68213h-0.95601q0-0.18087-0.09302-0.3514-0.09302-0.1757-0.25838-0.31006-0.16536-0.13436-0.40308-0.21704-0.23254-0.08268-0.5271-0.08268-0.30489 0-0.53744 0.06718-0.22738 0.06718-0.3824 0.18087-0.14986 0.11369-0.22738 0.26355-0.07751 0.14986-0.07751 0.31006 0 0.16536 0.06201 0.29456t0.21187 0.23254q0.15503 0.10335 0.40824 0.18604 0.25838 0.08268 0.65112 0.1602 0.51676 0.10852 0.92501 0.25322 0.40824 0.13953 0.6873 0.34106 0.27905 0.19637 0.42375 0.45992 0.14986 0.26355 0.14986 0.60978 0 0.37207-0.17053 0.67696-0.16536 0.30489-0.46509 0.52193-0.29972 0.21704-0.7183 0.3359t-0.91467 0.11886q-0.56844 0-1.0129-0.14986-0.44442-0.15503-0.75448-0.40308-0.30489-0.25321-0.47026-0.58394-0.1602-0.33073-0.1602-0.6873h0.95601q0.02067 0.29456 0.15503 0.49609 0.13953 0.20154 0.34106 0.32556 0.2067 0.12402 0.45475 0.1757 0.24805 0.05168 0.49093 0.05168 0.60462 0 0.95601-0.22221 0.3514-0.22221 0.35657-0.58911z"/>
    <path d="m44.815 43.364h-1.142v8.6403h1.142v0.78548h-2.0464v-10.211h2.0464z"/>
    <path d="m49.476 50.557q0-0.15503 0.04651-0.28939 0.05168-0.13436 0.14469-0.23254 0.09302-0.10335 0.23254-0.1602 0.13953-0.05684 0.32556-0.05684 0.18604 0 0.32556 0.05684 0.14469 0.05684 0.23771 0.1602 0.09819 0.09819 0.14469 0.23254 0.05168 0.13436 0.05168 0.28939 0 0.14986-0.05168 0.28422-0.04651 0.12919-0.14469 0.22738-0.09302 0.09819-0.23771 0.14986-0.13953 0.05684-0.32556 0.05684-0.18604 0-0.32556-0.05684-0.13953-0.05168-0.23254-0.14986-0.09302-0.09819-0.14469-0.22738-0.04651-0.13436-0.04651-0.28422z"/>
    <path d="m55.822 50.557q0-0.15503 0.04651-0.28939 0.05168-0.13436 0.14469-0.23254 0.09302-0.10335 0.23254-0.1602 0.13953-0.05684 0.32556-0.05684 0.18604 0 0.32556 0.05684 0.14469 0.05684 0.23771 0.1602 0.09818 0.09819 0.14469 0.23254 0.05168 0.13436 0.05168 0.28939 0 0.14986-0.05168 0.28422-0.04651 0.12919-0.14469 0.22738-0.09302 0.09819-0.23771 0.14986-0.13953 0.05684-0.32556 0.05684-0.18604 0-0.32556-0.05684-0.13953-0.05168-0.23254-0.14986-0.09302-0.09819-0.14469-0.22738-0.04651-0.13436-0.04651-0.28422z"/>
    <path d="m62.168 50.557q0-0.15503 0.04651-0.28939 0.05168-0.13436 0.14469-0.23254 0.09302-0.10335 0.23254-0.1602 0.13953-0.05684 0.32556-0.05684t0.32556 0.05684q0.14469 0.05684 0.23771 0.1602 0.09819 0.09819 0.14469 0.23254 0.05168 0.13436 0.05168 0.28939 0 0.14986-0.05168 0.28422-0.04651 0.12919-0.14469 0.22738-0.09302 0.09819-0.23771 0.14986-0.13953 0.05684-0.32556 0.05684t-0.32556-0.05684q-0.13953-0.05168-0.23254-0.14986-0.09302-0.09819-0.14469-0.22738-0.04651-0.13436-0.04651-0.28422z"/>
    <path d="m68.043 42.578h2.0516v10.211h-2.0516v-0.78548h1.1472v-8.6403h-1.1472z"/>
   </g>
   <g transform="rotate(90)" fill="#d3af68" opacity=".75" stroke-width=".26458" aria-label="Refactor this because [...]">
    <path d="m57.533-129.95h-1.5038v3.0696h-0.95085v-7.5241h2.2066q0.5271 0.0103 0.99219 0.14987 0.46509 0.13952 0.81132 0.41858 0.3514 0.27905 0.54777 0.70279 0.20154 0.41858 0.20154 0.98702 0 0.36691-0.10852 0.6718-0.10335 0.30489-0.28939 0.55294-0.18604 0.24804-0.44442 0.43925-0.25838 0.1912-0.56844 0.32556l1.5968 3.2143-0.0052 0.062h-1.0077zm-1.5038-0.78548h1.2816q0.32039-5e-3 0.60461-0.0982 0.28422-0.0982 0.49609-0.27906 0.21704-0.18086 0.34106-0.43925 0.12402-0.26355 0.12402-0.60461 0-0.36174-0.11886-0.63045-0.11886-0.27389-0.33073-0.45476-0.21187-0.18603-0.50643-0.27905-0.28939-0.093-0.63562-0.0982h-1.2557z"/>
    <path d="m63.859-126.77q-0.58911 0-1.0852-0.20154-0.49093-0.20154-0.84233-0.56328-0.3514-0.36173-0.54777-0.85782-0.19637-0.4961-0.19637-1.08v-0.21704q0-0.67696 0.21704-1.2092 0.21704-0.53744 0.57361-0.90434 0.36174-0.37207 0.81649-0.56844 0.45992-0.19637 0.94051-0.19637 0.60462 0 1.0542 0.21187 0.45475 0.20671 0.75448 0.57878 0.29972 0.3669 0.44442 0.86816 0.14986 0.50127 0.14986 1.0852v0.42891h-3.9946q0.0155 0.38241 0.14469 0.71831 0.13436 0.33589 0.36174 0.58911 0.23254 0.24804 0.55294 0.39274 0.32039 0.14469 0.70797 0.14469 0.5116 0 0.9095-0.2067 0.39791-0.20671 0.66146-0.54777l0.58394 0.45475q-0.13953 0.21187-0.3514 0.40824-0.20671 0.19121-0.48059 0.34107t-0.62012 0.23771q-0.34623 0.093-0.75448 0.093zm-0.12402-5.0126q-0.28939 0-0.54777 0.10852-0.25838 0.10336-0.46509 0.31006-0.2067 0.20154-0.3514 0.50126-0.13953 0.29456-0.19637 0.68213h3.0076v-0.0724q-0.0155-0.27905-0.10852-0.55293-0.08785-0.27389-0.26355-0.49093t-0.44442-0.3514q-0.26355-0.13436-0.63045-0.13436z"/>
    <path d="m69.161-126.88v-4.8524h-1.54v-0.73898h1.54v-0.39274q0-0.53743 0.15503-0.94051 0.1602-0.40824 0.44442-0.68213 0.28939-0.27388 0.69246-0.41341t0.89917-0.13953q0.34106 0 0.66146 0.0568 0.32556 0.0568 0.66662 0.14469l-0.11369 0.79065q-0.21187-0.0723-0.49609-0.12402-0.27905-0.0568-0.59945-0.0568-0.67179 5e-3 -1.0129 0.34107-0.3359 0.3359-0.3359 1.0232v0.39274h2.1549v0.73898h-2.1549v4.8524z"/>
    <path d="m77.775-126.88q-0.05684-0.10852-0.09302-0.26871-0.03101-0.16537-0.04651-0.34107-0.14469 0.1447-0.32556 0.27389-0.1757 0.12919-0.39274 0.22737-0.21187 0.0982-0.45475 0.15503-0.24288 0.0568-0.51676 0.0568-0.44442 0-0.80615-0.1292-0.35657-0.12919-0.60978-0.34623-0.24805-0.22221-0.38757-0.52193-0.13436-0.30489-0.13436-0.65629 0-0.45992 0.18087-0.80615 0.18604-0.34623 0.52193-0.57361 0.3359-0.23254 0.80615-0.34623 0.47542-0.11369 1.0594-0.11369h1.0439v-0.43925q0-0.25322-0.09302-0.45475-0.09302-0.20154-0.26355-0.34107-0.17053-0.14469-0.41858-0.22221-0.24288-0.0775-0.54777-0.0775-0.28422 0-0.5116 0.0724-0.22221 0.0723-0.37724 0.1912-0.15503 0.11885-0.24288 0.28422-0.08268 0.1602-0.08268 0.3359h-0.96118q0.0052-0.30489 0.15503-0.59945 0.15503-0.29456 0.43925-0.5271 0.28939-0.23771 0.69763-0.38241 0.41341-0.14469 0.93534-0.14469 0.47542 0 0.88367 0.11886 0.40824 0.11368 0.7028 0.3514 0.29972 0.23254 0.47026 0.58394t0.17053 0.82165v2.5993q0 0.27905 0.05168 0.59428 0.05168 0.31006 0.14469 0.5426v0.0827zm-1.6898-0.72863q0.27905 0 0.52193-0.0724t0.43925-0.1912q0.20154-0.11886 0.34623-0.26872 0.14469-0.15503 0.22738-0.3204v-1.1317h-0.88883q-0.83716 0-1.3022 0.24805-0.46509 0.24804-0.46509 0.78031 0 0.20671 0.06718 0.38241 0.07235 0.1757 0.21187 0.30489 0.13953 0.12402 0.3514 0.19637 0.21187 0.0724 0.49093 0.0724z"/>
    <path d="m82.829-127.55q0.25838 0 0.50126-0.0827 0.24805-0.0827 0.43925-0.22738 0.1912-0.14986 0.30489-0.34623 0.11886-0.20154 0.12402-0.43408h0.90434q-0.0052 0.37207-0.19637 0.71313-0.18604 0.3359-0.50126 0.59428-0.31523 0.25321-0.72347 0.40824-0.40824 0.14987-0.85266 0.14987-0.63562 0-1.111-0.22738t-0.79582-0.60978q-0.31523-0.38758-0.47542-0.88884-0.1602-0.50643-0.1602-1.0645v-0.21704q0-0.55294 0.1602-1.0594 0.1602-0.50643 0.47542-0.88883 0.32039-0.38758 0.79582-0.61495 0.47542-0.22738 1.111-0.22738 0.49609 0 0.9095 0.1602 0.41858 0.15503 0.7183 0.42891 0.30489 0.26872 0.47542 0.64079 0.17053 0.37207 0.17053 0.79582h-0.90434q-0.0052-0.25322-0.11369-0.47543-0.10335-0.22737-0.28422-0.39791-0.18087-0.17053-0.43408-0.26871-0.24805-0.0982-0.53744-0.0982-0.44442 0-0.74931 0.18087-0.29972 0.1757-0.48576 0.46509-0.18604 0.28422-0.26872 0.64079-0.07751 0.35656-0.07751 0.7183v0.21704q0 0.3669 0.07751 0.72864 0.08268 0.35656 0.26355 0.64595 0.18604 0.28422 0.48576 0.46509 0.30489 0.1757 0.75448 0.1757z"/>
    <path d="m89.056-133.82v1.3539h2.1291v0.73898h-2.1291v3.0386q0 0.32556 0.08268 0.53744 0.08268 0.21187 0.22738 0.34106 0.14469 0.12402 0.33073 0.1757 0.1912 0.0517 0.40308 0.0517 0.15503 0 0.32039-0.0155 0.16536-0.0207 0.32039-0.0465 0.1602-0.0258 0.29456-0.0517 0.13953-0.031 0.22738-0.0517l0.13436 0.67696q-0.11886 0.0724-0.28939 0.12919-0.17053 0.0517-0.37207 0.0878-0.20154 0.0413-0.42891 0.062-0.22221 0.0207-0.44442 0.0207-0.37207 0-0.69763-0.10336-0.32039-0.10852-0.55811-0.33589-0.23771-0.23255-0.37724-0.59428-0.13436-0.36691-0.13436-0.88367v-3.0386h-1.4676v-0.73898h1.4676v-1.3539z"/>
    <path d="m92.87-129.72q0-0.60461 0.1757-1.1214 0.1757-0.52193 0.50126-0.90433 0.33073-0.38241 0.80098-0.59945 0.47026-0.22221 1.0594-0.22221 0.59428 0 1.0645 0.22221 0.47542 0.21704 0.80098 0.59945 0.33073 0.3824 0.50643 0.90433 0.1757 0.51677 0.1757 1.1214v0.11369q0 0.60461-0.1757 1.1214-0.1757 0.51676-0.50643 0.89917-0.32556 0.3824-0.79582 0.59944-0.47026 0.21705-1.0594 0.21705-0.59428 0-1.0697-0.21705-0.47026-0.21704-0.80098-0.59944-0.32556-0.38241-0.50126-0.89917-0.1757-0.51677-0.1757-1.1214zm0.95601 0.11369q0 0.41341 0.09819 0.79065 0.09819 0.37207 0.29456 0.65629 0.20154 0.28422 0.50126 0.44958 0.29972 0.16537 0.69763 0.16537 0.39274 0 0.6873-0.16537 0.29972-0.16536 0.49609-0.44958 0.20154-0.28422 0.29972-0.65629 0.09819-0.37724 0.09819-0.79065v-0.11369q0-0.40824-0.10335-0.78031-0.09819-0.37724-0.29972-0.66146-0.19637-0.28422-0.49609-0.44959-0.29456-0.17053-0.69246-0.17053-0.39791 0-0.69246 0.17053-0.29456 0.16537-0.49609 0.44959-0.19637 0.28422-0.29456 0.66146-0.09819 0.37207-0.09819 0.78031z"/>
    <path d="m103.15-132.57q0.13436 0 0.27905 0.0103 0.1447 5e-3 0.27389 0.0258 0.13436 0.0155 0.24288 0.0413 0.11368 0.0258 0.18603 0.0568l-0.12919 0.93534q-0.27905-0.062-0.53227-0.0879-0.24804-0.031-0.52193-0.031-0.67179 0-1.0904 0.30489-0.41341 0.30489-0.60978 0.85266v3.5863h-0.96119v-5.5914h0.90951l0.0465 0.88884q0.34106-0.45992 0.81649-0.72347 0.48059-0.26872 1.0904-0.26872z"/>
    <path d="m114.44-133.82v1.3539h2.1291v0.73898h-2.1291v3.0386q0 0.32556 0.0827 0.53744 0.0827 0.21187 0.22738 0.34106 0.14469 0.12402 0.33073 0.1757 0.1912 0.0517 0.40307 0.0517 0.15503 0 0.3204-0.0155 0.16536-0.0207 0.32039-0.0465 0.1602-0.0258 0.29456-0.0517 0.13952-0.031 0.22737-0.0517l0.13436 0.67696q-0.11886 0.0724-0.28939 0.12919-0.17053 0.0517-0.37207 0.0878-0.20154 0.0413-0.42891 0.062-0.22221 0.0207-0.44442 0.0207-0.37207 0-0.69763-0.10336-0.3204-0.10852-0.55811-0.33589-0.23771-0.23255-0.37723-0.59428-0.13436-0.36691-0.13436-0.88367v-3.0386h-1.4676v-0.73898h1.4676v-1.3539z"/>
    <path d="m119.48-131.64q0.29973-0.43925 0.73897-0.68213 0.43925-0.24804 0.98702-0.25321 0.43925 0 0.79582 0.12919 0.36174 0.12402 0.61495 0.39274 0.25322 0.26872 0.38757 0.68213 0.13953 0.40824 0.13953 0.97152v3.5192h-0.95601v-3.5295q0-0.68729-0.33073-1.0232-0.32556-0.3359-0.93535-0.33073-0.45992 0-0.83715 0.22738-0.37207 0.22221-0.60462 0.59428v4.0618h-0.95601v-7.9375h0.95601z"/>
    <path d="m125.02-132.47h2.8577v4.7646h1.8242v0.82682h-4.6819v-0.82682h1.9017v-3.9326h-1.9017zm1.7777-1.4676q0-0.23771 0.13952-0.39791 0.1447-0.16536 0.43408-0.16536 0.28422 0 0.42892 0.16536 0.14469 0.1602 0.14469 0.39791 0 0.23255-0.14469 0.38758-0.1447 0.15503-0.42892 0.15503-0.28938 0-0.43408-0.15503-0.13952-0.15503-0.13952-0.38758z"/>
    <path d="m134.93-128.36q0-0.17053-0.0672-0.30489-0.0672-0.13953-0.22737-0.25322-0.1602-0.11368-0.42375-0.2067-0.26355-0.0982-0.65629-0.1757-0.48059-0.0982-0.8785-0.23771-0.39274-0.13953-0.67696-0.33073-0.27905-0.19637-0.43408-0.45475-0.15503-0.26355-0.15503-0.60979 0-0.34106 0.1602-0.63562 0.16019-0.29972 0.44958-0.52193t0.6873-0.3514q0.40307-0.12919 0.88366-0.12919 0.51677 0 0.93018 0.13436t0.7028 0.37207 0.44442 0.5581q0.16019 0.31523 0.16019 0.68213h-0.95601q0-0.18086-0.093-0.3514-0.093-0.1757-0.25838-0.31005-0.16536-0.13436-0.40308-0.21705-0.23254-0.0827-0.5271-0.0827-0.30489 0-0.53743 0.0672-0.22738 0.0672-0.38241 0.18087-0.14986 0.11369-0.22737 0.26355-0.0775 0.14986-0.0775 0.31006 0 0.16536 0.062 0.29455t0.21188 0.23255q0.15503 0.10335 0.40824 0.18603 0.25838 0.0827 0.65112 0.1602 0.51677 0.10852 0.92501 0.25321 0.40825 0.13953 0.6873 0.34107 0.27905 0.19637 0.42375 0.45992 0.14986 0.26355 0.14986 0.60978 0 0.37207-0.17053 0.67696-0.16537 0.30489-0.46509 0.52193-0.29973 0.21704-0.7183 0.3359-0.41858 0.11886-0.91468 0.11886-0.56844 0-1.0129-0.14987-0.44441-0.15503-0.75447-0.40307-0.30489-0.25322-0.47026-0.58395-0.16019-0.33072-0.16019-0.68729h0.95601q0.0207 0.29455 0.15503 0.49609 0.13953 0.20154 0.34106 0.32556 0.20671 0.12403 0.45476 0.1757 0.24804 0.0517 0.49092 0.0517 0.60462 0 0.95602-0.22221t0.35656-0.58911z"/>
    <path d="m59.781-116.38q0 0.59944-0.14469 1.1214-0.14469 0.51677-0.42375 0.89917-0.27905 0.38241-0.69246 0.59945-0.40824 0.21704-0.94051 0.21704-0.53744 0-0.93534-0.1912-0.39274-0.1912-0.67179-0.54777l-0.04651 0.63562h-0.8785v-7.9375h0.95601v2.9456q0.27388-0.34107 0.66146-0.52194 0.38757-0.18086 0.90434-0.18086 0.53744 0 0.95085 0.21187 0.41341 0.21187 0.69246 0.58911 0.27905 0.37724 0.42375 0.90434 0.14469 0.52193 0.14469 1.1472zm-0.95601-0.10852q0-0.40825-0.08268-0.77515-0.07751-0.37207-0.25321-0.65112-0.1757-0.28422-0.45992-0.44959-0.28422-0.16536-0.69763-0.16536-0.24805 0-0.45475 0.0672-0.20671 0.062-0.37207 0.18086-0.1602 0.11369-0.28939 0.27389-0.12402 0.15503-0.21187 0.34106v2.4443q0.09302 0.18603 0.21704 0.34623 0.12919 0.15503 0.29456 0.27389 0.16536 0.11885 0.37207 0.18603 0.20671 0.062 0.45475 0.062 0.39274 0 0.67179-0.16019 0.28422-0.16537 0.45992-0.44442 0.18087-0.27905 0.26355-0.64596 0.08785-0.3669 0.08785-0.77514z"/>
    <path d="m63.859-113.54q-0.58911 0-1.0852-0.20154-0.49093-0.20153-0.84233-0.56327-0.3514-0.36173-0.54777-0.85783-0.19637-0.49609-0.19637-1.08v-0.21704q0-0.67696 0.21704-1.2092 0.21704-0.53744 0.57361-0.90434 0.36174-0.37207 0.81649-0.56844 0.45992-0.19637 0.94051-0.19637 0.60462 0 1.0542 0.21187 0.45475 0.20671 0.75448 0.57878 0.29972 0.3669 0.44442 0.86816 0.14986 0.50126 0.14986 1.0852v0.42891h-3.9946q0.0155 0.38241 0.14469 0.7183 0.13436 0.3359 0.36174 0.58911 0.23254 0.24805 0.55294 0.39274 0.32039 0.1447 0.70797 0.1447 0.5116 0 0.9095-0.20671 0.39791-0.2067 0.66146-0.54777l0.58394 0.45475q-0.13953 0.21188-0.3514 0.40825-0.20671 0.1912-0.48059 0.34106t-0.62012 0.23771q-0.34623 0.093-0.75448 0.093zm-0.12402-5.0126q-0.28939 0-0.54777 0.10852-0.25838 0.10335-0.46509 0.31006-0.2067 0.20154-0.3514 0.50126-0.13953 0.29455-0.19637 0.68213h3.0076v-0.0724q-0.0155-0.27905-0.10852-0.55294-0.08785-0.27388-0.26355-0.49092t-0.44442-0.3514q-0.26355-0.13436-0.63045-0.13436z"/>
    <path d="m70.117-114.32q0.25838 0 0.50126-0.0827 0.24805-0.0827 0.43925-0.22737 0.1912-0.14986 0.30489-0.34623 0.11886-0.20154 0.12402-0.43409h0.90434q-0.0052 0.37207-0.19637 0.71314-0.18604 0.33589-0.50126 0.59428-0.31523 0.25321-0.72347 0.40824-0.40824 0.14986-0.85266 0.14986-0.63562 0-1.111-0.22737-0.47542-0.22738-0.79582-0.60979-0.31523-0.38757-0.47542-0.88883-0.1602-0.50643-0.1602-1.0645v-0.21704q0-0.55293 0.1602-1.0594t0.47542-0.88884q0.32039-0.38757 0.79582-0.61495 0.47542-0.22737 1.111-0.22737 0.49609 0 0.9095 0.16019 0.41858 0.15503 0.7183 0.42892 0.30489 0.26872 0.47542 0.64079t0.17053 0.79581h-0.90434q-0.0052-0.25321-0.11369-0.47542-0.10335-0.22738-0.28422-0.39791-0.18087-0.17053-0.43408-0.26872-0.24805-0.0982-0.53743-0.0982-0.44442 0-0.74931 0.18087-0.29972 0.1757-0.48576 0.46508-0.18604 0.28422-0.26872 0.64079-0.07751 0.35657-0.07751 0.7183v0.21704q0 0.36691 0.07751 0.72864 0.08268 0.35657 0.26355 0.64596 0.18604 0.28422 0.48576 0.46509 0.30489 0.1757 0.75448 0.1757z"/>
    <path d="m77.754-113.65q-0.05685-0.10852-0.09302-0.26872-0.03101-0.16536-0.04651-0.34106-0.14469 0.14469-0.32556 0.27388-0.1757 0.12919-0.39274 0.22738-0.21187 0.0982-0.45475 0.15503-0.24288 0.0568-0.51676 0.0568-0.44442 0-0.80615-0.12919-0.35657-0.12919-0.60978-0.34623-0.24805-0.22221-0.38757-0.52193-0.13436-0.30489-0.13436-0.65629 0-0.45992 0.18087-0.80616 0.18604-0.34623 0.52193-0.5736 0.3359-0.23255 0.80615-0.34624 0.47542-0.11368 1.0594-0.11368h1.0439v-0.43925q0-0.25322-0.09302-0.45476-0.09302-0.20153-0.26355-0.34106-0.17053-0.1447-0.41858-0.22221-0.24288-0.0775-0.54777-0.0775-0.28422 0-0.5116 0.0723-0.22221 0.0724-0.37724 0.19121-0.15503 0.11885-0.24288 0.28422-0.08268 0.16019-0.08268 0.33589h-0.96118q0.0052-0.30489 0.15503-0.59944 0.15503-0.29456 0.43925-0.5271 0.28939-0.23772 0.69763-0.38241 0.41341-0.14469 0.93534-0.14469 0.47542 0 0.88367 0.11885 0.40824 0.11369 0.7028 0.3514 0.29972 0.23255 0.47026 0.58395t0.17053 0.82165v2.5993q0 0.27905 0.05168 0.59427 0.05168 0.31006 0.14469 0.54261v0.0827zm-1.6898-0.72864q0.27905 0 0.52193-0.0724 0.24288-0.0723 0.43925-0.1912 0.20154-0.11885 0.34623-0.26872 0.14469-0.15502 0.22738-0.32039v-1.1317h-0.88883q-0.83716 0-1.3022 0.24804-0.46509 0.24805-0.46509 0.78032 0 0.2067 0.06718 0.3824 0.07235 0.1757 0.21187 0.30489 0.13953 0.12403 0.3514 0.19637 0.21187 0.0724 0.49093 0.0724z"/>
    <path d="m84.054-114.42q-0.27905 0.41341-0.69763 0.64596-0.41858 0.22737-0.96635 0.22737-0.43925 0-0.79582-0.13436-0.35657-0.13952-0.60978-0.42891-0.25322-0.28939-0.39274-0.73381-0.13436-0.44958-0.13436-1.0749v-3.3228h0.95601v3.3331q0 0.45475 0.07235 0.75448 0.07235 0.29972 0.21704 0.48059 0.14469 0.1757 0.3514 0.24804 0.21187 0.0724 0.48576 0.0724 0.58394 0 0.94051-0.23771 0.36174-0.23771 0.53743-0.64079v-4.0101h0.96118v5.5914h-0.86816z"/>
    <path d="m90.487-115.13q0-0.17054-0.06718-0.3049-0.06718-0.13952-0.22738-0.25321-0.1602-0.11369-0.42375-0.20671-0.26355-0.0982-0.65629-0.1757-0.48059-0.0982-0.8785-0.23771-0.39274-0.13952-0.67696-0.33073-0.27905-0.19637-0.43408-0.45475-0.15503-0.26355-0.15503-0.60978 0-0.34106 0.1602-0.63562 0.1602-0.29972 0.44958-0.52193t0.6873-0.3514q0.40308-0.12919 0.88367-0.12919 0.51676 0 0.93018 0.13436 0.41341 0.13435 0.7028 0.37207 0.28939 0.23771 0.44442 0.5581 0.1602 0.31523 0.1602 0.68213h-0.95601q0-0.18087-0.09302-0.3514-0.09302-0.1757-0.25838-0.31006-0.16536-0.13436-0.40308-0.21704-0.23254-0.0827-0.5271-0.0827-0.30489 0-0.53744 0.0672-0.22738 0.0672-0.38241 0.18087-0.14986 0.11368-0.22738 0.26355-0.07752 0.14986-0.07752 0.31005 0 0.16537 0.06201 0.29456t0.21187 0.23254q0.15503 0.10336 0.40824 0.18604 0.25838 0.0827 0.65112 0.1602 0.51676 0.10852 0.92501 0.25321 0.40824 0.13953 0.6873 0.34106 0.27905 0.19637 0.42375 0.45992 0.14986 0.26355 0.14986 0.60979 0 0.37207-0.17053 0.67696-0.16536 0.30489-0.46509 0.52193t-0.7183 0.3359q-0.41858 0.11885-0.91467 0.11885-0.56844 0-1.0129-0.14986-0.44442-0.15503-0.75448-0.40308-0.30489-0.25321-0.47026-0.58394-0.1602-0.33073-0.1602-0.6873h0.95601q0.02067 0.29456 0.15503 0.4961 0.13953 0.20154 0.34106 0.32556 0.20671 0.12402 0.45475 0.1757 0.24805 0.0517 0.49093 0.0517 0.60461 0 0.95601-0.22221t0.35657-0.58911z"/>
    <path d="m95.588-113.54q-0.58911 0-1.0852-0.20154-0.49093-0.20153-0.84233-0.56327-0.3514-0.36173-0.54777-0.85783-0.19637-0.49609-0.19637-1.08v-0.21704q0-0.67696 0.21704-1.2092 0.21704-0.53744 0.57361-0.90434 0.36174-0.37207 0.81649-0.56844 0.45992-0.19637 0.94051-0.19637 0.60461 0 1.0542 0.21187 0.45475 0.20671 0.75448 0.57878 0.29972 0.3669 0.44442 0.86816 0.14986 0.50126 0.14986 1.0852v0.42891h-3.9946q0.0155 0.38241 0.14469 0.7183 0.13436 0.3359 0.36174 0.58911 0.23254 0.24805 0.55294 0.39274 0.32039 0.1447 0.70797 0.1447 0.5116 0 0.9095-0.20671 0.39791-0.2067 0.66146-0.54777l0.58394 0.45475q-0.13953 0.21188-0.3514 0.40825-0.20671 0.1912-0.48059 0.34106t-0.62012 0.23771q-0.34623 0.093-0.75448 0.093zm-0.12402-5.0126q-0.28939 0-0.54777 0.10852-0.25838 0.10335-0.46509 0.31006-0.20671 0.20154-0.3514 0.50126-0.13953 0.29455-0.19637 0.68213h3.0076v-0.0724q-0.0155-0.27905-0.10852-0.55294-0.08785-0.27388-0.26355-0.49092-0.1757-0.21704-0.44442-0.3514-0.26355-0.13436-0.63045-0.13436z"/>
    <path d="m109.16-121.46h-1.142v8.6403h1.142v0.78548h-2.0464v-10.211h2.0464z"/>
    <path d="m113.82-114.27q0-0.15503 0.0465-0.28939 0.0517-0.13435 0.1447-0.23254 0.093-0.10335 0.23254-0.1602 0.13953-0.0568 0.32556-0.0568 0.18604 0 0.32556 0.0568 0.1447 0.0569 0.23772 0.1602 0.0982 0.0982 0.14469 0.23254 0.0517 0.13436 0.0517 0.28939 0 0.14986-0.0517 0.28422-0.0465 0.12919-0.14469 0.22738-0.093 0.0982-0.23772 0.14986-0.13952 0.0568-0.32556 0.0568-0.18603 0-0.32556-0.0568-0.13953-0.0517-0.23254-0.14986-0.093-0.0982-0.1447-0.22738-0.0465-0.13436-0.0465-0.28422z"/>
    <path d="m120.17-114.27q0-0.15503 0.0465-0.28939 0.0517-0.13435 0.14469-0.23254 0.093-0.10335 0.23254-0.1602 0.13953-0.0568 0.32557-0.0568 0.18603 0 0.32556 0.0568 0.14469 0.0569 0.23771 0.1602 0.0982 0.0982 0.14469 0.23254 0.0517 0.13436 0.0517 0.28939 0 0.14986-0.0517 0.28422-0.0465 0.12919-0.14469 0.22738-0.093 0.0982-0.23771 0.14986-0.13953 0.0568-0.32556 0.0568-0.18604 0-0.32557-0.0568-0.13952-0.0517-0.23254-0.14986-0.093-0.0982-0.14469-0.22738-0.0465-0.13436-0.0465-0.28422z"/>
    <path d="m126.51-114.27q0-0.15503 0.0465-0.28939 0.0517-0.13435 0.14469-0.23254 0.093-0.10335 0.23255-0.1602 0.13952-0.0568 0.32556-0.0568 0.18603 0 0.32556 0.0568 0.14469 0.0569 0.23771 0.1602 0.0982 0.0982 0.1447 0.23254 0.0517 0.13436 0.0517 0.28939 0 0.14986-0.0517 0.28422-0.0465 0.12919-0.1447 0.22738-0.093 0.0982-0.23771 0.14986-0.13953 0.0568-0.32556 0.0568-0.18604 0-0.32556-0.0568-0.13953-0.0517-0.23255-0.14986-0.093-0.0982-0.14469-0.22738-0.0465-0.13436-0.0465-0.28422z"/>
    <path d="m132.39-122.25h2.0516v10.211h-2.0516v-0.78548h1.1472v-8.6403h-1.1472z"/>
   </g>
  </g>
 </g>
</svg>
