<?xml version="1.0" encoding="UTF-8"?>
<svg width="512" height="512" version="1.1" viewBox="0 0 135.47 135.47" xmlns="http://www.w3.org/2000/svg">
 <g>
  <g transform="matrix(.87961 0 .23569 .87961 -7.4132 7.1769)">
   <g transform="translate(-1.4966 2.2231)" opacity=".75">
    <g transform="rotate(-45 67.687 238.22)">
     <rect x="207.37" y="100.6" width="10.583" height="71.967" fill="#e6d2a8" fill-opacity=".74902" opacity=".75" style="paint-order:normal"/>
     <g fill="#c79a40">
      <rect x="209.49" y="104.83" width="6.35" height="2.1167" opacity="1" style="paint-order:normal"/>
      <rect x="209.49" y="109.07" width="2.1167" height="2.1167" opacity="1" style="paint-order:normal"/>
      <rect x="213.72" y="113.3" width="2.1167" height="2.1167" opacity="1" style="paint-order:normal"/>
      <rect x="209.49" y="119.65" width="6.35" height="2.1167" opacity="1" style="paint-order:normal"/>
      <rect x="209.49" y="123.88" width="6.35" height="2.1167" opacity="1" style="paint-order:normal"/>
      <rect x="209.49" y="132.35" width="6.35" height="2.1167" opacity="1" style="paint-order:normal"/>
      <rect x="209.49" y="128.12" width="4.2333" height="2.1167" opacity="1" style="paint-order:normal"/>
      <rect x="211.6" y="136.58" width="4.2333" height="2.1167" opacity="1" style="paint-order:normal"/>
      <rect x="209.49" y="140.82" width="2.1167" height="2.1167" opacity="1" style="paint-order:normal"/>
      <rect x="213.72" y="140.82" width="2.1167" height="2.1167" opacity="1" style="paint-order:normal"/>
      <rect x="209.49" y="145.05" width="6.35" height="2.1167" opacity="1" style="paint-order:normal"/>
      <rect x="209.49" y="149.28" width="6.35" height="2.1167" opacity="1" style="paint-order:normal"/>
      <rect x="209.49" y="153.52" width="4.2333" height="2.1167" opacity="1" style="paint-order:normal"/>
      <rect x="209.49" y="157.75" width="4.2333" height="2.1167" opacity="1" style="paint-order:normal"/>
      <rect x="213.72" y="161.98" width="2.1167" height="2.1167" opacity="1" style="paint-order:normal"/>
      <rect x="213.72" y="166.22" width="2.1167" height="2.1167" opacity="1" style="paint-order:normal"/>
      <rect x="209.49" y="166.22" width="2.1167" height="2.1167" opacity="1" style="paint-order:normal"/>
     </g>
    </g>
    <g transform="matrix(1.8568 0 0 1.8568 -85.644 -363.38)">
     <g transform="translate(5.6493 5.1124)">
      <path transform="matrix(.26458 0 0 .26458 0 161.53)" d="m287.12 192.61-2.2988 5.2578-0.32813 2.5059 0.29883 2.6172-5.8164 1.1582-0.72851-2.5332-1.2598-2.1894-4.1367-3.9785-3.1309 1.2969-0.11132 5.7383 0.65625 2.4394 1.2773 2.3047-4.9316 3.2949-1.6406-2.0625-2.0039-1.541-5.3418-2.0918-2.3984 2.3965 2.0938 5.3438 1.541 2.002 2.0606 1.6426-3.2949 4.9316-2.3047-1.2773-2.4395-0.6582-5.7383 0.11328-1.2969 3.1309 3.9785 4.1367 2.1895 1.2598 2.5332 0.72657-1.1562 5.8164-2.6191-0.29687-2.5059 0.32617-5.2578 2.2988v3.3906l5.2578 2.2988 2.5059 0.32617 2.6191-0.29687 1.1562 5.8164-2.5332 0.72657-2.1895 1.2617-3.9785 4.1348 1.2969 3.1328 5.7383 0.11133 2.4395-0.6582 2.3047-1.2754 3.2949 4.9297-2.0606 1.6426-1.541 2.002-2.0938 5.3438 2.3984 2.3965 5.3418-2.0918 2.0039-1.541 1.6406-2.0625 4.9316 3.2949-1.2773 2.3047-0.65625 2.4414 0.11132 5.7363 3.1309 1.2969 4.1367-3.9766 1.2598-2.1914 0.72851-2.5332 5.8164 1.1582-0.29883 2.6191 0.32813 2.5039 2.2988 5.2578h3.3887l2.2988-5.2578 0.32618-2.5039-0.29688-2.6191 5.8164-1.1582 0.72656 2.5332 1.2617 2.1914 4.1348 3.9766 3.1328-1.2969 0.11132-5.7363-0.65624-2.4414-1.2774-2.3047 4.9297-3.2949 1.6426 2.0625 2.002 1.541 5.3438 2.0918 2.3965-2.3965-2.0918-5.3438-1.541-2.002-2.0625-1.6426 3.2949-4.9297 2.3066 1.2754 2.4395 0.6582 5.7363-0.11133 1.2969-3.1328-3.9766-4.1348-2.1894-1.2617-2.5332-0.72657 1.1562-5.8164 2.6191 0.29687 2.5059-0.32617 5.2578-2.2988v-3.3906l-5.2578-2.2988-2.5059-0.32617-2.6191 0.29687-1.1562-5.8164 2.5332-0.72657 2.1894-1.2598 3.9766-4.1367-1.2969-3.1309-5.7363-0.11328-2.4395 0.6582-2.3066 1.2773-3.2949-4.9316 2.0625-1.6426 1.541-2.002 2.0918-5.3438-2.3965-2.3965-5.3438 2.0918-2.002 1.541-1.6426 2.0625-4.9297-3.2949 1.2774-2.3047 0.65624-2.4394-0.11132-5.7383-3.1328-1.2969-4.1348 3.9785-1.2617 2.1894-0.72656 2.5332-5.8164-1.1582 0.29688-2.6172-0.32618-2.5059-2.2988-5.2578zm1.6934 24.574a21.231 21.231 0 0 1 21.232 21.23 21.231 21.231 0 0 1-21.232 21.232 21.231 21.231 0 0 1-21.23-21.232 21.231 21.231 0 0 1 21.23-21.23z" fill="#c79a40"/>
      <path transform="matrix(.26458 0 0 .26458 0 161.53)" d="m288.81 217.18a21.231 21.231 0 0 0-21.23 21.23 21.231 21.231 0 0 0 21.23 21.232 21.231 21.231 0 0 0 21.232-21.232 21.231 21.231 0 0 0-21.232-21.23zm0 13.23a8 8 0 0 1 8 8 8 8 0 0 1-8 8 8 8 0 0 1-8-8 8 8 0 0 1 8-8z" fill="#e6d2a8" fill-opacity=".74902"/>
     </g>
     <g transform="matrix(.76869 0 0 .76869 10.131 72.764)">
      <path transform="matrix(.26458 0 0 .26458 0 161.53)" d="m287.12 192.61-2.2988 5.2578-0.32813 2.5059 0.29883 2.6172-5.8164 1.1582-0.72851-2.5332-1.2598-2.1894-4.1367-3.9785-3.1309 1.2969-0.11132 5.7383 0.65625 2.4394 1.2773 2.3047-4.9316 3.2949-1.6406-2.0625-2.0039-1.541-5.3418-2.0918-2.3984 2.3965 2.0938 5.3438 1.541 2.002 2.0606 1.6426-3.2949 4.9316-2.3047-1.2773-2.4395-0.6582-5.7383 0.11328-1.2969 3.1309 3.9785 4.1367 2.1895 1.2598 2.5332 0.72657-1.1562 5.8164-2.6191-0.29687-2.5059 0.32617-5.2578 2.2988v3.3906l5.2578 2.2988 2.5059 0.32617 2.6191-0.29687 1.1562 5.8164-2.5332 0.72657-2.1895 1.2617-3.9785 4.1348 1.2969 3.1328 5.7383 0.11133 2.4395-0.6582 2.3047-1.2754 3.2949 4.9297-2.0606 1.6426-1.541 2.002-2.0938 5.3438 2.3984 2.3965 5.3418-2.0918 2.0039-1.541 1.6406-2.0625 4.9316 3.2949-1.2773 2.3047-0.65625 2.4414 0.11132 5.7363 3.1309 1.2969 4.1367-3.9766 1.2598-2.1914 0.72851-2.5332 5.8164 1.1582-0.29883 2.6191 0.32813 2.5039 2.2988 5.2578h3.3887l2.2988-5.2578 0.32618-2.5039-0.29688-2.6191 5.8164-1.1582 0.72656 2.5332 1.2617 2.1914 4.1348 3.9766 3.1328-1.2969 0.11132-5.7363-0.65624-2.4414-1.2774-2.3047 4.9297-3.2949 1.6426 2.0625 2.002 1.541 5.3438 2.0918 2.3965-2.3965-2.0918-5.3438-1.541-2.002-2.0625-1.6426 3.2949-4.9297 2.3066 1.2754 2.4395 0.6582 5.7363-0.11133 1.2969-3.1328-3.9766-4.1348-2.1894-1.2617-2.5332-0.72657 1.1562-5.8164 2.6191 0.29687 2.5059-0.32617 5.2578-2.2988v-3.3906l-5.2578-2.2988-2.5059-0.32617-2.6191 0.29687-1.1562-5.8164 2.5332-0.72657 2.1894-1.2598 3.9766-4.1367-1.2969-3.1309-5.7363-0.11328-2.4395 0.6582-2.3066 1.2773-3.2949-4.9316 2.0625-1.6426 1.541-2.002 2.0918-5.3438-2.3965-2.3965-5.3438 2.0918-2.002 1.541-1.6426 2.0625-4.9297-3.2949 1.2774-2.3047 0.65624-2.4394-0.11132-5.7383-3.1328-1.2969-4.1348 3.9785-1.2617 2.1894-0.72656 2.5332-5.8164-1.1582 0.29688-2.6172-0.32618-2.5059-2.2988-5.2578zm1.6934 24.574a21.231 21.231 0 0 1 21.232 21.23 21.231 21.231 0 0 1-21.232 21.232 21.231 21.231 0 0 1-21.23-21.232 21.231 21.231 0 0 1 21.23-21.23z" fill="#c79a40"/>
      <path transform="matrix(.26458 0 0 .26458 0 161.53)" d="m288.81 217.18a21.231 21.231 0 0 0-21.23 21.23 21.231 21.231 0 0 0 21.23 21.232 21.231 21.231 0 0 0 21.232-21.232 21.231 21.231 0 0 0-21.232-21.23zm0 13.23a8 8 0 0 1 8 8 8 8 0 0 1-8 8 8 8 0 0 1-8-8 8 8 0 0 1 8-8z" fill="#e6d2a8" fill-opacity=".74902"/>
     </g>
    </g>
    <g transform="translate(-88.835 -81.55)">
     <rect x="95.185" y="100.6" width="27.517" height="101.6" fill="#e6d1a8" opacity=".75" style="paint-order:normal"/>
     <g fill="#c79a40">
      <rect x="97.302" y="104.83" width="16.933" height="6.35" opacity="1" style="paint-order:normal"/>
      <rect x="101.54" y="113.3" width="16.933" height="6.35" opacity="1" style="paint-order:normal"/>
      <rect x="97.302" y="123.88" width="16.933" height="6.35" opacity="1" style="paint-order:normal"/>
      <rect x="101.54" y="132.35" width="16.933" height="6.35" opacity="1" style="paint-order:normal"/>
      <rect x="101.54" y="140.82" width="16.933" height="6.35" opacity="1" style="paint-order:normal"/>
      <rect x="97.302" y="172.57" width="23.283" height="27.517" opacity="1" style="paint-order:normal"/>
     </g>
    </g>
    <g transform="translate(-88.835 -81.55)">
     <rect x="95.185" y="96.366" width="122.77" height="4.2333" fill="#d1ac61" opacity=".75" style="paint-order:normal"/>
     <rect x="213.72" y="96.366" width="4.2333" height="4.2333" fill="#c79a40" opacity="1" style="paint-order:normal"/>
     <rect x="97.302" y="96.366" width="23.283" height="2.1167" fill="#c79a40" opacity="1" style="paint-order:normal"/>
    </g>
    <g transform="translate(-88.835 -81.55)">
     <rect x="122.7" y="172.57" width="95.25" height="29.633" fill="#d3af68" opacity=".75" style="paint-order:normal"/>
     <g fill="#c79a40">
      <rect x="126.94" y="176.8" width="6.35" height="6.35" opacity="1" style="paint-order:normal"/>
      <rect x="135.4" y="176.8" width="55.033" height="6.35" opacity="1" style="paint-order:normal"/>
      <rect x="126.94" y="185.27" width="35.983" height="6.35" opacity="1" style="paint-order:normal"/>
      <rect x="126.94" y="193.73" width="35.983" height="6.35" opacity="1" style="paint-order:normal"/>
     </g>
    </g>
   </g>
   <g>
    <g transform="rotate(-45 67.687 238.22)">
     <rect x="207.37" y="100.6" width="10.583" height="71.967" fill="#e6d2a8" fill-opacity=".74902" opacity=".75" style="paint-order:normal"/>
     <g fill="#c79a40">
      <rect x="209.49" y="104.83" width="6.35" height="2.1167" style="paint-order:normal"/>
      <rect x="209.49" y="109.07" width="2.1167" height="2.1167" style="paint-order:normal"/>
      <rect x="213.72" y="113.3" width="2.1167" height="2.1167" style="paint-order:normal"/>
      <rect x="209.49" y="119.65" width="6.35" height="2.1167" style="paint-order:normal"/>
      <rect x="209.49" y="123.88" width="6.35" height="2.1167" style="paint-order:normal"/>
      <rect x="209.49" y="132.35" width="6.35" height="2.1167" style="paint-order:normal"/>
      <rect x="209.49" y="128.12" width="4.2333" height="2.1167" style="paint-order:normal"/>
      <rect x="211.6" y="136.58" width="4.2333" height="2.1167" style="paint-order:normal"/>
      <rect x="209.49" y="140.82" width="2.1167" height="2.1167" style="paint-order:normal"/>
      <rect x="213.72" y="140.82" width="2.1167" height="2.1167" style="paint-order:normal"/>
      <rect x="209.49" y="145.05" width="6.35" height="2.1167" style="paint-order:normal"/>
      <rect x="209.49" y="149.28" width="6.35" height="2.1167" style="paint-order:normal"/>
      <rect x="209.49" y="153.52" width="4.2333" height="2.1167" style="paint-order:normal"/>
      <rect x="209.49" y="157.75" width="4.2333" height="2.1167" style="paint-order:normal"/>
      <rect x="213.72" y="161.98" width="2.1167" height="2.1167" style="paint-order:normal"/>
      <rect x="213.72" y="166.22" width="2.1167" height="2.1167" style="paint-order:normal"/>
      <rect x="209.49" y="166.22" width="2.1167" height="2.1167" style="paint-order:normal"/>
     </g>
    </g>
    <g transform="matrix(1.8568 0 0 1.8568 -85.644 -363.38)">
     <g transform="translate(5.6493 5.1124)">
      <path transform="matrix(.26458 0 0 .26458 0 161.53)" d="m287.12 192.61-2.2988 5.2578-0.32813 2.5059 0.29883 2.6172-5.8164 1.1582-0.72851-2.5332-1.2598-2.1894-4.1367-3.9785-3.1309 1.2969-0.11132 5.7383 0.65625 2.4394 1.2773 2.3047-4.9316 3.2949-1.6406-2.0625-2.0039-1.541-5.3418-2.0918-2.3984 2.3965 2.0938 5.3438 1.541 2.002 2.0606 1.6426-3.2949 4.9316-2.3047-1.2773-2.4395-0.6582-5.7383 0.11328-1.2969 3.1309 3.9785 4.1367 2.1895 1.2598 2.5332 0.72657-1.1562 5.8164-2.6191-0.29687-2.5059 0.32617-5.2578 2.2988v3.3906l5.2578 2.2988 2.5059 0.32617 2.6191-0.29687 1.1562 5.8164-2.5332 0.72657-2.1895 1.2617-3.9785 4.1348 1.2969 3.1328 5.7383 0.11133 2.4395-0.6582 2.3047-1.2754 3.2949 4.9297-2.0606 1.6426-1.541 2.002-2.0938 5.3438 2.3984 2.3965 5.3418-2.0918 2.0039-1.541 1.6406-2.0625 4.9316 3.2949-1.2773 2.3047-0.65625 2.4414 0.11132 5.7363 3.1309 1.2969 4.1367-3.9766 1.2598-2.1914 0.72851-2.5332 5.8164 1.1582-0.29883 2.6191 0.32813 2.5039 2.2988 5.2578h3.3887l2.2988-5.2578 0.32618-2.5039-0.29688-2.6191 5.8164-1.1582 0.72656 2.5332 1.2617 2.1914 4.1348 3.9766 3.1328-1.2969 0.11132-5.7363-0.65624-2.4414-1.2774-2.3047 4.9297-3.2949 1.6426 2.0625 2.002 1.541 5.3438 2.0918 2.3965-2.3965-2.0918-5.3438-1.541-2.002-2.0625-1.6426 3.2949-4.9297 2.3066 1.2754 2.4395 0.6582 5.7363-0.11133 1.2969-3.1328-3.9766-4.1348-2.1894-1.2617-2.5332-0.72657 1.1562-5.8164 2.6191 0.29687 2.5059-0.32617 5.2578-2.2988v-3.3906l-5.2578-2.2988-2.5059-0.32617-2.6191 0.29687-1.1562-5.8164 2.5332-0.72657 2.1894-1.2598 3.9766-4.1367-1.2969-3.1309-5.7363-0.11328-2.4395 0.6582-2.3066 1.2773-3.2949-4.9316 2.0625-1.6426 1.541-2.002 2.0918-5.3438-2.3965-2.3965-5.3438 2.0918-2.002 1.541-1.6426 2.0625-4.9297-3.2949 1.2774-2.3047 0.65624-2.4394-0.11132-5.7383-3.1328-1.2969-4.1348 3.9785-1.2617 2.1894-0.72656 2.5332-5.8164-1.1582 0.29688-2.6172-0.32618-2.5059-2.2988-5.2578zm1.6934 24.574a21.231 21.231 0 0 1 21.232 21.23 21.231 21.231 0 0 1-21.232 21.232 21.231 21.231 0 0 1-21.23-21.232 21.231 21.231 0 0 1 21.23-21.23z" fill="#c79a40"/>
      <path transform="matrix(.26458 0 0 .26458 0 161.53)" d="m288.81 217.18a21.231 21.231 0 0 0-21.23 21.23 21.231 21.231 0 0 0 21.23 21.232 21.231 21.231 0 0 0 21.232-21.232 21.231 21.231 0 0 0-21.232-21.23zm0 13.23a8 8 0 0 1 8 8 8 8 0 0 1-8 8 8 8 0 0 1-8-8 8 8 0 0 1 8-8z" fill="#e6d2a8" fill-opacity=".74902"/>
     </g>
     <g transform="matrix(.76869 0 0 .76869 10.131 72.764)">
      <path transform="matrix(.26458 0 0 .26458 0 161.53)" d="m287.12 192.61-2.2988 5.2578-0.32813 2.5059 0.29883 2.6172-5.8164 1.1582-0.72851-2.5332-1.2598-2.1894-4.1367-3.9785-3.1309 1.2969-0.11132 5.7383 0.65625 2.4394 1.2773 2.3047-4.9316 3.2949-1.6406-2.0625-2.0039-1.541-5.3418-2.0918-2.3984 2.3965 2.0938 5.3438 1.541 2.002 2.0606 1.6426-3.2949 4.9316-2.3047-1.2773-2.4395-0.6582-5.7383 0.11328-1.2969 3.1309 3.9785 4.1367 2.1895 1.2598 2.5332 0.72657-1.1562 5.8164-2.6191-0.29687-2.5059 0.32617-5.2578 2.2988v3.3906l5.2578 2.2988 2.5059 0.32617 2.6191-0.29687 1.1562 5.8164-2.5332 0.72657-2.1895 1.2617-3.9785 4.1348 1.2969 3.1328 5.7383 0.11133 2.4395-0.6582 2.3047-1.2754 3.2949 4.9297-2.0606 1.6426-1.541 2.002-2.0938 5.3438 2.3984 2.3965 5.3418-2.0918 2.0039-1.541 1.6406-2.0625 4.9316 3.2949-1.2773 2.3047-0.65625 2.4414 0.11132 5.7363 3.1309 1.2969 4.1367-3.9766 1.2598-2.1914 0.72851-2.5332 5.8164 1.1582-0.29883 2.6191 0.32813 2.5039 2.2988 5.2578h3.3887l2.2988-5.2578 0.32618-2.5039-0.29688-2.6191 5.8164-1.1582 0.72656 2.5332 1.2617 2.1914 4.1348 3.9766 3.1328-1.2969 0.11132-5.7363-0.65624-2.4414-1.2774-2.3047 4.9297-3.2949 1.6426 2.0625 2.002 1.541 5.3438 2.0918 2.3965-2.3965-2.0918-5.3438-1.541-2.002-2.0625-1.6426 3.2949-4.9297 2.3066 1.2754 2.4395 0.6582 5.7363-0.11133 1.2969-3.1328-3.9766-4.1348-2.1894-1.2617-2.5332-0.72657 1.1562-5.8164 2.6191 0.29687 2.5059-0.32617 5.2578-2.2988v-3.3906l-5.2578-2.2988-2.5059-0.32617-2.6191 0.29687-1.1562-5.8164 2.5332-0.72657 2.1894-1.2598 3.9766-4.1367-1.2969-3.1309-5.7363-0.11328-2.4395 0.6582-2.3066 1.2773-3.2949-4.9316 2.0625-1.6426 1.541-2.002 2.0918-5.3438-2.3965-2.3965-5.3438 2.0918-2.002 1.541-1.6426 2.0625-4.9297-3.2949 1.2774-2.3047 0.65624-2.4394-0.11132-5.7383-3.1328-1.2969-4.1348 3.9785-1.2617 2.1894-0.72656 2.5332-5.8164-1.1582 0.29688-2.6172-0.32618-2.5059-2.2988-5.2578zm1.6934 24.574a21.231 21.231 0 0 1 21.232 21.23 21.231 21.231 0 0 1-21.232 21.232 21.231 21.231 0 0 1-21.23-21.232 21.231 21.231 0 0 1 21.23-21.23z" fill="#c79a40"/>
      <path transform="matrix(.26458 0 0 .26458 0 161.53)" d="m288.81 217.18a21.231 21.231 0 0 0-21.23 21.23 21.231 21.231 0 0 0 21.23 21.232 21.231 21.231 0 0 0 21.232-21.232 21.231 21.231 0 0 0-21.232-21.23zm0 13.23a8 8 0 0 1 8 8 8 8 0 0 1-8 8 8 8 0 0 1-8-8 8 8 0 0 1 8-8z" fill="#e6d2a8" fill-opacity=".74902"/>
     </g>
    </g>
    <g transform="translate(-88.835 -81.55)">
     <rect x="95.185" y="100.6" width="27.517" height="101.6" fill="#e6d1a8" opacity=".75" style="paint-order:normal"/>
     <g fill="#c79a40">
      <rect x="97.302" y="104.83" width="16.933" height="6.35" style="paint-order:normal"/>
      <rect x="101.54" y="113.3" width="16.933" height="6.35" style="paint-order:normal"/>
      <rect x="97.302" y="123.88" width="16.933" height="6.35" style="paint-order:normal"/>
      <rect x="101.54" y="132.35" width="16.933" height="6.35" style="paint-order:normal"/>
      <rect x="101.54" y="140.82" width="16.933" height="6.35" style="paint-order:normal"/>
      <rect x="97.302" y="172.57" width="23.283" height="27.517" style="paint-order:normal"/>
     </g>
    </g>
    <g transform="translate(-88.835 -81.55)">
     <rect x="95.185" y="96.366" width="122.77" height="4.2333" fill="#d1ac61" opacity=".75" style="paint-order:normal"/>
     <rect x="213.72" y="96.366" width="4.2333" height="4.2333" fill="#c79a40" style="paint-order:normal"/>
     <rect x="97.302" y="96.366" width="23.283" height="2.1167" fill="#c79a40" style="paint-order:normal"/>
    </g>
    <g transform="translate(-88.835 -81.55)">
     <rect x="122.7" y="172.57" width="95.25" height="29.633" fill="#d3af68" opacity=".75" style="paint-order:normal"/>
     <g fill="#c79a40">
      <rect x="126.94" y="176.8" width="6.35" height="6.35" style="paint-order:normal"/>
      <rect x="135.4" y="176.8" width="55.033" height="6.35" style="paint-order:normal"/>
      <rect x="126.94" y="185.27" width="35.983" height="6.35" style="paint-order:normal"/>
      <rect x="126.94" y="193.73" width="35.983" height="6.35" style="paint-order:normal"/>
     </g>
    </g>
   </g>
  </g>
 </g>
</svg>
