<?xml version="1.0" encoding="UTF-8"?>
<svg width="512" height="512" version="1.1" viewBox="0 0 135.47 135.47" xmlns="http://www.w3.org/2000/svg">
 <g>
  <path d="m50.209 120.28c-0.12782-0.0833-1.2445-3.788-1.2445-4.1287 0-0.0373-0.98793-0.0679-2.1954-0.0679h-2.1954l-2.6723-9.9956-2.6723-9.9956-1.3376-0.07431-1.3376-0.07432-0.58042-2.1923-0.58042-2.1923h-4.3739l-0.23665-0.85464c-0.13016-0.47005-3.4865-12.994-7.4585-27.832-3.972-14.837-7.2957-27.226-7.3859-27.531l-0.16397-0.55443-6.1218-0.080209-1.1618-4.3847h-2.2066c-1.2136 0-2.2066-0.02696-2.2066-0.05992s-0.83606-3.1148-1.8579-6.8486c-1.0219-3.7337-1.8579-6.9796-1.8579-7.2131 0-0.48763 0.35448-0.66945 1.0201-0.52326 0.41586 0.09134 0.43178 0.13897 2.189 6.5494l1.7701 6.4574 1.2309 0.0015c0.84954 0.0011 1.2525-0.05607 1.3007-0.1843 0.038405-0.10219-0.15622-1.0316-0.43251-2.0655l-0.50234-1.8796 2.6945-0.09817c1.482-0.054019 20.346-0.07767 41.921-0.052594l39.226 0.0456 0.40846 1.4863c0.22466 0.81748 0.48372 1.7706 0.57569 2.118l0.16723 0.63169h0.88607c0.48734 0 0.88581-0.05016 0.88549-0.11148-2.59e-4 -0.06131-0.2318-0.97801-0.51441-2.0371-0.28261-1.0591-0.47747-1.962-0.43302-2.0065 0.1091-0.10921 10.115-0.10391 10.225 0.0054 0.0835 0.08333 2.7615 9.9062 2.7623 10.132 1.5e-4 0.06132-2.3092 0.11148-5.1321 0.11148-4.751 0-5.1399-0.01933-5.2323-0.26011-0.05492-0.14306-0.33708-1.1296-0.62703-2.1923l-0.52717-1.9322-0.50362-0.04811c-0.72594-0.06934-1.2066 0.08505-1.1998 0.38537 0.0032 0.1415 0.22829 1.0599 0.50013 2.0409l0.49426 1.7836-0.38865 0.1133c-0.21376 0.06231-17.294 0.15688-37.956 0.21014-22.745 0.05864-37.567 0.15089-37.567 0.23382 0 0.07534 0.33442 1.3694 0.74316 2.8758 0.40874 1.5064 0.74316 2.7714 0.74316 2.8113 0 0.11958 2.5037 0.0817 2.5763-0.03897 0.03687-0.06131-0.15751-0.97773-0.43196-2.0365-0.27445-1.0588-0.46232-1.9617-0.41749-2.0065 0.04483-0.04484 20.864-0.10349 46.266-0.13032l46.184-0.04879 0.58553 2.1296 0.58552 2.1296 0.85463 0.04458c1.0441 0.05446 1.0305 0.15041 0.33443-2.3484-0.28463-1.0219-0.51812-1.8755-0.51887-1.897-7.7e-4 -0.02148 2.3498-0.02148 5.2234 0l5.2248 0.03906 1.2919 4.8306c0.71057 2.6568 1.3403 4.9811 1.3994 5.165l0.10749 0.33442h-10.514l-1.0107-4.1617h-0.94641c-0.91439 0-0.94276 0.01132-0.83839 0.33443 0.0594 0.18393 0.29455 1.0684 0.5225 1.9654 0.3115 1.2258 0.37024 1.6591 0.23641 1.7442-0.0979 0.06226-20.922 0.11422-46.275 0.11547l-46.097 0.0023-0.32138-1.2262c-0.17676-0.67438-0.43652-1.6275-0.57724-2.118l-0.25587-0.8918-0.66526-0.04798c-0.36589-0.0264-0.95258-0.0051-1.3037 0.04728-0.50388 0.07519-0.62365 0.14797-0.5681 0.34525 0.03872 0.13749 0.6551 2.4739 1.3698 5.192l1.2994 4.942h1.3124c0.72184 0 1.3109-0.05016 1.309-0.11147-2e-3 -0.06131-0.23232-1.0125-0.51205-2.1138-0.27973-1.1013-0.47327-2.0377-0.43009-2.0809 0.04318-0.04319 17.312-0.07853 38.376-0.07853h38.297l0.18712 0.57106c0.17162 0.52371 2.2585 8.4055 2.4757 9.3502l0.0939 0.40874h-76.837l-0.14588-0.55738c-0.08024-0.30656-0.28442-1.1073-0.45374-1.7795-0.54517-2.1642-0.41845-2.0285-1.8058-1.9334-0.65796 0.04509-1.2242 0.10994-1.2584 0.14409-0.03415 0.03415 0.53954 2.3456 1.2749 5.1365 0.73534 2.7909 1.337 5.1099 1.337 5.1533 0 0.04339 0.60196 0.07889 1.3377 0.07889 0.73573 0 1.3361-0.05016 1.3343-0.11148-0.0019-0.06131-0.22669-0.99021-0.49954-2.0642l-0.4961-1.9527 4.6241-0.09996c2.5433-0.05498 12.745-0.07918 22.67-0.05379l18.046 0.04616 1.3642 5.0535c0.91069 3.3734 1.3104 5.0843 1.2023 5.1461-0.08909 0.05091-9.2796 0.12795-20.423 0.17121-11.144 0.04326-20.289 0.106-20.322 0.13942-0.06127 0.06127 0.73567 3.2014 1.284 5.0591l0.29611 1.0033h1.174c0.6457 0 1.2132-0.06338 1.2611-0.14086 0.04788-0.07747-0.13866-1.0366-0.41454-2.1314l-0.5016-1.9905 5.8856-0.0979c7.4824-0.12446 68.208-0.12768 69.801-0.0037l1.192 0.09282 0.84867 3.2134c0.46676 1.7674 1.0779 4.0662 1.358 5.1084l0.50931 1.8951-76.89-3.85e-4 -1.155-4.31h-4.3771l-0.70246-2.6382c-0.38636-1.451-0.84929-3.1725-1.0287-3.8255l-0.32628-1.1873-0.58988-0.10467c-0.32443-0.05756-0.92553-0.10853-1.3358-0.11324l-0.74591-0.0086-1.1836-4.3847-0.66885-0.04799c-0.36787-0.02639-0.95617-0.0051-1.3073 0.04728-0.50303 0.07506-0.62387 0.14831-0.56956 0.34526 0.03791 0.13749 1.3954 5.2491 3.0166 11.359l2.9477 11.109 1.2174 0.0011c0.6696 5.16e-4 1.2575-0.06369 1.3064-0.14287 0.04893-0.07917-0.13035-0.98499-0.39841-2.0129-0.4219-1.6179-0.45764-1.8878-0.26599-2.0089 0.24527-0.15507 86.617-0.16723 93.483-0.01317l4.0816 0.09159 0.2727 0.8918c0.45094 1.4748 2.3401 8.7488 2.3401 9.0105 0 0.2245-3.5618 0.2486-46.336 0.31354-25.485 0.03869-46.453 0.12082-46.596 0.18251-0.14306 0.06169-0.26063 0.18862-0.26127 0.28206-5.16e-4 0.09344 0.31706 1.3904 0.70601 2.8822l0.70717 2.7124 1.2174 1.5e-4c0.6696 1.1e-4 1.2573-0.0643 1.306-0.14312 0.04872-0.0788-0.12666-0.9808-0.38974-2.0044-0.26307-1.0236-0.42719-1.9122-0.36471-1.9747 0.06248-0.06244 17.344-0.11357 38.404-0.11357h38.29l2.7193 10.107-0.40791 0.11176c-0.22435 0.0614-17.52 0.0949-38.435 0.0743l-38.027-0.0374-1.0542-4.0131-1.1089-0.0893c-1.2351-0.0995-1.4805-0.0551-1.4805 0.2681 0 0.18871 1.7889 6.9966 2.4624 9.3709l0.22134 0.78032h1.3436c1.3179 0 1.3416-6e-3 1.2394-0.32804-0.05726-0.18042-0.29729-1.0666-0.5334-1.9694-0.2361-0.90275-0.46931-1.7694-0.51824-1.926-0.08745-0.2798 0.23864-0.28291 19.131-0.18245 10.571 0.0562 19.236 0.11842 19.256 0.13825 0.01981 0.0198 0.61356 2.2088 1.3194 4.8644 0.70584 2.6556 1.3169 4.9454 1.3579 5.0884 0.0707 0.24677-0.90377 0.25999-18.998 0.25784-10.49-9.8e-4 -19.148-0.0515-19.24-0.11148z" fill="#7c5e24" opacity=".75" style="paint-order:normal"/>
  <g transform="matrix(.84622 0 .22675 .84622 -43.929 -123.03)">
   <g transform="matrix(.9765 0 0 .9765 1.836 5.3731)">
    <g>
     <rect x="25.4" y="172.12" width="88.9" height="12.7" fill="#c79a40" style="paint-order:normal"/>
     <rect x="12.7" y="172.12" width="16.933" height="12.7" fill="#d3af68" style="paint-order:normal"/>
     <rect x="50.8" y="201.75" width="67.733" height="12.7" fill="#c79a40" style="paint-order:normal"/>
    </g>
    <path d="m8.3459 161.64 0.12072 16.822h4.2333" fill="none" stroke="#d3af68" stroke-width="2.1167"/>
    <g fill="#f9f9f9" stroke-width=".26458" aria-label="ID">
     <path d="m15.508 174.7h4.5475v0.83199h-1.8035v5.8653h1.8035v0.82682h-4.5475v-0.82682h1.7622v-5.8653h-1.7622z"/>
     <path d="m21.756 182.23v-7.5241h1.7415q0.78548 0.0103 1.4004 0.26872 0.62012 0.25321 1.0439 0.71313 0.42892 0.45476 0.65112 1.0955 0.22738 0.63562 0.23254 1.4108v0.55294q-0.0052 0.77514-0.23254 1.4159-0.22221 0.63562-0.65112 1.0955-0.42375 0.45475-1.0439 0.71314-0.61495 0.25321-1.4004 0.25838zm0.97152-6.7386v5.9583h0.76998q0.60978-5e-3 1.0542-0.21187 0.44442-0.21187 0.7338-0.57361 0.29456-0.36173 0.43408-0.85266 0.14469-0.49092 0.14986-1.0645v-0.56328q-0.0052-0.5736-0.14986-1.0594-0.14469-0.49093-0.43408-0.8475-0.28939-0.36173-0.7338-0.56844-0.44442-0.2067-1.0542-0.21704z"/>
    </g>
    <rect x="25.4" y="201.75" width="27.517" height="12.7" fill="#d3af68" style="paint-order:normal"/>
    <g fill="#f9f9f9" stroke-width=".26458">
     <g aria-label="Date">
      <path d="m27.216 211.81v-7.5241h1.7415q0.78548 0.0103 1.4004 0.26872 0.62012 0.25321 1.0439 0.71313 0.42891 0.45475 0.65112 1.0955 0.22738 0.63562 0.23254 1.4108v0.55294q-0.0052 0.77514-0.23254 1.4159-0.22221 0.63562-0.65112 1.0955-0.42375 0.45475-1.0439 0.71314-0.61495 0.25321-1.4004 0.25838zm0.97152-6.7386v5.9583h0.76998q0.60978-5e-3 1.0542-0.21187 0.44442-0.21187 0.7338-0.57361 0.29456-0.36173 0.43408-0.85266 0.14469-0.49092 0.14986-1.0645v-0.56328q-0.0052-0.5736-0.14986-1.0594-0.14469-0.49093-0.43408-0.8475-0.28939-0.36173-0.7338-0.56844-0.44442-0.2067-1.0542-0.21704z"/>
      <path d="m37.334 211.81q-0.05684-0.10852-0.09302-0.26872-0.03101-0.16536-0.04651-0.34106-0.14469 0.14469-0.32556 0.27388-0.1757 0.12919-0.39274 0.22738-0.21187 0.0982-0.45475 0.15503-0.24288 0.0568-0.51676 0.0568-0.44442 0-0.80615-0.12919-0.35657-0.12919-0.60978-0.34623-0.24805-0.22221-0.38757-0.52193-0.13436-0.30489-0.13436-0.65629 0-0.45992 0.18087-0.80616 0.18604-0.34623 0.52193-0.57361 0.3359-0.23254 0.80615-0.34623 0.47542-0.11369 1.0594-0.11369h1.0439v-0.43925q0-0.25321-0.09302-0.45475t-0.26355-0.34106q-0.17053-0.1447-0.41858-0.22221-0.24288-0.0775-0.54777-0.0775-0.28422 0-0.5116 0.0724-0.22221 0.0724-0.37724 0.1912-0.15503 0.11886-0.24288 0.28422-0.08268 0.1602-0.08268 0.3359h-0.96118q0.0052-0.30489 0.15503-0.59944 0.15503-0.29456 0.43925-0.5271 0.28939-0.23772 0.69763-0.38241 0.41341-0.14469 0.93534-0.14469 0.47542 0 0.88367 0.11885 0.40824 0.11369 0.7028 0.3514 0.29972 0.23255 0.47026 0.58395 0.17053 0.35139 0.17053 0.82165v2.5993q0 0.27906 0.05168 0.59428 0.05168 0.31006 0.14469 0.54261v0.0827zm-1.6898-0.72864q0.27905 0 0.52193-0.0724 0.24288-0.0723 0.43925-0.1912 0.20154-0.11885 0.34623-0.26872 0.14469-0.15503 0.22738-0.32039v-1.1317h-0.88884q-0.83716 0-1.3022 0.24804-0.46509 0.24805-0.46509 0.78032 0 0.2067 0.06718 0.3824 0.07235 0.1757 0.21187 0.30489 0.13953 0.12403 0.3514 0.19637 0.21187 0.0724 0.49093 0.0724z"/>
      <path d="m42.269 204.87v1.3539h2.1291v0.73897h-2.1291v3.0386q0 0.32556 0.08268 0.53743t0.22738 0.34107q0.14469 0.12402 0.33073 0.17569 0.1912 0.0517 0.40308 0.0517 0.15503 0 0.32039-0.0155 0.16536-0.0207 0.32039-0.0465 0.1602-0.0258 0.29456-0.0517 0.13953-0.031 0.22738-0.0517l0.13436 0.67696q-0.11886 0.0724-0.28939 0.12919-0.17053 0.0517-0.37207 0.0879-0.20154 0.0413-0.42891 0.062-0.22221 0.0207-0.44442 0.0207-0.37207 0-0.69763-0.10335-0.32039-0.10852-0.55811-0.3359-0.23771-0.23254-0.37724-0.59428-0.13436-0.3669-0.13436-0.88366v-3.0386h-1.4676v-0.73897h1.4676v-1.3539z"/>
      <path d="m48.822 211.91q-0.58911 0-1.0852-0.20154-0.49093-0.20153-0.84233-0.56327-0.3514-0.36173-0.54777-0.85783-0.19637-0.49609-0.19637-1.08v-0.21704q0-0.67696 0.21704-1.2092 0.21704-0.53743 0.57361-0.90433 0.36174-0.37207 0.81649-0.56844 0.45992-0.19637 0.94051-0.19637 0.60461 0 1.0542 0.21187 0.45475 0.2067 0.75448 0.57878 0.29972 0.3669 0.44442 0.86816 0.14986 0.50126 0.14986 1.0852v0.42892h-3.9946q0.0155 0.3824 0.14469 0.7183 0.13436 0.3359 0.36174 0.58911 0.23254 0.24805 0.55294 0.39274 0.32039 0.1447 0.70797 0.1447 0.5116 0 0.9095-0.20671 0.39791-0.2067 0.66146-0.54777l0.58394 0.45475q-0.13953 0.21188-0.3514 0.40825-0.20671 0.1912-0.48059 0.34106t-0.62012 0.23771q-0.34623 0.093-0.75448 0.093zm-0.12402-5.0126q-0.28939 0-0.54777 0.10852-0.25838 0.10335-0.46509 0.31006-0.20671 0.20153-0.3514 0.50126-0.13953 0.29455-0.19637 0.68213h3.0076v-0.0724q-0.0155-0.27905-0.10852-0.55294-0.08785-0.27388-0.26355-0.49092-0.1757-0.21704-0.44442-0.3514-0.26355-0.13436-0.63045-0.13436z"/>
     </g>
     <g aria-label="76a0a67e-7331">
      <path d="m37.414 175.71-3.1161 6.9866h-1.0025l3.1058-6.6869h-4.0721v-0.83716h5.085z"/>
      <path d="m42.519 175.17v0.85782h-0.08268q-0.47542 0-0.85266 0.0982-0.37207 0.0982-0.65629 0.26872-0.28422 0.17053-0.49093 0.40824-0.20154 0.23254-0.3359 0.5116-0.13436 0.27905-0.2067 0.58394-0.07235 0.30489-0.09302 0.62012 0.13436-0.1602 0.31006-0.29456 0.1757-0.13952 0.37724-0.23771 0.2067-0.10335 0.43925-0.1602 0.23771-0.062 0.49609-0.062 0.56327 0 0.97152 0.21704 0.40824 0.21188 0.67179 0.56328 0.26355 0.3514 0.38757 0.79581 0.12402 0.44442 0.12402 0.90434 0 0.5271-0.14986 0.99219-0.14469 0.46509-0.43925 0.81649-0.29456 0.34623-0.73381 0.54777-0.43408 0.20153-1.0077 0.20153-0.40824 0-0.74931-0.11885-0.3359-0.11886-0.60461-0.3204-0.26872-0.2067-0.47026-0.48575-0.20154-0.27906-0.3359-0.59945-0.12919-0.32039-0.19637-0.66663-0.06718-0.34623-0.06718-0.69246v-0.44959q0-0.51676 0.06201-1.0335 0.06718-0.52194 0.22221-0.99736t0.41858-0.88883q0.26355-0.41858 0.66146-0.72347 0.40308-0.30489 0.95601-0.48059t1.2919-0.1757zm-1.2506 3.39q-0.24288 0-0.47026 0.0775t-0.42375 0.21705q-0.19637 0.13952-0.34623 0.33589-0.14986 0.19637-0.23771 0.43408v0.3204q0 0.49609 0.11886 0.88366 0.11886 0.38241 0.32039 0.64596t0.46509 0.40308q0.26355 0.13436 0.55294 0.13436 0.3359 0 0.59428-0.1292 0.25838-0.12919 0.43408-0.35656 0.18087-0.22738 0.26872-0.54261 0.09302-0.32039 0.09302-0.69246 0-0.33073-0.08268-0.64079-0.08268-0.31522-0.25322-0.5581-0.17053-0.24288-0.42891-0.38758-0.25838-0.14469-0.60461-0.14469z"/>
      <path d="m49.015 182.7q-0.05684-0.10852-0.09302-0.26872-0.03101-0.16536-0.04651-0.34106-0.14469 0.14469-0.32556 0.27388-0.1757 0.1292-0.39274 0.22738-0.21187 0.0982-0.45475 0.15503-0.24288 0.0568-0.51676 0.0568-0.44442 0-0.80615-0.12919-0.35657-0.12919-0.60978-0.34623-0.24805-0.22221-0.38757-0.52193-0.13436-0.30489-0.13436-0.65629 0-0.45992 0.18087-0.80615 0.18604-0.34624 0.52193-0.57361 0.3359-0.23255 0.80615-0.34623 0.47542-0.11369 1.0594-0.11369h1.0439v-0.43925q0-0.25322-0.09302-0.45475-0.09302-0.20154-0.26355-0.34107-0.17053-0.14469-0.41858-0.22221-0.24288-0.0775-0.54777-0.0775-0.28422 0-0.5116 0.0723-0.22221 0.0724-0.37724 0.19121-0.15503 0.11885-0.24288 0.28422-0.08268 0.16019-0.08268 0.33589h-0.96118q0.0052-0.30489 0.15503-0.59944 0.15503-0.29456 0.43925-0.5271 0.28939-0.23771 0.69763-0.38241 0.41341-0.14469 0.93534-0.14469 0.47542 0 0.88367 0.11885 0.40824 0.11369 0.7028 0.3514 0.29972 0.23255 0.47026 0.58395t0.17053 0.82165v2.5993q0 0.27905 0.05168 0.59428 0.05168 0.31006 0.14469 0.5426v0.0827zm-1.6898-0.72864q0.27905 0 0.52193-0.0723 0.24288-0.0724 0.43925-0.19121 0.20154-0.11885 0.34623-0.26871 0.14469-0.15503 0.22738-0.3204v-1.1317h-0.88883q-0.83716 0-1.3022 0.24805-0.46509 0.24804-0.46509 0.78031 0 0.20671 0.06718 0.38241 0.07235 0.1757 0.21187 0.30489 0.13953 0.12402 0.3514 0.19637 0.21187 0.0723 0.49093 0.0723z"/>
      <path d="m56.41 179.82q0 0.71831-0.16536 1.2764-0.16536 0.55294-0.47542 0.93535-0.31006 0.37723-0.75964 0.5736t-1.0284 0.19637q-0.57361 0-1.0284-0.19637-0.44958-0.19637-0.76481-0.5736-0.31523-0.38241-0.48576-0.93535-0.16536-0.5581-0.16536-1.2764v-1.7622q0-0.7183 0.16536-1.2712 0.16536-0.55811 0.47542-0.94051 0.31523-0.38241 0.76481-0.57878 0.45475-0.20154 1.0284-0.20154 0.57878 0 1.0284 0.20154 0.45475 0.19637 0.76481 0.57878 0.31523 0.3824 0.48059 0.94051 0.16536 0.55294 0.16536 1.2712zm-3.9119-0.1912 2.9301-2.2479q-0.08268-0.74931-0.43925-1.1369-0.3514-0.39275-1.018-0.39275-0.75448 0-1.1162 0.5116-0.35657 0.50643-0.35657 1.4831zm2.9507-1.3332-2.9249 2.2376q0.08785 0.72864 0.44958 1.111 0.36174 0.38241 1.0077 0.38241 0.75964 0 1.111-0.51677 0.35657-0.51676 0.35657-1.4883z"/>
      <path d="m61.707 182.7q-0.05684-0.10852-0.09302-0.26872-0.03101-0.16536-0.04651-0.34106-0.14469 0.14469-0.32556 0.27388-0.1757 0.1292-0.39274 0.22738-0.21187 0.0982-0.45475 0.15503-0.24288 0.0568-0.51676 0.0568-0.44442 0-0.80615-0.12919-0.35657-0.12919-0.60978-0.34623-0.24805-0.22221-0.38757-0.52193-0.13436-0.30489-0.13436-0.65629 0-0.45992 0.18087-0.80615 0.18604-0.34624 0.52193-0.57361 0.3359-0.23255 0.80615-0.34623 0.47542-0.11369 1.0594-0.11369h1.0439v-0.43925q0-0.25322-0.09302-0.45475-0.09302-0.20154-0.26355-0.34107-0.17053-0.14469-0.41858-0.22221-0.24288-0.0775-0.54777-0.0775-0.28422 0-0.5116 0.0723-0.22221 0.0724-0.37724 0.19121-0.15503 0.11885-0.24288 0.28422-0.08268 0.16019-0.08268 0.33589h-0.96118q0.0052-0.30489 0.15503-0.59944 0.15503-0.29456 0.43925-0.5271 0.28939-0.23771 0.69763-0.38241 0.41341-0.14469 0.93534-0.14469 0.47542 0 0.88367 0.11885 0.40824 0.11369 0.7028 0.3514 0.29972 0.23255 0.47026 0.58395 0.17053 0.3514 0.17053 0.82165v2.5993q0 0.27905 0.05168 0.59428 0.05168 0.31006 0.14469 0.5426v0.0827zm-1.6898-0.72864q0.27905 0 0.52193-0.0723 0.24288-0.0724 0.43925-0.19121 0.20154-0.11885 0.34623-0.26871 0.14469-0.15503 0.22738-0.3204v-1.1317h-0.88884q-0.83716 0-1.3022 0.24805-0.46509 0.24804-0.46509 0.78031 0 0.20671 0.06718 0.38241 0.07235 0.1757 0.21187 0.30489 0.13953 0.12402 0.3514 0.19637 0.21187 0.0723 0.49093 0.0723z"/>
      <path d="m67.903 175.17v0.85782h-0.08268q-0.47542 0-0.85266 0.0982-0.37207 0.0982-0.65629 0.26872-0.28422 0.17053-0.49093 0.40824-0.20154 0.23254-0.3359 0.5116-0.13436 0.27905-0.20671 0.58394-0.07235 0.30489-0.09302 0.62012 0.13436-0.1602 0.31006-0.29456 0.1757-0.13952 0.37724-0.23771 0.20671-0.10335 0.43925-0.1602 0.23771-0.062 0.49609-0.062 0.56327 0 0.97152 0.21704 0.40824 0.21188 0.67179 0.56328t0.38757 0.79581q0.12402 0.44442 0.12402 0.90434 0 0.5271-0.14986 0.99219-0.14469 0.46509-0.43925 0.81649-0.29456 0.34623-0.7338 0.54777-0.43408 0.20153-1.0077 0.20153-0.40824 0-0.74931-0.11885-0.3359-0.11886-0.60461-0.3204-0.26872-0.2067-0.47026-0.48575-0.20154-0.27906-0.3359-0.59945-0.12919-0.32039-0.19637-0.66663-0.06718-0.34623-0.06718-0.69246v-0.44959q0-0.51676 0.06201-1.0335 0.06718-0.52194 0.22221-0.99736 0.15503-0.47542 0.41858-0.88883 0.26355-0.41858 0.66146-0.72347 0.40308-0.30489 0.95601-0.48059 0.55294-0.1757 1.2919-0.1757zm-1.2506 3.39q-0.24288 0-0.47026 0.0775-0.22738 0.0775-0.42375 0.21705-0.19637 0.13952-0.34623 0.33589-0.14986 0.19637-0.23771 0.43408v0.3204q0 0.49609 0.11886 0.88366 0.11886 0.38241 0.32039 0.64596t0.46509 0.40308q0.26355 0.13436 0.55294 0.13436 0.3359 0 0.59428-0.1292 0.25838-0.12919 0.43408-0.35656 0.18087-0.22738 0.26872-0.54261 0.09302-0.32039 0.09302-0.69246 0-0.33073-0.08268-0.64079-0.08268-0.31522-0.25321-0.5581-0.17053-0.24288-0.42892-0.38758-0.25838-0.14469-0.60461-0.14469z"/>
      <path d="m75.489 175.71-3.1161 6.9866h-1.0025l3.1058-6.6869h-4.0721v-0.83716h5.085z"/>
      <path d="m79.54 182.8q-0.58911 0-1.0852-0.20153-0.49093-0.20154-0.84233-0.56328-0.3514-0.36173-0.54777-0.85783-0.19637-0.49609-0.19637-1.08v-0.21704q0-0.67697 0.21704-1.2092 0.21704-0.53744 0.57361-0.90434 0.36174-0.37207 0.81649-0.56844 0.45992-0.19637 0.94051-0.19637 0.60461 0 1.0542 0.21187 0.45475 0.20671 0.75448 0.57878 0.29972 0.3669 0.44442 0.86816 0.14986 0.50126 0.14986 1.0852v0.42891h-3.9946q0.0155 0.38241 0.14469 0.7183 0.13436 0.3359 0.36174 0.58912 0.23254 0.24804 0.55294 0.39274 0.32039 0.14469 0.70797 0.14469 0.5116 0 0.90951-0.20671 0.39791-0.2067 0.66146-0.54777l0.58394 0.45476q-0.13953 0.21187-0.3514 0.40824-0.20671 0.1912-0.48059 0.34107-0.27388 0.14986-0.62012 0.23771-0.34623 0.093-0.75448 0.093zm-0.12402-5.0126q-0.28939 0-0.54777 0.10852-0.25838 0.10335-0.46509 0.31006-0.20671 0.20154-0.3514 0.50126-0.13953 0.29456-0.19637 0.68213h3.0076v-0.0724q-0.0155-0.27905-0.10852-0.55293-0.08785-0.27389-0.26355-0.49093t-0.44442-0.3514q-0.26355-0.13436-0.63045-0.13436z"/>
      <path d="m87.597 179.8h-3.9532v-0.78548h3.9532z"/>
      <path d="m94.547 175.71-3.1161 6.9866h-1.0025l3.1058-6.6869h-4.0721v-0.83716h5.085z"/>
      <path d="m97.245 178.48h0.68213q0.36174 0 0.63562-0.0982 0.27905-0.0982 0.46509-0.26872 0.1912-0.17053 0.28939-0.40824 0.09819-0.23771 0.09819-0.52193 0-0.65629-0.3359-0.98702-0.3359-0.3359-0.98185-0.3359-0.30489 0-0.5581 0.093-0.24805 0.0879-0.42892 0.25838-0.1757 0.17053-0.27388 0.40825-0.09819 0.23771-0.09819 0.53226h-0.96118q0-0.42891 0.16536-0.80615 0.17053-0.3824 0.47542-0.66146 0.30489-0.28422 0.72864-0.44441 0.42891-0.16537 0.95085-0.16537 0.50643 0 0.92501 0.13953 0.41858 0.13436 0.7183 0.40307 0.29972 0.26872 0.46509 0.66663 0.16536 0.39791 0.16536 0.91984 0 0.21704-0.0672 0.44958-0.0672 0.23255-0.2067 0.45476-0.13953 0.21704-0.36174 0.41341-0.21704 0.1912-0.52193 0.32039 0.3669 0.11886 0.60978 0.31006 0.24805 0.1912 0.39274 0.42892 0.14986 0.23771 0.20671 0.50126 0.062 0.26355 0.062 0.52193 0 0.5271-0.18087 0.93534-0.18087 0.40825-0.50126 0.69247-0.32039 0.27905-0.75964 0.42891-0.43408 0.14469-0.94051 0.14469-0.49609 0-0.93534-0.13952-0.43408-0.13953-0.75448-0.40825-0.32039-0.26871-0.5116-0.65629-0.18604-0.38757-0.18604-0.88366h0.95601q0 0.29455 0.09819 0.53743 0.10335 0.24288 0.28939 0.41341 0.18604 0.17054 0.44958 0.26355 0.26872 0.093 0.59428 0.093 0.32556 0 0.58911-0.0827 0.26355-0.0879 0.44958-0.26355 0.18604-0.1757 0.28422-0.43408 0.10335-0.26355 0.10335-0.62012 0-0.3514-0.11886-0.60462-0.11369-0.25838-0.32556-0.42891-0.20671-0.17053-0.50643-0.25321-0.29456-0.0827-0.65112-0.0827h-0.68213z"/>
      <path d="m103.59 178.48h0.68213q0.36174 0 0.63562-0.0982 0.27906-0.0982 0.46509-0.26872 0.1912-0.17053 0.28939-0.40824 0.0982-0.23771 0.0982-0.52193 0-0.65629-0.33589-0.98702-0.3359-0.3359-0.98185-0.3359-0.3049 0-0.55811 0.093-0.24805 0.0879-0.42891 0.25838-0.1757 0.17053-0.27389 0.40825-0.0982 0.23771-0.0982 0.53226h-0.96119q0-0.42891 0.16537-0.80615 0.17053-0.3824 0.47542-0.66146 0.30489-0.28422 0.72864-0.44441 0.42891-0.16537 0.95085-0.16537 0.50642 0 0.925 0.13953 0.41858 0.13436 0.71831 0.40307 0.29972 0.26872 0.46508 0.66663 0.16537 0.39791 0.16537 0.91984 0 0.21704-0.0672 0.44958-0.0672 0.23255-0.20671 0.45476-0.13952 0.21704-0.36173 0.41341-0.21704 0.1912-0.52193 0.32039 0.3669 0.11886 0.60978 0.31006 0.24804 0.1912 0.39274 0.42892 0.14986 0.23771 0.2067 0.50126 0.062 0.26355 0.062 0.52193 0 0.5271-0.18087 0.93534-0.18087 0.40825-0.50126 0.69247-0.3204 0.27905-0.75965 0.42891-0.43408 0.14469-0.94051 0.14469-0.49609 0-0.93534-0.13952-0.43408-0.13953-0.75448-0.40825-0.32039-0.26871-0.51159-0.65629-0.18604-0.38757-0.18604-0.88366h0.95602q0 0.29455 0.0982 0.53743 0.10335 0.24288 0.28939 0.41341 0.18603 0.17054 0.44958 0.26355 0.26872 0.093 0.59428 0.093t0.58911-0.0827q0.26355-0.0879 0.44959-0.26355 0.18603-0.1757 0.28422-0.43408 0.10335-0.26355 0.10335-0.62012 0-0.3514-0.11885-0.60462-0.11369-0.25838-0.32556-0.42891-0.20671-0.17053-0.50643-0.25321-0.29456-0.0827-0.65113-0.0827h-0.68213z"/>
      <path d="m111.92 182.7h-0.95601v-6.3045l-1.9689 0.74931v-0.87334l2.8474-1.0955h0.0775z"/>
     </g>
     <g aria-label="2150-08-23">
      <path d="m59.274 211.73h-4.9299v-0.68729l2.465-2.7388q0.33073-0.36691 0.55294-0.65113t0.35657-0.52193q0.13436-0.24288 0.1912-0.45475 0.05684-0.21704 0.05684-0.44442 0-0.27905-0.09302-0.52193-0.08785-0.24805-0.26355-0.42891-0.17053-0.18087-0.41858-0.28422-0.24288-0.10852-0.55294-0.10852-0.37724 0-0.65629 0.10852-0.27388 0.10852-0.45992 0.31005-0.18087 0.19638-0.27388 0.4806-0.08785 0.28422-0.08785 0.63562h-0.96118q0-0.47543 0.16536-0.89401 0.16536-0.42374 0.47542-0.73897 0.31523-0.31523 0.76481-0.50126 0.45475-0.18604 1.0335-0.18604 0.53227 0 0.95601 0.1602 0.42891 0.15503 0.72347 0.43408 0.29456 0.27906 0.44958 0.66146 0.1602 0.38241 0.1602 0.83199 0 0.3359-0.11369 0.66663-0.11369 0.32556-0.31006 0.64595-0.1912 0.3204-0.44958 0.63562-0.25321 0.31006-0.53744 0.62012l-2.0205 2.1911h3.7775z"/>
      <path d="m64.106 211.73h-0.95601v-6.3045l-1.9689 0.74931v-0.87333l2.8474-1.0955h0.07751z"/>
      <path d="m67.693 207.96 0.37724-3.7517h3.8602v0.93017h-3.0541l-0.21187 2.005q0.22221-0.12919 0.53227-0.22738 0.31006-0.0982 0.7183-0.0982 0.52193 0 0.93534 0.18086 0.41341 0.18087 0.7028 0.5116 0.28939 0.32556 0.44442 0.79065t0.15503 1.0335q0 0.53743-0.14469 0.99735t-0.43925 0.79582q-0.28939 0.33073-0.73381 0.52193-0.44442 0.18604-1.0439 0.18604-0.45992 0-0.86816-0.12919-0.40824-0.12919-0.72864-0.38758-0.31523-0.25838-0.52193-0.65112-0.20154-0.39274-0.25322-0.91467h0.90951q0.08785 0.64079 0.47026 0.97151 0.38757 0.33073 0.99219 0.33073 0.34106 0 0.60461-0.11885 0.26355-0.12403 0.43925-0.34623 0.18087-0.22738 0.26872-0.54261 0.09302-0.31522 0.09302-0.7028 0-0.3514-0.10335-0.65629-0.09819-0.30489-0.28939-0.5271-0.1912-0.22737-0.47026-0.35656t-0.64079-0.12919q-0.23771 0-0.41341 0.0362-0.17053 0.031-0.31006 0.093-0.13953 0.062-0.26355 0.14986-0.11886 0.0879-0.24805 0.20154z"/>
      <path d="m78.421 208.85q0 0.7183-0.16536 1.2764-0.16536 0.55293-0.47542 0.93534-0.31006 0.37724-0.75964 0.57361t-1.0284 0.19637q-0.57361 0-1.0284-0.19637-0.44958-0.19637-0.76481-0.57361-0.31523-0.38241-0.48576-0.93534-0.16536-0.55811-0.16536-1.2764v-1.7622q0-0.7183 0.16536-1.2712 0.16536-0.5581 0.47542-0.94051 0.31523-0.38241 0.76481-0.57878 0.45475-0.20153 1.0284-0.20153 0.57878 0 1.0284 0.20153 0.45475 0.19637 0.76481 0.57878 0.31523 0.38241 0.48059 0.94051 0.16536 0.55294 0.16536 1.2712zm-3.9119-0.19121 2.9301-2.2479q-0.08268-0.74931-0.43925-1.1369-0.3514-0.39274-1.018-0.39274-0.75448 0-1.1162 0.51159-0.35657 0.50643-0.35657 1.4831zm2.9507-1.3332-2.9249 2.2376q0.08785 0.72864 0.44958 1.111 0.36174 0.3824 1.0077 0.3824 0.75964 0 1.111-0.51676 0.35657-0.51677 0.35657-1.4883z"/>
      <path d="m84.224 208.83h-3.9532v-0.78548h3.9532z"/>
      <path d="m91.133 208.85q0 0.7183-0.16536 1.2764-0.16536 0.55293-0.47542 0.93534-0.31006 0.37724-0.75964 0.57361t-1.0284 0.19637q-0.57361 0-1.0284-0.19637-0.44958-0.19637-0.76481-0.57361-0.31523-0.38241-0.48576-0.93534-0.16536-0.55811-0.16536-1.2764v-1.7622q0-0.7183 0.16536-1.2712 0.16536-0.5581 0.47542-0.94051 0.31523-0.38241 0.76481-0.57878 0.45475-0.20153 1.0284-0.20153 0.57878 0 1.0284 0.20153 0.45475 0.19637 0.76481 0.57878 0.31523 0.38241 0.48059 0.94051 0.16536 0.55294 0.16536 1.2712zm-3.9119-0.19121 2.9301-2.2479q-0.08268-0.74931-0.43925-1.1369-0.3514-0.39274-1.018-0.39274-0.75448 0-1.1162 0.51159-0.35657 0.50643-0.35657 1.4831zm2.9507-1.3332-2.9249 2.2376q0.08785 0.72864 0.44958 1.111 0.36174 0.3824 1.0077 0.3824 0.75964 0 1.111-0.51676 0.35657-0.51677 0.35657-1.4883z"/>
      <path d="m97.386 206.17q-0.0052 0.56327-0.30489 1.0025-0.29972 0.43925-0.80098 0.6873 0.28939 0.12402 0.52193 0.31006 0.23771 0.18087 0.40308 0.41858 0.17053 0.23771 0.25838 0.51676 0.09302 0.27905 0.09302 0.59428 0 0.5116-0.1912 0.90951-0.18604 0.3979-0.5116 0.67179-0.32039 0.26872-0.75448 0.41341-0.43408 0.13953-0.93018 0.13953-0.50643 0-0.94568-0.13953-0.43408-0.13952-0.75964-0.40824-0.32039-0.27389-0.50643-0.6718-0.18604-0.3979-0.18604-0.91467 0-0.31523 0.08785-0.59428 0.08785-0.28422 0.25321-0.51676 0.16536-0.23771 0.39791-0.42375 0.23254-0.18603 0.52193-0.31006-0.24805-0.12402-0.44958-0.29455-0.20154-0.1757-0.34106-0.38758-0.13953-0.21704-0.21704-0.47025-0.07751-0.25322-0.07751-0.53227 0-0.49093 0.16536-0.87333 0.16536-0.38757 0.45475-0.65112 0.29456-0.26355 0.69763-0.40308 0.40824-0.13953 0.88883-0.13953 0.47542 0 0.88367 0.13953t0.70797 0.40308q0.29972 0.26355 0.47026 0.65112 0.17053 0.3824 0.17053 0.87333zm-0.78548 3.5088q0-0.31523-0.10852-0.57878-0.10335-0.26355-0.29456-0.44958-0.1912-0.1912-0.45992-0.29456-0.26355-0.10335-0.57878-0.10335-0.32556 0-0.58911 0.10335-0.26355 0.10336-0.44958 0.29456-0.18604 0.18603-0.28939 0.44958-0.09819 0.26355-0.09819 0.57878 0 0.32556 0.09819 0.58394 0.10335 0.25322 0.28939 0.42892 0.18604 0.1757 0.44958 0.26872 0.26872 0.093 0.59945 0.093 0.31523 0 0.57878-0.093t0.44958-0.26872q0.1912-0.1757 0.29456-0.42892 0.10852-0.25838 0.10852-0.58394zm-0.1757-3.4933q0-0.28422-0.09819-0.52193-0.09302-0.23771-0.26355-0.40824-0.16536-0.1757-0.39791-0.26872-0.23254-0.0982-0.5116-0.0982-0.27905 0-0.50643 0.093-0.22738 0.0879-0.39274 0.25839-0.16536 0.17053-0.25838 0.41341-0.08785 0.23771-0.08785 0.53226 0 0.29456 0.08785 0.53227 0.09302 0.23255 0.25838 0.40308 0.17053 0.16536 0.39791 0.25838 0.23254 0.0878 0.5116 0.0878 0.27388 0 0.50643-0.0878 0.23254-0.093 0.39791-0.25838 0.17053-0.17053 0.26355-0.40825 0.09302-0.23771 0.09302-0.5271z"/>
      <path d="m103.28 208.83h-3.9532v-0.78548h3.9532z"/>
      <path d="m110.08 211.73h-4.9299v-0.68729l2.465-2.7388q0.33073-0.36691 0.55294-0.65113t0.35657-0.52193q0.13436-0.24288 0.1912-0.45475 0.0568-0.21704 0.0568-0.44442 0-0.27905-0.093-0.52193-0.0879-0.24805-0.26355-0.42891-0.17053-0.18087-0.41858-0.28422-0.24288-0.10852-0.55294-0.10852-0.37724 0-0.65629 0.10852-0.27389 0.10852-0.45992 0.31005-0.18087 0.19638-0.27389 0.4806-0.0879 0.28422-0.0879 0.63562h-0.96118q0-0.47543 0.16537-0.89401 0.16536-0.42374 0.47542-0.73897 0.31523-0.31523 0.76481-0.50126 0.45475-0.18604 1.0335-0.18604 0.53227 0 0.95601 0.1602 0.42892 0.15503 0.72347 0.43408 0.29456 0.27906 0.44959 0.66146 0.1602 0.38241 0.1602 0.83199 0 0.3359-0.11369 0.66663-0.11369 0.32556-0.31006 0.64595-0.1912 0.3204-0.44959 0.63562-0.25321 0.31006-0.53743 0.62012l-2.0206 2.1911h3.7776z"/>
      <path d="m112.93 207.51h0.68213q0.36174 0 0.63562-0.0982 0.27905-0.0982 0.46509-0.26872 0.1912-0.17053 0.28939-0.40825 0.0982-0.23771 0.0982-0.52193 0-0.65629-0.3359-0.98702-0.33589-0.33589-0.98185-0.33589-0.30489 0-0.5581 0.093-0.24805 0.0879-0.42892 0.25839-0.1757 0.17053-0.27388 0.40824-0.0982 0.23771-0.0982 0.53227h-0.96118q0-0.42892 0.16537-0.80616 0.17053-0.3824 0.47542-0.66145 0.30489-0.28422 0.72864-0.44442 0.42891-0.16537 0.95084-0.16537 0.50643 0 0.92501 0.13953 0.41858 0.13436 0.7183 0.40308 0.29973 0.26871 0.46509 0.66662 0.16537 0.39791 0.16537 0.91984 0 0.21704-0.0672 0.44959-0.0672 0.23254-0.20671 0.45475-0.13953 0.21704-0.36173 0.41341-0.21705 0.1912-0.52194 0.3204 0.36691 0.11885 0.60979 0.31005 0.24804 0.19121 0.39274 0.42892 0.14986 0.23771 0.2067 0.50126 0.062 0.26355 0.062 0.52193 0 0.5271-0.18086 0.93535-0.18087 0.40824-0.50127 0.69246-0.32039 0.27905-0.75964 0.42891-0.43408 0.1447-0.94051 0.1447-0.49609 0-0.93534-0.13953-0.43409-0.13952-0.75448-0.40824t-0.5116-0.65629q-0.18603-0.38758-0.18603-0.88367h0.95601q0 0.29456 0.0982 0.53743 0.10335 0.24288 0.28939 0.41342 0.18603 0.17053 0.44958 0.26355 0.26872 0.093 0.59428 0.093t0.58911-0.0827q0.26355-0.0879 0.44959-0.26355 0.18603-0.1757 0.28422-0.43408 0.10335-0.26355 0.10335-0.62012 0-0.3514-0.11886-0.60461-0.11368-0.25838-0.32556-0.42892-0.2067-0.17053-0.50643-0.25321-0.29455-0.0827-0.65112-0.0827h-0.68213z"/>
     </g>
    </g>
    <path d="m21.167 193.28 2e-6 14.817h4.2333" fill="none" stroke="#d3af68" stroke-width="2.1167"/>
    <path d="m21.167 208.1v14.817h4.2333" fill="none" stroke="#d3af68" stroke-width="2.1167"/>
    <g>
     <rect x="50.8" y="216.57" width="29.633" height="12.7" fill="#c79a40" style="paint-order:normal"/>
     <rect x="25.4" y="216.57" width="27.517" height="12.7" fill="#d3af68" style="paint-order:normal"/>
     <g fill="#f9f9f9" stroke-width=".26458" aria-label="Name">
      <path d="m32.027 226.63h-0.97152l-2.9197-5.6224-0.0155 5.6224h-0.96635v-7.5241h0.97152l2.9197 5.6121 0.0155-5.6121h0.96635z"/>
      <path d="m37.334 226.63q-0.05684-0.10852-0.09302-0.26871-0.03101-0.16537-0.04651-0.34107-0.14469 0.1447-0.32556 0.27389-0.1757 0.12919-0.39274 0.22737-0.21187 0.0982-0.45475 0.15503-0.24288 0.0568-0.51676 0.0568-0.44442 0-0.80615-0.12919-0.35657-0.1292-0.60978-0.34624-0.24805-0.2222-0.38757-0.52193-0.13436-0.30489-0.13436-0.65629 0-0.45992 0.18087-0.80615 0.18604-0.34623 0.52193-0.57361 0.3359-0.23254 0.80615-0.34623 0.47542-0.11369 1.0594-0.11369h1.0439v-0.43925q0-0.25321-0.09302-0.45475t-0.26355-0.34107q-0.17053-0.14469-0.41858-0.22221-0.24288-0.0775-0.54777-0.0775-0.28422 0-0.5116 0.0724-0.22221 0.0723-0.37724 0.1912-0.15503 0.11886-0.24288 0.28422-0.08268 0.1602-0.08268 0.3359h-0.96118q0.0052-0.30489 0.15503-0.59945 0.15503-0.29455 0.43925-0.5271 0.28939-0.23771 0.69763-0.3824 0.41341-0.1447 0.93534-0.1447 0.47542 0 0.88367 0.11886 0.40824 0.11369 0.7028 0.3514 0.29972 0.23254 0.47026 0.58394 0.17053 0.3514 0.17053 0.82166v2.5993q0 0.27905 0.05168 0.59428 0.05168 0.31006 0.14469 0.5426v0.0827zm-1.6898-0.72863q0.27905 0 0.52193-0.0724 0.24288-0.0724 0.43925-0.1912 0.20154-0.11886 0.34623-0.26872 0.14469-0.15503 0.22738-0.32039v-1.1317h-0.88884q-0.83716 0-1.3022 0.24805t-0.46509 0.78031q0 0.20671 0.06718 0.38241 0.07235 0.1757 0.21187 0.30489 0.13953 0.12402 0.3514 0.19637 0.21187 0.0724 0.49093 0.0724z"/>
      <path d="m40.445 221.04 0.02584 0.5271q0.17053-0.29455 0.44442-0.45992 0.27905-0.16536 0.67179-0.17053 0.76998 0 1.0284 0.59945 0.16536-0.26872 0.43408-0.42892 0.27388-0.16536 0.66146-0.17053 0.61495 0 0.94568 0.37724t0.33073 1.142v4.1754h-0.90951v-4.1858q0-0.7028-0.64596-0.69763-0.17053 0-0.29456 0.0465-0.12402 0.0465-0.20671 0.12919-0.08268 0.0775-0.12919 0.18604-0.04651 0.10335-0.06201 0.21704v4.3046h-0.90951v-4.191q0-0.3359-0.14986-0.51677-0.14986-0.18087-0.47542-0.1757-0.29972 0-0.46509 0.11886-0.16536 0.11885-0.24288 0.31522v4.4493h-0.90951v-5.5914z"/>
      <path d="m48.822 226.73q-0.58911 0-1.0852-0.20154-0.49093-0.20154-0.84233-0.56327-0.3514-0.36174-0.54777-0.85783-0.19637-0.4961-0.19637-1.08v-0.21704q0-0.67696 0.21704-1.2092 0.21704-0.53743 0.57361-0.90434 0.36174-0.37207 0.81649-0.56844 0.45992-0.19637 0.94051-0.19637 0.60461 0 1.0542 0.21187 0.45475 0.20671 0.75448 0.57878 0.29972 0.3669 0.44442 0.86816 0.14986 0.50127 0.14986 1.0852v0.42891h-3.9946q0.0155 0.38241 0.14469 0.71831 0.13436 0.33589 0.36174 0.58911 0.23254 0.24804 0.55294 0.39274 0.32039 0.14469 0.70797 0.14469 0.5116 0 0.90951-0.2067 0.39791-0.20671 0.66146-0.54777l0.58394 0.45475q-0.13953 0.21187-0.3514 0.40824-0.20671 0.19121-0.48059 0.34107t-0.62012 0.23771q-0.34623 0.093-0.75448 0.093zm-0.12402-5.0126q-0.28939 0-0.54777 0.10852-0.25838 0.10336-0.46509 0.31006-0.20671 0.20154-0.3514 0.50126-0.13953 0.29456-0.19637 0.68213h3.0076v-0.0723q-0.0155-0.27906-0.10852-0.55294-0.08785-0.27389-0.26355-0.49093t-0.44442-0.3514q-0.26355-0.13436-0.63045-0.13436z"/>
     </g>
     <g fill="#f9f9f9" stroke-width=".26458" aria-label="wCtx">
      <path d="m55.507 224.52 0.11369 0.80099 0.13953-0.80099 0.894-3.5657h0.61495l0.88884 3.5657 0.14986 0.8785 0.13953-0.8785 0.62012-3.5657h0.84749l-1.1886 5.5914h-0.75448l-0.87333-3.4262-0.14469-0.86816-0.13953 0.86816-0.863 3.4262h-0.75448l-1.1886-5.5914h0.84749z"/>
      <path d="m65.879 224.28q-0.06718 0.52193-0.26872 0.96118-0.20154 0.43409-0.5271 0.74931-0.32039 0.31006-0.76481 0.48576-0.43925 0.17053-0.98185 0.17053-0.46509 0-0.84749-0.12919-0.37724-0.13436-0.67696-0.3669-0.29456-0.23254-0.5116-0.54777-0.21187-0.31523-0.35657-0.6873-0.13953-0.37207-0.21187-0.78031-0.06718-0.40824-0.07235-0.82682v-1.049q0.0052-0.41857 0.07235-0.82682 0.07235-0.40824 0.21187-0.78031 0.14469-0.37207 0.35657-0.6873 0.21704-0.32039 0.5116-0.55294 0.29972-0.23254 0.67696-0.36173 0.37724-0.13436 0.84749-0.13436 0.56327 0 1.0077 0.1757 0.44442 0.17053 0.76481 0.49093 0.32039 0.31522 0.5116 0.75964 0.19637 0.44442 0.25838 0.98185h-0.95601q-0.04651-0.34106-0.1602-0.63562-0.11369-0.29455-0.30489-0.51676-0.1912-0.22221-0.47026-0.34624-0.27388-0.12919-0.65112-0.12919-0.34106 0-0.60461 0.11369-0.25838 0.10852-0.44958 0.29972-0.18604 0.19121-0.31523 0.44442-0.12402 0.25322-0.20154 0.53744-0.07751 0.28422-0.11369 0.58394-0.03101 0.29456-0.03101 0.57361v1.0594q0 0.27905 0.03101 0.57877 0.03617 0.29456 0.11369 0.58395 0.07751 0.28422 0.20154 0.53743 0.12402 0.25322 0.31523 0.44959 0.1912 0.1912 0.44958 0.30489 0.25838 0.10852 0.60461 0.10852 0.37724 0 0.65112-0.11886 0.27905-0.11885 0.47026-0.33073 0.1912-0.21704 0.30489-0.50643 0.11369-0.29455 0.1602-0.63562z"/>
      <path d="m69.615 219.6v1.3539h2.1291v0.73897h-2.1291v3.0386q0 0.32556 0.08268 0.53743 0.08268 0.21188 0.22738 0.34107 0.14469 0.12402 0.33073 0.1757 0.1912 0.0517 0.40308 0.0517 0.15503 0 0.32039-0.0155 0.16536-0.0207 0.32039-0.0465 0.1602-0.0258 0.29456-0.0517 0.13953-0.031 0.22738-0.0517l0.13436 0.67696q-0.11886 0.0724-0.28939 0.12919-0.17053 0.0517-0.37207 0.0878-0.20154 0.0413-0.42891 0.062-0.22221 0.0207-0.44442 0.0207-0.37207 0-0.69763-0.10335-0.32039-0.10852-0.5581-0.3359-0.23771-0.23254-0.37724-0.59428-0.13436-0.3669-0.13436-0.88366v-3.0386h-1.4676v-0.73897h1.4676v-1.3539z"/>
      <path d="m76.007 223.03 1.4934-2.0722h1.1214l-2.0826 2.7647 2.1394 2.8267h-1.1059l-1.5451-2.1291-1.5451 2.1291h-1.1162l2.1394-2.8267-2.0826-2.7647h1.1059z"/>
     </g>
     <rect x="59.267" y="231.38" width="67.733" height="12.7" fill="#c79a40" style="paint-order:normal"/>
     <rect x="33.867" y="231.38" width="27.517" height="12.7" fill="#d3af68" style="paint-order:normal"/>
     <g fill="#f9f9f9" stroke-width=".26458" aria-label="Date">
      <path d="m35.683 241.44v-7.5241h1.7415q0.78548 0.0103 1.4004 0.26872 0.62012 0.25321 1.0439 0.71313 0.42891 0.45476 0.65112 1.0955 0.22738 0.63562 0.23254 1.4108v0.55294q-0.0052 0.77514-0.23254 1.4159-0.22221 0.63562-0.65112 1.0955-0.42375 0.45476-1.0439 0.71314-0.61495 0.25321-1.4004 0.25838zm0.97152-6.7386v5.9583h0.76998q0.60978-5e-3 1.0542-0.21188 0.44442-0.21187 0.7338-0.57361 0.29456-0.36173 0.43408-0.85266 0.14469-0.49092 0.14986-1.0645v-0.56327q-0.0052-0.57361-0.14986-1.0594-0.14469-0.49093-0.43408-0.8475-0.28939-0.36173-0.7338-0.56844-0.44442-0.2067-1.0542-0.21704z"/>
      <path d="m45.801 241.44q-0.05684-0.10852-0.09302-0.26872-0.03101-0.16536-0.04651-0.34106-0.14469 0.14469-0.32556 0.27388-0.1757 0.12919-0.39274 0.22738-0.21187 0.0982-0.45475 0.15503-0.24288 0.0568-0.51676 0.0568-0.44442 0-0.80615-0.12919-0.35657-0.12919-0.60978-0.34623-0.24805-0.22221-0.38757-0.52193-0.13436-0.30489-0.13436-0.65629 0-0.45992 0.18087-0.80616 0.18604-0.34623 0.52193-0.5736 0.3359-0.23255 0.80615-0.34624 0.47542-0.11368 1.0594-0.11368h1.0439v-0.43925q0-0.25322-0.09302-0.45476-0.09302-0.20153-0.26355-0.34106-0.17053-0.14469-0.41858-0.22221-0.24288-0.0775-0.54777-0.0775-0.28422 0-0.5116 0.0723-0.22221 0.0724-0.37724 0.19121-0.15503 0.11885-0.24288 0.28422-0.08268 0.16019-0.08268 0.33589h-0.96118q0.0052-0.30489 0.15503-0.59944 0.15503-0.29456 0.43925-0.5271 0.28939-0.23771 0.69763-0.38241 0.41341-0.14469 0.93534-0.14469 0.47542 0 0.88367 0.11885 0.40824 0.11369 0.7028 0.3514 0.29972 0.23255 0.47026 0.58395t0.17053 0.82165v2.5993q0 0.27905 0.05168 0.59427 0.05168 0.31006 0.14469 0.54261v0.0827zm-1.6898-0.72864q0.27905 0 0.52193-0.0723 0.24288-0.0724 0.43925-0.19121 0.20154-0.11885 0.34623-0.26872 0.14469-0.15502 0.22738-0.32039v-1.1317h-0.88884q-0.83716 0-1.3022 0.24804-0.46509 0.24805-0.46509 0.78032 0 0.2067 0.06718 0.3824 0.07235 0.1757 0.21187 0.30489 0.13953 0.12403 0.3514 0.19638 0.21187 0.0723 0.49093 0.0723z"/>
      <path d="m50.736 234.5v1.3539h2.1291v0.73897h-2.1291v3.0386q0 0.32556 0.08268 0.53743 0.08268 0.21188 0.22738 0.34107 0.14469 0.12402 0.33073 0.1757 0.1912 0.0517 0.40308 0.0517 0.15503 0 0.32039-0.0155 0.16536-0.0207 0.32039-0.0465 0.1602-0.0258 0.29456-0.0517 0.13953-0.031 0.22738-0.0517l0.13436 0.67696q-0.11886 0.0724-0.28939 0.12919-0.17053 0.0517-0.37207 0.0879-0.20154 0.0413-0.42891 0.062-0.22221 0.0207-0.44442 0.0207-0.37207 0-0.69763-0.10335-0.32039-0.10852-0.55811-0.3359-0.23771-0.23254-0.37724-0.59428-0.13436-0.3669-0.13436-0.88366v-3.0386h-1.4676v-0.73897h1.4676v-1.3539z"/>
      <path d="m57.288 241.55q-0.58911 0-1.0852-0.20154-0.49093-0.20153-0.84232-0.56327-0.3514-0.36173-0.54777-0.85783-0.19637-0.49609-0.19637-1.08v-0.21705q0-0.67696 0.21704-1.2092 0.21704-0.53744 0.57361-0.90434 0.36174-0.37207 0.81649-0.56844 0.45992-0.19637 0.94051-0.19637 0.60461 0 1.0542 0.21187 0.45475 0.20671 0.75448 0.57878 0.29972 0.3669 0.44442 0.86816 0.14986 0.50126 0.14986 1.0852v0.42891h-3.9946q0.0155 0.38241 0.14469 0.7183 0.13436 0.3359 0.36174 0.58911 0.23254 0.24805 0.55294 0.39274 0.32039 0.1447 0.70797 0.1447 0.5116 0 0.9095-0.20671 0.39791-0.2067 0.66146-0.54777l0.58394 0.45476q-0.13953 0.21187-0.3514 0.40824-0.2067 0.1912-0.48059 0.34106-0.27388 0.14987-0.62012 0.23772-0.34623 0.093-0.75448 0.093zm-0.12402-5.0126q-0.28939 0-0.54777 0.10852-0.25838 0.10335-0.46509 0.31006-0.20671 0.20154-0.3514 0.50126-0.13953 0.29456-0.19637 0.68213h3.0076v-0.0724q-0.0155-0.27905-0.10852-0.55294-0.08785-0.27388-0.26355-0.49092-0.1757-0.21704-0.44442-0.3514-0.26355-0.13436-0.63045-0.13436z"/>
     </g>
     <g fill="#f9f9f9" stroke-width=".26458" aria-label="2150-08-23">
      <path d="m67.741 241.36h-4.9299v-0.6873l2.465-2.7388q0.33073-0.3669 0.55294-0.65112 0.22221-0.28422 0.35657-0.52194 0.13436-0.24288 0.1912-0.45475 0.05684-0.21704 0.05684-0.44442 0-0.27905-0.09302-0.52193-0.08785-0.24804-0.26355-0.42891-0.17053-0.18087-0.41858-0.28422-0.24288-0.10852-0.55294-0.10852-0.37724 0-0.65629 0.10852-0.27388 0.10852-0.45992 0.31006-0.18087 0.19637-0.27388 0.48059-0.08785 0.28422-0.08785 0.63562h-0.96118q0-0.47543 0.16536-0.89401 0.16536-0.42374 0.47542-0.73897 0.31523-0.31522 0.76481-0.50126 0.45475-0.18603 1.0335-0.18603 0.53227 0 0.95601 0.16019 0.42891 0.15503 0.72347 0.43408 0.29456 0.27906 0.44958 0.66146 0.1602 0.38241 0.1602 0.83199 0 0.3359-0.11369 0.66663-0.11369 0.32556-0.31006 0.64595-0.1912 0.3204-0.44958 0.63562-0.25322 0.31006-0.53744 0.62012l-2.0205 2.1911h3.7775z"/>
      <path d="m72.573 241.36h-0.95601v-6.3045l-1.9689 0.74931v-0.87333l2.8474-1.0955h0.07751z"/>
      <path d="m76.159 237.59 0.37724-3.7517h3.8602v0.93017h-3.0541l-0.21187 2.005q0.22221-0.12919 0.53227-0.22738 0.31006-0.0982 0.7183-0.0982 0.52193 0 0.93534 0.18087 0.41341 0.18086 0.7028 0.51159 0.28939 0.32556 0.44442 0.79065t0.15503 1.0335q0 0.53743-0.14469 0.99735-0.14469 0.45993-0.43925 0.79582-0.28939 0.33073-0.7338 0.52193-0.44442 0.18604-1.0439 0.18604-0.45992 0-0.86816-0.12919t-0.72864-0.38758q-0.31523-0.25838-0.52193-0.65112-0.20154-0.39274-0.25322-0.91467h0.9095q0.08785 0.64079 0.47026 0.97152 0.38757 0.33072 0.99219 0.33072 0.34106 0 0.60461-0.11885 0.26355-0.12402 0.43925-0.34623 0.18087-0.22738 0.26872-0.54261 0.09302-0.31522 0.09302-0.70279 0-0.3514-0.10335-0.6563-0.09819-0.30489-0.28939-0.5271-0.1912-0.22737-0.47026-0.35656-0.27905-0.12919-0.64079-0.12919-0.23771 0-0.41341 0.0362-0.17053 0.031-0.31006 0.093t-0.26355 0.14986q-0.11886 0.0879-0.24805 0.20154z"/>
      <path d="m86.887 238.48q0 0.7183-0.16536 1.2764-0.16536 0.55293-0.47542 0.93534-0.31006 0.37724-0.75964 0.57361t-1.0284 0.19637q-0.57361 0-1.0284-0.19637-0.44958-0.19637-0.76481-0.57361-0.31523-0.38241-0.48576-0.93534-0.16536-0.55811-0.16536-1.2764v-1.7622q0-0.7183 0.16536-1.2712 0.16536-0.5581 0.47542-0.94051 0.31523-0.3824 0.76481-0.57877 0.45475-0.20154 1.0284-0.20154 0.57878 0 1.0284 0.20154 0.45475 0.19637 0.76481 0.57877 0.31523 0.38241 0.48059 0.94051 0.16536 0.55294 0.16536 1.2712zm-3.9119-0.1912 2.9301-2.2479q-0.08268-0.74931-0.43925-1.1369-0.3514-0.39274-1.018-0.39274-0.75448 0-1.1162 0.5116-0.35657 0.50642-0.35657 1.4831zm2.9507-1.3333-2.9249 2.2376q0.08785 0.72864 0.44958 1.111 0.36174 0.3824 1.0077 0.3824 0.75964 0 1.111-0.51676 0.35657-0.51677 0.35657-1.4883z"/>
      <path d="m92.69 238.46h-3.9532v-0.78548h3.9532z"/>
      <path d="m99.6 238.48q0 0.7183-0.16536 1.2764-0.16536 0.55293-0.47542 0.93534-0.31006 0.37724-0.75964 0.57361t-1.0284 0.19637q-0.57361 0-1.0284-0.19637-0.44958-0.19637-0.76481-0.57361-0.31523-0.38241-0.48576-0.93534-0.16536-0.55811-0.16536-1.2764v-1.7622q0-0.7183 0.16536-1.2712 0.16536-0.5581 0.47542-0.94051 0.31523-0.3824 0.76481-0.57877 0.45475-0.20154 1.0284-0.20154 0.57878 0 1.0284 0.20154 0.45475 0.19637 0.76481 0.57877 0.31523 0.38241 0.48059 0.94051 0.16536 0.55294 0.16536 1.2712zm-3.9119-0.1912 2.9301-2.2479q-0.08268-0.74931-0.43925-1.1369-0.3514-0.39274-1.018-0.39274-0.75448 0-1.1162 0.5116-0.35657 0.50642-0.35657 1.4831zm2.9507-1.3333-2.9249 2.2376q0.08785 0.72864 0.44958 1.111 0.36174 0.3824 1.0077 0.3824 0.75964 0 1.111-0.51676 0.35657-0.51677 0.35657-1.4883z"/>
      <path d="m105.85 235.8q-5e-3 0.56328-0.30489 1.0025-0.29972 0.43924-0.80098 0.68729 0.28939 0.12403 0.52193 0.31006 0.23771 0.18087 0.40308 0.41858 0.17053 0.23771 0.25838 0.51676 0.093 0.27906 0.093 0.59428 0 0.5116-0.19121 0.90951-0.18603 0.39791-0.51159 0.67179-0.3204 0.26872-0.75448 0.41341-0.43408 0.13953-0.93017 0.13953-0.50643 0-0.94568-0.13953-0.43408-0.13952-0.75965-0.40824-0.32039-0.27389-0.50643-0.67179-0.18603-0.39791-0.18603-0.91468 0-0.31522 0.0879-0.59428 0.0878-0.28422 0.25321-0.51676 0.16537-0.23771 0.39791-0.42375 0.23255-0.18603 0.52193-0.31006-0.24804-0.12402-0.44958-0.29455-0.20154-0.1757-0.34106-0.38757-0.13953-0.21705-0.21705-0.47026-0.0775-0.25321-0.0775-0.53227 0-0.49092 0.16536-0.87333 0.16537-0.38757 0.45476-0.65112 0.29455-0.26355 0.69763-0.40308 0.40824-0.13952 0.88883-0.13952 0.47543 0 0.88367 0.13952 0.40824 0.13953 0.70797 0.40308 0.29972 0.26355 0.47025 0.65112 0.17053 0.38241 0.17053 0.87333zm-0.78548 3.5088q0-0.31522-0.10852-0.57877-0.10335-0.26355-0.29455-0.44959-0.19121-0.1912-0.45992-0.29455-0.26355-0.10336-0.57878-0.10336-0.32556 0-0.58911 0.10336-0.26355 0.10335-0.44959 0.29455-0.18603 0.18604-0.28938 0.44959-0.0982 0.26355-0.0982 0.57877 0 0.32556 0.0982 0.58395 0.10335 0.25321 0.28938 0.42891 0.18604 0.1757 0.44959 0.26872 0.26872 0.093 0.59945 0.093 0.31522 0 0.57877-0.093t0.44959-0.26872q0.1912-0.1757 0.29455-0.42891 0.10852-0.25839 0.10852-0.58395zm-0.1757-3.4933q0-0.28423-0.0982-0.52194-0.093-0.23771-0.26355-0.40824-0.16537-0.1757-0.39791-0.26872-0.23254-0.0982-0.5116-0.0982-0.27905 0-0.50643 0.093-0.22737 0.0879-0.39274 0.25839-0.16536 0.17053-0.25838 0.41341-0.0879 0.23771-0.0879 0.53227 0 0.29455 0.0879 0.53226 0.093 0.23255 0.25838 0.40308 0.17054 0.16536 0.39791 0.25838 0.23255 0.0879 0.5116 0.0879 0.27388 0 0.50643-0.0879 0.23254-0.093 0.39791-0.25838 0.17053-0.17053 0.26355-0.40825 0.093-0.23771 0.093-0.52709z"/>
      <path d="m111.75 238.46h-3.9532v-0.78548h3.9532z"/>
      <path d="m118.55 241.36h-4.9299v-0.6873l2.465-2.7388q0.33073-0.3669 0.55294-0.65112 0.2222-0.28422 0.35656-0.52194 0.13436-0.24288 0.19121-0.45475 0.0568-0.21704 0.0568-0.44442 0-0.27905-0.093-0.52193-0.0879-0.24804-0.26355-0.42891-0.17053-0.18087-0.41858-0.28422-0.24288-0.10852-0.55293-0.10852-0.37724 0-0.65629 0.10852-0.27389 0.10852-0.45992 0.31006-0.18087 0.19637-0.27389 0.48059-0.0879 0.28422-0.0879 0.63562h-0.96118q0-0.47543 0.16536-0.89401 0.16537-0.42374 0.47543-0.73897 0.31522-0.31522 0.76481-0.50126 0.45475-0.18603 1.0335-0.18603 0.53226 0 0.95601 0.16019 0.42891 0.15503 0.72347 0.43408 0.29456 0.27906 0.44959 0.66146 0.16019 0.38241 0.16019 0.83199 0 0.3359-0.11369 0.66663-0.11368 0.32556-0.31005 0.64595-0.19121 0.3204-0.44959 0.63562-0.25321 0.31006-0.53743 0.62012l-2.0206 2.1911h3.7775z"/>
      <path d="m121.4 237.14h0.68213q0.36173 0 0.63562-0.0982 0.27905-0.0982 0.46508-0.26872 0.19121-0.17053 0.28939-0.40824 0.0982-0.23772 0.0982-0.52194 0-0.65629-0.3359-0.98702-0.3359-0.33589-0.98185-0.33589-0.30489 0-0.55811 0.093-0.24804 0.0879-0.42891 0.25839-0.1757 0.17053-0.27389 0.40824-0.0982 0.23771-0.0982 0.53227h-0.96118q0-0.42892 0.16536-0.80615 0.17053-0.38241 0.47542-0.66146 0.3049-0.28422 0.72864-0.44442 0.42892-0.16536 0.95085-0.16536 0.50643 0 0.92501 0.13952 0.41858 0.13436 0.7183 0.40308t0.46509 0.66662q0.16536 0.39791 0.16536 0.91984 0 0.21705-0.0672 0.44959t-0.2067 0.45475q-0.13953 0.21704-0.36174 0.41341-0.21704 0.19121-0.52193 0.3204 0.3669 0.11885 0.60978 0.31006 0.24805 0.1912 0.39274 0.42891 0.14986 0.23771 0.20671 0.50126 0.062 0.26355 0.062 0.52193 0 0.5271-0.18087 0.93535-0.18087 0.40824-0.50126 0.69246-0.32039 0.27905-0.75964 0.42892-0.43409 0.14469-0.94051 0.14469-0.4961 0-0.93535-0.13953-0.43408-0.13952-0.75447-0.40824-0.3204-0.26872-0.5116-0.65629-0.18604-0.38757-0.18604-0.88367h0.95602q0 0.29456 0.0982 0.53744 0.10336 0.24288 0.28939 0.41341 0.18604 0.17053 0.44959 0.26355 0.26871 0.093 0.59428 0.093 0.32556 0 0.58911-0.0827 0.26355-0.0878 0.44958-0.26355 0.18604-0.1757 0.28422-0.43408 0.10336-0.26355 0.10336-0.62012 0-0.3514-0.11886-0.60461-0.11369-0.25838-0.32556-0.42891-0.20671-0.17054-0.50643-0.25322-0.29456-0.0827-0.65112-0.0827h-0.68213z"/>
     </g>
    </g>
    <path d="m29.633 229.27v8.4667h4.2333" fill="none" stroke="#d3af68" stroke-width="2.1167"/>
    <path d="m21.167 222.92v29.633h4.2333" fill="none" stroke="#d3af68" stroke-width="2.1167"/>
    <g>
     <rect x="50.8" y="246.2" width="93.133" height="12.7" fill="#c79a40" style="paint-order:normal"/>
     <rect x="25.4" y="246.2" width="27.517" height="12.7" fill="#d3af68" style="paint-order:normal"/>
     <g fill="#f9f9f9" stroke-width=".26458" aria-label="Name">
      <path d="m32.027 256.26h-0.97152l-2.9197-5.6224-0.0155 5.6224h-0.96635v-7.5241h0.97152l2.9197 5.6121 0.0155-5.6121h0.96635z"/>
      <path d="m37.334 256.26q-0.05684-0.10853-0.09302-0.26872-0.03101-0.16537-0.04651-0.34107-0.14469 0.1447-0.32556 0.27389-0.1757 0.12919-0.39274 0.22737-0.21187 0.0982-0.45475 0.15503-0.24288 0.0568-0.51676 0.0568-0.44442 0-0.80615-0.12919-0.35657-0.12919-0.60978-0.34623-0.24805-0.22221-0.38757-0.52194-0.13436-0.30489-0.13436-0.65629 0-0.45992 0.18087-0.80615 0.18604-0.34623 0.52193-0.57361 0.3359-0.23254 0.80615-0.34623 0.47542-0.11369 1.0594-0.11369h1.0439v-0.43925q0-0.25321-0.09302-0.45475t-0.26355-0.34107q-0.17053-0.14469-0.41858-0.2222-0.24288-0.0775-0.54777-0.0775-0.28422 0-0.5116 0.0724-0.22221 0.0724-0.37724 0.1912-0.15503 0.11886-0.24288 0.28422-0.08268 0.1602-0.08268 0.3359h-0.96118q0.0052-0.30489 0.15503-0.59945 0.15503-0.29455 0.43925-0.5271 0.28939-0.23771 0.69763-0.3824 0.41341-0.1447 0.93534-0.1447 0.47542 0 0.88367 0.11886 0.40824 0.11369 0.7028 0.3514 0.29972 0.23254 0.47026 0.58394 0.17053 0.3514 0.17053 0.82166v2.5993q0 0.27905 0.05168 0.59428 0.05168 0.31006 0.14469 0.5426v0.0827zm-1.6898-0.72864q0.27905 0 0.52193-0.0724 0.24288-0.0724 0.43925-0.1912 0.20154-0.11886 0.34623-0.26872 0.14469-0.15503 0.22738-0.32039v-1.1317h-0.88884q-0.83716 0-1.3022 0.24805t-0.46509 0.78031q0 0.20671 0.06718 0.38241 0.07235 0.1757 0.21187 0.30489 0.13953 0.12402 0.3514 0.19637 0.21187 0.0724 0.49093 0.0724z"/>
      <path d="m40.445 250.67 0.02584 0.5271q0.17053-0.29456 0.44442-0.45992 0.27905-0.16537 0.67179-0.17054 0.76998 0 1.0284 0.59945 0.16536-0.26872 0.43408-0.42891 0.27388-0.16537 0.66146-0.17054 0.61495 0 0.94568 0.37724t0.33073 1.142v4.1755h-0.90951v-4.1858q0-0.70279-0.64596-0.69763-0.17053 0-0.29456 0.0465-0.12402 0.0465-0.20671 0.12919-0.08268 0.0775-0.12919 0.18604-0.04651 0.10335-0.06201 0.21704v4.3046h-0.90951v-4.191q0-0.3359-0.14986-0.51677-0.14986-0.18086-0.47542-0.1757-0.29972 0-0.46509 0.11886-0.16536 0.11885-0.24288 0.31522v4.4494h-0.90951v-5.5914z"/>
      <path d="m48.822 256.36q-0.58911 0-1.0852-0.20154-0.49093-0.20154-0.84233-0.56327-0.3514-0.36174-0.54777-0.85783-0.19637-0.4961-0.19637-1.08v-0.21704q0-0.67696 0.21704-1.2092 0.21704-0.53743 0.57361-0.90434 0.36174-0.37207 0.81649-0.56844 0.45992-0.19637 0.94051-0.19637 0.60461 0 1.0542 0.21188 0.45475 0.2067 0.75448 0.57877 0.29972 0.3669 0.44442 0.86817 0.14986 0.50126 0.14986 1.0852v0.42892h-3.9946q0.0155 0.3824 0.14469 0.7183 0.13436 0.33589 0.36174 0.58911 0.23254 0.24805 0.55294 0.39274t0.70797 0.14469q0.5116 0 0.90951-0.2067 0.39791-0.20671 0.66146-0.54777l0.58394 0.45475q-0.13953 0.21187-0.3514 0.40824-0.20671 0.19121-0.48059 0.34107t-0.62012 0.23771q-0.34623 0.093-0.75448 0.093zm-0.12402-5.0126q-0.28939 0-0.54777 0.10853-0.25838 0.10335-0.46509 0.31005-0.20671 0.20154-0.3514 0.50127-0.13953 0.29455-0.19637 0.68212h3.0076v-0.0723q-0.0155-0.27906-0.10852-0.55294-0.08785-0.27389-0.26355-0.49093t-0.44442-0.3514q-0.26355-0.13436-0.63045-0.13436z"/>
     </g>
     <g fill="#f9f9f9" stroke-width=".26458" aria-label="Worker Context">
      <path d="m58.391 254.14 0.57361-5.488h0.90434l-0.91467 7.5241h-0.97668l-0.96635-5.6689-0.97668 5.6689h-0.98185l-0.91467-7.5241h0.90951l0.57361 5.488 0.96635-5.488h0.83199z"/>
      <path d="m60.737 253.33q0-0.60462 0.1757-1.1214 0.1757-0.52193 0.50126-0.90434 0.33073-0.38241 0.80098-0.59945 0.47026-0.22221 1.0594-0.22221 0.59428 0 1.0645 0.22221 0.47542 0.21704 0.80098 0.59945 0.33073 0.38241 0.50643 0.90434 0.1757 0.51676 0.1757 1.1214v0.11368q0 0.60462-0.1757 1.1214-0.1757 0.51677-0.50643 0.89917-0.32556 0.38241-0.79582 0.59945-0.47026 0.21704-1.0594 0.21704-0.59428 0-1.0697-0.21704-0.47026-0.21704-0.80098-0.59945-0.32556-0.3824-0.50126-0.89917-0.1757-0.51676-0.1757-1.1214zm0.95601 0.11368q0 0.41342 0.09819 0.79065 0.09819 0.37207 0.29456 0.65629 0.20154 0.28422 0.50126 0.44959 0.29972 0.16536 0.69763 0.16536 0.39274 0 0.6873-0.16536 0.29972-0.16537 0.49609-0.44959 0.20154-0.28422 0.29972-0.65629 0.09819-0.37723 0.09819-0.79065v-0.11368q0-0.40825-0.10335-0.78032-0.09819-0.37724-0.29972-0.66146-0.19637-0.28422-0.49609-0.44958-0.29456-0.17053-0.69246-0.17053-0.39791 0-0.69246 0.17053-0.29456 0.16536-0.49609 0.44958-0.19637 0.28422-0.29456 0.66146-0.09819 0.37207-0.09819 0.78032z"/>
      <path d="m71.015 250.48q0.13436 0 0.27905 0.0103 0.14469 5e-3 0.27389 0.0258 0.13436 0.0155 0.24288 0.0413 0.11369 0.0258 0.18604 0.0568l-0.12919 0.93535q-0.27905-0.062-0.53227-0.0878-0.24805-0.031-0.52193-0.031-0.67179 0-1.0904 0.30489-0.41341 0.30489-0.60978 0.85266v3.5864h-0.96118v-5.5914h0.90951l0.04651 0.88883q0.34106-0.45992 0.81649-0.72347 0.48059-0.26872 1.0904-0.26872z"/>
      <path d="m75.372 253.57-0.7028 0.67696v1.9327h-0.96118v-7.9375h0.96118v4.8576l0.62528-0.67179 1.8345-1.8397h1.1627l-2.2634 2.3306 2.6097 3.2608h-1.2144z"/>
      <path d="m82.513 256.28q-0.58911 0-1.0852-0.20154-0.49093-0.20154-0.84233-0.56327-0.3514-0.36174-0.54777-0.85783-0.19637-0.49609-0.19637-1.08v-0.21704q0-0.67696 0.21704-1.2092 0.21704-0.53743 0.57361-0.90433 0.36174-0.37207 0.81649-0.56845 0.45992-0.19637 0.94051-0.19637 0.60461 0 1.0542 0.21188 0.45475 0.2067 0.75448 0.57877 0.29972 0.36691 0.44442 0.86817 0.14986 0.50126 0.14986 1.0852v0.42892h-3.9946q0.0155 0.3824 0.14469 0.7183 0.13436 0.3359 0.36174 0.58911 0.23254 0.24805 0.55294 0.39274 0.32039 0.1447 0.70797 0.1447 0.5116 0 0.9095-0.20671 0.39791-0.20671 0.66146-0.54777l0.58394 0.45475q-0.13953 0.21188-0.3514 0.40825-0.20671 0.1912-0.48059 0.34106t-0.62012 0.23771q-0.34623 0.093-0.75448 0.093zm-0.12402-5.0126q-0.28939 0-0.54777 0.10852-0.25838 0.10335-0.46509 0.31006-0.20671 0.20153-0.3514 0.50126-0.13953 0.29455-0.19637 0.68213h3.0076v-0.0724q-0.0155-0.27905-0.10852-0.55294-0.08785-0.27388-0.26355-0.49093-0.1757-0.21704-0.44442-0.3514-0.26355-0.13435-0.63045-0.13435z"/>
      <path d="m90.053 250.48q0.13436 0 0.27905 0.0103 0.14469 5e-3 0.27388 0.0258 0.13436 0.0155 0.24288 0.0413 0.11369 0.0258 0.18604 0.0568l-0.12919 0.93535q-0.27905-0.062-0.53227-0.0878-0.24805-0.031-0.52193-0.031-0.67179 0-1.0904 0.30489-0.41341 0.30489-0.60978 0.85266v3.5864h-0.96118v-5.5914h0.9095l0.04651 0.88883q0.34106-0.45992 0.81649-0.72347 0.48059-0.26872 1.0904-0.26872z"/>
      <path d="m103.95 253.92q-0.0672 0.52193-0.26872 0.96118-0.20154 0.43408-0.5271 0.74931-0.32039 0.31006-0.76481 0.48576-0.43925 0.17053-0.98185 0.17053-0.46509 0-0.8475-0.12919-0.37723-0.13436-0.67696-0.3669-0.29456-0.23255-0.5116-0.54777-0.21187-0.31523-0.35657-0.6873-0.13953-0.37207-0.21187-0.78031-0.06718-0.40825-0.07235-0.82683v-1.049q0.0052-0.41858 0.07235-0.82682 0.07235-0.40825 0.21187-0.78032 0.14469-0.37207 0.35657-0.68729 0.21704-0.3204 0.5116-0.55294 0.29973-0.23254 0.67696-0.36174 0.37724-0.13435 0.8475-0.13435 0.56327 0 1.0077 0.1757 0.44441 0.17053 0.76481 0.49092 0.32039 0.31523 0.5116 0.75965 0.19637 0.44441 0.25838 0.98185h-0.95602q-0.0465-0.34107-0.16019-0.63562-0.11369-0.29456-0.30489-0.51677-0.19121-0.22221-0.47026-0.34623-0.27389-0.12919-0.65112-0.12919-0.34107 0-0.60462 0.11369-0.25838 0.10852-0.44958 0.29972-0.18604 0.1912-0.31523 0.44442-0.12402 0.25321-0.20154 0.53743-0.07752 0.28422-0.11369 0.58395-0.03101 0.29455-0.03101 0.57361v1.0594q0 0.27906 0.03101 0.57878 0.03617 0.29455 0.11369 0.58394 0.07751 0.28422 0.20154 0.53744 0.12403 0.25321 0.31523 0.44958 0.1912 0.1912 0.44958 0.30489 0.25838 0.10852 0.60462 0.10852 0.37723 0 0.65112-0.11885 0.27905-0.11886 0.47026-0.33073 0.1912-0.21704 0.30489-0.50643 0.11368-0.29456 0.16019-0.63562z"/>
      <path d="m105.16 253.33q0-0.60462 0.1757-1.1214 0.1757-0.52193 0.50126-0.90434 0.33073-0.38241 0.80099-0.59945 0.47025-0.22221 1.0594-0.22221 0.59428 0 1.0645 0.22221 0.47542 0.21704 0.80098 0.59945 0.33073 0.38241 0.50643 0.90434 0.1757 0.51676 0.1757 1.1214v0.11368q0 0.60462-0.1757 1.1214-0.1757 0.51677-0.50643 0.89917-0.32556 0.38241-0.79582 0.59945-0.47025 0.21704-1.0594 0.21704-0.59428 0-1.0697-0.21704-0.47026-0.21704-0.80099-0.59945-0.32556-0.3824-0.50126-0.89917-0.1757-0.51676-0.1757-1.1214zm0.95601 0.11368q0 0.41342 0.0982 0.79065 0.0982 0.37207 0.29455 0.65629 0.20154 0.28422 0.50127 0.44959 0.29972 0.16536 0.69763 0.16536 0.39274 0 0.68729-0.16536 0.29973-0.16537 0.4961-0.44959 0.20154-0.28422 0.29972-0.65629 0.0982-0.37723 0.0982-0.79065v-0.11368q0-0.40825-0.10336-0.78032-0.0982-0.37724-0.29972-0.66146-0.19637-0.28422-0.49609-0.44958-0.29456-0.17053-0.69247-0.17053t-0.69246 0.17053q-0.29456 0.16536-0.4961 0.44958-0.19637 0.28422-0.29455 0.66146-0.0982 0.37207-0.0982 0.78032z"/>
      <path d="m112.63 250.59 0.0672 0.82682q0.30489-0.43408 0.74931-0.67696 0.44442-0.24805 0.99219-0.25322 0.43925 0 0.79582 0.12403 0.36173 0.12402 0.61494 0.38757 0.25322 0.26355 0.38758 0.67179 0.13952 0.40308 0.13952 0.96119v3.5502h-0.95601v-3.5295q0-0.37207-0.0827-0.63046-0.0827-0.25838-0.24805-0.41857-0.1602-0.1602-0.39791-0.23255-0.23254-0.0724-0.53743-0.0724-0.48059 0-0.8475 0.24288-0.36173 0.23772-0.57877 0.63046v4.0101h-0.95602v-5.5914z"/>
      <path d="m120.38 249.23v1.3539h2.1291v0.73897h-2.1291v3.0386q0 0.32557 0.0827 0.53744t0.22737 0.34106q0.1447 0.12403 0.33073 0.1757 0.19121 0.0517 0.40308 0.0517 0.15503 0 0.32039-0.0155 0.16537-0.0207 0.3204-0.0465 0.16019-0.0258 0.29455-0.0517 0.13953-0.031 0.22738-0.0517l0.13436 0.67696q-0.11886 0.0723-0.28939 0.12919-0.17053 0.0517-0.37207 0.0879-0.20154 0.0413-0.42892 0.062-0.2222 0.0207-0.44441 0.0207-0.37207 0-0.69763-0.10335-0.3204-0.10852-0.55811-0.3359-0.23771-0.23254-0.37724-0.59428-0.13436-0.3669-0.13436-0.88367v-3.0386h-1.4676v-0.73897h1.4676v-1.3539z"/>
      <path d="m126.93 256.28q-0.58911 0-1.0852-0.20154-0.49093-0.20154-0.84233-0.56327-0.3514-0.36174-0.54777-0.85783t-0.19637-1.08v-0.21704q0-0.67696 0.21704-1.2092 0.21704-0.53743 0.57361-0.90433 0.36174-0.37207 0.81649-0.56845 0.45992-0.19637 0.94051-0.19637 0.60462 0 1.0542 0.21188 0.45475 0.2067 0.75448 0.57877 0.29972 0.36691 0.44441 0.86817 0.14986 0.50126 0.14986 1.0852v0.42892h-3.9946q0.0155 0.3824 0.14469 0.7183 0.13436 0.3359 0.36174 0.58911 0.23254 0.24805 0.55293 0.39274 0.3204 0.1447 0.70797 0.1447 0.5116 0 0.90951-0.20671 0.3979-0.20671 0.66145-0.54777l0.58395 0.45475q-0.13953 0.21188-0.3514 0.40825-0.20671 0.1912-0.48059 0.34106-0.27389 0.14986-0.62012 0.23771-0.34623 0.093-0.75448 0.093zm-0.12402-5.0126q-0.28939 0-0.54777 0.10852-0.25838 0.10335-0.46509 0.31006-0.2067 0.20153-0.3514 0.50126-0.13952 0.29455-0.19637 0.68213h3.0076v-0.0724q-0.0155-0.27905-0.10852-0.55294-0.0879-0.27388-0.26355-0.49093-0.1757-0.21704-0.44442-0.3514-0.26355-0.13435-0.63045-0.13435z"/>
      <path d="m133.12 252.66 1.4934-2.0722h1.1214l-2.0826 2.7647 2.1394 2.8267h-1.1059l-1.5451-2.1291-1.5451 2.1291h-1.1162l2.1394-2.8267-2.0826-2.7647h1.1059z"/>
      <path d="m139.42 249.23v1.3539h2.1291v0.73897h-2.1291v3.0386q0 0.32557 0.0827 0.53744t0.22737 0.34106q0.1447 0.12403 0.33073 0.1757 0.1912 0.0517 0.40308 0.0517 0.15503 0 0.32039-0.0155 0.16537-0.0207 0.32039-0.0465 0.1602-0.0258 0.29456-0.0517 0.13953-0.031 0.22738-0.0517l0.13436 0.67696q-0.11886 0.0723-0.28939 0.12919-0.17053 0.0517-0.37207 0.0879-0.20154 0.0413-0.42892 0.062-0.22221 0.0207-0.44441 0.0207-0.37208 0-0.69764-0.10335-0.32039-0.10852-0.5581-0.3359-0.23771-0.23254-0.37724-0.59428-0.13436-0.3669-0.13436-0.88367v-3.0386h-1.4676v-0.73897h1.4676v-1.3539z"/>
     </g>
     <rect x="59.267" y="261.02" width="67.733" height="12.7" fill="#c79a40" style="paint-order:normal"/>
     <rect x="33.867" y="261.02" width="27.517" height="12.7" fill="#d3af68" style="paint-order:normal"/>
     <g fill="#f9f9f9" stroke-width=".26458" aria-label="Date">
      <path d="m35.683 271.08v-7.5241h1.7415q0.78548 0.0103 1.4004 0.26872 0.62012 0.25321 1.0439 0.71313 0.42891 0.45475 0.65112 1.0955 0.22738 0.63562 0.23254 1.4108v0.55294q-0.0052 0.77514-0.23254 1.4159-0.22221 0.63562-0.65112 1.0955-0.42375 0.45475-1.0439 0.71313-0.61495 0.25322-1.4004 0.25839zm0.97152-6.7386v5.9583h0.76998q0.60978-5e-3 1.0542-0.21187 0.44442-0.21187 0.7338-0.57361 0.29456-0.36173 0.43408-0.85266 0.14469-0.49093 0.14986-1.0645v-0.56328q-0.0052-0.57361-0.14986-1.0594-0.14469-0.49093-0.43408-0.8475-0.28939-0.36173-0.7338-0.56844-0.44442-0.2067-1.0542-0.21704z"/>
      <path d="m45.801 271.08q-0.05684-0.10852-0.09302-0.26872-0.03101-0.16537-0.04651-0.34106-0.14469 0.14469-0.32556 0.27388-0.1757 0.12919-0.39274 0.22738-0.21187 0.0982-0.45475 0.15503-0.24288 0.0568-0.51676 0.0568-0.44442 0-0.80615-0.12919-0.35657-0.12919-0.60978-0.34623-0.24805-0.22221-0.38757-0.52194-0.13436-0.30489-0.13436-0.65629 0-0.45992 0.18087-0.80615 0.18604-0.34623 0.52193-0.57361 0.3359-0.23254 0.80615-0.34623 0.47542-0.11369 1.0594-0.11369h1.0439v-0.43925q0-0.25321-0.09302-0.45475t-0.26355-0.34106q-0.17053-0.1447-0.41858-0.22221-0.24288-0.0775-0.54777-0.0775-0.28422 0-0.5116 0.0724-0.22221 0.0723-0.37724 0.1912-0.15503 0.11886-0.24288 0.28422-0.08268 0.1602-0.08268 0.3359h-0.96118q0.0052-0.30489 0.15503-0.59945 0.15503-0.29455 0.43925-0.5271 0.28939-0.23771 0.69763-0.3824 0.41341-0.1447 0.93534-0.1447 0.47542 0 0.88367 0.11886 0.40824 0.11369 0.7028 0.3514 0.29972 0.23254 0.47026 0.58394t0.17053 0.82166v2.5993q0 0.27906 0.05168 0.59428 0.05168 0.31006 0.14469 0.5426v0.0827zm-1.6898-0.72864q0.27905 0 0.52193-0.0723t0.43925-0.1912q0.20154-0.11886 0.34623-0.26872 0.14469-0.15503 0.22738-0.32039v-1.1317h-0.88884q-0.83716 0-1.3022 0.24805t-0.46509 0.78032q0 0.2067 0.06718 0.3824 0.07235 0.1757 0.21187 0.30489 0.13953 0.12403 0.3514 0.19637 0.21187 0.0723 0.49093 0.0723z"/>
      <path d="m50.736 264.13v1.3539h2.1291v0.73897h-2.1291v3.0386q0 0.32557 0.08268 0.53744t0.22738 0.34106q0.14469 0.12403 0.33073 0.1757 0.1912 0.0517 0.40308 0.0517 0.15503 0 0.32039-0.0155 0.16536-0.0207 0.32039-0.0465 0.1602-0.0258 0.29456-0.0517 0.13953-0.031 0.22738-0.0517l0.13436 0.67696q-0.11886 0.0723-0.28939 0.12919-0.17053 0.0517-0.37207 0.0879-0.20154 0.0413-0.42891 0.062-0.22221 0.0207-0.44442 0.0207-0.37207 0-0.69763-0.10335-0.32039-0.10852-0.55811-0.3359-0.23771-0.23254-0.37724-0.59428-0.13436-0.3669-0.13436-0.88367v-3.0386h-1.4676v-0.73897h1.4676v-1.3539z"/>
      <path d="m57.288 271.18q-0.58911 0-1.0852-0.20154-0.49093-0.20154-0.84232-0.56327-0.3514-0.36174-0.54777-0.85783-0.19637-0.49609-0.19637-1.08v-0.21704q0-0.67696 0.21704-1.2092 0.21704-0.53743 0.57361-0.90433 0.36174-0.37207 0.81649-0.56845 0.45992-0.19637 0.94051-0.19637 0.60461 0 1.0542 0.21188 0.45475 0.2067 0.75448 0.57877 0.29972 0.36691 0.44442 0.86817 0.14986 0.50126 0.14986 1.0852v0.42892h-3.9946q0.0155 0.3824 0.14469 0.7183 0.13436 0.3359 0.36174 0.58911 0.23254 0.24805 0.55294 0.39274 0.32039 0.1447 0.70797 0.1447 0.5116 0 0.9095-0.20671 0.39791-0.20671 0.66146-0.54777l0.58394 0.45475q-0.13953 0.21188-0.3514 0.40825-0.2067 0.1912-0.48059 0.34106-0.27388 0.14986-0.62012 0.23771-0.34623 0.093-0.75448 0.093zm-0.12402-5.0126q-0.28939 0-0.54777 0.10852-0.25838 0.10335-0.46509 0.31006-0.20671 0.20153-0.3514 0.50126-0.13953 0.29455-0.19637 0.68213h3.0076v-0.0723q-0.0155-0.27905-0.10852-0.55294-0.08785-0.27388-0.26355-0.49093-0.1757-0.21704-0.44442-0.3514-0.26355-0.13435-0.63045-0.13435z"/>
     </g>
     <g fill="#f9f9f9" stroke-width=".26458" aria-label="2150-08-25">
      <path d="m67.741 271h-4.9299v-0.6873l2.465-2.7388q0.33073-0.3669 0.55294-0.65112 0.22221-0.28422 0.35657-0.52193 0.13436-0.24288 0.1912-0.45476 0.05684-0.21704 0.05684-0.44441 0-0.27906-0.09302-0.52194-0.08785-0.24804-0.26355-0.42891-0.17053-0.18087-0.41858-0.28422-0.24288-0.10852-0.55294-0.10852-0.37724 0-0.65629 0.10852-0.27388 0.10852-0.45992 0.31006-0.18087 0.19637-0.27388 0.48059-0.08785 0.28422-0.08785 0.63562h-0.96118q0-0.47542 0.16536-0.894 0.16536-0.42375 0.47542-0.73898 0.31523-0.31522 0.76481-0.50126 0.45475-0.18603 1.0335-0.18603 0.53227 0 0.95601 0.16019 0.42891 0.15503 0.72347 0.43409 0.29456 0.27905 0.44958 0.66145 0.1602 0.38241 0.1602 0.83199 0 0.3359-0.11369 0.66663-0.11369 0.32556-0.31006 0.64596-0.1912 0.32039-0.44958 0.63562-0.25322 0.31005-0.53744 0.62011l-2.0205 2.1911h3.7775z"/>
      <path d="m72.573 271h-0.95601v-6.3045l-1.9689 0.74931v-0.87333l2.8474-1.0955h0.07751z"/>
      <path d="m76.159 267.22 0.37724-3.7517h3.8602v0.93018h-3.0541l-0.21187 2.005q0.22221-0.12919 0.53227-0.22738 0.31006-0.0982 0.7183-0.0982 0.52193 0 0.93534 0.18087 0.41341 0.18086 0.7028 0.51159 0.28939 0.32557 0.44442 0.79065 0.15503 0.46509 0.15503 1.0335 0 0.53744-0.14469 0.99736t-0.43925 0.79581q-0.28939 0.33073-0.7338 0.52194-0.44442 0.18603-1.0439 0.18603-0.45992 0-0.86816-0.12919t-0.72864-0.38757q-0.31523-0.25839-0.52193-0.65113-0.20154-0.39274-0.25322-0.91467h0.9095q0.08785 0.64079 0.47026 0.97152 0.38757 0.33073 0.99219 0.33073 0.34106 0 0.60461-0.11886 0.26355-0.12402 0.43925-0.34623 0.18087-0.22738 0.26872-0.5426 0.09302-0.31523 0.09302-0.7028 0-0.3514-0.10335-0.65629-0.09819-0.30489-0.28939-0.5271-0.1912-0.22738-0.47026-0.35657-0.27905-0.12919-0.64079-0.12919-0.23771 0-0.41341 0.0362-0.17053 0.031-0.31006 0.093t-0.26355 0.14986q-0.11886 0.0879-0.24805 0.20154z"/>
      <path d="m86.887 268.12q0 0.7183-0.16536 1.2764-0.16536 0.55294-0.47542 0.93534-0.31006 0.37724-0.75964 0.57361t-1.0284 0.19637q-0.57361 0-1.0284-0.19637-0.44958-0.19637-0.76481-0.57361-0.31523-0.3824-0.48576-0.93534-0.16536-0.55811-0.16536-1.2764v-1.7622q0-0.7183 0.16536-1.2712 0.16536-0.5581 0.47542-0.94051 0.31523-0.3824 0.76481-0.57877 0.45475-0.20154 1.0284-0.20154 0.57878 0 1.0284 0.20154 0.45475 0.19637 0.76481 0.57877 0.31523 0.38241 0.48059 0.94051 0.16536 0.55294 0.16536 1.2712zm-3.9119-0.1912 2.9301-2.2479q-0.08268-0.7493-0.43925-1.1369-0.3514-0.39274-1.018-0.39274-0.75448 0-1.1162 0.5116-0.35657 0.50643-0.35657 1.4831zm2.9507-1.3332-2.9249 2.2376q0.08785 0.72863 0.44958 1.111 0.36174 0.3824 1.0077 0.3824 0.75964 0 1.111-0.51676 0.35657-0.51676 0.35657-1.4883z"/>
      <path d="m92.69 268.1h-3.9532v-0.78548h3.9532z"/>
      <path d="m99.6 268.12q0 0.7183-0.16536 1.2764-0.16536 0.55294-0.47542 0.93534-0.31006 0.37724-0.75964 0.57361t-1.0284 0.19637q-0.57361 0-1.0284-0.19637-0.44958-0.19637-0.76481-0.57361-0.31523-0.3824-0.48576-0.93534-0.16536-0.55811-0.16536-1.2764v-1.7622q0-0.7183 0.16536-1.2712 0.16536-0.5581 0.47542-0.94051 0.31523-0.3824 0.76481-0.57877 0.45475-0.20154 1.0284-0.20154 0.57878 0 1.0284 0.20154 0.45475 0.19637 0.76481 0.57877 0.31523 0.38241 0.48059 0.94051 0.16536 0.55294 0.16536 1.2712zm-3.9119-0.1912 2.9301-2.2479q-0.08268-0.7493-0.43925-1.1369-0.3514-0.39274-1.018-0.39274-0.75448 0-1.1162 0.5116-0.35657 0.50643-0.35657 1.4831zm2.9507-1.3332-2.9249 2.2376q0.08785 0.72863 0.44958 1.111 0.36174 0.3824 1.0077 0.3824 0.75964 0 1.111-0.51676 0.35657-0.51676 0.35657-1.4883z"/>
      <path d="m105.85 265.44q-5e-3 0.56328-0.30489 1.0025-0.29972 0.43925-0.80098 0.68729 0.28939 0.12403 0.52193 0.31006 0.23771 0.18087 0.40308 0.41858 0.17053 0.23771 0.25838 0.51677 0.093 0.27905 0.093 0.59427 0 0.5116-0.19121 0.90951-0.18603 0.39791-0.51159 0.67179-0.3204 0.26872-0.75448 0.41341-0.43408 0.13953-0.93017 0.13953-0.50643 0-0.94568-0.13953-0.43408-0.13952-0.75965-0.40824-0.32039-0.27388-0.50643-0.67179-0.18603-0.39791-0.18603-0.91468 0-0.31522 0.0879-0.59427 0.0878-0.28422 0.25321-0.51677 0.16537-0.23771 0.39791-0.42375 0.23255-0.18603 0.52193-0.31005-0.24804-0.12403-0.44958-0.29456-0.20154-0.1757-0.34106-0.38757-0.13953-0.21704-0.21705-0.47026-0.0775-0.25321-0.0775-0.53227 0-0.49092 0.16536-0.87333 0.16537-0.38757 0.45476-0.65112 0.29455-0.26355 0.69763-0.40308 0.40824-0.13952 0.88883-0.13952 0.47543 0 0.88367 0.13952 0.40824 0.13953 0.70797 0.40308 0.29972 0.26355 0.47025 0.65112 0.17053 0.38241 0.17053 0.87333zm-0.78548 3.5088q0-0.31522-0.10852-0.57877-0.10335-0.26355-0.29455-0.44959-0.19121-0.1912-0.45992-0.29455-0.26355-0.10336-0.57878-0.10336-0.32556 0-0.58911 0.10336-0.26355 0.10335-0.44959 0.29455-0.18603 0.18604-0.28938 0.44959-0.0982 0.26355-0.0982 0.57877 0 0.32557 0.0982 0.58395 0.10335 0.25321 0.28938 0.42891 0.18604 0.1757 0.44959 0.26872 0.26872 0.093 0.59945 0.093 0.31522 0 0.57877-0.093t0.44959-0.26872q0.1912-0.1757 0.29455-0.42891 0.10852-0.25838 0.10852-0.58395zm-0.1757-3.4933q0-0.28422-0.0982-0.52193-0.093-0.23772-0.26355-0.40825-0.16537-0.1757-0.39791-0.26872-0.23254-0.0982-0.5116-0.0982-0.27905 0-0.50643 0.093-0.22737 0.0879-0.39274 0.25838-0.16536 0.17053-0.25838 0.41341-0.0879 0.23771-0.0879 0.53227 0 0.29455 0.0879 0.53226 0.093 0.23255 0.25838 0.40308 0.17054 0.16537 0.39791 0.25838 0.23255 0.0878 0.5116 0.0878 0.27388 0 0.50643-0.0878 0.23254-0.093 0.39791-0.25838 0.17053-0.17053 0.26355-0.40824 0.093-0.23771 0.093-0.5271z"/>
      <path d="m111.75 268.1h-3.9532v-0.78548h3.9532z"/>
      <path d="m118.55 271h-4.9299v-0.6873l2.465-2.7388q0.33073-0.3669 0.55294-0.65112 0.2222-0.28422 0.35656-0.52193 0.13436-0.24288 0.19121-0.45476 0.0568-0.21704 0.0568-0.44441 0-0.27906-0.093-0.52194-0.0879-0.24804-0.26355-0.42891-0.17053-0.18087-0.41858-0.28422-0.24288-0.10852-0.55293-0.10852-0.37724 0-0.65629 0.10852-0.27389 0.10852-0.45992 0.31006-0.18087 0.19637-0.27389 0.48059-0.0879 0.28422-0.0879 0.63562h-0.96118q0-0.47542 0.16536-0.894 0.16537-0.42375 0.47543-0.73898 0.31522-0.31522 0.76481-0.50126 0.45475-0.18603 1.0335-0.18603 0.53226 0 0.95601 0.16019 0.42891 0.15503 0.72347 0.43409 0.29456 0.27905 0.44959 0.66145 0.16019 0.38241 0.16019 0.83199 0 0.3359-0.11369 0.66663-0.11368 0.32556-0.31005 0.64596-0.19121 0.32039-0.44959 0.63562-0.25321 0.31005-0.53743 0.62011l-2.0206 2.1911h3.7775z"/>
      <path d="m120.62 267.22 0.37724-3.7517h3.8602v0.93018h-3.0541l-0.21187 2.005q0.22221-0.12919 0.53226-0.22738 0.31006-0.0982 0.71831-0.0982 0.52193 0 0.93534 0.18087 0.41341 0.18086 0.7028 0.51159 0.28939 0.32557 0.44442 0.79065 0.15503 0.46509 0.15503 1.0335 0 0.53744-0.1447 0.99736-0.14469 0.45992-0.43925 0.79581-0.28939 0.33073-0.7338 0.52194-0.44442 0.18603-1.0439 0.18603-0.45992 0-0.86816-0.12919t-0.72864-0.38757q-0.31522-0.25839-0.52193-0.65113-0.20154-0.39274-0.25321-0.91467h0.9095q0.0879 0.64079 0.47026 0.97152 0.38757 0.33073 0.99218 0.33073 0.34107 0 0.60462-0.11886 0.26355-0.12402 0.43925-0.34623 0.18087-0.22738 0.26871-0.5426 0.093-0.31523 0.093-0.7028 0-0.3514-0.10335-0.65629-0.0982-0.30489-0.28939-0.5271-0.1912-0.22738-0.47025-0.35657-0.27906-0.12919-0.64079-0.12919-0.23771 0-0.41341 0.0362-0.17054 0.031-0.31006 0.093-0.13953 0.062-0.26355 0.14986-0.11886 0.0879-0.24805 0.20154z"/>
     </g>
    </g>
    <path d="m29.633 258.9v8.4667l4.2333 1e-5" fill="none" stroke="#d3af68" stroke-width="2.1167"/>
    <path d="m29.633 267.37v14.817h4.2333" fill="none" stroke="#d3af68" stroke-width="2.1167"/>
    <g>
     <rect x="33.867" y="275.83" width="46.567" height="12.7" fill="#d3af68" style="paint-order:normal"/>
     <g fill="#f9f9f9" stroke-width=".26458" aria-label="Primary">
      <path d="m36.825 282.88v3.0179h-0.95601v-7.5241h2.4391q0.50643 0.0103 0.95601 0.1602 0.45475 0.14986 0.79582 0.43408 0.34106 0.28422 0.53744 0.7028 0.20154 0.41858 0.20154 0.96118t-0.20154 0.96118q-0.19637 0.41341-0.53744 0.69763-0.34106 0.28422-0.79582 0.43408-0.44958 0.14987-0.95601 0.15503zm0-0.78548h1.4831q0.33073-5e-3 0.60978-0.10335 0.27905-0.10335 0.48576-0.28939 0.2067-0.18603 0.32039-0.44958 0.11886-0.26872 0.11886-0.60979 0-0.34106-0.11886-0.61494-0.11369-0.27389-0.32039-0.46509-0.20154-0.19121-0.48576-0.29456-0.27905-0.10335-0.60978-0.10852h-1.4831z"/>
      <path d="m45.791 280.2q0.13436 0 0.27905 0.0103 0.14469 5e-3 0.27388 0.0258 0.13436 0.0155 0.24288 0.0413 0.11369 0.0258 0.18604 0.0568l-0.12919 0.93535q-0.27905-0.062-0.53227-0.0879-0.24805-0.031-0.52193-0.031-0.67179 0-1.0904 0.30489-0.41341 0.30489-0.60978 0.85266v3.5864h-0.96118v-5.5914h0.90951l0.04651 0.88883q0.34106-0.45992 0.81649-0.72347 0.48059-0.26871 1.0904-0.26871z"/>
      <path d="m48.622 280.3h2.8577v4.7646h1.8242v0.82683h-4.6819v-0.82683h1.9017v-3.9326h-1.9017zm1.7777-1.4676q0-0.23771 0.13953-0.39791 0.14469-0.16537 0.43408-0.16537 0.28422 0 0.42891 0.16537 0.14469 0.1602 0.14469 0.39791 0 0.23254-0.14469 0.38757t-0.42891 0.15503q-0.28939 0-0.43408-0.15503-0.13953-0.15503-0.13953-0.38757z"/>
      <path d="m55.258 280.3 0.02584 0.5271q0.17053-0.29456 0.44442-0.45992 0.27905-0.16537 0.67179-0.17053 0.76998 0 1.0284 0.59944 0.16536-0.26872 0.43408-0.42891 0.27388-0.16537 0.66146-0.17053 0.61495 0 0.94568 0.37723 0.33073 0.37724 0.33073 1.142v4.1755h-0.90951v-4.1858q0-0.7028-0.64596-0.69763-0.17053 0-0.29456 0.0465-0.12402 0.0465-0.2067 0.12919-0.08268 0.0775-0.12919 0.18604-0.04651 0.10335-0.06201 0.21704v4.3046h-0.9095v-4.191q0-0.3359-0.14986-0.51677-0.14986-0.18086-0.47542-0.17569-0.29972 0-0.46509 0.11885-0.16536 0.11886-0.24288 0.31523v4.4493h-0.9095v-5.5914z"/>
      <path d="m64.838 285.89q-0.05684-0.10852-0.09302-0.26872-0.03101-0.16536-0.04651-0.34106-0.14469 0.14469-0.32556 0.27388-0.1757 0.12919-0.39274 0.22738-0.21187 0.0982-0.45475 0.15503-0.24288 0.0568-0.51676 0.0568-0.44442 0-0.80615-0.12919-0.35657-0.12919-0.60978-0.34623-0.24805-0.22221-0.38757-0.52193-0.13436-0.3049-0.13436-0.6563 0-0.45992 0.18087-0.80615 0.18604-0.34623 0.52193-0.57361 0.3359-0.23254 0.80615-0.34623 0.47542-0.11369 1.0594-0.11369h1.0439v-0.43925q0-0.25321-0.09302-0.45475t-0.26355-0.34106q-0.17053-0.1447-0.41858-0.22221-0.24288-0.0775-0.54777-0.0775-0.28422 0-0.5116 0.0723-0.22221 0.0724-0.37724 0.1912-0.15503 0.11886-0.24288 0.28422-0.08268 0.1602-0.08268 0.3359h-0.96118q0.0052-0.30489 0.15503-0.59945 0.15503-0.29455 0.43925-0.5271 0.28939-0.23771 0.69763-0.3824 0.41341-0.14469 0.93534-0.14469 0.47542 0 0.88367 0.11885 0.40824 0.11369 0.7028 0.3514 0.29972 0.23254 0.47026 0.58394 0.17053 0.3514 0.17053 0.82166v2.5993q0 0.27906 0.05168 0.59428 0.05168 0.31006 0.14469 0.54261v0.0827zm-1.6898-0.72864q0.27905 0 0.52193-0.0723t0.43925-0.1912q0.20154-0.11886 0.34623-0.26872 0.1447-0.15503 0.22738-0.32039v-1.1317h-0.88884q-0.83716 0-1.3022 0.24804-0.46509 0.24805-0.46509 0.78032 0 0.2067 0.06718 0.3824 0.07235 0.1757 0.21187 0.30489 0.13953 0.12403 0.3514 0.19637 0.21187 0.0723 0.49093 0.0723z"/>
      <path d="m71.174 280.2q0.13436 0 0.27905 0.0103 0.14469 5e-3 0.27388 0.0258 0.13436 0.0155 0.24288 0.0413 0.11369 0.0258 0.18604 0.0568l-0.12919 0.93535q-0.27905-0.062-0.53227-0.0879-0.24805-0.031-0.52193-0.031-0.67179 0-1.0904 0.30489-0.41341 0.30489-0.60978 0.85266v3.5864h-0.96118v-5.5914h0.9095l0.04651 0.88883q0.34106-0.45992 0.81649-0.72347 0.48059-0.26871 1.0904-0.26871z"/>
      <path d="m75.913 283.91 0.24805 0.67696 1.7053-4.284h1.0697l-2.837 6.4544q-0.09819 0.21705-0.25321 0.45992-0.14986 0.24288-0.3669 0.44959t-0.50643 0.34623q-0.28939 0.13953-0.66663 0.13953-0.06718 0-0.14986-0.0103-0.08268-5e-3 -0.16536-0.0207-0.08268-0.0103-0.15503-0.0258-0.07235-0.0155-0.11886-0.0258l0.15503-0.78032q0.03617 0 0.09819 5e-3 0.06201 5e-3 0.12919 0.0103 0.06718 5e-3 0.12919 5e-3 0.06201 5e-3 0.09819 5e-3 0.19637 0 0.35657-0.10852 0.16536-0.10852 0.28939-0.25838 0.12919-0.14986 0.21704-0.31006 0.09302-0.1602 0.14469-0.26355l0.38241-0.74414-2.4081-5.3278h1.0697z"/>
     </g>
     <rect x="50.8" y="186.93" width="86.783" height="12.7" fill="#c79a40" style="paint-order:normal"/>
     <rect x="25.4" y="186.93" width="27.517" height="12.7" fill="#d3af68" style="paint-order:normal"/>
     <g fill="#f9f9f9" stroke-width=".26458" aria-label="Type">
      <path d="m32.389 190.29h-2.3254v6.7076h-0.93018v-6.7076h-2.3254v-0.81649h5.5811z"/>
      <path d="m35.717 195.01 0.24805 0.67696 1.7053-4.284h1.0697l-2.837 6.4544q-0.09819 0.21704-0.25321 0.45992-0.14986 0.24288-0.3669 0.44958-0.21704 0.20671-0.50643 0.34624-0.28939 0.13952-0.66663 0.13952-0.06718 0-0.14986-0.0103-0.08268-5e-3 -0.16536-0.0207-0.08268-0.0103-0.15503-0.0258-0.07235-0.0155-0.11886-0.0258l0.15503-0.78031q0.03617 0 0.09819 5e-3 0.06201 5e-3 0.12919 0.0103 0.06718 5e-3 0.12919 5e-3 0.06201 5e-3 0.09819 5e-3 0.19637 0 0.35657-0.10852 0.16536-0.10852 0.28939-0.25838 0.12919-0.14986 0.21704-0.31006 0.09302-0.16019 0.14469-0.26355l0.38241-0.74414-2.4081-5.3278h1.0697z"/>
      <path d="m44.724 194.26q0 0.59945-0.14469 1.1214-0.14469 0.51676-0.42375 0.89917-0.27905 0.3824-0.69246 0.59944-0.40824 0.21705-0.93534 0.21705-0.5116 0-0.90434-0.16537-0.38757-0.16536-0.66663-0.47542v2.6872h-0.95601v-7.7411h0.87333l0.04651 0.60978q0.27905-0.34623 0.67179-0.52709 0.39791-0.18604 0.91984-0.18604 0.53744 0 0.95085 0.21187 0.41341 0.21188 0.69246 0.58911 0.27905 0.37724 0.42375 0.90434 0.14469 0.52193 0.14469 1.1472zm-0.95601-0.10852q0-0.40824-0.09302-0.77515-0.08785-0.37207-0.27905-0.65112-0.18604-0.28422-0.47542-0.44959-0.28939-0.16536-0.69246-0.16536-0.45992 0-0.77515 0.21704-0.31006 0.21187-0.49609 0.54777v2.6923q0.18604 0.33073 0.49609 0.54261 0.31006 0.2067 0.78548 0.2067 0.39791 0 0.6873-0.16536 0.28939-0.17054 0.47542-0.45476 0.18604-0.28422 0.27388-0.65629 0.09302-0.37207 0.09302-0.78031z"/>
      <path d="m48.822 197.1q-0.58911 0-1.0852-0.20154-0.49093-0.20154-0.84233-0.56328-0.3514-0.36173-0.54777-0.85782-0.19637-0.4961-0.19637-1.08v-0.21704q0-0.67696 0.21704-1.2092 0.21704-0.53744 0.57361-0.90434 0.36174-0.37207 0.81649-0.56844 0.45992-0.19637 0.94051-0.19637 0.60461 0 1.0542 0.21187 0.45475 0.20671 0.75448 0.57878 0.29972 0.3669 0.44442 0.86816 0.14986 0.50126 0.14986 1.0852v0.42891h-3.9946q0.0155 0.38241 0.14469 0.71831 0.13436 0.33589 0.36174 0.58911 0.23254 0.24804 0.55294 0.39274 0.32039 0.14469 0.70797 0.14469 0.5116 0 0.9095-0.2067 0.39791-0.20671 0.66146-0.54777l0.58394 0.45475q-0.13953 0.21187-0.3514 0.40824-0.20671 0.1912-0.48059 0.34107-0.27388 0.14986-0.62012 0.23771-0.34623 0.093-0.75448 0.093zm-0.12402-5.0126q-0.28939 0-0.54777 0.10852-0.25838 0.10336-0.46509 0.31006-0.20671 0.20154-0.3514 0.50126-0.13953 0.29456-0.19637 0.68213h3.0076v-0.0724q-0.0155-0.27905-0.10852-0.55293-0.08785-0.27389-0.26355-0.49093t-0.44442-0.3514q-0.26355-0.13436-0.63045-0.13436z"/>
     </g>
     <g fill="#f9f9f9" stroke-width=".26458" aria-label="7ebd5432-841d">
      <path d="m59.424 189.93-3.1161 6.9866h-1.0025l3.1058-6.6869h-4.0721v-0.83716h5.085z"/>
      <path d="m63.476 197.02q-0.58911 0-1.0852-0.20154-0.49093-0.20153-0.84233-0.56327-0.3514-0.36173-0.54777-0.85783-0.19637-0.49609-0.19637-1.08v-0.21704q0-0.67696 0.21704-1.2092 0.21704-0.53744 0.57361-0.90434 0.36174-0.37207 0.81649-0.56844 0.45992-0.19637 0.94051-0.19637 0.60461 0 1.0542 0.21187 0.45475 0.20671 0.75448 0.57878 0.29972 0.3669 0.44442 0.86816 0.14986 0.50126 0.14986 1.0852v0.42891h-3.9946q0.0155 0.38241 0.14469 0.7183 0.13436 0.3359 0.36174 0.58911 0.23254 0.24805 0.55294 0.39274 0.32039 0.1447 0.70797 0.1447 0.5116 0 0.90951-0.20671 0.39791-0.2067 0.66146-0.54777l0.58394 0.45475q-0.13953 0.21188-0.3514 0.40825-0.20671 0.1912-0.48059 0.34106t-0.62012 0.23771q-0.34623 0.093-0.75448 0.093zm-0.12402-5.0126q-0.28939 0-0.54777 0.10852-0.25838 0.10335-0.46509 0.31006-0.20671 0.20154-0.3514 0.50126-0.13953 0.29455-0.19637 0.68213h3.0076v-0.0724q-0.0155-0.27905-0.10852-0.55294-0.08785-0.27388-0.26355-0.49092t-0.44442-0.3514q-0.26355-0.13436-0.63045-0.13436z"/>
      <path d="m72.09 194.18q0 0.59944-0.14469 1.1214-0.14469 0.51677-0.42375 0.89917-0.27905 0.38241-0.69246 0.59945-0.40824 0.21704-0.94051 0.21704-0.53744 0-0.93534-0.1912-0.39274-0.1912-0.67179-0.54777l-0.04651 0.63562h-0.8785v-7.9375h0.95601v2.9456q0.27388-0.34107 0.66146-0.52194 0.38757-0.18086 0.90434-0.18086 0.53744 0 0.95085 0.21187 0.41341 0.21187 0.69246 0.58911 0.27905 0.37724 0.42375 0.90434 0.14469 0.52193 0.14469 1.1472zm-0.95601-0.10852q0-0.40825-0.08268-0.77515-0.07752-0.37207-0.25322-0.65112-0.1757-0.28422-0.45992-0.44959-0.28422-0.16536-0.69763-0.16536-0.24805 0-0.45475 0.0672-0.20671 0.062-0.37207 0.18086-0.1602 0.11369-0.28939 0.27389-0.12402 0.15503-0.21187 0.34106v2.4443q0.09302 0.18603 0.21704 0.34623 0.12919 0.15503 0.29456 0.27389 0.16536 0.11885 0.37207 0.18603 0.20671 0.062 0.45475 0.062 0.39274 0 0.67179-0.16019 0.28422-0.16537 0.45992-0.44442 0.18087-0.27905 0.26355-0.64596 0.08785-0.3669 0.08785-0.77514z"/>
      <path d="m73.516 194.07q0-0.62529 0.15503-1.1472 0.1602-0.5271 0.44958-0.90434 0.29456-0.37724 0.70797-0.58911 0.41341-0.21187 0.92501-0.21187 0.50126 0 0.87333 0.17053 0.37724 0.16536 0.65112 0.48576v-2.899h0.95601v7.9375h-0.8785l-0.04134-0.58911q-0.27905 0.34106-0.66663 0.51676t-0.90434 0.1757q-0.50643 0-0.91984-0.21704-0.40824-0.21704-0.69763-0.59945-0.28939-0.3824-0.44958-0.89917-0.1602-0.52193-0.1602-1.1214zm0.95601 0.10852q0 0.40824 0.08785 0.77514 0.08785 0.36691 0.26872 0.64596 0.18604 0.27905 0.47026 0.44442 0.28422 0.16019 0.68213 0.16019 0.24288 0 0.43925-0.0568 0.19637-0.0568 0.35657-0.1602 0.1602-0.10852 0.28422-0.25321 0.12402-0.14986 0.21704-0.33073v-2.5942q-0.18604-0.34106-0.50126-0.5581-0.31523-0.22221-0.78548-0.22221-0.40308 0-0.69246 0.16536-0.28422 0.16537-0.47026 0.44959-0.18087 0.27905-0.26872 0.65112-0.08785 0.3669-0.08785 0.77515z"/>
      <path d="m80.384 193.14 0.37724-3.7517h3.8602v0.93018h-3.0541l-0.21187 2.005q0.22221-0.12919 0.53227-0.22737 0.31006-0.0982 0.7183-0.0982 0.52193 0 0.93534 0.18087 0.41341 0.18087 0.7028 0.51159 0.28939 0.32557 0.44442 0.79065 0.15503 0.46509 0.15503 1.0335 0 0.53744-0.14469 0.99736t-0.43925 0.79582q-0.28939 0.33072-0.73381 0.52193-0.44442 0.18603-1.0439 0.18603-0.45992 0-0.86816-0.12919-0.40824-0.12919-0.72864-0.38757-0.31523-0.25838-0.52193-0.65113-0.20154-0.39274-0.25322-0.91467h0.9095q0.08785 0.64079 0.47026 0.97152 0.38757 0.33073 0.99219 0.33073 0.34106 0 0.60462-0.11886 0.26355-0.12402 0.43925-0.34623 0.18087-0.22738 0.26872-0.5426 0.09302-0.31523 0.09302-0.7028 0-0.3514-0.10335-0.65629-0.09819-0.30489-0.28939-0.5271-0.1912-0.22738-0.47026-0.35657t-0.64079-0.12919q-0.23771 0-0.41341 0.0362-0.17053 0.031-0.31006 0.093t-0.26355 0.14986q-0.11886 0.0879-0.24805 0.20154z"/>
      <path d="m90.265 194.39h1.049v0.78032h-1.049v1.7467h-0.95601v-1.7467h-3.4313v-0.56328l3.3693-5.2142h1.018zm-3.328 0h2.3719v-3.7259l-0.15503 0.28939z"/>
      <path d="m93.851 192.69h0.68213q0.36174 0 0.63562-0.0982 0.27905-0.0982 0.46509-0.26872 0.1912-0.17053 0.28939-0.40824 0.09819-0.23771 0.09819-0.52193 0-0.65629-0.3359-0.98702-0.3359-0.3359-0.98185-0.3359-0.30489 0-0.5581 0.093-0.24805 0.0879-0.42892 0.25838-0.1757 0.17053-0.27388 0.40824-0.09819 0.23771-0.09819 0.53227h-0.96118q0-0.42891 0.16536-0.80615 0.17053-0.38241 0.47542-0.66146 0.30489-0.28422 0.72864-0.44442 0.42891-0.16536 0.95085-0.16536 0.50643 0 0.92501 0.13952 0.41858 0.13436 0.7183 0.40308 0.29972 0.26872 0.46509 0.66663 0.16536 0.39791 0.16536 0.91984 0 0.21704-0.06718 0.44958-0.06718 0.23255-0.20671 0.45475-0.13953 0.21705-0.36174 0.41342-0.21704 0.1912-0.52193 0.32039 0.3669 0.11886 0.60978 0.31006 0.24805 0.1912 0.39274 0.42891 0.14986 0.23771 0.20671 0.50126 0.06201 0.26355 0.06201 0.52194 0 0.5271-0.18087 0.93534-0.18087 0.40824-0.50126 0.69246-0.32039 0.27906-0.75964 0.42892-0.43408 0.14469-0.94051 0.14469-0.49609 0-0.93534-0.13952-0.43408-0.13953-0.75448-0.40825-0.32039-0.26872-0.5116-0.65629-0.18604-0.38757-0.18604-0.88367h0.95601q0 0.29456 0.09819 0.53744 0.10335 0.24288 0.28939 0.41341t0.44958 0.26355q0.26872 0.093 0.59428 0.093 0.32556 0 0.58911-0.0827 0.26355-0.0879 0.44958-0.26355 0.18604-0.1757 0.28422-0.43409 0.10335-0.26355 0.10335-0.62011 0-0.3514-0.11886-0.60462-0.11369-0.25838-0.32556-0.42891-0.20671-0.17053-0.50643-0.25322-0.29456-0.0827-0.65112-0.0827h-0.68213z"/>
      <path d="m103.7 196.91h-4.9299v-0.6873l2.465-2.7388q0.33073-0.3669 0.55294-0.65112 0.2222-0.28422 0.35656-0.52193 0.13436-0.24288 0.19121-0.45476 0.0568-0.21704 0.0568-0.44441 0-0.27906-0.093-0.52193-0.0879-0.24805-0.26355-0.42892-0.17053-0.18087-0.41858-0.28422-0.24288-0.10852-0.55293-0.10852-0.37724 0-0.65629 0.10852-0.27389 0.10852-0.45992 0.31006-0.18087 0.19637-0.27388 0.48059-0.08785 0.28422-0.08785 0.63562h-0.96118q0-0.47542 0.16536-0.894 0.16536-0.42375 0.47542-0.73898 0.31523-0.31522 0.76481-0.50126 0.45475-0.18603 1.0335-0.18603 0.53226 0 0.95601 0.1602 0.42891 0.15502 0.72347 0.43408 0.29456 0.27905 0.44958 0.66146 0.1602 0.3824 0.1602 0.83199 0 0.33589-0.11369 0.66662-0.11368 0.32556-0.31005 0.64596-0.19121 0.32039-0.44959 0.63562-0.25321 0.31006-0.53743 0.62011l-2.0206 2.1911h3.7775z"/>
      <path d="m109.61 194.01h-3.9532v-0.78548h3.9532z"/>
      <path d="m116.42 191.35q-5e-3 0.56327-0.30489 1.0025-0.29973 0.43925-0.80099 0.68729 0.28939 0.12403 0.52194 0.31006 0.23771 0.18087 0.40307 0.41858 0.17053 0.23771 0.25838 0.51677 0.093 0.27905 0.093 0.59428 0 0.51159-0.1912 0.9095-0.18604 0.39791-0.5116 0.67179-0.32039 0.26872-0.75447 0.41342-0.43409 0.13952-0.93018 0.13952-0.50643 0-0.94568-0.13952-0.43408-0.13953-0.75964-0.40825-0.3204-0.27388-0.50643-0.67179-0.18604-0.39791-0.18604-0.91467 0-0.31523 0.0878-0.59428 0.0879-0.28422 0.25322-0.51677 0.16536-0.23771 0.39791-0.42374 0.23254-0.18604 0.52193-0.31006-0.24805-0.12403-0.44959-0.29456-0.20153-0.1757-0.34106-0.38757-0.13953-0.21704-0.21704-0.47026-0.0775-0.25321-0.0775-0.53226 0-0.49093 0.16537-0.87334 0.16536-0.38757 0.45475-0.65112 0.29456-0.26355 0.69763-0.40308 0.40825-0.13952 0.88884-0.13952 0.47542 0 0.88366 0.13952 0.40825 0.13953 0.70797 0.40308t0.47026 0.65112q0.17053 0.38241 0.17053 0.87334zm-0.78548 3.5088q0-0.31522-0.10852-0.57877-0.10336-0.26355-0.29456-0.44959-0.1912-0.1912-0.45992-0.29455-0.26355-0.10335-0.57878-0.10335-0.32556 0-0.58911 0.10335t-0.44958 0.29455q-0.18604 0.18604-0.28939 0.44959-0.0982 0.26355-0.0982 0.57877 0 0.32557 0.0982 0.58395 0.10335 0.25321 0.28939 0.42891 0.18603 0.1757 0.44958 0.26872 0.26872 0.093 0.59945 0.093 0.31523 0 0.57878-0.093t0.44958-0.26872q0.1912-0.1757 0.29456-0.42891 0.10852-0.25838 0.10852-0.58395zm-0.1757-3.4933q0-0.28422-0.0982-0.52193-0.093-0.23772-0.26355-0.40825-0.16536-0.1757-0.39791-0.26871-0.23254-0.0982-0.51159-0.0982-0.27906 0-0.50643 0.093-0.22738 0.0879-0.39274 0.25838-0.16537 0.17053-0.25838 0.41341-0.0879 0.23771-0.0879 0.53227 0 0.29455 0.0879 0.53227 0.093 0.23254 0.25838 0.40307 0.17053 0.16537 0.39791 0.25838 0.23254 0.0879 0.51159 0.0879 0.27389 0 0.50643-0.0879 0.23255-0.093 0.39791-0.25838 0.17053-0.17053 0.26355-0.40824 0.093-0.23771 0.093-0.5271z"/>
      <path d="m122.01 194.39h1.049v0.78032h-1.049v1.7467h-0.95601v-1.7467h-3.4313v-0.56328l3.3693-5.2142h1.018zm-3.328 0h2.372v-3.7259l-0.15503 0.28939z"/>
      <path d="m127.59 196.91h-0.95601v-6.3045l-1.9689 0.74931v-0.87333l2.8474-1.0955h0.0775z"/>
      <path d="m130.65 194.07q0-0.62529 0.15503-1.1472 0.1602-0.5271 0.44959-0.90434 0.29455-0.37724 0.70796-0.58911t0.92501-0.21187q0.50126 0 0.87333 0.17053 0.37724 0.16536 0.65113 0.48576v-2.899h0.95601v7.9375h-0.8785l-0.0413-0.58911q-0.27905 0.34106-0.66663 0.51676-0.38757 0.1757-0.90433 0.1757-0.50643 0-0.91985-0.21704-0.40824-0.21704-0.69763-0.59945-0.28939-0.3824-0.44958-0.89917-0.1602-0.52193-0.1602-1.1214zm0.95602 0.10852q0 0.40824 0.0878 0.77514 0.0879 0.36691 0.26872 0.64596 0.18604 0.27905 0.47026 0.44442 0.28422 0.16019 0.68213 0.16019 0.24288 0 0.43925-0.0568t0.35656-0.1602q0.1602-0.10852 0.28422-0.25321 0.12403-0.14986 0.21705-0.33073v-2.5942q-0.18604-0.34106-0.50127-0.5581-0.31522-0.22221-0.78548-0.22221-0.40307 0-0.69246 0.16536-0.28422 0.16537-0.47026 0.44959-0.18087 0.27905-0.26872 0.65112-0.0878 0.3669-0.0878 0.77515z"/>
     </g>
    </g>
    <path d="m21.167 184.82v8.4667h4.2333" fill="none" stroke="#d3af68" stroke-width="2.1167"/>
    <path d="m114.3 178.47h2.1167" fill="none" stroke="#d3af68" stroke-width="2.1167"/>
    <rect x="116.42" y="172.12" width="12.7" height="12.7" fill="#d3af68" style="paint-order:normal"/>
    <g fill="#9a752d">
     <rect x="120.65" y="176.35" width="4.2333" height="4.2333" style="paint-order:normal"/>
     <path d="m116.42 180.58s4.2333-0.0156 4.2333 4.2333h-4.2333z" style="paint-order:normal"/>
     <path d="m120.65 172.12s0.0156 4.2333-4.2333 4.2333v-4.2333z" style="paint-order:normal"/>
     <path d="m129.12 176.35s-4.2333 0.0156-4.2333-4.2333h4.2333z" style="paint-order:normal"/>
     <path d="m124.88 184.82s-0.0156-4.2333 4.2333-4.2333v4.2333z" style="paint-order:normal"/>
    </g>
    <g fill="#7c5e24">
     <path d="m120.65 176.35 2.1167-4.2333 2.1167 4.2333z" style="paint-order:normal"/>
     <path d="m120.65 180.58 2.1167 4.2333 2.1167-4.2333z" style="paint-order:normal"/>
     <path d="m129.12 180.58-4.2333-2.1167 4.2333-2.1167z" style="paint-order:normal"/>
     <path d="m116.42 180.58 4.2333-2.1167-4.2333-2.1167z" style="paint-order:normal"/>
    </g>
    <path d="m137.58 193.28h2.1167" fill="none" stroke="#d3af68" stroke-width="2.1167"/>
    <rect x="139.7" y="186.93" width="12.7" height="12.7" fill="#d3af68" style="paint-order:normal"/>
    <circle cx="146.05" cy="193.28" r="2.1167" fill="#7c5e24" style="paint-order:normal"/>
    <g fill="#9a752d">
     <path d="m141.82 195.4h2.1167l-2.1167 4.2333h-2.1167z" style="paint-order:normal"/>
     <path d="m150.28 195.4h-2.1167l2.1167 4.2333h2.1167z" style="paint-order:normal"/>
     <path d="m141.82 186.93h-2.1167l2.1167 4.2333h2.1167z" style="paint-order:normal"/>
     <path d="m150.28 191.17h-2.1167l2.1167-4.2333h2.1167z" style="paint-order:normal"/>
    </g>
    <g fill="#7c5e24">
     <path d="m139.7 195.4 2.1167-4.2334-2.1167 1e-5z" style="paint-order:normal"/>
     <path d="m152.4 191.17-2.1167 4.2334 2.1167-1e-5z" style="paint-order:normal"/>
     <path d="m148.17 199.63-4.2334-2.1167 1e-5 2.1167z" style="paint-order:normal"/>
     <path d="m143.93 186.93 4.2334 2.1167-1e-5 -2.1167z" style="paint-order:normal"/>
     <path d="m148.17 195.4 2.1167-4.2334-2.1167 1e-5z" style="paint-order:normal"/>
     <path d="m143.93 191.17-2.1167 4.2334 2.1167-2e-5z" style="paint-order:normal"/>
     <path d="m143.93 195.4 4.2334 2.1167-1e-5 -2.1167z" style="paint-order:normal"/>
     <path d="m148.17 191.17-4.2334-2.1167 1e-5 2.1167z" style="paint-order:normal"/>
    </g>
   </g>
  </g>
 </g>
</svg>
