<?xml version="1.0" encoding="UTF-8" standalone="no"?>
<!-- Created with Inkscape (http://www.inkscape.org/) -->

<svg
   xmlns:dc="http://purl.org/dc/elements/1.1/"
   xmlns:cc="http://creativecommons.org/ns#"
   xmlns:rdf="http://www.w3.org/1999/02/22-rdf-syntax-ns#"
   xmlns:svg="http://www.w3.org/2000/svg"
   xmlns="http://www.w3.org/2000/svg"
   xmlns:sodipodi="http://sodipodi.sourceforge.net/DTD/sodipodi-0.dtd"
   xmlns:inkscape="http://www.inkscape.org/namespaces/inkscape"
   width="512"
   height="512"
   viewBox="0 0 135.46666 135.46667"
   version="1.1"
   id="svg8"
   inkscape:version="0.92.2 (5c3e80d, 2017-08-06)"
   sodipodi:docname="Ultil_UnrestrictedNaming_0_release.svg"
   inkscape:export-filename="A:/icon.png"
   inkscape:export-xdpi="96.000008"
   inkscape:export-ydpi="96.000008">
  <defs
     id="defs2">
    <marker
       inkscape:stockid="DotM"
       orient="auto"
       refY="0.0"
       refX="0.0"
       id="DotM"
       style="overflow:visible"
       inkscape:isstock="true">
      <path
         id="path4613"
         d="M -2.5,-1.0 C -2.5,1.7600000 -4.7400000,4.0 -7.5,4.0 C -10.260000,4.0 -12.5,1.7600000 -12.5,-1.0 C -12.5,-3.7600000 -10.260000,-6.0 -7.5,-6.0 C -4.7400000,-6.0 -2.5,-3.7600000 -2.5,-1.0 z "
         style="fill-rule:evenodd;stroke:#d3af68;stroke-width:1pt;stroke-opacity:1;fill:#d3af68;fill-opacity:1"
         transform="scale(0.4) translate(7.4, 1)" />
    </marker>
    <marker
       inkscape:stockid="Arrow1Lend"
       orient="auto"
       refY="0.0"
       refX="0.0"
       id="Arrow1Lend"
       style="overflow:visible;"
       inkscape:isstock="true">
      <path
         id="path4552"
         d="M 0.0,0.0 L 5.0,-5.0 L -12.5,0.0 L 5.0,5.0 L 0.0,0.0 z "
         style="fill-rule:evenodd;stroke:#d3af68;stroke-width:1pt;stroke-opacity:1;fill:#d3af68;fill-opacity:1"
         transform="scale(0.8) rotate(180) translate(12.5,0)" />
    </marker>
  </defs>
  <sodipodi:namedview
     id="base"
     pagecolor="#ffffff"
     bordercolor="#666666"
     borderopacity="1.0"
     inkscape:pageopacity="0.0"
     inkscape:pageshadow="2"
     inkscape:zoom="1.7382812"
     inkscape:cx="116.49438"
     inkscape:cy="256"
     inkscape:document-units="mm"
     inkscape:current-layer="layer2"
     showgrid="true"
     units="px"
     inkscape:window-width="1802"
     inkscape:window-height="1057"
     inkscape:window-x="110"
     inkscape:window-y="-8"
     inkscape:window-maximized="1"
     inkscape:snap-center="false"
     inkscape:snap-text-baseline="false"
     showguides="false"
     inkscape:snap-grids="true">
    <inkscape:grid
       type="xygrid"
       id="grid815"
       empspacing="2"
       enabled="true" />
    <inkscape:grid
       type="axonomgrid"
       id="grid838"
       units="mm"
       empspacing="5"
       enabled="false" />
  </sodipodi:namedview>
  <metadata
     id="metadata5">
    <rdf:RDF>
      <cc:Work
         rdf:about="">
        <dc:format>image/svg+xml</dc:format>
        <dc:type
           rdf:resource="http://purl.org/dc/dcmitype/StillImage" />
        <dc:title></dc:title>
      </cc:Work>
    </rdf:RDF>
  </metadata>
  <g
     inkscape:groupmode="layer"
     id="layer2"
     inkscape:label="graphic"
     style="display:inline">
    <path
       style="opacity:0.75;fill:#7c5e24;fill-opacity:1;stroke:none;stroke-width:1.18906283;stroke-linecap:round;stroke-linejoin:bevel;stroke-miterlimit:4;stroke-dasharray:none;stroke-dashoffset:0;stroke-opacity:1;paint-order:normal"
       d="m 50.208908,120.27506 c -0.127821,-0.0833 -1.244527,-3.78799 -1.244527,-4.1287 0,-0.0373 -0.987934,-0.0679 -2.19541,-0.0679 H 44.57356 l -2.672315,-9.99555 -2.672316,-9.995568 -1.337579,-0.07431 -1.337578,-0.07432 -0.580424,-2.192333 -0.580423,-2.192334 H 33.205952 31.018979 L 30.782327,90.699401 C 30.652167,90.229351 27.295826,77.705174 23.323786,62.867899 19.351749,48.030626 16.028115,35.641546 15.937933,35.33661 L 15.773967,34.782184 12.713049,34.74208 9.6521286,34.701975 9.0712535,32.509641 8.4903782,30.317306 H 6.2838197 c -1.2136076,0 -2.2065592,-0.02696 -2.2065592,-0.05992 0,-0.03296 -0.8360597,-3.114805 -1.8579105,-6.84855 -1.0218508,-3.733744 -1.85791062,-6.979626 -1.85791062,-7.213071 0,-0.487627 0.3544791,-0.669453 1.02011312,-0.523256 0.4158551,0.09134 0.4317755,0.138972 2.1889945,6.549431 l 1.7700929,6.457423 1.2308859,0.0015 c 0.8495352,0.0011 1.2525195,-0.05607 1.3007127,-0.184299 C 7.9106435,28.394373 7.7160148,27.464917 7.4397304,26.4311 l -0.502335,-1.879638 2.694494,-0.09817 C 11.113862,24.399273 29.9783,24.375622 51.552864,24.400698 l 39.226483,0.0456 0.408463,1.486329 c 0.224655,0.81748 0.483716,1.770589 0.575691,2.118019 l 0.167233,0.631689 h 0.886067 c 0.487337,0 0.885807,-0.05016 0.885492,-0.111475 -2.59e-4,-0.06131 -0.231803,-0.978013 -0.514414,-2.037117 -0.282608,-1.059104 -0.477467,-1.962049 -0.433016,-2.006544 0.109097,-0.10921 10.114957,-0.103912 10.224557,0.0054 0.0835,0.08333 2.76151,9.906158 2.76231,10.132194 1.5e-4,0.06132 -2.30923,0.111475 -5.13211,0.111475 -4.750953,0 -5.13991,-0.01933 -5.232345,-0.260107 -0.05492,-0.143059 -0.337084,-1.12961 -0.627026,-2.192335 l -0.527166,-1.932227 -0.503622,-0.04811 c -0.725945,-0.06934 -1.206635,0.08505 -1.199791,0.385366 0.0032,0.141501 0.228287,1.059893 0.500132,2.04087 l 0.494263,1.783594 -0.388654,0.113296 c -0.213761,0.06231 -17.293785,0.156878 -37.955608,0.210142 -22.745322,0.05864 -37.566954,0.150888 -37.566954,0.233825 0,0.07534 0.334424,1.36945 0.743165,2.875801 0.40874,1.506351 0.743164,2.771446 0.743164,2.811327 0,0.119579 2.503679,0.0817 2.576259,-0.03897 0.03687,-0.06131 -0.157507,-0.977729 -0.431958,-2.036486 -0.274452,-1.058753 -0.462323,-1.961698 -0.417489,-2.006542 0.04483,-0.04484 20.864452,-0.103489 46.265818,-0.130321 l 46.184292,-0.04879 0.58553,2.129649 0.58552,2.129647 0.85463,0.04458 c 1.04413,0.05446 1.03047,0.150407 0.33443,-2.348385 -0.28463,-1.021852 -0.51812,-1.875489 -0.51887,-1.896971 -7.7e-4,-0.02148 2.34979,-0.02148 5.2234,0 l 5.22475,0.03906 1.29193,4.830571 c 0.71057,2.65681 1.34032,4.981057 1.39944,5.164991 l 0.10749,0.334423 h -5.25676 -5.25677 l -0.50533,-2.08086 -0.50533,-2.080861 h -0.94641 c -0.91439,0 -0.94276,0.01132 -0.83839,0.334426 0.0594,0.183933 0.29455,1.068357 0.5225,1.965387 0.3115,1.225763 0.37024,1.659088 0.23641,1.74416 -0.0979,0.06226 -20.921732,0.114221 -46.275114,0.115472 l -46.09706,0.0023 -0.321378,-1.226221 C 22.933961,45.063591 22.6742,44.110485 22.533473,43.619995 l -0.255869,-0.891797 -0.665258,-0.04798 c -0.365891,-0.0264 -0.952578,-0.0051 -1.303748,0.04728 -0.503883,0.07519 -0.623652,0.147973 -0.568099,0.345251 0.03872,0.137489 0.655104,2.4739 1.36975,5.192024 l 1.299355,4.942042 h 1.312444 c 0.721844,0 1.310894,-0.05016 1.309001,-0.111474 -0.002,-0.06131 -0.232315,-1.012525 -0.512046,-2.113804 -0.279729,-1.101281 -0.47327,-2.037668 -0.43009,-2.080859 0.04318,-0.04319 17.312182,-0.07853 38.375566,-0.07853 h 38.297061 l 0.18712,0.571061 c 0.17162,0.52371 2.25851,8.405537 2.47568,9.350181 l 0.0939,0.408741 H 65.099605 26.680911 L 26.53503,58.594754 c -0.08024,-0.306555 -0.284422,-1.107319 -0.453742,-1.779475 -0.545169,-2.164162 -0.418452,-2.028486 -1.805751,-1.933401 -0.657956,0.04509 -1.224227,0.109941 -1.25838,0.144092 -0.03415,0.03415 0.539545,2.345591 1.274886,5.136526 0.735339,2.790939 1.33698,5.109934 1.33698,5.153321 0,0.04339 0.601965,0.07889 1.337697,0.07889 0.735733,0 1.336144,-0.05016 1.334252,-0.111475 -0.0019,-0.06131 -0.22669,-0.990212 -0.499542,-2.064226 l -0.496098,-1.952748 4.624103,-0.09996 c 2.543255,-0.05498 12.744662,-0.07918 22.669793,-0.05379 l 18.045692,0.04616 1.364238,5.053517 c 0.91069,3.373442 1.31039,5.084288 1.202264,5.146074 -0.08909,0.05091 -9.279615,0.12795 -20.423398,0.171214 -11.143783,0.04326 -20.288763,0.106004 -20.322186,0.139422 -0.06127,0.06127 0.735671,3.201386 1.28396,5.059066 l 0.296113,1.00327 h 1.173997 c 0.645698,0 1.213175,-0.06338 1.261055,-0.140864 0.04788,-0.07747 -0.138657,-1.036602 -0.414538,-2.131389 l -0.501596,-1.990528 5.885568,-0.0979 c 7.482436,-0.124457 68.208413,-0.127684 69.800613,-0.0037 l 1.19197,0.09282 0.84867,3.213374 c 0.46676,1.767355 1.07786,4.066154 1.35799,5.108442 l 0.50931,1.895069 -38.444792,-1.48e-4 -38.444798,-2.37e-4 -0.577509,-2.154987 -0.57751,-2.154987 h -2.188543 -2.188543 l -0.702463,-2.638232 c -0.386356,-1.451027 -0.84929,-3.172518 -1.02874,-3.825532 l -0.326278,-1.187297 -0.589877,-0.104674 c -0.324432,-0.05756 -0.925533,-0.108527 -1.335781,-0.113239 l -0.745908,-0.0086 -0.591788,-2.192336 -0.59179,-2.192333 -0.668849,-0.04799 c -0.367866,-0.02639 -0.956167,-0.0051 -1.307338,0.04728 -0.503031,0.07506 -0.623868,0.14831 -0.569564,0.345255 0.03791,0.137489 1.395386,5.24913 3.016615,11.3592 l 2.947692,11.109222 1.217447,0.0011 c 0.669599,5.16e-4 1.257487,-0.06369 1.306416,-0.142866 0.04893,-0.07917 -0.130353,-0.984991 -0.39841,-2.012927 -0.421903,-1.617889 -0.457638,-1.887781 -0.265987,-2.008949 0.245271,-0.155071 86.616508,-0.167232 93.482668,-0.01317 l 4.08156,0.09159 0.2727,0.891796 c 0.45094,1.474777 2.34006,8.748846 2.34006,9.010465 0,0.224501 -3.5618,0.248601 -46.336293,0.313537 -25.484962,0.03869 -46.453341,0.120817 -46.5964,0.182507 -0.143057,0.06169 -0.260632,0.188615 -0.261273,0.282055 -5.16e-4,0.09344 0.317064,1.390442 0.706008,2.882232 l 0.70717,2.71235 1.21745,1.5e-4 c 0.669596,1.1e-4 1.257308,-0.0643 1.306026,-0.14312 0.04872,-0.0788 -0.126664,-0.9808 -0.389735,-2.004386 -0.263073,-1.023598 -0.427192,-1.912211 -0.364711,-1.974707 0.06248,-0.06244 17.344224,-0.113567 38.403872,-0.113567 h 38.290266 l 1.35964,5.05353 1.35964,5.05351 -0.40791,0.11176 c -0.22435,0.0614 -17.5201,0.0949 -38.435007,0.0743 l -38.027113,-0.0374 -0.527112,-2.00655 -0.527113,-2.00654 -1.108883,-0.0893 c -1.235148,-0.0995 -1.480463,-0.0551 -1.480463,0.2681 0,0.18871 1.788885,6.99659 2.462357,9.3709 l 0.221339,0.78032 h 1.343558 c 1.317932,0 1.341575,-0.006 1.239448,-0.32804 -0.05726,-0.18042 -0.297291,-1.06664 -0.533396,-1.96938 -0.236102,-0.90275 -0.469311,-1.76944 -0.518241,-1.92601 -0.08745,-0.2798 0.238642,-0.28291 19.130596,-0.18245 10.570753,0.0562 19.235775,0.11842 19.255602,0.13825 0.01981,0.0198 0.613562,2.2088 1.319406,4.86439 0.705845,2.65558 1.316885,4.94538 1.357867,5.08844 0.0707,0.24677 -0.903768,0.25999 -18.997663,0.25784 -10.489698,-9.8e-4 -19.147546,-0.0515 -19.239664,-0.11148 z"
       id="path2549"
       inkscape:connector-curvature="0" />
    <g
       transform="matrix(0.84622412,0,0.22674507,0.84622412,-43.92914,-123.0336)"
       style="display:inline"
       id="g1468">
      <g
         id="g1466"
         transform="matrix(0.97650028,0,0,0.97650028,1.8360202,5.3730569)">
        <rect
           style="opacity:1;fill:#c79a40;fill-opacity:1;stroke:none;stroke-width:0.07144562;stroke-linecap:round;stroke-linejoin:bevel;stroke-miterlimit:4;stroke-dasharray:none;stroke-dashoffset:0;stroke-opacity:1;paint-order:normal"
           id="rect1308"
           width="88.900002"
           height="12.699994"
           x="25.399998"
           y="172.11665" />
        <rect
           y="172.11665"
           x="12.699997"
           height="12.699994"
           width="16.933334"
           id="rect1310"
           style="opacity:1;fill:#d3af68;fill-opacity:1;stroke:none;stroke-width:0.03118142;stroke-linecap:round;stroke-linejoin:bevel;stroke-miterlimit:4;stroke-dasharray:none;stroke-dashoffset:0;stroke-opacity:1;paint-order:normal" />
        <rect
           y="201.74997"
           x="50.800007"
           height="12.70001"
           width="67.73333"
           id="rect1312"
           style="opacity:1;fill:#c79a40;fill-opacity:1;stroke:none;stroke-width:0.06236287;stroke-linecap:round;stroke-linejoin:bevel;stroke-miterlimit:4;stroke-dasharray:none;stroke-dashoffset:0;stroke-opacity:1;paint-order:normal" />
        <path
           sodipodi:nodetypes="ccc"
           inkscape:connector-curvature="0"
           id="path1314"
           d="m 8.3459491,161.64444 0.1207176,16.82221 H 12.7"
           style="fill:none;stroke:#d3af68;stroke-width:2.11666656;stroke-linecap:butt;stroke-linejoin:miter;stroke-miterlimit:4;stroke-dasharray:none;stroke-opacity:1" />
        <text
           xml:space="preserve"
           style="font-style:normal;font-variant:normal;font-weight:normal;font-stretch:normal;font-size:10.58333302px;line-height:1.25;font-family:'Roboto Mono';-inkscape-font-specification:'Roboto Mono';letter-spacing:0px;word-spacing:0px;fill:#f9f9f9;fill-opacity:1;stroke:none;stroke-width:0.26458332"
           x="14.608925"
           y="182.2287"
           id="text1318"><tspan
             sodipodi:role="line"
             id="tspan1316"
             x="14.608925"
             y="182.2287"
             style="fill:#f9f9f9;stroke-width:0.26458332">ID</tspan></text>
        <rect
           style="opacity:1;fill:#d3af68;fill-opacity:1;stroke:none;stroke-width:0.03974866;stroke-linecap:round;stroke-linejoin:bevel;stroke-miterlimit:4;stroke-dasharray:none;stroke-dashoffset:0;stroke-opacity:1;paint-order:normal"
           id="rect1320"
           width="27.516661"
           height="12.699994"
           x="25.400009"
           y="201.74998" />
        <text
           id="text1324"
           y="211.81035"
           x="26.414932"
           style="font-style:normal;font-variant:normal;font-weight:normal;font-stretch:normal;font-size:10.58333302px;line-height:1.25;font-family:'Roboto Mono';-inkscape-font-specification:'Roboto Mono';letter-spacing:0px;word-spacing:0px;fill:#f9f9f9;fill-opacity:1;stroke:none;stroke-width:0.26458332"
           xml:space="preserve"><tspan
             style="fill:#f9f9f9;stroke-width:0.26458332"
             y="211.81035"
             x="26.414932"
             id="tspan1322"
             sodipodi:role="line">Date</tspan></text>
        <text
           xml:space="preserve"
           style="font-style:normal;font-variant:normal;font-weight:normal;font-stretch:normal;font-size:10.58333302px;line-height:1.25;font-family:'Roboto Mono';-inkscape-font-specification:'Roboto Mono';letter-spacing:0px;word-spacing:0px;fill:#f9f9f9;fill-opacity:1;stroke:none;stroke-width:0.26458332"
           x="31.749998"
           y="182.69998"
           id="text1328"><tspan
             sodipodi:role="line"
             id="tspan1326"
             x="31.749998"
             y="182.69998"
             style="fill:#f9f9f9;stroke-width:0.26458332">76a0a67e-7331</tspan></text>
        <text
           id="text1332"
           y="211.72906"
           x="53.760548"
           style="font-style:normal;font-variant:normal;font-weight:normal;font-stretch:normal;font-size:10.58333302px;line-height:1.25;font-family:'Roboto Mono';-inkscape-font-specification:'Roboto Mono';letter-spacing:0px;word-spacing:0px;fill:#f9f9f9;fill-opacity:1;stroke:none;stroke-width:0.26458332"
           xml:space="preserve"><tspan
             style="fill:#f9f9f9;stroke-width:0.26458332"
             y="211.72906"
             x="53.760548"
             id="tspan1330"
             sodipodi:role="line">2150-08-23</tspan></text>
        <path
           style="fill:none;stroke:#d3af68;stroke-width:2.11666656;stroke-linecap:butt;stroke-linejoin:miter;stroke-miterlimit:4;stroke-dasharray:none;stroke-opacity:1"
           d="m 21.166667,193.28332 2e-6,14.81667 h 4.233333"
           id="path1334"
           inkscape:connector-curvature="0"
           sodipodi:nodetypes="ccc" />
        <path
           sodipodi:nodetypes="ccc"
           inkscape:connector-curvature="0"
           id="path1336"
           d="m 21.166677,208.10001 v 14.81667 h 4.233333"
           style="fill:none;stroke:#d3af68;stroke-width:2.11666656;stroke-linecap:butt;stroke-linejoin:miter;stroke-miterlimit:4;stroke-dasharray:none;stroke-opacity:1" />
        <rect
           style="opacity:1;fill:#c79a40;fill-opacity:1;stroke:none;stroke-width:0.04124916;stroke-linecap:round;stroke-linejoin:bevel;stroke-miterlimit:4;stroke-dasharray:none;stroke-dashoffset:0;stroke-opacity:1;paint-order:normal"
           id="rect1338"
           width="29.633333"
           height="12.70001"
           x="50.800011"
           y="216.56664" />
        <rect
           y="216.56665"
           x="25.400013"
           height="12.699994"
           width="27.516661"
           id="rect1340"
           style="opacity:1;fill:#d3af68;fill-opacity:1;stroke:none;stroke-width:0.03974866;stroke-linecap:round;stroke-linejoin:bevel;stroke-miterlimit:4;stroke-dasharray:none;stroke-dashoffset:0;stroke-opacity:1;paint-order:normal" />
        <text
           xml:space="preserve"
           style="font-style:normal;font-variant:normal;font-weight:normal;font-stretch:normal;font-size:10.58333302px;line-height:1.25;font-family:'Roboto Mono';-inkscape-font-specification:'Roboto Mono';letter-spacing:0px;word-spacing:0px;fill:#f9f9f9;fill-opacity:1;stroke:none;stroke-width:0.26458332"
           x="26.414936"
           y="226.62701"
           id="text1344"><tspan
             sodipodi:role="line"
             id="tspan1342"
             x="26.414936"
             y="226.62701"
             style="fill:#f9f9f9;stroke-width:0.26458332">Name</tspan></text>
        <text
           xml:space="preserve"
           style="font-style:normal;font-variant:normal;font-weight:normal;font-stretch:normal;font-size:10.58333302px;line-height:1.25;font-family:'Roboto Mono';-inkscape-font-specification:'Roboto Mono';letter-spacing:0px;word-spacing:0px;fill:#f9f9f9;fill-opacity:1;stroke:none;stroke-width:0.26458332"
           x="53.760551"
           y="226.54573"
           id="text1348"><tspan
             sodipodi:role="line"
             id="tspan1346"
             x="53.760551"
             y="226.54573"
             style="fill:#f9f9f9;stroke-width:0.26458332">wCtx</tspan></text>
        <rect
           style="opacity:1;fill:#c79a40;fill-opacity:1;stroke:none;stroke-width:0.06236287;stroke-linecap:round;stroke-linejoin:bevel;stroke-miterlimit:4;stroke-dasharray:none;stroke-dashoffset:0;stroke-opacity:1;paint-order:normal"
           id="rect1350"
           width="67.73333"
           height="12.70001"
           x="59.266666"
           y="231.3833" />
        <rect
           y="231.38332"
           x="33.866676"
           height="12.699994"
           width="27.516661"
           id="rect1352"
           style="opacity:1;fill:#d3af68;fill-opacity:1;stroke:none;stroke-width:0.03974866;stroke-linecap:round;stroke-linejoin:bevel;stroke-miterlimit:4;stroke-dasharray:none;stroke-dashoffset:0;stroke-opacity:1;paint-order:normal" />
        <text
           xml:space="preserve"
           style="font-style:normal;font-variant:normal;font-weight:normal;font-stretch:normal;font-size:10.58333302px;line-height:1.25;font-family:'Roboto Mono';-inkscape-font-specification:'Roboto Mono';letter-spacing:0px;word-spacing:0px;fill:#f9f9f9;fill-opacity:1;stroke:none;stroke-width:0.26458332"
           x="34.881599"
           y="241.44368"
           id="text1356"><tspan
             sodipodi:role="line"
             id="tspan1354"
             x="34.881599"
             y="241.44368"
             style="fill:#f9f9f9;stroke-width:0.26458332">Date</tspan></text>
        <text
           xml:space="preserve"
           style="font-style:normal;font-variant:normal;font-weight:normal;font-stretch:normal;font-size:10.58333302px;line-height:1.25;font-family:'Roboto Mono';-inkscape-font-specification:'Roboto Mono';letter-spacing:0px;word-spacing:0px;fill:#f9f9f9;fill-opacity:1;stroke:none;stroke-width:0.26458332"
           x="62.227203"
           y="241.3624"
           id="text1360"><tspan
             sodipodi:role="line"
             id="tspan1358"
             x="62.227203"
             y="241.3624"
             style="fill:#f9f9f9;stroke-width:0.26458332">2150-08-23</tspan></text>
        <path
           sodipodi:nodetypes="ccc"
           inkscape:connector-curvature="0"
           id="path1362"
           d="m 29.633342,229.26667 v 8.46667 h 4.233333"
           style="fill:none;stroke:#d3af68;stroke-width:2.11666656;stroke-linecap:butt;stroke-linejoin:miter;stroke-miterlimit:4;stroke-dasharray:none;stroke-opacity:1" />
        <path
           style="fill:none;stroke:#d3af68;stroke-width:2.11666656;stroke-linecap:butt;stroke-linejoin:miter;stroke-miterlimit:4;stroke-dasharray:none;stroke-opacity:1"
           d="m 21.166677,222.91668 v 29.63333 h 4.233333"
           id="path1364"
           inkscape:connector-curvature="0"
           sodipodi:nodetypes="ccc" />
        <rect
           y="246.19997"
           x="50.800011"
           height="12.70001"
           width="93.133339"
           id="rect1366"
           style="opacity:1;fill:#c79a40;fill-opacity:1;stroke:none;stroke-width:0.07312695;stroke-linecap:round;stroke-linejoin:bevel;stroke-miterlimit:4;stroke-dasharray:none;stroke-dashoffset:0;stroke-opacity:1;paint-order:normal" />
        <rect
           style="opacity:1;fill:#d3af68;fill-opacity:1;stroke:none;stroke-width:0.03974866;stroke-linecap:round;stroke-linejoin:bevel;stroke-miterlimit:4;stroke-dasharray:none;stroke-dashoffset:0;stroke-opacity:1;paint-order:normal"
           id="rect1368"
           width="27.516661"
           height="12.699994"
           x="25.400013"
           y="246.19998" />
        <text
           id="text1372"
           y="256.26035"
           x="26.414936"
           style="font-style:normal;font-variant:normal;font-weight:normal;font-stretch:normal;font-size:10.58333302px;line-height:1.25;font-family:'Roboto Mono';-inkscape-font-specification:'Roboto Mono';letter-spacing:0px;word-spacing:0px;fill:#f9f9f9;fill-opacity:1;stroke:none;stroke-width:0.26458332"
           xml:space="preserve"><tspan
             style="fill:#f9f9f9;stroke-width:0.26458332"
             y="256.26035"
             x="26.414936"
             id="tspan1370"
             sodipodi:role="line">Name</tspan></text>
        <text
           id="text1376"
           y="256.17908"
           x="53.760551"
           style="font-style:normal;font-variant:normal;font-weight:normal;font-stretch:normal;font-size:10.58333302px;line-height:1.25;font-family:'Roboto Mono';-inkscape-font-specification:'Roboto Mono';letter-spacing:0px;word-spacing:0px;fill:#f9f9f9;fill-opacity:1;stroke:none;stroke-width:0.26458332"
           xml:space="preserve"><tspan
             style="fill:#f9f9f9;stroke-width:0.26458332"
             y="256.17908"
             x="53.760551"
             id="tspan1374"
             sodipodi:role="line">Worker Context</tspan></text>
        <rect
           y="261.01663"
           x="59.266666"
           height="12.70001"
           width="67.73333"
           id="rect1378"
           style="opacity:1;fill:#c79a40;fill-opacity:1;stroke:none;stroke-width:0.06236287;stroke-linecap:round;stroke-linejoin:bevel;stroke-miterlimit:4;stroke-dasharray:none;stroke-dashoffset:0;stroke-opacity:1;paint-order:normal" />
        <rect
           style="opacity:1;fill:#d3af68;fill-opacity:1;stroke:none;stroke-width:0.03974866;stroke-linecap:round;stroke-linejoin:bevel;stroke-miterlimit:4;stroke-dasharray:none;stroke-dashoffset:0;stroke-opacity:1;paint-order:normal"
           id="rect1380"
           width="27.516661"
           height="12.699994"
           x="33.866676"
           y="261.01666" />
        <text
           id="text1384"
           y="271.07706"
           x="34.881599"
           style="font-style:normal;font-variant:normal;font-weight:normal;font-stretch:normal;font-size:10.58333302px;line-height:1.25;font-family:'Roboto Mono';-inkscape-font-specification:'Roboto Mono';letter-spacing:0px;word-spacing:0px;fill:#f9f9f9;fill-opacity:1;stroke:none;stroke-width:0.26458332"
           xml:space="preserve"><tspan
             style="fill:#f9f9f9;stroke-width:0.26458332"
             y="271.07706"
             x="34.881599"
             id="tspan1382"
             sodipodi:role="line">Date</tspan></text>
        <text
           id="text1388"
           y="270.99576"
           x="62.227203"
           style="font-style:normal;font-variant:normal;font-weight:normal;font-stretch:normal;font-size:10.58333302px;line-height:1.25;font-family:'Roboto Mono';-inkscape-font-specification:'Roboto Mono';letter-spacing:0px;word-spacing:0px;fill:#f9f9f9;fill-opacity:1;stroke:none;stroke-width:0.26458332"
           xml:space="preserve"><tspan
             style="fill:#f9f9f9;stroke-width:0.26458332"
             y="270.99576"
             x="62.227203"
             id="tspan1386"
             sodipodi:role="line">2150-08-25</tspan></text>
        <path
           style="fill:none;stroke:#d3af68;stroke-width:2.11666656;stroke-linecap:butt;stroke-linejoin:miter;stroke-miterlimit:4;stroke-dasharray:none;stroke-opacity:1"
           d="m 29.633342,258.9 v 8.46667 l 4.233333,10e-6"
           id="path1390"
           inkscape:connector-curvature="0"
           sodipodi:nodetypes="ccc" />
        <path
           sodipodi:nodetypes="ccc"
           inkscape:connector-curvature="0"
           id="path1392"
           d="m 29.633342,267.36668 v 14.81666 h 4.233333"
           style="fill:none;stroke:#d3af68;stroke-width:2.11666656;stroke-linecap:butt;stroke-linejoin:miter;stroke-miterlimit:4;stroke-dasharray:none;stroke-opacity:1" />
        <rect
           y="275.83337"
           x="33.866684"
           height="12.699994"
           width="46.566658"
           id="rect1394"
           style="opacity:1;fill:#d3af68;fill-opacity:1;stroke:none;stroke-width:0.05170853;stroke-linecap:round;stroke-linejoin:bevel;stroke-miterlimit:4;stroke-dasharray:none;stroke-dashoffset:0;stroke-opacity:1;paint-order:normal" />
        <text
           xml:space="preserve"
           style="font-style:normal;font-variant:normal;font-weight:normal;font-stretch:normal;font-size:10.58333302px;line-height:1.25;font-family:'Roboto Mono';-inkscape-font-specification:'Roboto Mono';letter-spacing:0px;word-spacing:0px;fill:#f9f9f9;fill-opacity:1;stroke:none;stroke-width:0.26458332"
           x="34.881607"
           y="285.89374"
           id="text1398"><tspan
             sodipodi:role="line"
             id="tspan1396"
             x="34.881607"
             y="285.89374"
             style="fill:#f9f9f9;stroke-width:0.26458332">Primary</tspan></text>
        <rect
           style="opacity:1;fill:#c79a40;fill-opacity:1;stroke:none;stroke-width:0.07058997;stroke-linecap:round;stroke-linejoin:bevel;stroke-miterlimit:4;stroke-dasharray:none;stroke-dashoffset:0;stroke-opacity:1;paint-order:normal"
           id="rect1400"
           width="86.78334"
           height="12.70001"
           x="50.799999"
           y="186.9333" />
        <rect
           y="186.93332"
           x="25.4"
           height="12.699994"
           width="27.516661"
           id="rect1402"
           style="opacity:1;fill:#d3af68;fill-opacity:1;stroke:none;stroke-width:0.03974866;stroke-linecap:round;stroke-linejoin:bevel;stroke-miterlimit:4;stroke-dasharray:none;stroke-dashoffset:0;stroke-opacity:1;paint-order:normal" />
        <text
           xml:space="preserve"
           style="font-style:normal;font-variant:normal;font-weight:normal;font-stretch:normal;font-size:10.58333302px;line-height:1.25;font-family:'Roboto Mono';-inkscape-font-specification:'Roboto Mono';letter-spacing:0px;word-spacing:0px;fill:#f9f9f9;fill-opacity:1;stroke:none;stroke-width:0.26458332"
           x="26.414923"
           y="196.99368"
           id="text1406"><tspan
             sodipodi:role="line"
             id="tspan1404"
             x="26.414923"
             y="196.99368"
             style="fill:#f9f9f9;stroke-width:0.26458332">Type</tspan></text>
        <text
           xml:space="preserve"
           style="font-style:normal;font-variant:normal;font-weight:normal;font-stretch:normal;font-size:10.58333302px;line-height:1.25;font-family:'Roboto Mono';-inkscape-font-specification:'Roboto Mono';letter-spacing:0px;word-spacing:0px;fill:#f9f9f9;fill-opacity:1;stroke:none;stroke-width:0.26458332"
           x="53.76054"
           y="196.9124"
           id="text1410"><tspan
             sodipodi:role="line"
             id="tspan1408"
             x="53.76054"
             y="196.9124"
             style="fill:#f9f9f9;stroke-width:0.26458332">7ebd5432-841d</tspan></text>
        <path
           sodipodi:nodetypes="ccc"
           inkscape:connector-curvature="0"
           id="path1412"
           d="m 21.16666,184.81666 v 8.46667 h 4.233333"
           style="fill:none;stroke:#d3af68;stroke-width:2.11666656;stroke-linecap:butt;stroke-linejoin:miter;stroke-miterlimit:4;stroke-dasharray:none;stroke-opacity:1" />
        <path
           style="fill:none;stroke:#d3af68;stroke-width:2.11666656;stroke-linecap:butt;stroke-linejoin:miter;stroke-miterlimit:4;stroke-dasharray:none;stroke-opacity:1"
           d="m 114.3,178.46665 h 2.11667"
           id="path1414"
           inkscape:connector-curvature="0"
           sodipodi:nodetypes="cc" />
        <rect
           style="opacity:1;fill:#d3af68;fill-opacity:1;stroke:none;stroke-width:0.02700391;stroke-linecap:round;stroke-linejoin:bevel;stroke-miterlimit:4;stroke-dasharray:none;stroke-dashoffset:0;stroke-opacity:1;paint-order:normal"
           id="rect1416"
           width="12.70001"
           height="12.699994"
           x="116.41666"
           y="172.11665" />
        <rect
           y="176.34998"
           x="120.64999"
           height="4.2333369"
           width="4.2333422"
           id="rect1418"
           style="opacity:1;fill:#9a752d;fill-opacity:1;stroke:none;stroke-width:0.00900131;stroke-linecap:round;stroke-linejoin:bevel;stroke-miterlimit:4;stroke-dasharray:none;stroke-dashoffset:0;stroke-opacity:1;paint-order:normal" />
        <path
           style="opacity:1;fill:#9a752d;fill-opacity:1;stroke:none;stroke-width:0.00900131;stroke-linecap:round;stroke-linejoin:bevel;stroke-miterlimit:4;stroke-dasharray:none;stroke-dashoffset:0;stroke-opacity:1;paint-order:normal"
           d="m 116.41666,180.58331 c 0,0 4.23334,-0.0156 4.23334,4.23334 h -4.23334 z"
           id="path1420"
           inkscape:connector-curvature="0"
           sodipodi:nodetypes="cccc" />
        <path
           sodipodi:nodetypes="cccc"
           inkscape:connector-curvature="0"
           id="path1422"
           d="m 120.65001,172.11665 c 0,0 0.0156,4.23334 -4.23334,4.23334 v -4.23334 z"
           style="opacity:1;fill:#9a752d;fill-opacity:1;stroke:none;stroke-width:0.00900131;stroke-linecap:round;stroke-linejoin:bevel;stroke-miterlimit:4;stroke-dasharray:none;stroke-dashoffset:0;stroke-opacity:1;paint-order:normal" />
        <path
           style="opacity:1;fill:#9a752d;fill-opacity:1;stroke:none;stroke-width:0.00900131;stroke-linecap:round;stroke-linejoin:bevel;stroke-miterlimit:4;stroke-dasharray:none;stroke-dashoffset:0;stroke-opacity:1;paint-order:normal"
           d="m 129.11667,176.34999 c 0,0 -4.23334,0.0156 -4.23334,-4.23334 h 4.23334 z"
           id="path1424"
           inkscape:connector-curvature="0"
           sodipodi:nodetypes="cccc" />
        <path
           sodipodi:nodetypes="cccc"
           inkscape:connector-curvature="0"
           id="path1426"
           d="m 124.88333,184.81665 c 0,0 -0.0156,-4.23334 4.23334,-4.23334 v 4.23334 z"
           style="opacity:1;fill:#9a752d;fill-opacity:1;stroke:none;stroke-width:0.00900131;stroke-linecap:round;stroke-linejoin:bevel;stroke-miterlimit:4;stroke-dasharray:none;stroke-dashoffset:0;stroke-opacity:1;paint-order:normal" />
        <path
           style="opacity:1;fill:#7c5e24;fill-opacity:1;stroke:none;stroke-width:0.00900131;stroke-linecap:round;stroke-linejoin:bevel;stroke-miterlimit:4;stroke-dasharray:none;stroke-dashoffset:0;stroke-opacity:1;paint-order:normal"
           d="m 120.64999,176.34999 2.11668,-4.23334 2.11666,4.23334 z"
           id="path1428"
           inkscape:connector-curvature="0"
           sodipodi:nodetypes="cccc" />
        <path
           sodipodi:nodetypes="cccc"
           inkscape:connector-curvature="0"
           id="path1430"
           d="m 120.64999,180.58332 2.11668,4.23334 2.11666,-4.23334 z"
           style="opacity:1;fill:#7c5e24;fill-opacity:1;stroke:none;stroke-width:0.00900131;stroke-linecap:round;stroke-linejoin:bevel;stroke-miterlimit:4;stroke-dasharray:none;stroke-dashoffset:0;stroke-opacity:1;paint-order:normal" />
        <path
           style="opacity:1;fill:#7c5e24;fill-opacity:1;stroke:none;stroke-width:0.00900131;stroke-linecap:round;stroke-linejoin:bevel;stroke-miterlimit:4;stroke-dasharray:none;stroke-dashoffset:0;stroke-opacity:1;paint-order:normal"
           d="m 129.11667,180.58332 -4.23334,-2.11668 4.23334,-2.11666 z"
           id="path1432"
           inkscape:connector-curvature="0"
           sodipodi:nodetypes="cccc" />
        <path
           sodipodi:nodetypes="cccc"
           inkscape:connector-curvature="0"
           id="path1434"
           d="m 116.41666,180.58332 4.23334,-2.11668 -4.23334,-2.11666 z"
           style="opacity:1;fill:#7c5e24;fill-opacity:1;stroke:none;stroke-width:0.00900131;stroke-linecap:round;stroke-linejoin:bevel;stroke-miterlimit:4;stroke-dasharray:none;stroke-dashoffset:0;stroke-opacity:1;paint-order:normal" />
        <path
           sodipodi:nodetypes="cc"
           inkscape:connector-curvature="0"
           id="path1436"
           d="m 137.58334,193.28332 h 2.11667"
           style="fill:none;stroke:#d3af68;stroke-width:2.11666656;stroke-linecap:butt;stroke-linejoin:miter;stroke-miterlimit:4;stroke-dasharray:none;stroke-opacity:1" />
        <rect
           y="186.93332"
           x="139.7"
           height="12.699994"
           width="12.70001"
           id="rect1438"
           style="opacity:1;fill:#d3af68;fill-opacity:1;stroke:none;stroke-width:0.02700391;stroke-linecap:round;stroke-linejoin:bevel;stroke-miterlimit:4;stroke-dasharray:none;stroke-dashoffset:0;stroke-opacity:1;paint-order:normal" />
        <circle
           style="opacity:1;fill:#7c5e24;fill-opacity:1;stroke:none;stroke-width:2.11666656;stroke-linecap:round;stroke-linejoin:bevel;stroke-miterlimit:4;stroke-dasharray:none;stroke-dashoffset:0;stroke-opacity:1;paint-order:normal"
           id="circle1440"
           cx="146.05"
           cy="193.28333"
           r="2.1166666" />
        <path
           style="opacity:1;fill:#9a752d;fill-opacity:1;stroke:none;stroke-width:0.00900131;stroke-linecap:round;stroke-linejoin:bevel;stroke-miterlimit:4;stroke-dasharray:none;stroke-dashoffset:0;stroke-opacity:1;paint-order:normal"
           d="m 141.81667,195.39999 h 2.11666 l -2.11666,4.23333 h -2.11669 z"
           id="path1442"
           inkscape:connector-curvature="0"
           sodipodi:nodetypes="ccccc" />
        <path
           sodipodi:nodetypes="ccccc"
           inkscape:connector-curvature="0"
           id="path1444"
           d="m 150.2833,195.39999 h -2.11666 l 2.11666,4.23333 h 2.11669 z"
           style="opacity:1;fill:#9a752d;fill-opacity:1;stroke:none;stroke-width:0.00900131;stroke-linecap:round;stroke-linejoin:bevel;stroke-miterlimit:4;stroke-dasharray:none;stroke-dashoffset:0;stroke-opacity:1;paint-order:normal" />
        <path
           style="opacity:1;fill:#9a752d;fill-opacity:1;stroke:none;stroke-width:0.00900131;stroke-linecap:round;stroke-linejoin:bevel;stroke-miterlimit:4;stroke-dasharray:none;stroke-dashoffset:0;stroke-opacity:1;paint-order:normal"
           d="m 141.81664,186.93332 h -2.11666 l 2.11666,4.23333 h 2.11669 z"
           id="path1446"
           inkscape:connector-curvature="0"
           sodipodi:nodetypes="ccccc" />
        <path
           style="opacity:1;fill:#9a752d;fill-opacity:1;stroke:none;stroke-width:0.00900131;stroke-linecap:round;stroke-linejoin:bevel;stroke-miterlimit:4;stroke-dasharray:none;stroke-dashoffset:0;stroke-opacity:1;paint-order:normal"
           d="m 150.28333,191.16665 h -2.11666 l 2.11666,-4.23333 h 2.11669 z"
           id="path1448"
           inkscape:connector-curvature="0"
           sodipodi:nodetypes="ccccc" />
        <path
           style="opacity:1;fill:#7c5e24;fill-opacity:1;stroke:none;stroke-width:0.00900131;stroke-linecap:round;stroke-linejoin:bevel;stroke-miterlimit:4;stroke-dasharray:none;stroke-dashoffset:0;stroke-opacity:1;paint-order:normal"
           d="m 139.69999,195.4 2.11668,-4.23335 -2.11668,1e-5 z"
           id="path1450"
           inkscape:connector-curvature="0"
           sodipodi:nodetypes="cccc" />
        <path
           sodipodi:nodetypes="cccc"
           inkscape:connector-curvature="0"
           id="path1452"
           d="m 152.4,191.16664 -2.11668,4.23335 2.11668,-1e-5 z"
           style="opacity:1;fill:#7c5e24;fill-opacity:1;stroke:none;stroke-width:0.00900131;stroke-linecap:round;stroke-linejoin:bevel;stroke-miterlimit:4;stroke-dasharray:none;stroke-dashoffset:0;stroke-opacity:1;paint-order:normal" />
        <path
           style="opacity:1;fill:#7c5e24;fill-opacity:1;stroke:none;stroke-width:0.00900131;stroke-linecap:round;stroke-linejoin:bevel;stroke-miterlimit:4;stroke-dasharray:none;stroke-dashoffset:0;stroke-opacity:1;paint-order:normal"
           d="m 148.16667,199.63332 -4.23335,-2.11668 1e-5,2.11668 z"
           id="path1454"
           inkscape:connector-curvature="0"
           sodipodi:nodetypes="cccc" />
        <path
           sodipodi:nodetypes="cccc"
           inkscape:connector-curvature="0"
           id="path1456"
           d="m 143.93333,186.93332 4.23335,2.11669 -1e-5,-2.11669 z"
           style="opacity:1;fill:#7c5e24;fill-opacity:1;stroke:none;stroke-width:0.00900131;stroke-linecap:round;stroke-linejoin:bevel;stroke-miterlimit:4;stroke-dasharray:none;stroke-dashoffset:0;stroke-opacity:1;paint-order:normal" />
        <path
           style="opacity:1;fill:#7c5e24;fill-opacity:1;stroke:none;stroke-width:0.00900131;stroke-linecap:round;stroke-linejoin:bevel;stroke-miterlimit:4;stroke-dasharray:none;stroke-dashoffset:0;stroke-opacity:1;paint-order:normal"
           d="m 148.16666,195.4 2.11668,-4.23335 -2.11668,1e-5 z"
           id="path1458"
           inkscape:connector-curvature="0"
           sodipodi:nodetypes="cccc" />
        <path
           sodipodi:nodetypes="cccc"
           inkscape:connector-curvature="0"
           id="path1460"
           d="m 143.93336,191.16664 -2.11668,4.23335 2.11668,-2e-5 z"
           style="opacity:1;fill:#7c5e24;fill-opacity:1;stroke:none;stroke-width:0.00900131;stroke-linecap:round;stroke-linejoin:bevel;stroke-miterlimit:4;stroke-dasharray:none;stroke-dashoffset:0;stroke-opacity:1;paint-order:normal" />
        <path
           sodipodi:nodetypes="cccc"
           inkscape:connector-curvature="0"
           id="path1462"
           d="m 143.93333,195.39999 4.23335,2.11669 -1e-5,-2.11669 z"
           style="opacity:1;fill:#7c5e24;fill-opacity:1;stroke:none;stroke-width:0.00900131;stroke-linecap:round;stroke-linejoin:bevel;stroke-miterlimit:4;stroke-dasharray:none;stroke-dashoffset:0;stroke-opacity:1;paint-order:normal" />
        <path
           style="opacity:1;fill:#7c5e24;fill-opacity:1;stroke:none;stroke-width:0.00900131;stroke-linecap:round;stroke-linejoin:bevel;stroke-miterlimit:4;stroke-dasharray:none;stroke-dashoffset:0;stroke-opacity:1;paint-order:normal"
           d="m 148.16667,191.16665 -4.23335,-2.11669 1e-5,2.11669 z"
           id="path1464"
           inkscape:connector-curvature="0"
           sodipodi:nodetypes="cccc" />
      </g>
    </g>
  </g>
</svg>
