<?xml version="1.0" encoding="UTF-8" standalone="no"?>
<!-- Created with Inkscape (http://www.inkscape.org/) -->

<svg
   xmlns:dc="http://purl.org/dc/elements/1.1/"
   xmlns:cc="http://creativecommons.org/ns#"
   xmlns:rdf="http://www.w3.org/1999/02/22-rdf-syntax-ns#"
   xmlns:svg="http://www.w3.org/2000/svg"
   xmlns="http://www.w3.org/2000/svg"
   xmlns:sodipodi="http://sodipodi.sourceforge.net/DTD/sodipodi-0.dtd"
   xmlns:inkscape="http://www.inkscape.org/namespaces/inkscape"
   width="512"
   height="512"
   viewBox="0 0 135.46666 135.46667"
   version="1.1"
   id="svg8"
   inkscape:version="0.92.2 (5c3e80d, 2017-08-06)"
   sodipodi:docname="Ultil_VersionControlTree_1_release.svg"
   inkscape:export-filename="A:/icon.png"
   inkscape:export-xdpi="96.000008"
   inkscape:export-ydpi="96.000008">
  <defs
     id="defs2">
    <marker
       inkscape:stockid="DotM"
       orient="auto"
       refY="0.0"
       refX="0.0"
       id="DotM"
       style="overflow:visible"
       inkscape:isstock="true">
      <path
         id="path4613"
         d="M -2.5,-1.0 C -2.5,1.7600000 -4.7400000,4.0 -7.5,4.0 C -10.260000,4.0 -12.5,1.7600000 -12.5,-1.0 C -12.5,-3.7600000 -10.260000,-6.0 -7.5,-6.0 C -4.7400000,-6.0 -2.5,-3.7600000 -2.5,-1.0 z "
         style="fill-rule:evenodd;stroke:#d3af68;stroke-width:1pt;stroke-opacity:1;fill:#d3af68;fill-opacity:1"
         transform="scale(0.4) translate(7.4, 1)" />
    </marker>
    <marker
       inkscape:stockid="Arrow1Lend"
       orient="auto"
       refY="0.0"
       refX="0.0"
       id="Arrow1Lend"
       style="overflow:visible;"
       inkscape:isstock="true">
      <path
         id="path4552"
         d="M 0.0,0.0 L 5.0,-5.0 L -12.5,0.0 L 5.0,5.0 L 0.0,0.0 z "
         style="fill-rule:evenodd;stroke:#d3af68;stroke-width:1pt;stroke-opacity:1;fill:#d3af68;fill-opacity:1"
         transform="scale(0.8) rotate(180) translate(12.5,0)" />
    </marker>
  </defs>
  <sodipodi:namedview
     id="base"
     pagecolor="#ffffff"
     bordercolor="#666666"
     borderopacity="1.0"
     inkscape:pageopacity="0.0"
     inkscape:pageshadow="2"
     inkscape:zoom="1.2291504"
     inkscape:cx="200.66707"
     inkscape:cy="308.70817"
     inkscape:document-units="mm"
     inkscape:current-layer="layer2"
     showgrid="true"
     units="px"
     inkscape:window-width="1802"
     inkscape:window-height="1057"
     inkscape:window-x="110"
     inkscape:window-y="-8"
     inkscape:window-maximized="1"
     inkscape:snap-center="false"
     inkscape:snap-text-baseline="false"
     showguides="false"
     inkscape:snap-grids="false"
     inkscape:snap-object-midpoints="true"
     inkscape:measure-start="0,0"
     inkscape:measure-end="0,0"
     inkscape:snap-others="true">
    <inkscape:grid
       type="xygrid"
       id="grid815"
       empspacing="2"
       enabled="true" />
    <inkscape:grid
       type="axonomgrid"
       id="grid838"
       units="mm"
       empspacing="5"
       enabled="false" />
  </sodipodi:namedview>
  <metadata
     id="metadata5">
    <rdf:RDF>
      <cc:Work
         rdf:about="">
        <dc:format>image/svg+xml</dc:format>
        <dc:type
           rdf:resource="http://purl.org/dc/dcmitype/StillImage" />
        <dc:title></dc:title>
      </cc:Work>
    </rdf:RDF>
  </metadata>
  <g
     inkscape:groupmode="layer"
     id="layer2"
     inkscape:label="graphic"
     style="display:inline;opacity:0.9">
    <g
       id="g1073"
       style="display:inline"
       transform="matrix(1,0,0.26794919,1,-18.217218,0)">
      <path
         id="path1043"
         d="M 67.203132,4.7418322 A 4.2333338,4.2333341 0 0 0 62.969799,8.9751655 4.2333338,4.2333341 0 0 0 66.675,13.170258 v 4.779037 a 4.2333338,4.2333341 0 0 0 -3.666445,3.666443 H 58.69926 a 4.2333338,4.2333341 0 0 0 -4.196128,-3.70365 4.2333338,4.2333341 0 0 0 -4.233333,4.233333 4.2333338,4.2333341 0 0 0 4.233333,4.233333 4.2333338,4.2333341 0 0 0 4.194577,-3.704166 h 4.309296 A 4.2333338,4.2333341 0 0 0 66.675,26.340513 v 4.779036 a 4.2333338,4.2333341 0 0 0 -3.666961,3.667993 H 58.69926 a 4.2333338,4.2333341 0 0 0 -4.196128,-3.705198 4.2333338,4.2333341 0 0 0 -4.195093,3.705198 H 45.99926 a 4.2333338,4.2333341 0 0 0 -4.196128,-3.705198 4.2333338,4.2333341 0 0 0 -4.233333,4.233333 4.2333338,4.2333341 0 0 0 4.233333,4.233333 4.2333338,4.2333341 0 0 0 4.195094,-3.704685 h 4.308779 a 4.2333338,4.2333341 0 0 0 4.196127,3.704685 4.2333338,4.2333341 0 0 0 4.195093,-3.704685 h 4.30878 A 4.2333338,4.2333341 0 0 0 66.675,39.51077 v 4.779552 a 4.2333338,4.2333341 0 0 0 -3.666961,3.667477 H 58.69926 a 4.2333338,4.2333341 0 0 0 -4.196128,-3.704685 4.2333338,4.2333341 0 0 0 -4.195093,3.704685 H 45.99926 a 4.2333338,4.2333341 0 0 0 -4.196128,-3.704685 4.2333338,4.2333341 0 0 0 -4.195093,3.704685 H 33.29926 a 4.2333338,4.2333341 0 0 0 -4.196127,-3.704685 4.2333338,4.2333341 0 0 0 -4.233334,4.233333 4.2333338,4.2333341 0 0 0 4.233334,4.233333 4.2333338,4.2333341 0 0 0 4.194577,-3.703648 h 4.309295 a 4.2333338,4.2333341 0 0 0 4.196127,3.703648 4.2333338,4.2333341 0 0 0 4.194578,-3.703648 h 4.309295 a 4.2333338,4.2333341 0 0 0 4.196127,3.703648 4.2333338,4.2333341 0 0 0 4.194577,-3.703648 h 4.309296 A 4.2333338,4.2333341 0 0 0 66.675,52.681024 v 4.779553 a 4.2333338,4.2333341 0 0 0 -3.666445,3.666961 H 58.69926 a 4.2333338,4.2333341 0 0 0 -4.196128,-3.704167 4.2333338,4.2333341 0 0 0 -4.194577,3.704167 H 45.99926 a 4.2333338,4.2333341 0 0 0 -4.196128,-3.704167 4.2333338,4.2333341 0 0 0 -4.233333,4.233333 4.2333338,4.2333341 0 0 0 4.233333,4.233333 4.2333338,4.2333341 0 0 0 4.194578,-3.704166 h 4.309295 a 4.2333338,4.2333341 0 0 0 4.196127,3.704166 4.2333338,4.2333341 0 0 0 4.194577,-3.704166 h 4.309296 A 4.2333338,4.2333341 0 0 0 66.675,65.851797 v 4.779037 a 4.2333338,4.2333341 0 0 0 -3.666445,3.666442 H 58.69926 a 4.2333338,4.2333341 0 0 0 -4.196128,-3.703651 4.2333338,4.2333341 0 0 0 -4.194577,3.703651 H 45.99926 a 4.2333338,4.2333341 0 0 0 -4.196128,-3.703651 4.2333338,4.2333341 0 0 0 -4.194577,3.703651 H 33.29926 a 4.2333338,4.2333341 0 0 0 -4.196127,-3.703651 4.2333338,4.2333341 0 0 0 -4.233334,4.233334 4.2333338,4.2333341 0 0 0 4.233334,4.233333 4.2333338,4.2333341 0 0 0 4.194577,-3.704167 h 4.309295 a 4.2333338,4.2333341 0 0 0 4.196127,3.704167 4.2333338,4.2333341 0 0 0 4.194578,-3.704167 h 4.309295 a 4.2333338,4.2333341 0 0 0 4.196127,3.704167 4.2333338,4.2333341 0 0 0 4.194577,-3.704167 h 4.309296 A 4.2333338,4.2333341 0 0 0 66.675,79.022052 v 4.779036 A 4.2333338,4.2333341 0 0 0 63.008555,87.46753 H 58.69926 A 4.2333338,4.2333341 0 0 0 54.503132,83.763882 4.2333338,4.2333341 0 0 0 50.308555,87.46753 H 45.99926 A 4.2333338,4.2333341 0 0 0 41.803132,83.763882 4.2333338,4.2333341 0 0 0 37.608555,87.46753 H 33.29926 a 4.2333338,4.2333341 0 0 0 -4.196127,-3.703648 4.2333338,4.2333341 0 0 0 -4.194576,3.703648 h -4.309298 a 4.2333338,4.2333341 0 0 0 -4.196126,-3.703648 4.2333338,4.2333341 0 0 0 -4.233334,4.233334 4.2333338,4.2333341 0 0 0 4.233334,4.233333 4.2333338,4.2333341 0 0 0 4.195093,-3.704685 h 4.30878 a 4.2333338,4.2333341 0 0 0 4.196127,3.704685 4.2333338,4.2333341 0 0 0 4.195093,-3.704685 h 4.308779 a 4.2333338,4.2333341 0 0 0 4.196127,3.704685 4.2333338,4.2333341 0 0 0 4.195094,-3.704685 h 4.308779 a 4.2333338,4.2333341 0 0 0 4.196127,3.704685 4.2333338,4.2333341 0 0 0 4.195093,-3.704685 h 4.30878 A 4.2333338,4.2333341 0 0 0 66.675,92.192306 v 4.779036 a 4.2333338,4.2333341 0 0 0 -3.705201,4.196648 4.2333338,4.2333341 0 0 0 3.705201,4.19457 v 4.77956 a 4.2333338,4.2333341 0 0 0 -3.705201,4.19612 4.2333338,4.2333341 0 0 0 3.705201,4.19509 v 4.77904 a 4.2333338,4.2333341 0 0 0 -3.705201,4.19613 4.2333338,4.2333341 0 0 0 4.233333,4.23333 4.2333338,4.2333341 0 0 0 4.233333,-4.23333 4.2333338,4.2333341 0 0 0 -3.705201,-4.1951 v -4.77903 a 4.2333338,4.2333341 0 0 0 3.705201,-4.19613 4.2333338,4.2333341 0 0 0 -3.705201,-4.19509 v -4.77904 a 4.2333338,4.2333341 0 0 0 3.705201,-4.19612 4.2333338,4.2333341 0 0 0 -3.705201,-4.195097 v -4.779552 a 4.2333338,4.2333341 0 0 0 3.666961,-3.667477 h 4.308779 a 4.2333338,4.2333341 0 0 0 4.196128,3.704685 4.2333338,4.2333341 0 0 0 4.195093,-3.704685 h 4.308779 a 4.2333338,4.2333341 0 0 0 4.196128,3.704685 4.2333338,4.2333341 0 0 0 4.195093,-3.704685 H 101.107 a 4.2333338,4.2333341 0 0 0 4.19613,3.704685 4.2333338,4.2333341 0 0 0 4.19509,-3.704685 h 4.30878 a 4.2333338,4.2333341 0 0 0 4.19613,3.704685 4.2333338,4.2333341 0 0 0 4.23333,-4.233333 4.2333338,4.2333341 0 0 0 -4.23333,-4.233334 4.2333338,4.2333341 0 0 0 -4.19458,3.703648 h -4.30929 a 4.2333338,4.2333341 0 0 0 -4.19613,-3.703648 4.2333338,4.2333341 0 0 0 -4.19458,3.703648 H 96.799259 A 4.2333338,4.2333341 0 0 0 92.603132,83.763882 4.2333338,4.2333341 0 0 0 88.408555,87.46753 H 84.09926 A 4.2333338,4.2333341 0 0 0 79.903132,83.763882 4.2333338,4.2333341 0 0 0 75.708555,87.46753 H 71.39926 a 4.2333338,4.2333341 0 0 0 -3.667996,-3.664892 v -4.779552 a 4.2333338,4.2333341 0 0 0 3.666445,-3.666961 h 4.309295 a 4.2333338,4.2333341 0 0 0 4.196128,3.704167 4.2333338,4.2333341 0 0 0 4.194577,-3.704167 h 4.309295 a 4.2333338,4.2333341 0 0 0 4.196128,3.704167 4.2333338,4.2333341 0 0 0 4.194577,-3.704167 H 101.107 a 4.2333338,4.2333341 0 0 0 4.19613,3.704167 4.2333338,4.2333341 0 0 0 4.23333,-4.233333 4.2333338,4.2333341 0 0 0 -4.23333,-4.233334 4.2333338,4.2333341 0 0 0 -4.19458,3.703651 h -4.309291 a 4.2333338,4.2333341 0 0 0 -4.196127,-3.703651 4.2333338,4.2333341 0 0 0 -4.194577,3.703651 H 84.09926 a 4.2333338,4.2333341 0 0 0 -4.196128,-3.703651 4.2333338,4.2333341 0 0 0 -4.194577,3.703651 H 71.39926 a 4.2333338,4.2333341 0 0 0 -3.667996,-3.66541 v -4.779037 a 4.2333338,4.2333341 0 0 0 3.666445,-3.666958 h 4.309295 a 4.2333338,4.2333341 0 0 0 4.196128,3.704166 4.2333338,4.2333341 0 0 0 4.194577,-3.704166 h 4.309295 a 4.2333338,4.2333341 0 0 0 4.196128,3.704166 4.2333338,4.2333341 0 0 0 4.233333,-4.233333 4.2333338,4.2333341 0 0 0 -4.233333,-4.233333 4.2333338,4.2333341 0 0 0 -4.194577,3.704167 H 84.09926 a 4.2333338,4.2333341 0 0 0 -4.196128,-3.704167 4.2333338,4.2333341 0 0 0 -4.194577,3.704167 H 71.39926 a 4.2333338,4.2333341 0 0 0 -3.667996,-3.665927 v -4.779036 a 4.2333338,4.2333341 0 0 0 3.666445,-3.666443 h 4.309295 a 4.2333338,4.2333341 0 0 0 4.196128,3.703648 4.2333338,4.2333341 0 0 0 4.194577,-3.703648 h 4.309295 a 4.2333338,4.2333341 0 0 0 4.196128,3.703648 4.2333338,4.2333341 0 0 0 4.194577,-3.703648 H 101.107 a 4.2333338,4.2333341 0 0 0 4.19613,3.703648 4.2333338,4.2333341 0 0 0 4.23333,-4.233333 4.2333338,4.2333341 0 0 0 -4.23333,-4.233333 4.2333338,4.2333341 0 0 0 -4.19509,3.704685 h -4.308781 a 4.2333338,4.2333341 0 0 0 -4.196127,-3.704685 4.2333338,4.2333341 0 0 0 -4.195093,3.704685 H 84.09926 a 4.2333338,4.2333341 0 0 0 -4.196128,-3.704685 4.2333338,4.2333341 0 0 0 -4.195093,3.704685 H 71.39926 A 4.2333338,4.2333341 0 0 0 67.731264,44.291357 V 39.51232 a 4.2333338,4.2333341 0 0 0 3.666961,-3.667995 h 4.308779 a 4.2333338,4.2333341 0 0 0 4.196128,3.704685 4.2333338,4.2333341 0 0 0 4.195093,-3.704685 h 4.308779 a 4.2333338,4.2333341 0 0 0 4.196128,3.704685 4.2333338,4.2333341 0 0 0 4.233333,-4.233333 4.2333338,4.2333341 0 0 0 -4.233333,-4.233333 4.2333338,4.2333341 0 0 0 -4.195093,3.705198 H 84.09926 a 4.2333338,4.2333341 0 0 0 -4.196128,-3.705198 4.2333338,4.2333341 0 0 0 -4.195093,3.705198 H 71.39926 A 4.2333338,4.2333341 0 0 0 67.731264,31.1211 v -4.779553 a 4.2333338,4.2333341 0 0 0 3.666445,-3.666959 h 4.309295 a 4.2333338,4.2333341 0 0 0 4.196128,3.704166 4.2333338,4.2333341 0 0 0 4.233333,-4.233333 4.2333338,4.2333341 0 0 0 -4.233333,-4.233333 4.2333338,4.2333341 0 0 0 -4.194577,3.70365 H 71.39926 a 4.2333338,4.2333341 0 0 0 -3.667996,-3.66541 V 13.171292 A 4.2333338,4.2333341 0 0 0 71.436465,8.9751655 4.2333338,4.2333341 0 0 0 67.203132,4.7418322 Z m 0,1.2516032 a 2.9818314,2.9818316 0 0 1 2.98173,2.9817301 2.9818314,2.9818316 0 0 1 -2.453598,2.9336715 V 10.97401 A 2.0685726,2.0685728 0 0 0 69.27174,8.9751655 2.0685726,2.0685728 0 0 0 67.203132,6.906558 2.0685726,2.0685728 0 0 0 65.134524,8.9751655 2.0685726,2.0685728 0 0 0 66.675,10.97246 v 0.934826 a 2.9818314,2.9818316 0 0 1 -2.453598,-2.9321205 2.9818314,2.9818316 0 0 1 2.98173,-2.9817301 z m -12.7,13.1702556 a 2.9818314,2.9818316 0 0 1 2.933155,2.452047 h -0.934828 a 2.0685726,2.0685728 0 0 0 -1.998327,-1.538925 2.0685726,2.0685728 0 0 0 -2.068607,2.068608 2.0685726,2.0685728 0 0 0 2.068607,2.068607 2.0685726,2.0685728 0 0 0 1.997295,-1.53944 h 0.934826 a 2.9818314,2.9818316 0 0 1 -2.932121,2.452563 2.9818314,2.9818316 0 0 1 -2.981729,-2.98173 2.9818314,2.9818316 0 0 1 2.981729,-2.98173 z m 25.4,0 a 2.9818314,2.9818316 0 0 1 2.98173,2.98173 2.9818314,2.9818316 0 0 1 -2.98173,2.98173 2.9818314,2.9818316 0 0 1 -2.933155,-2.452563 h 0.93431 a 2.0685726,2.0685728 0 0 0 1.998845,1.53944 2.0685726,2.0685728 0 0 0 2.068608,-2.068607 2.0685726,2.0685728 0 0 0 -2.068608,-2.068608 2.0685726,2.0685728 0 0 0 -1.996779,1.538925 h -0.934825 a 2.9818314,2.9818316 0 0 1 2.931604,-2.452047 z M 66.675,19.21175 v 0.934826 a 2.0685726,2.0685728 0 0 0 -1.468647,1.469162 H 64.271528 A 2.9818314,2.9818316 0 0 1 66.675,19.21175 Z m 1.056264,0.0016 a 2.9818314,2.9818316 0 0 1 2.405023,2.402437 h -0.934828 a 2.0685726,2.0685728 0 0 0 -1.470195,-1.46761 z m -3.461287,3.461287 h 0.93431 A 2.0685726,2.0685728 0 0 0 66.675,24.142726 v 0.934826 a 2.9818314,2.9818316 0 0 1 -2.405023,-2.402954 z m 4.93045,0 h 0.934826 a 2.9818314,2.9818316 0 0 1 -2.403989,2.404505 v -0.934827 a 2.0685726,2.0685728 0 0 0 1.469163,-1.469678 z m -27.397295,9.659349 a 2.9818314,2.9818316 0 0 1 2.933671,2.453595 h -0.934826 a 2.0685726,2.0685728 0 0 0 -1.998845,-1.539957 2.0685726,2.0685728 0 0 0 -2.068607,2.068092 2.0685726,2.0685728 0 0 0 2.068607,2.068608 2.0685726,2.0685728 0 0 0 1.997295,-1.53996 h 0.934826 a 2.9818314,2.9818316 0 0 1 -2.932121,2.453598 2.9818314,2.9818316 0 0 1 -2.981729,-2.982246 2.9818314,2.9818316 0 0 1 2.981729,-2.98173 z m 12.7,0 a 2.9818314,2.9818316 0 0 1 2.933671,2.453595 h -0.934826 a 2.0685726,2.0685728 0 0 0 -1.998845,-1.539957 2.0685726,2.0685728 0 0 0 -1.997294,1.539957 h -0.934826 a 2.9818314,2.9818316 0 0 1 2.93212,-2.453595 z m 25.4,0 a 2.9818314,2.9818316 0 0 1 2.933671,2.453595 h -0.934826 a 2.0685726,2.0685728 0 0 0 -1.998845,-1.539957 2.0685726,2.0685728 0 0 0 -1.997295,1.539957 h -0.934825 a 2.9818314,2.9818316 0 0 1 2.93212,-2.453595 z m 12.7,0 a 2.9818314,2.9818316 0 0 1 2.98173,2.98173 2.9818314,2.9818316 0 0 1 -2.98173,2.982246 2.9818314,2.9818316 0 0 1 -2.933671,-2.453598 h 0.934826 a 2.0685726,2.0685728 0 0 0 1.998845,1.53996 2.0685726,2.0685728 0 0 0 2.068608,-2.068608 2.0685726,2.0685728 0 0 0 -2.068608,-2.068092 2.0685726,2.0685728 0 0 0 -1.997295,1.539957 h -0.934826 a 2.9818314,2.9818316 0 0 1 2.932121,-2.453595 z M 66.675,32.382006 v 0.934826 a 2.0685726,2.0685728 0 0 0 -1.469162,1.47071 H 64.271012 A 2.9818314,2.9818316 0 0 1 66.675,32.382006 Z m 1.056264,0.0016 a 2.9818314,2.9818316 0 0 1 2.405539,2.403985 h -0.934826 a 2.0685726,2.0685728 0 0 0 -1.470713,-1.46916 z m -16.161803,3.460768 h 0.934826 a 2.0685726,2.0685728 0 0 0 1.998845,1.53996 2.0685726,2.0685728 0 0 0 1.997295,-1.53996 h 0.934826 a 2.9818314,2.9818316 0 0 1 -2.932121,2.453561 2.9818314,2.9818316 0 0 1 -2.933671,-2.453598 z m 12.7,0 h 0.934826 a 2.0685726,2.0685728 0 0 0 1.470713,1.46915 v 0.934826 a 2.9818314,2.9818316 0 0 1 -2.405539,-2.403988 z m 4.930966,0 h 0.934826 a 2.9818314,2.9818316 0 0 1 -2.403989,2.405539 v -0.934826 a 2.0685726,2.0685728 0 0 0 1.469163,-1.470713 z m 7.769034,0 h 0.934826 a 2.0685726,2.0685728 0 0 0 1.998845,1.53996 2.0685726,2.0685728 0 0 0 1.997295,-1.53996 h 0.934825 a 2.9818314,2.9818316 0 0 1 -2.93212,2.453561 2.9818314,2.9818316 0 0 1 -2.933671,-2.453598 z m -47.866328,9.659839 a 2.9818314,2.9818316 0 0 1 2.93367,2.453598 h -0.934825 a 2.0685726,2.0685728 0 0 0 -1.998845,-1.53996 2.0685726,2.0685728 0 0 0 -2.068608,2.068608 2.0685726,2.0685728 0 0 0 2.068608,2.068608 2.0685726,2.0685728 0 0 0 1.996778,-1.538923 h 0.934826 a 2.9818314,2.9818316 0 0 1 -2.931604,2.452048 2.9818314,2.9818316 0 0 1 -2.98173,-2.981733 2.9818314,2.9818316 0 0 1 2.98173,-2.982246 z m 12.699999,0 a 2.9818314,2.9818316 0 0 1 2.933671,2.453598 h -0.934826 a 2.0685726,2.0685728 0 0 0 -1.998845,-1.53996 2.0685726,2.0685728 0 0 0 -1.997294,1.53996 h -0.934826 a 2.9818314,2.9818316 0 0 1 2.93212,-2.453598 z m 12.7,0 a 2.9818314,2.9818316 0 0 1 2.933671,2.453598 h -0.934826 a 2.0685726,2.0685728 0 0 0 -1.998845,-1.53996 2.0685726,2.0685728 0 0 0 -1.997294,1.53996 h -0.934826 a 2.9818314,2.9818316 0 0 1 2.93212,-2.453598 z m 25.4,0 a 2.9818314,2.9818316 0 0 1 2.933671,2.453598 h -0.934826 a 2.0685726,2.0685728 0 0 0 -1.998845,-1.53996 2.0685726,2.0685728 0 0 0 -1.997295,1.53996 h -0.934825 a 2.9818314,2.9818316 0 0 1 2.93212,-2.453598 z m 12.7,0 a 2.9818314,2.9818316 0 0 1 2.933671,2.453598 h -0.934826 a 2.0685726,2.0685728 0 0 0 -1.998845,-1.53996 2.0685726,2.0685728 0 0 0 -1.997295,1.53996 h -0.934826 a 2.9818314,2.9818316 0 0 1 2.932121,-2.453598 z m 12.699998,0 a 2.9818314,2.9818316 0 0 1 2.98173,2.982246 2.9818314,2.9818316 0 0 1 -2.98173,2.981733 2.9818314,2.9818316 0 0 1 -2.93315,-2.452048 h 0.93483 a 2.0685726,2.0685728 0 0 0 1.99832,1.538923 2.0685726,2.0685728 0 0 0 2.06861,-2.068608 2.0685726,2.0685728 0 0 0 -2.06861,-2.068608 2.0685726,2.0685728 0 0 0 -1.99729,1.53996 h -0.93483 a 2.9818314,2.9818316 0 0 1 2.93212,-2.453598 z M 66.675,45.55226 v 0.935345 a 2.0685726,2.0685728 0 0 0 -1.469162,1.470194 H 64.271012 A 2.9818314,2.9818316 0 0 1 66.675,45.55226 Z m 1.056264,0.0016 a 2.9818314,2.9818316 0 0 1 2.405539,2.403988 h -0.934826 a 2.0685726,2.0685728 0 0 0 -1.470713,-1.468644 z m -28.861286,3.462321 h 0.934828 a 2.0685726,2.0685728 0 0 0 1.998326,1.538923 2.0685726,2.0685728 0 0 0 1.996779,-1.538923 h 0.934826 a 2.9818314,2.9818316 0 0 1 -2.931605,2.452011 2.9818314,2.9818316 0 0 1 -2.933154,-2.452048 z m 12.699999,0 h 0.934829 a 2.0685726,2.0685728 0 0 0 1.998326,1.538923 2.0685726,2.0685728 0 0 0 1.996779,-1.538923 h 0.934826 a 2.9818314,2.9818316 0 0 1 -2.931605,2.452011 2.9818314,2.9818316 0 0 1 -2.933155,-2.452048 z m 12.7,0 h 0.934829 a 2.0685726,2.0685728 0 0 0 1.470194,1.46761 v 0.934828 a 2.9818314,2.9818316 0 0 1 -2.405023,-2.402438 z m 4.929934,0 h 0.934826 a 2.9818314,2.9818316 0 0 1 -2.403473,2.403989 v -0.934829 a 2.0685726,2.0685728 0 0 0 1.468647,-1.46916 z m 7.770066,0 h 0.934829 a 2.0685726,2.0685728 0 0 0 1.998326,1.538923 2.0685726,2.0685728 0 0 0 1.996779,-1.538923 h 0.934825 a 2.9818314,2.9818316 0 0 1 -2.931604,2.452011 2.9818314,2.9818316 0 0 1 -2.933155,-2.452048 z m 12.7,0 h 0.934828 a 2.0685726,2.0685728 0 0 0 1.998327,1.538923 2.0685726,2.0685728 0 0 0 1.996778,-1.538923 h 0.934826 a 2.9818314,2.9818316 0 0 1 -2.931604,2.452011 2.9818314,2.9818316 0 0 1 -2.933155,-2.452048 z m -47.866845,9.658805 a 2.9818314,2.9818316 0 0 1 2.933155,2.452564 h -0.93431 a 2.0685726,2.0685728 0 0 0 -1.998845,-1.539442 2.0685726,2.0685728 0 0 0 -2.068607,2.068608 2.0685726,2.0685728 0 0 0 2.068607,2.068608 2.0685726,2.0685728 0 0 0 1.997295,-1.539441 h 0.93431 a 2.9818314,2.9818316 0 0 1 -2.931605,2.452563 2.9818314,2.9818316 0 0 1 -2.981729,-2.98173 2.9818314,2.9818316 0 0 1 2.981729,-2.98173 z m 12.7,0 a 2.9818314,2.9818316 0 0 1 2.933155,2.452564 h -0.93431 a 2.0685726,2.0685728 0 0 0 -1.998845,-1.539442 2.0685726,2.0685728 0 0 0 -1.997294,1.539442 h -0.93431 a 2.9818314,2.9818316 0 0 1 2.931604,-2.452564 z m 25.4,0 a 2.9818314,2.9818316 0 0 1 2.933155,2.452564 h -0.93431 a 2.0685726,2.0685728 0 0 0 -1.998845,-1.539442 2.0685726,2.0685728 0 0 0 -1.997295,1.539442 h -0.934309 a 2.9818314,2.9818316 0 0 1 2.931604,-2.452564 z m 12.7,0 a 2.9818314,2.9818316 0 0 1 2.98173,2.98173 2.9818314,2.9818316 0 0 1 -2.98173,2.98173 2.9818314,2.9818316 0 0 1 -2.933155,-2.452563 h 0.93431 a 2.0685726,2.0685728 0 0 0 1.998845,1.539441 2.0685726,2.0685728 0 0 0 2.068608,-2.068608 2.0685726,2.0685728 0 0 0 -2.068608,-2.068608 2.0685726,2.0685728 0 0 0 -1.997295,1.539442 h -0.93431 a 2.9818314,2.9818316 0 0 1 2.931605,-2.452564 z M 66.675,58.723033 v 0.934826 a 2.0685726,2.0685728 0 0 0 -1.469162,1.469679 h -0.93431 A 2.9818314,2.9818316 0 0 1 66.675,58.723033 Z m 1.056264,0.0016 a 2.9818314,2.9818316 0 0 1 2.405023,2.402954 h -0.93431 A 2.0685726,2.0685728 0 0 0 67.731264,59.659459 Z M 51.569977,62.18592 h 0.93431 a 2.0685726,2.0685728 0 0 0 1.998845,1.539441 2.0685726,2.0685728 0 0 0 1.997295,-1.539441 h 0.93431 a 2.9818314,2.9818316 0 0 1 -2.931605,2.452526 2.9818314,2.9818316 0 0 1 -2.933155,-2.452563 z m 12.7,0 h 0.93431 A 2.0685726,2.0685728 0 0 0 66.675,63.654036 v 0.934826 a 2.9818314,2.9818316 0 0 1 -2.405023,-2.402954 z m 4.93045,0 h 0.93431 a 2.9818314,2.9818316 0 0 1 -2.403473,2.404504 v -0.934826 a 2.0685726,2.0685728 0 0 0 1.469163,-1.469678 z m 7.76955,0 h 0.93431 a 2.0685726,2.0685728 0 0 0 1.998845,1.539441 2.0685726,2.0685728 0 0 0 1.997295,-1.539441 h 0.934309 a 2.9818314,2.9818316 0 0 1 -2.931604,2.452526 2.9818314,2.9818316 0 0 1 -2.933155,-2.452563 z m -47.866844,9.659321 a 2.9818314,2.9818316 0 0 1 2.933155,2.452047 h -0.934829 a 2.0685726,2.0685728 0 0 0 -1.998326,-1.538925 2.0685726,2.0685728 0 0 0 -2.068608,2.068608 2.0685726,2.0685728 0 0 0 2.068608,2.068607 2.0685726,2.0685728 0 0 0 1.997294,-1.539441 h 0.93431 a 2.9818314,2.9818316 0 0 1 -2.931604,2.452563 2.9818314,2.9818316 0 0 1 -2.98173,-2.981729 2.9818314,2.9818316 0 0 1 2.98173,-2.98173 z m 12.699999,0 a 2.9818314,2.9818316 0 0 1 2.933155,2.452047 h -0.934828 a 2.0685726,2.0685728 0 0 0 -1.998327,-1.538925 2.0685726,2.0685728 0 0 0 -1.996778,1.538925 h -0.934826 a 2.9818314,2.9818316 0 0 1 2.931604,-2.452047 z m 12.7,0 a 2.9818314,2.9818316 0 0 1 2.933155,2.452047 h -0.934828 a 2.0685726,2.0685728 0 0 0 -1.998327,-1.538925 2.0685726,2.0685728 0 0 0 -1.996778,1.538925 h -0.934826 a 2.9818314,2.9818316 0 0 1 2.931604,-2.452047 z m 25.4,0 a 2.9818314,2.9818316 0 0 1 2.933155,2.452047 h -0.934829 a 2.0685726,2.0685728 0 0 0 -1.998326,-1.538925 2.0685726,2.0685728 0 0 0 -1.996779,1.538925 h -0.934825 a 2.9818314,2.9818316 0 0 1 2.931604,-2.452047 z m 12.7,0 a 2.9818314,2.9818316 0 0 1 2.933155,2.452047 h -0.934829 a 2.0685726,2.0685728 0 0 0 -1.998326,-1.538925 2.0685726,2.0685728 0 0 0 -1.996779,1.538925 h -0.934826 a 2.9818314,2.9818316 0 0 1 2.931605,-2.452047 z m 12.699998,0 a 2.9818314,2.9818316 0 0 1 2.98173,2.98173 2.9818314,2.9818316 0 0 1 -2.98173,2.981729 2.9818314,2.9818316 0 0 1 -2.93315,-2.452563 h 0.93431 a 2.0685726,2.0685728 0 0 0 1.99884,1.539441 2.0685726,2.0685728 0 0 0 2.06861,-2.068607 2.0685726,2.0685728 0 0 0 -2.06861,-2.068608 2.0685726,2.0685728 0 0 0 -1.99678,1.538925 h -0.93482 a 2.9818314,2.9818316 0 0 1 2.9316,-2.452047 z M 66.675,71.893288 v 0.934826 a 2.0685726,2.0685728 0 0 0 -1.468647,1.469162 H 64.271528 A 2.9818314,2.9818316 0 0 1 66.675,71.893288 Z m 1.056264,0.0016 a 2.9818314,2.9818316 0 0 1 2.405023,2.402438 h -0.934828 a 2.0685726,2.0685728 0 0 0 -1.470195,-1.467612 z m -28.861286,3.461287 h 0.934309 a 2.0685726,2.0685728 0 0 0 1.998845,1.539441 2.0685726,2.0685728 0 0 0 1.997295,-1.539441 h 0.93431 a 2.9818314,2.9818316 0 0 1 -2.931605,2.452526 2.9818314,2.9818316 0 0 1 -2.933154,-2.452563 z m 12.699999,0 h 0.93431 a 2.0685726,2.0685728 0 0 0 1.998845,1.539441 2.0685726,2.0685728 0 0 0 1.997295,-1.539441 h 0.93431 a 2.9818314,2.9818316 0 0 1 -2.931605,2.452526 2.9818314,2.9818316 0 0 1 -2.933155,-2.452563 z m 12.7,0 h 0.93431 A 2.0685726,2.0685728 0 0 0 66.675,76.82429 v 0.934826 a 2.9818314,2.9818316 0 0 1 -2.405023,-2.402954 z m 4.93045,0 h 0.93431 a 2.9818314,2.9818316 0 0 1 -2.403473,2.404504 v -0.934825 a 2.0685726,2.0685728 0 0 0 1.469163,-1.469679 z m 7.76955,0 h 0.93431 a 2.0685726,2.0685728 0 0 0 1.998845,1.539441 2.0685726,2.0685728 0 0 0 1.997295,-1.539441 h 0.934309 a 2.9818314,2.9818316 0 0 1 -2.931604,2.452526 2.9818314,2.9818316 0 0 1 -2.933155,-2.452563 z m 12.7,0 h 0.93431 a 2.0685726,2.0685728 0 0 0 1.998845,1.539441 2.0685726,2.0685728 0 0 0 1.997294,-1.539441 h 0.93431 a 2.9818314,2.9818316 0 0 1 -2.931604,2.452526 2.9818314,2.9818316 0 0 1 -2.933155,-2.452563 z m -73.266844,9.659321 a 2.9818314,2.9818316 0 0 1 2.933154,2.452047 H 18.40146 a 2.0685726,2.0685728 0 0 0 -1.998327,-1.538922 2.0685726,2.0685728 0 0 0 -2.068608,2.068608 2.0685726,2.0685728 0 0 0 2.068608,2.068607 2.0685726,2.0685728 0 0 0 1.997294,-1.539959 h 0.934826 a 2.9818314,2.9818316 0 0 1 -2.93212,2.453597 2.9818314,2.9818316 0 0 1 -2.98173,-2.982245 2.9818314,2.9818316 0 0 1 2.98173,-2.981733 z m 12.7,0 a 2.9818314,2.9818316 0 0 1 2.933155,2.452047 h -0.934829 a 2.0685726,2.0685728 0 0 0 -1.998326,-1.538922 2.0685726,2.0685728 0 0 0 -1.996779,1.538922 h -0.934826 a 2.9818314,2.9818316 0 0 1 2.931605,-2.452047 z m 12.699999,0 a 2.9818314,2.9818316 0 0 1 2.933155,2.452047 h -0.934828 a 2.0685726,2.0685728 0 0 0 -1.998327,-1.538922 2.0685726,2.0685728 0 0 0 -1.996778,1.538922 h -0.934826 a 2.9818314,2.9818316 0 0 1 2.931604,-2.452047 z m 12.7,0 a 2.9818314,2.9818316 0 0 1 2.933155,2.452047 h -0.934828 a 2.0685726,2.0685728 0 0 0 -1.998327,-1.538922 2.0685726,2.0685728 0 0 0 -1.996778,1.538922 h -0.934826 a 2.9818314,2.9818316 0 0 1 2.931604,-2.452047 z m 25.4,0 a 2.9818314,2.9818316 0 0 1 2.933155,2.452047 h -0.934829 a 2.0685726,2.0685728 0 0 0 -1.998326,-1.538922 2.0685726,2.0685728 0 0 0 -1.996779,1.538922 h -0.934825 a 2.9818314,2.9818316 0 0 1 2.931604,-2.452047 z m 12.7,0 a 2.9818314,2.9818316 0 0 1 2.933155,2.452047 h -0.934829 a 2.0685726,2.0685728 0 0 0 -1.998326,-1.538922 2.0685726,2.0685728 0 0 0 -1.996779,1.538922 h -0.934826 a 2.9818314,2.9818316 0 0 1 2.931605,-2.452047 z m 12.699998,0 a 2.9818314,2.9818316 0 0 1 2.93316,2.452047 h -0.93483 a 2.0685726,2.0685728 0 0 0 -1.99833,-1.538922 2.0685726,2.0685728 0 0 0 -1.99678,1.538922 h -0.93482 a 2.9818314,2.9818316 0 0 1 2.9316,-2.452047 z m 12.7,0 a 2.9818314,2.9818316 0 0 1 2.98173,2.981733 2.9818314,2.9818316 0 0 1 -2.98173,2.982245 2.9818314,2.9818316 0 0 1 -2.93367,-2.453597 h 0.93483 a 2.0685726,2.0685728 0 0 0 1.99884,1.539959 2.0685726,2.0685728 0 0 0 2.06861,-2.068607 2.0685726,2.0685728 0 0 0 -2.06861,-2.068608 2.0685726,2.0685728 0 0 0 -1.99678,1.538922 h -0.93482 a 2.9818314,2.9818316 0 0 1 2.9316,-2.452047 z M 66.675,85.063542 v 0.934829 A 2.0685726,2.0685728 0 0 0 65.206353,87.46753 H 64.271528 A 2.9818314,2.9818316 0 0 1 66.675,85.063542 Z m 1.056264,0.0016 a 2.9818314,2.9818316 0 0 1 2.405023,2.402437 H 69.201459 A 2.0685726,2.0685728 0 0 0 67.731264,85.99997 Z m -41.561802,3.460771 h 0.934826 a 2.0685726,2.0685728 0 0 0 1.998845,1.539959 2.0685726,2.0685728 0 0 0 1.997294,-1.539959 h 0.934826 a 2.9818314,2.9818316 0 0 1 -2.93212,2.45356 2.9818314,2.9818316 0 0 1 -2.933671,-2.453597 z m 12.7,0 h 0.934825 a 2.0685726,2.0685728 0 0 0 1.998845,1.539959 2.0685726,2.0685728 0 0 0 1.997295,-1.539959 h 0.934826 a 2.9818314,2.9818316 0 0 1 -2.932121,2.45356 2.9818314,2.9818316 0 0 1 -2.93367,-2.453597 z m 12.699999,0 h 0.934826 a 2.0685726,2.0685728 0 0 0 1.998845,1.539959 2.0685726,2.0685728 0 0 0 1.997295,-1.539959 h 0.934826 a 2.9818314,2.9818316 0 0 1 -2.932121,2.45356 2.9818314,2.9818316 0 0 1 -2.933671,-2.453597 z m 12.7,0 h 0.934826 A 2.0685726,2.0685728 0 0 0 66.675,89.994545 v 0.935307 a 2.9818314,2.9818316 0 0 1 -2.405539,-2.403988 z m 4.930966,0 h 0.934826 a 2.9818314,2.9818316 0 0 1 -2.403989,2.405538 v -0.935344 a 2.0685726,2.0685728 0 0 0 1.469163,-1.470194 z m 7.769034,0 h 0.934826 a 2.0685726,2.0685728 0 0 0 1.998845,1.539959 2.0685726,2.0685728 0 0 0 1.997295,-1.539959 h 0.934825 a 2.9818314,2.9818316 0 0 1 -2.93212,2.45356 2.9818314,2.9818316 0 0 1 -2.933671,-2.453597 z m 12.7,0 h 0.934826 a 2.0685726,2.0685728 0 0 0 1.998845,1.539959 2.0685726,2.0685728 0 0 0 1.997294,-1.539959 h 0.934826 a 2.9818314,2.9818316 0 0 1 -2.93212,2.45356 2.9818314,2.9818316 0 0 1 -2.933671,-2.453597 z m 12.699999,0 h 0.93483 a 2.0685726,2.0685728 0 0 0 1.99884,1.539959 2.0685726,2.0685728 0 0 0 1.9973,-1.539959 h 0.93482 a 2.9818314,2.9818316 0 0 1 -2.93212,2.45356 2.9818314,2.9818316 0 0 1 -2.93367,-2.453597 z M 66.675,98.233836 v 0.935342 a 2.0685726,2.0685728 0 0 0 -1.540476,1.998842 2.0685726,2.0685728 0 0 0 1.540476,1.9973 v 0.93482 A 2.9818314,2.9818316 0 0 1 64.221402,101.16802 2.9818314,2.9818316 0 0 1 66.675,98.233836 Z m 1.056264,0.0016 a 2.9818314,2.9818316 0 0 1 2.453598,2.932634 2.9818314,2.9818316 0 0 1 -2.453598,2.93367 v -0.9349 A 2.0685726,2.0685728 0 0 0 69.27174,101.168 2.0685726,2.0685728 0 0 0 67.731264,99.170187 Z M 66.675,111.40465 v 0.93482 a 2.0685726,2.0685728 0 0 0 -1.540476,1.99885 2.0685726,2.0685728 0 0 0 1.540476,1.99729 v 0.93483 a 2.9818314,2.9818316 0 0 1 -2.453598,-2.93212 2.9818314,2.9818316 0 0 1 2.453598,-2.93367 z m 1.056264,0.002 a 2.9818314,2.9818316 0 0 1 2.453598,2.93213 2.9818314,2.9818316 0 0 1 -2.453598,2.93367 v -0.93483 a 2.0685726,2.0685728 0 0 0 1.540476,-1.99884 2.0685726,2.0685728 0 0 0 -1.540476,-1.9973 z M 66.675,124.57494 v 0.93483 a 2.0685726,2.0685728 0 0 0 -1.540476,1.99873 2.0685726,2.0685728 0 0 0 2.068608,2.06861 2.0685726,2.0685728 0 0 0 2.068608,-2.06861 2.0685726,2.0685728 0 0 0 -1.540476,-1.9973 v -0.93482 a 2.9818314,2.9818316 0 0 1 2.453598,2.93212 2.9818314,2.9818316 0 0 1 -2.98173,2.98173 2.9818314,2.9818316 0 0 1 -2.98173,-2.98173 2.9818314,2.9818316 0 0 1 2.453598,-2.93367 z"
         style="display:inline;opacity:0.75;fill:#c79a40;fill-opacity:1;stroke:none;stroke-width:0.22984141;stroke-linecap:round;stroke-linejoin:bevel;stroke-miterlimit:4;stroke-dasharray:none;stroke-dashoffset:0;stroke-opacity:0.50196078;paint-order:normal"
         inkscape:connector-curvature="0" />
      <path
         transform="scale(0.26458333)"
         inkscape:connector-curvature="0"
         style="display:inline;opacity:1;fill:#c79a40;fill-opacity:1;stroke:none;stroke-width:0.86869198;stroke-linecap:round;stroke-linejoin:bevel;stroke-miterlimit:4;stroke-dasharray:none;stroke-dashoffset:0;stroke-opacity:0.50196078;paint-order:normal"
         d="m 256,16 a 16.000002,16.000003 0 0 0 -16,16 16.000002,16.000003 0 0 0 14.00391,15.855469 v 18.0625 a 16.000002,16.000003 0 0 0 -13.85743,13.857422 h -16.2871 A 16.000002,16.000003 0 0 0 208,65.777344 a 16.000002,16.000003 0 0 0 -16,16 16.000002,16.000003 0 0 0 16,16 16.000002,16.000003 0 0 0 15.85352,-14 h 16.2871 a 16.000002,16.000003 0 0 0 13.86329,13.855468 v 18.062498 a 16.000002,16.000003 0 0 0 -13.85938,13.86328 H 223.85938 A 16.000002,16.000003 0 0 0 208,115.55469 16.000002,16.000003 0 0 0 192.14453,129.55859 H 175.85938 A 16.000002,16.000003 0 0 0 160,115.55469 a 16.000002,16.000003 0 0 0 -16,16 16.000002,16.000003 0 0 0 16,16 16.000002,16.000003 0 0 0 15.85547,-14.00196 h 16.28515 A 16.000002,16.000003 0 0 0 208,147.55469 16.000002,16.000003 0 0 0 223.85547,133.55273 h 16.28515 a 16.000002,16.000003 0 0 0 13.86329,13.85743 v 18.06445 a 16.000002,16.000003 0 0 0 -13.85938,13.86133 H 223.85938 A 16.000002,16.000003 0 0 0 208,165.33398 16.000002,16.000003 0 0 0 192.14453,179.33594 H 175.85938 A 16.000002,16.000003 0 0 0 160,165.33398 16.000002,16.000003 0 0 0 144.14453,179.33594 H 127.85938 A 16.000002,16.000003 0 0 0 112,165.33398 a 16.000002,16.000003 0 0 0 -16,16 16.000002,16.000003 0 0 0 16,16 16.000002,16.000003 0 0 0 15.85352,-13.99804 h 16.2871 A 16.000002,16.000003 0 0 0 160,197.33398 16.000002,16.000003 0 0 0 175.85352,183.33594 h 16.2871 A 16.000002,16.000003 0 0 0 208,197.33398 16.000002,16.000003 0 0 0 223.85352,183.33594 h 16.2871 a 16.000002,16.000003 0 0 0 13.86329,13.85156 v 18.06445 a 16.000002,16.000003 0 0 0 -13.85743,13.85938 h -16.2871 a 16.000002,16.000003 0 0 0 -15.85938,-14 16.000002,16.000003 0 0 0 -15.85352,14 h -16.2871 a 16.000002,16.000003 0 0 0 -15.85938,-14 16.000002,16.000003 0 0 0 -16,16 16.000002,16.000003 0 0 0 16,16 16.000002,16.000003 0 0 0 15.85352,-14 h 16.2871 a 16.000002,16.000003 0 0 0 15.85938,14 16.000002,16.000003 0 0 0 15.85352,-14 h 16.2871 a 16.000002,16.000003 0 0 0 13.86329,13.85547 v 18.0625 a 16.000002,16.000003 0 0 0 -13.85743,13.85742 h -16.2871 A 16.000002,16.000003 0 0 0 208,264.88867 16.000002,16.000003 0 0 0 192.14648,278.88672 h -16.2871 A 16.000002,16.000003 0 0 0 160,264.88867 16.000002,16.000003 0 0 0 144.14648,278.88672 h -16.2871 A 16.000002,16.000003 0 0 0 112,264.88867 a 16.000002,16.000003 0 0 0 -16,16 16.000002,16.000003 0 0 0 16,16 16.000002,16.000003 0 0 0 15.85352,-14 h 16.2871 a 16.000002,16.000003 0 0 0 15.85938,14 16.000002,16.000003 0 0 0 15.85352,-14 h 16.2871 a 16.000002,16.000003 0 0 0 15.85938,14 16.000002,16.000003 0 0 0 15.85352,-14 h 16.2871 a 16.000002,16.000003 0 0 0 13.86329,13.85547 v 18.0625 a 16.000002,16.000003 0 0 0 -13.85743,13.85742 h -16.2871 A 16.000002,16.000003 0 0 0 208,314.66602 16.000002,16.000003 0 0 0 192.14648,328.66406 h -16.2871 A 16.000002,16.000003 0 0 0 160,314.66602 16.000002,16.000003 0 0 0 144.14648,328.66406 h -16.2871 A 16.000002,16.000003 0 0 0 112,314.66602 16.000002,16.000003 0 0 0 96.146484,328.66406 H 79.859375 A 16.000002,16.000003 0 0 0 64,314.66602 a 16.000002,16.000003 0 0 0 -16,16 16.000002,16.000003 0 0 0 16,16 16.000002,16.000003 0 0 0 15.855469,-14.00196 H 96.140625 A 16.000002,16.000003 0 0 0 112,346.66602 16.000002,16.000003 0 0 0 127.85547,332.66406 h 16.28515 A 16.000002,16.000003 0 0 0 160,346.66602 16.000002,16.000003 0 0 0 175.85547,332.66406 h 16.28515 A 16.000002,16.000003 0 0 0 208,346.66602 16.000002,16.000003 0 0 0 223.85547,332.66406 h 16.28515 a 16.000002,16.000003 0 0 0 13.86329,13.85742 v 18.0625 A 16.000002,16.000003 0 0 0 240,380.44531 a 16.000002,16.000003 0 0 0 14.00391,15.85352 v 18.06445 A 16.000002,16.000003 0 0 0 240,430.22266 a 16.000002,16.000003 0 0 0 14.00391,15.85546 v 18.0625 A 16.000002,16.000003 0 0 0 240,480 a 16.000002,16.000003 0 0 0 16,16 16.000002,16.000003 0 0 0 16,-16 16.000002,16.000003 0 0 0 -14.00391,-15.85547 v -18.0625 A 16.000002,16.000003 0 0 0 272,430.22266 16.000002,16.000003 0 0 0 257.99609,414.36719 v -18.0625 A 16.000002,16.000003 0 0 0 272,380.44531 16.000002,16.000003 0 0 0 257.99609,364.58984 v -18.06445 a 16.000002,16.000003 0 0 0 13.85938,-13.86133 h 16.28515 A 16.000002,16.000003 0 0 0 304,346.66602 16.000002,16.000003 0 0 0 319.85547,332.66406 h 16.28515 A 16.000002,16.000003 0 0 0 352,346.66602 16.000002,16.000003 0 0 0 367.85547,332.66406 h 16.28515 A 16.000002,16.000003 0 0 0 400,346.66602 16.000002,16.000003 0 0 0 415.85547,332.66406 h 16.28515 A 16.000002,16.000003 0 0 0 448,346.66602 a 16.000002,16.000003 0 0 0 16,-16 16.000002,16.000003 0 0 0 -16,-16 16.000002,16.000003 0 0 0 -15.85352,13.99804 h -16.2871 A 16.000002,16.000003 0 0 0 400,314.66602 16.000002,16.000003 0 0 0 384.14648,328.66406 h -16.2871 A 16.000002,16.000003 0 0 0 352,314.66602 16.000002,16.000003 0 0 0 336.14648,328.66406 h -16.2871 A 16.000002,16.000003 0 0 0 304,314.66602 16.000002,16.000003 0 0 0 288.14648,328.66406 h -16.2871 A 16.000002,16.000003 0 0 0 257.99609,314.8125 v -18.06445 a 16.000002,16.000003 0 0 0 13.85743,-13.85938 h 16.2871 a 16.000002,16.000003 0 0 0 15.85938,14 16.000002,16.000003 0 0 0 15.85352,-14 h 16.2871 a 16.000002,16.000003 0 0 0 15.85938,14 16.000002,16.000003 0 0 0 15.85352,-14 h 16.2871 a 16.000002,16.000003 0 0 0 15.85938,14 16.000002,16.000003 0 0 0 16,-16 16.000002,16.000003 0 0 0 -16,-16 16.000002,16.000003 0 0 0 -15.85352,13.99805 h -16.2871 A 16.000002,16.000003 0 0 0 352,264.88867 16.000002,16.000003 0 0 0 336.14648,278.88672 h -16.2871 A 16.000002,16.000003 0 0 0 304,264.88867 16.000002,16.000003 0 0 0 288.14648,278.88672 h -16.2871 A 16.000002,16.000003 0 0 0 257.99609,265.0332 v -18.0625 a 16.000002,16.000003 0 0 0 13.85743,-13.85937 h 16.2871 a 16.000002,16.000003 0 0 0 15.85938,14 16.000002,16.000003 0 0 0 15.85352,-14 h 16.2871 a 16.000002,16.000003 0 0 0 15.85938,14 16.000002,16.000003 0 0 0 16,-16 16.000002,16.000003 0 0 0 -16,-16 16.000002,16.000003 0 0 0 -15.85352,14 h -16.2871 a 16.000002,16.000003 0 0 0 -15.85938,-14 16.000002,16.000003 0 0 0 -15.85352,14 h -16.2871 a 16.000002,16.000003 0 0 0 -13.86329,-13.85547 v -18.0625 a 16.000002,16.000003 0 0 0 13.85743,-13.85742 h 16.2871 A 16.000002,16.000003 0 0 0 304,197.33398 16.000002,16.000003 0 0 0 319.85352,183.33594 h 16.2871 A 16.000002,16.000003 0 0 0 352,197.33398 16.000002,16.000003 0 0 0 367.85352,183.33594 h 16.2871 A 16.000002,16.000003 0 0 0 400,197.33398 a 16.000002,16.000003 0 0 0 16,-16 16.000002,16.000003 0 0 0 -16,-16 16.000002,16.000003 0 0 0 -15.85547,14.00196 H 367.85938 A 16.000002,16.000003 0 0 0 352,165.33398 16.000002,16.000003 0 0 0 336.14453,179.33594 H 319.85938 A 16.000002,16.000003 0 0 0 304,165.33398 16.000002,16.000003 0 0 0 288.14453,179.33594 h -16.28515 a 16.000002,16.000003 0 0 0 -13.86329,-13.85742 v -18.0625 a 16.000002,16.000003 0 0 0 13.85938,-13.86329 h 16.28515 A 16.000002,16.000003 0 0 0 304,147.55469 16.000002,16.000003 0 0 0 319.85547,133.55273 h 16.28515 A 16.000002,16.000003 0 0 0 352,147.55469 a 16.000002,16.000003 0 0 0 16,-16 16.000002,16.000003 0 0 0 -16,-16 16.000002,16.000003 0 0 0 -15.85547,14.0039 H 319.85938 A 16.000002,16.000003 0 0 0 304,115.55469 16.000002,16.000003 0 0 0 288.14453,129.55859 H 271.85938 A 16.000002,16.000003 0 0 0 257.99609,115.70117 V 97.636719 a 16.000002,16.000003 0 0 0 13.85743,-13.859375 h 16.2871 a 16.000002,16.000003 0 0 0 15.85938,14 16.000002,16.000003 0 0 0 16,-16 16.000002,16.000003 0 0 0 -16,-16 16.000002,16.000003 0 0 0 -15.85352,13.998047 h -16.2871 A 16.000002,16.000003 0 0 0 257.99609,65.921875 v -18.0625 A 16.000002,16.000003 0 0 0 272,32 16.000002,16.000003 0 0 0 256,16 Z m 0,4.730469 A 11.269914,11.269915 0 0 1 267.26953,32 11.269914,11.269915 0 0 1 257.99609,43.087891 V 39.554688 A 7.8182271,7.8182279 0 0 0 263.81836,32 7.8182271,7.8182279 0 0 0 256,24.181641 7.8182271,7.8182279 0 0 0 248.18164,32 a 7.8182271,7.8182279 0 0 0 5.82227,7.548828 v 3.533203 A 11.269914,11.269915 0 0 1 244.73047,32 11.269914,11.269915 0 0 1 256,20.730469 Z m -48,49.777343 a 11.269914,11.269915 0 0 1 11.08594,9.267579 h -3.53321 A 7.8182271,7.8182279 0 0 0 208,73.958984 a 7.8182271,7.8182279 0 0 0 -7.81836,7.81836 7.8182271,7.8182279 0 0 0 7.81836,7.818359 7.8182271,7.8182279 0 0 0 7.54883,-5.818359 h 3.5332 A 11.269914,11.269915 0 0 1 208,93.046875 11.269914,11.269915 0 0 1 196.73047,81.777344 11.269914,11.269915 0 0 1 208,70.507812 Z m 96,0 A 11.269914,11.269915 0 0 1 315.26953,81.777344 11.269914,11.269915 0 0 1 304,93.046875 11.269914,11.269915 0 0 1 292.91406,83.777344 h 3.53125 A 7.8182271,7.8182279 0 0 0 304,89.595703 7.8182271,7.8182279 0 0 0 311.81836,81.777344 7.8182271,7.8182279 0 0 0 304,73.958984 a 7.8182271,7.8182279 0 0 0 -7.54688,5.816407 h -3.5332 A 11.269914,11.269915 0 0 1 304,70.507812 Z m -49.99609,0.181641 v 3.533203 a 7.8182271,7.8182279 0 0 0 -5.55079,5.552735 h -3.5332 a 11.269914,11.269915 0 0 1 9.08399,-9.085938 z m 3.99218,0.0059 a 11.269914,11.269915 0 0 1 9.08985,9.080079 h -3.53321 a 7.8182271,7.8182279 0 0 0 -5.55664,-5.546875 z m -13.08203,13.082032 h 3.53125 a 7.8182271,7.8182279 0 0 0 5.5586,5.548828 v 3.533203 a 11.269914,11.269915 0 0 1 -9.08985,-9.082031 z m 18.63477,0 h 3.5332 a 11.269914,11.269915 0 0 1 -9.08594,9.08789 v -3.533203 a 7.8182271,7.8182279 0 0 0 5.55274,-5.554687 z M 160,120.28516 a 11.269914,11.269915 0 0 1 11.08789,9.27343 h -3.5332 A 7.8182271,7.8182279 0 0 0 160,123.73828 a 7.8182271,7.8182279 0 0 0 -7.81836,7.81641 7.8182271,7.8182279 0 0 0 7.81836,7.81836 7.8182271,7.8182279 0 0 0 7.54883,-5.82032 h 3.5332 A 11.269914,11.269915 0 0 1 160,142.82617 11.269914,11.269915 0 0 1 148.73047,131.55469 11.269914,11.269915 0 0 1 160,120.28516 Z m 48,0 a 11.269914,11.269915 0 0 1 11.08789,9.27343 h -3.5332 A 7.8182271,7.8182279 0 0 0 208,123.73828 a 7.8182271,7.8182279 0 0 0 -7.54883,5.82031 h -3.5332 A 11.269914,11.269915 0 0 1 208,120.28516 Z m 96,0 a 11.269914,11.269915 0 0 1 11.08789,9.27343 h -3.5332 A 7.8182271,7.8182279 0 0 0 304,123.73828 a 7.8182271,7.8182279 0 0 0 -7.54883,5.82031 h -3.5332 A 11.269914,11.269915 0 0 1 304,120.28516 Z m 48,0 A 11.269914,11.269915 0 0 1 363.26953,131.55469 11.269914,11.269915 0 0 1 352,142.82617 11.269914,11.269915 0 0 1 340.91211,133.55273 h 3.5332 A 7.8182271,7.8182279 0 0 0 352,139.37305 7.8182271,7.8182279 0 0 0 359.81836,131.55469 7.8182271,7.8182279 0 0 0 352,123.73828 a 7.8182271,7.8182279 0 0 0 -7.54883,5.82031 h -3.5332 A 11.269914,11.269915 0 0 1 352,120.28516 Z m -97.99609,0.18164 V 124 a 7.8182271,7.8182279 0 0 0 -5.55274,5.55859 h -3.5332 a 11.269914,11.269915 0 0 1 9.08594,-9.09179 z m 3.99218,0.006 a 11.269914,11.269915 0 0 1 9.0918,9.08593 h -3.5332 a 7.8182271,7.8182279 0 0 0 -5.5586,-5.55273 z m -61.08398,13.08007 h 3.5332 a 7.8182271,7.8182279 0 0 0 7.55469,5.82032 7.8182271,7.8182279 0 0 0 7.54883,-5.82032 h 3.5332 A 11.269914,11.269915 0 0 1 208,142.82617 11.269914,11.269915 0 0 1 196.91211,133.55273 Z m 48,0 h 3.5332 a 7.8182271,7.8182279 0 0 0 5.5586,5.55274 v 3.5332 a 11.269914,11.269915 0 0 1 -9.0918,-9.08594 z m 18.63672,0 h 3.5332 a 11.269914,11.269915 0 0 1 -9.08594,9.0918 v -3.5332 a 7.8182271,7.8182279 0 0 0 5.55274,-5.5586 z m 29.36328,0 h 3.5332 a 7.8182271,7.8182279 0 0 0 7.55469,5.82032 7.8182271,7.8182279 0 0 0 7.54883,-5.82032 h 3.5332 A 11.269914,11.269915 0 0 1 304,142.82617 11.269914,11.269915 0 0 1 292.91211,133.55273 Z M 112,170.0625 a 11.269914,11.269915 0 0 1 11.08789,9.27344 h -3.5332 A 7.8182271,7.8182279 0 0 0 112,173.51562 a 7.8182271,7.8182279 0 0 0 -7.81836,7.81836 7.8182271,7.8182279 0 0 0 7.81836,7.81836 7.8182271,7.8182279 0 0 0 7.54688,-5.8164 h 3.5332 A 11.269914,11.269915 0 0 1 112,192.60352 11.269914,11.269915 0 0 1 100.73047,181.33398 11.269914,11.269915 0 0 1 112,170.0625 Z m 48,0 a 11.269914,11.269915 0 0 1 11.08789,9.27344 h -3.5332 A 7.8182271,7.8182279 0 0 0 160,173.51562 a 7.8182271,7.8182279 0 0 0 -7.54883,5.82032 h -3.5332 A 11.269914,11.269915 0 0 1 160,170.0625 Z m 48,0 a 11.269914,11.269915 0 0 1 11.08789,9.27344 h -3.5332 A 7.8182271,7.8182279 0 0 0 208,173.51562 a 7.8182271,7.8182279 0 0 0 -7.54883,5.82032 h -3.5332 A 11.269914,11.269915 0 0 1 208,170.0625 Z m 96,0 a 11.269914,11.269915 0 0 1 11.08789,9.27344 h -3.5332 A 7.8182271,7.8182279 0 0 0 304,173.51562 a 7.8182271,7.8182279 0 0 0 -7.54883,5.82032 h -3.5332 A 11.269914,11.269915 0 0 1 304,170.0625 Z m 48,0 a 11.269914,11.269915 0 0 1 11.08789,9.27344 h -3.5332 A 7.8182271,7.8182279 0 0 0 352,173.51562 a 7.8182271,7.8182279 0 0 0 -7.54883,5.82032 h -3.5332 A 11.269914,11.269915 0 0 1 352,170.0625 Z m 48,0 A 11.269914,11.269915 0 0 1 411.26953,181.33398 11.269914,11.269915 0 0 1 400,192.60352 11.269914,11.269915 0 0 1 388.91406,183.33594 h 3.53321 a 7.8182271,7.8182279 0 0 0 7.55273,5.8164 7.8182271,7.8182279 0 0 0 7.81836,-7.81836 7.8182271,7.8182279 0 0 0 -7.81836,-7.81836 7.8182271,7.8182279 0 0 0 -7.54883,5.82032 h -3.5332 A 11.269914,11.269915 0 0 1 400,170.0625 Z m -145.99609,0.18164 v 3.53516 a 7.8182271,7.8182279 0 0 0 -5.55274,5.55664 h -3.5332 a 11.269914,11.269915 0 0 1 9.08594,-9.0918 z m 3.99218,0.006 a 11.269914,11.269915 0 0 1 9.0918,9.08594 h -3.5332 a 7.8182271,7.8182279 0 0 0 -5.5586,-5.55078 z m -109.08203,13.08594 h 3.53321 a 7.8182271,7.8182279 0 0 0 7.55273,5.8164 7.8182271,7.8182279 0 0 0 7.54688,-5.8164 h 3.5332 A 11.269914,11.269915 0 0 1 160,192.60352 11.269914,11.269915 0 0 1 148.91406,183.33594 Z m 48,0 h 3.53321 a 7.8182271,7.8182279 0 0 0 7.55273,5.8164 7.8182271,7.8182279 0 0 0 7.54688,-5.8164 h 3.5332 A 11.269914,11.269915 0 0 1 208,192.60352 11.269914,11.269915 0 0 1 196.91406,183.33594 Z m 48,0 h 3.53321 a 7.8182271,7.8182279 0 0 0 5.55664,5.54687 v 3.53321 a 11.269914,11.269915 0 0 1 -9.08985,-9.08008 z m 18.63282,0 h 3.5332 a 11.269914,11.269915 0 0 1 -9.08399,9.08594 v -3.53321 a 7.8182271,7.8182279 0 0 0 5.55079,-5.55273 z m 29.36718,0 h 3.53321 a 7.8182271,7.8182279 0 0 0 7.55273,5.8164 7.8182271,7.8182279 0 0 0 7.54688,-5.8164 h 3.5332 A 11.269914,11.269915 0 0 1 304,192.60352 11.269914,11.269915 0 0 1 292.91406,183.33594 Z m 48,0 h 3.53321 a 7.8182271,7.8182279 0 0 0 7.55273,5.8164 7.8182271,7.8182279 0 0 0 7.54688,-5.8164 h 3.5332 A 11.269914,11.269915 0 0 1 352,192.60352 11.269914,11.269915 0 0 1 340.91406,183.33594 Z M 160,219.8418 a 11.269914,11.269915 0 0 1 11.08594,9.26953 h -3.53125 A 7.8182271,7.8182279 0 0 0 160,223.29297 a 7.8182271,7.8182279 0 0 0 -7.81836,7.81836 7.8182271,7.8182279 0 0 0 7.81836,7.81836 7.8182271,7.8182279 0 0 0 7.54883,-5.81836 h 3.53125 A 11.269914,11.269915 0 0 1 160,242.38086 11.269914,11.269915 0 0 1 148.73047,231.11133 11.269914,11.269915 0 0 1 160,219.8418 Z m 48,0 a 11.269914,11.269915 0 0 1 11.08594,9.26953 h -3.53125 A 7.8182271,7.8182279 0 0 0 208,223.29297 a 7.8182271,7.8182279 0 0 0 -7.54883,5.81836 h -3.53125 A 11.269914,11.269915 0 0 1 208,219.8418 Z m 96,0 a 11.269914,11.269915 0 0 1 11.08594,9.26953 h -3.53125 A 7.8182271,7.8182279 0 0 0 304,223.29297 a 7.8182271,7.8182279 0 0 0 -7.54883,5.81836 h -3.53125 A 11.269914,11.269915 0 0 1 304,219.8418 Z m 48,0 A 11.269914,11.269915 0 0 1 363.26953,231.11133 11.269914,11.269915 0 0 1 352,242.38086 11.269914,11.269915 0 0 1 340.91406,233.11133 h 3.53125 A 7.8182271,7.8182279 0 0 0 352,238.92969 7.8182271,7.8182279 0 0 0 359.81836,231.11133 7.8182271,7.8182279 0 0 0 352,223.29297 a 7.8182271,7.8182279 0 0 0 -7.54883,5.81836 h -3.53125 A 11.269914,11.269915 0 0 1 352,219.8418 Z m -97.99609,0.18164 v 3.5332 a 7.8182271,7.8182279 0 0 0 -5.55274,5.55469 h -3.53125 a 11.269914,11.269915 0 0 1 9.08399,-9.08789 z m 3.99218,0.006 a 11.269914,11.269915 0 0 1 9.08985,9.08203 h -3.53125 a 7.8182271,7.8182279 0 0 0 -5.5586,-5.54883 z m -61.08203,13.08203 h 3.53125 a 7.8182271,7.8182279 0 0 0 7.55469,5.81836 7.8182271,7.8182279 0 0 0 7.54883,-5.81836 h 3.53125 A 11.269914,11.269915 0 0 1 208,242.38086 11.269914,11.269915 0 0 1 196.91406,233.11133 Z m 48,0 h 3.53125 a 7.8182271,7.8182279 0 0 0 5.5586,5.54883 v 3.5332 a 11.269914,11.269915 0 0 1 -9.08985,-9.08203 z m 18.63477,0 h 3.53125 a 11.269914,11.269915 0 0 1 -9.08399,9.08789 v -3.5332 a 7.8182271,7.8182279 0 0 0 5.55274,-5.55469 z m 29.36523,0 h 3.53125 a 7.8182271,7.8182279 0 0 0 7.55469,5.81836 7.8182271,7.8182279 0 0 0 7.54883,-5.81836 h 3.53125 A 11.269914,11.269915 0 0 1 304,242.38086 11.269914,11.269915 0 0 1 292.91406,233.11133 Z M 112,269.61914 a 11.269914,11.269915 0 0 1 11.08594,9.26758 h -3.53321 A 7.8182271,7.8182279 0 0 0 112,273.07031 a 7.8182271,7.8182279 0 0 0 -7.81836,7.81836 7.8182271,7.8182279 0 0 0 7.81836,7.81836 7.8182271,7.8182279 0 0 0 7.54883,-5.81836 h 3.53125 A 11.269914,11.269915 0 0 1 112,292.1582 11.269914,11.269915 0 0 1 100.73047,280.88867 11.269914,11.269915 0 0 1 112,269.61914 Z m 48,0 a 11.269914,11.269915 0 0 1 11.08594,9.26758 h -3.53321 A 7.8182271,7.8182279 0 0 0 160,273.07031 a 7.8182271,7.8182279 0 0 0 -7.54688,5.81641 h -3.5332 A 11.269914,11.269915 0 0 1 160,269.61914 Z m 48,0 a 11.269914,11.269915 0 0 1 11.08594,9.26758 h -3.53321 A 7.8182271,7.8182279 0 0 0 208,273.07031 a 7.8182271,7.8182279 0 0 0 -7.54688,5.81641 h -3.5332 A 11.269914,11.269915 0 0 1 208,269.61914 Z m 96,0 a 11.269914,11.269915 0 0 1 11.08594,9.26758 h -3.53321 A 7.8182271,7.8182279 0 0 0 304,273.07031 a 7.8182271,7.8182279 0 0 0 -7.54688,5.81641 h -3.5332 A 11.269914,11.269915 0 0 1 304,269.61914 Z m 48,0 a 11.269914,11.269915 0 0 1 11.08594,9.26758 h -3.53321 A 7.8182271,7.8182279 0 0 0 352,273.07031 a 7.8182271,7.8182279 0 0 0 -7.54688,5.81641 h -3.5332 A 11.269914,11.269915 0 0 1 352,269.61914 Z m 48,0 A 11.269914,11.269915 0 0 1 411.26953,280.88867 11.269914,11.269915 0 0 1 400,292.1582 11.269914,11.269915 0 0 1 388.91406,282.88867 h 3.53125 A 7.8182271,7.8182279 0 0 0 400,288.70703 7.8182271,7.8182279 0 0 0 407.81836,280.88867 7.8182271,7.8182279 0 0 0 400,273.07031 a 7.8182271,7.8182279 0 0 0 -7.54688,5.81641 h -3.5332 A 11.269914,11.269915 0 0 1 400,269.61914 Z m -145.99609,0.18164 v 3.5332 a 7.8182271,7.8182279 0 0 0 -5.55079,5.55274 h -3.5332 a 11.269914,11.269915 0 0 1 9.08399,-9.08594 z m 3.99218,0.006 a 11.269914,11.269915 0 0 1 9.08985,9.08008 h -3.53321 a 7.8182271,7.8182279 0 0 0 -5.55664,-5.54688 z m -109.08203,13.08203 h 3.53125 a 7.8182271,7.8182279 0 0 0 7.55469,5.81836 7.8182271,7.8182279 0 0 0 7.54883,-5.81836 h 3.53125 A 11.269914,11.269915 0 0 1 160,292.1582 11.269914,11.269915 0 0 1 148.91406,282.88867 Z m 48,0 h 3.53125 a 7.8182271,7.8182279 0 0 0 7.55469,5.81836 7.8182271,7.8182279 0 0 0 7.54883,-5.81836 h 3.53125 A 11.269914,11.269915 0 0 1 208,292.1582 11.269914,11.269915 0 0 1 196.91406,282.88867 Z m 48,0 h 3.53125 a 7.8182271,7.8182279 0 0 0 5.5586,5.54883 v 3.5332 a 11.269914,11.269915 0 0 1 -9.08985,-9.08203 z m 18.63477,0 h 3.53125 a 11.269914,11.269915 0 0 1 -9.08399,9.08789 v -3.5332 a 7.8182271,7.8182279 0 0 0 5.55274,-5.55469 z m 29.36523,0 h 3.53125 a 7.8182271,7.8182279 0 0 0 7.55469,5.81836 7.8182271,7.8182279 0 0 0 7.54883,-5.81836 h 3.53125 A 11.269914,11.269915 0 0 1 304,292.1582 11.269914,11.269915 0 0 1 292.91406,282.88867 Z m 48,0 h 3.53125 a 7.8182271,7.8182279 0 0 0 7.55469,5.81836 7.8182271,7.8182279 0 0 0 7.54883,-5.81836 h 3.53125 A 11.269914,11.269915 0 0 1 352,292.1582 11.269914,11.269915 0 0 1 340.91406,282.88867 Z M 64,319.39648 a 11.269914,11.269915 0 0 1 11.085938,9.26758 H 71.552734 A 7.8182271,7.8182279 0 0 0 64,322.84766 7.8182271,7.8182279 0 0 0 56.181641,330.66602 7.8182271,7.8182279 0 0 0 64,338.48438 a 7.8182271,7.8182279 0 0 0 7.548828,-5.82032 h 3.533203 A 11.269914,11.269915 0 0 1 64,341.9375 11.269914,11.269915 0 0 1 52.730469,330.66602 11.269914,11.269915 0 0 1 64,319.39648 Z m 48,0 a 11.269914,11.269915 0 0 1 11.08594,9.26758 h -3.53321 A 7.8182271,7.8182279 0 0 0 112,322.84766 a 7.8182271,7.8182279 0 0 0 -7.54688,5.8164 h -3.5332 A 11.269914,11.269915 0 0 1 112,319.39648 Z m 48,0 a 11.269914,11.269915 0 0 1 11.08594,9.26758 h -3.53321 A 7.8182271,7.8182279 0 0 0 160,322.84766 a 7.8182271,7.8182279 0 0 0 -7.54688,5.8164 h -3.5332 A 11.269914,11.269915 0 0 1 160,319.39648 Z m 48,0 a 11.269914,11.269915 0 0 1 11.08594,9.26758 h -3.53321 A 7.8182271,7.8182279 0 0 0 208,322.84766 a 7.8182271,7.8182279 0 0 0 -7.54688,5.8164 h -3.5332 A 11.269914,11.269915 0 0 1 208,319.39648 Z m 96,0 a 11.269914,11.269915 0 0 1 11.08594,9.26758 h -3.53321 A 7.8182271,7.8182279 0 0 0 304,322.84766 a 7.8182271,7.8182279 0 0 0 -7.54688,5.8164 h -3.5332 A 11.269914,11.269915 0 0 1 304,319.39648 Z m 48,0 a 11.269914,11.269915 0 0 1 11.08594,9.26758 h -3.53321 A 7.8182271,7.8182279 0 0 0 352,322.84766 a 7.8182271,7.8182279 0 0 0 -7.54688,5.8164 h -3.5332 A 11.269914,11.269915 0 0 1 352,319.39648 Z m 48,0 a 11.269914,11.269915 0 0 1 11.08594,9.26758 h -3.53321 A 7.8182271,7.8182279 0 0 0 400,322.84766 a 7.8182271,7.8182279 0 0 0 -7.54688,5.8164 h -3.5332 A 11.269914,11.269915 0 0 1 400,319.39648 Z m 48,0 A 11.269914,11.269915 0 0 1 459.26953,330.66602 11.269914,11.269915 0 0 1 448,341.9375 11.269914,11.269915 0 0 1 436.91211,332.66406 h 3.5332 A 7.8182271,7.8182279 0 0 0 448,338.48438 7.8182271,7.8182279 0 0 0 455.81836,330.66602 7.8182271,7.8182279 0 0 0 448,322.84766 a 7.8182271,7.8182279 0 0 0 -7.54688,5.8164 h -3.5332 A 11.269914,11.269915 0 0 1 448,319.39648 Z m -193.99609,0.18164 v 3.53321 a 7.8182271,7.8182279 0 0 0 -5.55079,5.55273 h -3.5332 a 11.269914,11.269915 0 0 1 9.08399,-9.08594 z m 3.99218,0.006 a 11.269914,11.269915 0 0 1 9.08985,9.08008 h -3.53321 a 7.8182271,7.8182279 0 0 0 -5.55664,-5.54687 z M 100.91211,332.6642 h 3.5332 a 7.8182271,7.8182279 0 0 0 7.55469,5.82032 7.8182271,7.8182279 0 0 0 7.54883,-5.82032 h 3.5332 A 11.269914,11.269915 0 0 1 112,341.9375 11.269914,11.269915 0 0 1 100.91211,332.66406 Z m 48,0 h 3.5332 a 7.8182271,7.8182279 0 0 0 7.55469,5.82032 7.8182271,7.8182279 0 0 0 7.54883,-5.82032 h 3.5332 A 11.269914,11.269915 0 0 1 160,341.9375 11.269914,11.269915 0 0 1 148.91211,332.66406 Z m 48,0 h 3.5332 a 7.8182271,7.8182279 0 0 0 7.55469,5.82032 7.8182271,7.8182279 0 0 0 7.54883,-5.82032 h 3.5332 A 11.269914,11.269915 0 0 1 208,341.9375 11.269914,11.269915 0 0 1 196.91211,332.66406 Z m 48,0 h 3.5332 a 7.8182271,7.8182279 0 0 0 5.5586,5.55078 V 341.75 a 11.269914,11.269915 0 0 1 -9.0918,-9.08594 z m 18.63672,0 h 3.5332 a 11.269914,11.269915 0 0 1 -9.08594,9.0918 v -3.53516 a 7.8182271,7.8182279 0 0 0 5.55274,-5.55664 z m 29.36328,0 h 3.5332 a 7.8182271,7.8182279 0 0 0 7.55469,5.82032 7.8182271,7.8182279 0 0 0 7.54883,-5.82032 h 3.5332 A 11.269914,11.269915 0 0 1 304,341.9375 11.269914,11.269915 0 0 1 292.91211,332.66406 Z m 48,0 h 3.5332 a 7.8182271,7.8182279 0 0 0 7.55469,5.82032 7.8182271,7.8182279 0 0 0 7.54883,-5.82032 h 3.5332 A 11.269914,11.269915 0 0 1 352,341.9375 11.269914,11.269915 0 0 1 340.91211,332.66406 Z m 48,0 h 3.5332 a 7.8182271,7.8182279 0 0 0 7.55469,5.82032 7.8182271,7.8182279 0 0 0 7.54883,-5.82032 h 3.5332 A 11.269914,11.269915 0 0 1 400,341.9375 11.269914,11.269915 0 0 1 388.91211,332.66406 Z m -134.9082,36.69141 v 3.53515 a 7.8182271,7.8182279 0 0 0 -5.82227,7.55469 7.8182271,7.8182279 0 0 0 5.82227,7.54883 v 3.5332 a 11.269914,11.269915 0 0 1 -9.27344,-11.08203 11.269914,11.269915 0 0 1 9.27344,-11.08984 z m 3.99218,0.006 a 11.269914,11.269915 0 0 1 9.27344,11.08398 11.269914,11.269915 0 0 1 -9.27344,11.08789 V 388 a 7.8182271,7.8182279 0 0 0 5.82227,-7.55469 7.8182271,7.8182279 0 0 0 -5.82227,-7.55078 z m -3.99218,49.77344 v 3.5332 a 7.8182271,7.8182279 0 0 0 -5.82227,7.55469 7.8182271,7.8182279 0 0 0 5.82227,7.54882 v 3.53321 a 11.269914,11.269915 0 0 1 -9.27344,-11.08203 11.269914,11.269915 0 0 1 9.27344,-11.08789 z m 3.99218,0.006 a 11.269914,11.269915 0 0 1 9.27344,11.08204 11.269914,11.269915 0 0 1 -9.27344,11.08789 v -3.53321 a 7.8182271,7.8182279 0 0 0 5.82227,-7.55468 7.8182271,7.8182279 0 0 0 -5.82227,-7.54883 z m -3.99218,49.77149 v 3.5332 A 7.8182271,7.8182279 0 0 0 248.18164,480 7.8182271,7.8182279 0 0 0 256,487.81836 7.8182271,7.8182279 0 0 0 263.81836,480 a 7.8182271,7.8182279 0 0 0 -5.82227,-7.54883 v -3.5332 A 11.269914,11.269915 0 0 1 267.26953,480 11.269914,11.269915 0 0 1 256,491.26953 11.269914,11.269915 0 0 1 244.73047,480 a 11.269914,11.269915 0 0 1 9.27344,-11.08789 z"
         id="path1045" />
      <g
         id="g1071"
         style="stroke:#c79a40;stroke-width:0.26458332;stroke-miterlimit:4;stroke-dasharray:none;stroke-opacity:0.65490196">
        <path
           inkscape:connector-curvature="0"
           style="opacity:0.75;fill:#c76940;fill-opacity:1;stroke:#c79a40;stroke-width:1;stroke-linecap:round;stroke-linejoin:bevel;stroke-miterlimit:4;stroke-dasharray:none;stroke-dashoffset:0;stroke-opacity:0.65490196;paint-order:normal"
           d="m 64,314.66602 a 16.000002,16.000003 0 0 0 -16,16 16.000002,16.000003 0 0 0 16,16 16.000002,16.000003 0 0 0 15.855469,-14.00196 H 96.140625 A 16.000002,16.000003 0 0 0 112,346.66602 16.000002,16.000003 0 0 0 127.85547,332.66406 h 16.28515 A 16.000002,16.000003 0 0 0 160,346.66602 16.000002,16.000003 0 0 0 175.85547,332.66406 h 16.28515 A 16.000002,16.000003 0 0 0 208,346.66602 16.000002,16.000003 0 0 0 223.85547,332.66406 H 224 v -4 h -0.14062 A 16.000002,16.000003 0 0 0 208,314.66602 16.000002,16.000003 0 0 0 192.14648,328.66406 h -16.2871 A 16.000002,16.000003 0 0 0 160,314.66602 16.000002,16.000003 0 0 0 144.14648,328.66406 h -16.2871 A 16.000002,16.000003 0 0 0 112,314.66602 16.000002,16.000003 0 0 0 96.146484,328.66406 H 79.859375 A 16.000002,16.000003 0 0 0 64,314.66602 Z m 0,4.73046 a 11.269914,11.269915 0 0 1 11.085938,9.26758 H 71.552734 A 7.818227,7.8182278 0 0 0 64,322.84766 7.818227,7.8182278 0 0 0 56.181641,330.66602 7.818227,7.8182278 0 0 0 64,338.48438 a 7.818227,7.8182278 0 0 0 7.548828,-5.82032 h 3.533203 A 11.269914,11.269915 0 0 1 64,341.9375 11.269914,11.269915 0 0 1 52.730469,330.66602 11.269914,11.269915 0 0 1 64,319.39648 Z m 48,0 a 11.269914,11.269915 0 0 1 11.08594,9.26758 h -3.53321 A 7.818227,7.8182278 0 0 0 112,322.84766 a 7.818227,7.8182278 0 0 0 -7.54688,5.8164 h -3.5332 A 11.269914,11.269915 0 0 1 112,319.39648 Z m 48,0 a 11.269914,11.269915 0 0 1 11.08594,9.26758 h -3.53321 A 7.818227,7.8182278 0 0 0 160,322.84766 a 7.818227,7.8182278 0 0 0 -7.54688,5.8164 h -3.5332 A 11.269914,11.269915 0 0 1 160,319.39648 Z m 48,0 a 11.269914,11.269915 0 0 1 11.08594,9.26758 h -3.53321 A 7.818227,7.8182278 0 0 0 208,322.84766 a 7.818227,7.8182278 0 0 0 -7.54688,5.8164 h -3.5332 A 11.269914,11.269915 0 0 1 208,319.39648 Z m -107.08789,13.26758 h 3.5332 a 7.818227,7.8182278 0 0 0 7.55469,5.82032 7.818227,7.8182278 0 0 0 7.54883,-5.82032 h 3.5332 A 11.269914,11.269915 0 0 1 112,341.9375 11.269914,11.269915 0 0 1 100.91211,332.66406 Z m 48,0 h 3.5332 a 7.818227,7.8182278 0 0 0 7.55469,5.82032 7.818227,7.8182278 0 0 0 7.54883,-5.82032 h 3.5332 A 11.269914,11.269915 0 0 1 160,341.9375 11.269914,11.269915 0 0 1 148.91211,332.66406 Z m 48,0 h 3.5332 a 7.818227,7.8182278 0 0 0 7.55469,5.82032 7.818227,7.8182278 0 0 0 7.54883,-5.82032 h 3.5332 A 11.269914,11.269915 0 0 1 208,341.9375 11.269914,11.269915 0 0 1 196.91211,332.66406 Z"
           id="path1047"
           transform="scale(0.26458333)" />
        <path
           id="path1049"
           d="m 118.65164,83.079685 a 4.2333338,4.2333341 0 0 1 4.23333,4.233334 4.2333338,4.2333341 0 0 1 -4.23333,4.233333 4.2333338,4.2333341 0 0 1 -4.1951,-3.704685 h -4.30878 a 4.2333338,4.2333341 0 0 1 -4.19612,3.704685 4.2333338,4.2333341 0 0 1 -4.1951,-3.704685 h -4.308779 a 4.2333338,4.2333341 0 0 1 -4.19612,3.704685 4.2333338,4.2333341 0 0 1 -4.1951,-3.704685 h -4.30878 a 4.2333338,4.2333341 0 0 1 -4.19612,3.704685 4.2333338,4.2333341 0 0 1 -4.1951,-3.704685 h -0.0382 v -1.058334 h 0.0372 a 4.2333338,4.2333341 0 0 1 4.19613,-3.703648 4.2333338,4.2333341 0 0 1 4.19457,3.703648 h 4.3093 a 4.2333338,4.2333341 0 0 1 4.19613,-3.703648 4.2333338,4.2333341 0 0 1 4.19457,3.703648 h 4.309299 a 4.2333338,4.2333341 0 0 1 4.19613,-3.703648 4.2333338,4.2333341 0 0 1 4.19457,3.703648 h 4.30927 a 4.2333338,4.2333341 0 0 1 4.19613,-3.703648 z m 0,1.251601 a 2.9818314,2.9818316 0 0 0 -2.93316,2.452047 h 0.93483 a 2.0685725,2.0685727 0 0 1 1.99833,-1.538922 2.0685725,2.0685727 0 0 1 2.0686,2.068608 2.0685725,2.0685727 0 0 1 -2.0686,2.068607 2.0685725,2.0685727 0 0 1 -1.9973,-1.539959 h -0.93482 a 2.9818314,2.9818316 0 0 0 2.93212,2.453597 2.9818314,2.9818316 0 0 0 2.98173,-2.982245 2.9818314,2.9818316 0 0 0 -2.98173,-2.981733 z m -12.7,0 a 2.9818314,2.9818316 0 0 0 -2.93316,2.452047 h 0.93483 a 2.0685725,2.0685727 0 0 1 1.99833,-1.538922 2.0685725,2.0685727 0 0 1 1.99678,1.538922 h 0.93482 a 2.9818314,2.9818316 0 0 0 -2.9316,-2.452047 z m -12.699999,0 a 2.9818314,2.9818316 0 0 0 -2.93316,2.452047 h 0.93483 a 2.0685725,2.0685727 0 0 1 1.99833,-1.538922 2.0685725,2.0685727 0 0 1 1.99678,1.538922 h 0.93482 a 2.9818314,2.9818316 0 0 0 -2.9316,-2.452047 z m -12.7,0 a 2.9818314,2.9818316 0 0 0 -2.93316,2.452047 h 0.93483 a 2.0685725,2.0685727 0 0 1 1.99833,-1.538922 2.0685725,2.0685727 0 0 1 1.99678,1.538922 h 0.93482 a 2.9818314,2.9818316 0 0 0 -2.9316,-2.452047 z m 28.333669,3.510381 h -0.93483 a 2.0685725,2.0685727 0 0 1 -1.99884,1.539959 2.0685725,2.0685727 0 0 1 -1.9973,-1.539959 h -0.93482 a 2.9818314,2.9818316 0 0 0 2.93212,2.453597 2.9818314,2.9818316 0 0 0 2.93367,-2.453597 z m -12.699999,0 h -0.93483 a 2.0685725,2.0685727 0 0 1 -1.99884,1.539959 2.0685725,2.0685727 0 0 1 -1.9973,-1.539959 h -0.93482 a 2.9818314,2.9818316 0 0 0 2.93212,2.453597 2.9818314,2.9818316 0 0 0 2.93367,-2.453597 z m -12.7,0 h -0.93483 a 2.0685725,2.0685727 0 0 1 -1.99884,1.539959 2.0685725,2.0685727 0 0 1 -1.9973,-1.539959 h -0.93482 a 2.9818314,2.9818316 0 0 0 2.93212,2.453597 2.9818314,2.9818316 0 0 0 2.93367,-2.453597 z"
           style="opacity:0.75;fill:#c78f40;fill-opacity:1;stroke:#c79a40;stroke-width:0.26458332;stroke-linecap:round;stroke-linejoin:bevel;stroke-miterlimit:4;stroke-dasharray:none;stroke-dashoffset:0;stroke-opacity:0.65490196;paint-order:normal"
           inkscape:connector-curvature="0" />
        <path
           inkscape:connector-curvature="0"
           style="opacity:0.75;fill:#c7af40;fill-opacity:1;stroke:#c79a40;stroke-width:1;stroke-linecap:round;stroke-linejoin:bevel;stroke-miterlimit:4;stroke-dasharray:none;stroke-dashoffset:0;stroke-opacity:0.65490196;paint-order:normal"
           d="m 304,264.88867 a 16.000002,16.000003 0 0 0 -15.85352,13.99805 H 288 v 4.00195 h 0.14062 A 16.000002,16.000003 0 0 0 298.7832,296 h 10.40235 a 16.000002,16.000003 0 0 0 10.66797,-13.11133 h 16.2871 A 16.000002,16.000003 0 0 0 346.7832,296 h 10.40235 a 16.000002,16.000003 0 0 0 10.66797,-13.11133 h 16.2871 A 16.000002,16.000003 0 0 0 394.7832,296 h 10.42188 A 16.000002,16.000003 0 0 0 416,280.88867 a 16.000002,16.000003 0 0 0 -16,-16 16.000002,16.000003 0 0 0 -15.85352,13.99805 h -16.2871 A 16.000002,16.000003 0 0 0 352,264.88867 16.000002,16.000003 0 0 0 336.14648,278.88672 h -16.2871 A 16.000002,16.000003 0 0 0 304,264.88867 Z m 0,4.73047 a 11.269914,11.269915 0 0 1 11.08594,9.26758 h -3.53321 A 7.818227,7.8182278 0 0 0 304,273.07031 a 7.818227,7.8182278 0 0 0 -7.54688,5.81641 h -3.5332 A 11.269914,11.269915 0 0 1 304,269.61914 Z m 48,0 a 11.269914,11.269915 0 0 1 11.08594,9.26758 h -3.53321 A 7.818227,7.8182278 0 0 0 352,273.07031 a 7.818227,7.8182278 0 0 0 -7.54688,5.81641 h -3.5332 A 11.269914,11.269915 0 0 1 352,269.61914 Z m 48,0 A 11.269914,11.269915 0 0 1 411.26953,280.88867 11.269914,11.269915 0 0 1 400,292.1582 11.269914,11.269915 0 0 1 388.91406,282.88867 h 3.53125 A 7.818227,7.8182278 0 0 0 400,288.70703 7.818227,7.8182278 0 0 0 407.81836,280.88867 7.818227,7.8182278 0 0 0 400,273.07031 a 7.818227,7.8182278 0 0 0 -7.54688,5.81641 h -3.5332 A 11.269914,11.269915 0 0 1 400,269.61914 Z m -107.08594,13.26953 h 3.53125 a 7.818227,7.8182278 0 0 0 7.55469,5.81836 7.818227,7.8182278 0 0 0 7.54883,-5.81836 h 3.53125 A 11.269914,11.269915 0 0 1 304,292.1582 11.269914,11.269915 0 0 1 292.91406,282.88867 Z m 48,0 h 3.53125 a 7.818227,7.8182278 0 0 0 7.55469,5.81836 7.818227,7.8182278 0 0 0 7.54883,-5.81836 h 3.53125 A 11.269914,11.269915 0 0 1 352,292.1582 11.269914,11.269915 0 0 1 340.91406,282.88867 Z"
           transform="scale(0.26458333)"
           id="path1051" />
        <path
           id="path1053"
           d="m 55.033337,69.967564 a 4.2333338,4.2333341 0 0 1 4.194577,3.70365 h 0.03876 v 1.05885 h -0.03721 a 4.2333338,4.2333341 0 0 1 -2.815849,3.469039 H 53.661322 A 4.2333338,4.2333341 0 0 1 50.838755,74.730064 H 46.52946 a 4.2333338,4.2333341 0 0 1 -2.815849,3.469039 H 40.961323 A 4.2333338,4.2333341 0 0 1 38.138756,74.730064 H 33.82946 a 4.2333338,4.2333341 0 0 1 -2.815849,3.469039 H 28.256155 A 4.2333338,4.2333341 0 0 1 25.4,74.200897 a 4.2333338,4.2333341 0 0 1 4.233333,-4.233333 4.2333338,4.2333341 0 0 1 4.194577,3.70365 h 4.309295 a 4.2333338,4.2333341 0 0 1 4.196128,-3.70365 4.2333338,4.2333341 0 0 1 4.194577,3.70365 h 4.309295 a 4.2333338,4.2333341 0 0 1 4.196128,-3.70365 z m 0,1.251603 a 2.9818314,2.9818316 0 0 0 -2.933155,2.452047 h 0.934828 a 2.0685725,2.0685727 0 0 1 1.998327,-1.538925 2.0685725,2.0685727 0 0 1 1.996778,1.538925 h 0.934826 a 2.9818314,2.9818316 0 0 0 -2.931604,-2.452047 z m -12.7,0 a 2.9818314,2.9818316 0 0 0 -2.933155,2.452047 h 0.934828 a 2.0685725,2.0685727 0 0 1 1.998327,-1.538925 2.0685725,2.0685727 0 0 1 1.996778,1.538925 h 0.934826 a 2.9818314,2.9818316 0 0 0 -2.931604,-2.452047 z m -12.7,0 a 2.9818314,2.9818316 0 0 0 -2.98173,2.98173 2.9818314,2.9818316 0 0 0 2.98173,2.98173 2.9818314,2.9818316 0 0 0 2.933155,-2.452563 h -0.93431 a 2.0685725,2.0685727 0 0 1 -1.998845,1.539441 2.0685725,2.0685727 0 0 1 -2.068608,-2.068608 2.0685725,2.0685727 0 0 1 2.068608,-2.068608 2.0685725,2.0685727 0 0 1 1.996778,1.538925 h 0.934826 a 2.9818314,2.9818316 0 0 0 -2.931604,-2.452047 z m 28.333154,3.510897 h -0.934309 a 2.0685725,2.0685727 0 0 1 -1.998845,1.539441 2.0685725,2.0685727 0 0 1 -1.997295,-1.539441 h -0.93431 a 2.9818314,2.9818316 0 0 0 2.931605,2.452563 2.9818314,2.9818316 0 0 0 2.933154,-2.452563 z m -12.699999,0 h -0.93431 a 2.0685725,2.0685727 0 0 1 -1.998845,1.539441 2.0685725,2.0685727 0 0 1 -1.997295,-1.539441 h -0.93431 a 2.9818314,2.9818316 0 0 0 2.931605,2.452563 2.9818314,2.9818316 0 0 0 2.933155,-2.452563 z"
           style="opacity:0.75;fill:#c3c740;fill-opacity:1;stroke:#c79a40;stroke-width:0.26458332;stroke-linecap:round;stroke-linejoin:bevel;stroke-miterlimit:4;stroke-dasharray:none;stroke-dashoffset:0;stroke-opacity:0.65490196;paint-order:normal"
           inkscape:connector-curvature="0" />
        <path
           inkscape:connector-curvature="0"
           style="opacity:0.75;fill:#c74c40;fill-opacity:1;stroke:#c79a40;stroke-width:0.26458332;stroke-linecap:round;stroke-linejoin:bevel;stroke-miterlimit:4;stroke-dasharray:none;stroke-dashoffset:0;stroke-opacity:0.65490196;paint-order:normal"
           d="m 55.152705,43.920833 a 4.2333338,4.2333341 0 0 1 4.194577,3.70365 h 0.03876 v 1.05885 h -0.03721 a 4.2333338,4.2333341 0 0 1 -2.815849,3.469039 h -2.752289 a 4.2333338,4.2333341 0 0 1 -2.822567,-3.469039 h -4.309295 a 4.2333338,4.2333341 0 0 1 -2.815849,3.469039 h -2.752288 a 4.2333338,4.2333341 0 0 1 -2.822567,-3.469039 h -4.309296 a 4.2333338,4.2333341 0 0 1 -2.815849,3.469039 h -2.757456 a 4.2333338,4.2333341 0 0 1 -2.856159,-3.998206 4.2333338,4.2333341 0 0 1 4.233333,-4.233333 4.2333338,4.2333341 0 0 1 4.194577,3.70365 h 4.309295 a 4.2333338,4.2333341 0 0 1 4.196128,-3.70365 4.2333338,4.2333341 0 0 1 4.194577,3.70365 h 4.309295 a 4.2333338,4.2333341 0 0 1 4.196128,-3.70365 z m 0,1.251603 a 2.9818314,2.9818316 0 0 0 -2.933155,2.452047 h 0.934828 a 2.0685725,2.0685727 0 0 1 1.998327,-1.538925 2.0685725,2.0685727 0 0 1 1.996778,1.538925 h 0.934826 a 2.9818314,2.9818316 0 0 0 -2.931604,-2.452047 z m -12.7,0 a 2.9818314,2.9818316 0 0 0 -2.933155,2.452047 h 0.934828 a 2.0685725,2.0685727 0 0 1 1.998327,-1.538925 2.0685725,2.0685727 0 0 1 1.996778,1.538925 h 0.934826 a 2.9818314,2.9818316 0 0 0 -2.931604,-2.452047 z m -12.7,0 a 2.9818314,2.9818316 0 0 0 -2.98173,2.98173 2.9818314,2.9818316 0 0 0 2.98173,2.98173 2.9818314,2.9818316 0 0 0 2.933155,-2.452563 h -0.93431 a 2.0685725,2.0685727 0 0 1 -1.998845,1.539441 2.0685725,2.0685727 0 0 1 -2.068608,-2.068608 2.0685725,2.0685727 0 0 1 2.068608,-2.068608 2.0685725,2.0685727 0 0 1 1.996778,1.538925 h 0.934826 a 2.9818314,2.9818316 0 0 0 -2.931604,-2.452047 z m 28.333154,3.510897 H 57.15155 A 2.0685725,2.0685727 0 0 1 55.152705,50.222774 2.0685725,2.0685727 0 0 1 53.15541,48.683333 H 52.2211 a 2.9818314,2.9818316 0 0 0 2.931605,2.452563 2.9818314,2.9818316 0 0 0 2.933154,-2.452563 z m -12.699999,0 H 44.45155 A 2.0685725,2.0685727 0 0 1 42.452705,50.222774 2.0685725,2.0685727 0 0 1 40.45541,48.683333 H 39.5211 a 2.9818314,2.9818316 0 0 0 2.931605,2.452563 2.9818314,2.9818316 0 0 0 2.933155,-2.452563 z"
           id="path1055" />
        <path
           id="path1057"
           d="m 80.552705,43.920833 a 4.2333338,4.2333341 0 0 0 -4.194577,3.70365 h -0.03876 v 1.05885 h 0.03721 a 4.2333338,4.2333341 0 0 0 2.815849,3.469039 h 2.752289 a 4.2333338,4.2333341 0 0 0 2.822567,-3.469039 h 4.309295 a 4.2333338,4.2333341 0 0 0 2.815849,3.469039 h 2.752288 a 4.2333338,4.2333341 0 0 0 2.822567,-3.469039 h 4.309298 a 4.2333338,4.2333341 0 0 0 2.81585,3.469039 h 2.75745 a 4.2333338,4.2333341 0 0 0 2.85616,-3.998206 4.2333338,4.2333341 0 0 0 -4.23333,-4.233333 4.2333338,4.2333341 0 0 0 -4.19458,3.70365 h -4.309293 a 4.2333338,4.2333341 0 0 0 -4.196128,-3.70365 4.2333338,4.2333341 0 0 0 -4.194577,3.70365 h -4.309295 a 4.2333338,4.2333341 0 0 0 -4.196128,-3.70365 z m 0,1.251603 a 2.9818314,2.9818316 0 0 1 2.933155,2.452047 h -0.934828 a 2.0685725,2.0685727 0 0 0 -1.998327,-1.538925 2.0685725,2.0685727 0 0 0 -1.996778,1.538925 h -0.934826 a 2.9818314,2.9818316 0 0 1 2.931604,-2.452047 z m 12.7,0 a 2.9818314,2.9818316 0 0 1 2.933155,2.452047 h -0.934828 a 2.0685725,2.0685727 0 0 0 -1.998327,-1.538925 2.0685725,2.0685727 0 0 0 -1.996778,1.538925 h -0.934826 a 2.9818314,2.9818316 0 0 1 2.931604,-2.452047 z m 12.699995,0 a 2.9818314,2.9818316 0 0 1 2.98173,2.98173 2.9818314,2.9818316 0 0 1 -2.98173,2.98173 2.9818314,2.9818316 0 0 1 -2.93315,-2.452563 h 0.93431 a 2.0685725,2.0685727 0 0 0 1.99884,1.539441 2.0685725,2.0685727 0 0 0 2.06861,-2.068608 2.0685725,2.0685727 0 0 0 -2.06861,-2.068608 2.0685725,2.0685727 0 0 0 -1.99677,1.538925 h -0.93483 a 2.9818314,2.9818316 0 0 1 2.9316,-2.452047 z M 77.619551,48.683333 H 78.55386 A 2.0685725,2.0685727 0 0 0 80.552705,50.222774 2.0685725,2.0685727 0 0 0 82.55,48.683333 h 0.93431 a 2.9818314,2.9818316 0 0 1 -2.931605,2.452563 2.9818314,2.9818316 0 0 1 -2.933154,-2.452563 z m 12.699999,0 h 0.93431 A 2.0685725,2.0685727 0 0 0 93.252705,50.222774 2.0685725,2.0685727 0 0 0 95.25,48.683333 h 0.93431 a 2.9818314,2.9818316 0 0 1 -2.931605,2.452563 2.9818314,2.9818316 0 0 1 -2.933155,-2.452563 z"
           style="opacity:0.75;fill:#c7ba40;fill-opacity:1;stroke:#c79a40;stroke-width:0.26458332;stroke-linecap:round;stroke-linejoin:bevel;stroke-miterlimit:4;stroke-dasharray:none;stroke-dashoffset:0;stroke-opacity:0.65490196;paint-order:normal"
           inkscape:connector-curvature="0" />
        <path
           inkscape:connector-curvature="0"
           style="opacity:0.75;fill:#c79340;fill-opacity:1;stroke:#c79a40;stroke-width:1;stroke-linecap:round;stroke-linejoin:bevel;stroke-miterlimit:4;stroke-dasharray:none;stroke-dashoffset:0;stroke-opacity:0.65490196;paint-order:normal"
           d="m 160,215.11133 a 16.000002,16.000003 0 0 0 -16,16 16.000002,16.000003 0 0 0 16,16 16.000002,16.000003 0 0 0 15.85352,-14 h 16.2871 a 16.000002,16.000003 0 0 0 15.85938,14 16.000002,16.000003 0 0 0 15.85352,-14 H 224 v -4 h -0.14062 a 16.000002,16.000003 0 0 0 -15.85938,-14 16.000002,16.000003 0 0 0 -15.85352,14 h -16.2871 a 16.000002,16.000003 0 0 0 -15.85938,-14 z m 0,4.73047 a 11.269914,11.269915 0 0 1 11.08594,9.26953 h -3.53125 A 7.818227,7.8182278 0 0 0 160,223.29297 a 7.818227,7.8182278 0 0 0 -7.81836,7.81836 7.818227,7.8182278 0 0 0 7.81836,7.81836 7.818227,7.8182278 0 0 0 7.54883,-5.81836 h 3.53125 A 11.269914,11.269915 0 0 1 160,242.38086 11.269914,11.269915 0 0 1 148.73047,231.11133 11.269914,11.269915 0 0 1 160,219.8418 Z m 48,0 a 11.269914,11.269915 0 0 1 11.08594,9.26953 h -3.53125 A 7.818227,7.8182278 0 0 0 208,223.29297 a 7.818227,7.8182278 0 0 0 -7.54883,5.81836 h -3.53125 A 11.269914,11.269915 0 0 1 208,219.8418 Z m -11.08594,13.26953 h 3.53125 a 7.818227,7.8182278 0 0 0 7.55469,5.81836 7.818227,7.8182278 0 0 0 7.54883,-5.81836 h 3.53125 A 11.269914,11.269915 0 0 1 208,242.38086 11.269914,11.269915 0 0 1 196.91406,233.11133 Z"
           transform="scale(0.26458333)"
           id="path1059" />
        <path
           id="path1061"
           d="m 93.133336,56.914873 a 4.2333338,4.2333341 0 0 1 4.233333,4.233333 4.2333338,4.2333341 0 0 1 -4.233333,4.233333 4.2333338,4.2333341 0 0 1 -4.194577,-3.704166 h -4.309295 a 4.2333338,4.2333341 0 0 1 -4.196128,3.704166 4.2333338,4.2333341 0 0 1 -4.194577,-3.704166 h -0.03876 v -1.058334 h 0.03721 a 4.2333338,4.2333341 0 0 1 4.196128,-3.704166 4.2333338,4.2333341 0 0 1 4.194577,3.704166 h 4.309295 a 4.2333338,4.2333341 0 0 1 4.196128,-3.704166 z m 0,1.251603 a 2.9818314,2.9818316 0 0 0 -2.933155,2.452563 h 0.93431 a 2.0685725,2.0685727 0 0 1 1.998845,-1.539441 2.0685725,2.0685727 0 0 1 2.068608,2.068608 2.0685725,2.0685727 0 0 1 -2.068608,2.068608 2.0685725,2.0685727 0 0 1 -1.997295,-1.539441 h -0.93431 a 2.9818314,2.9818316 0 0 0 2.931605,2.452563 2.9818314,2.9818316 0 0 0 2.98173,-2.98173 2.9818314,2.9818316 0 0 0 -2.98173,-2.98173 z m -12.7,0 a 2.9818314,2.9818316 0 0 0 -2.933155,2.452563 h 0.93431 a 2.0685725,2.0685727 0 0 1 1.998845,-1.539441 2.0685725,2.0685727 0 0 1 1.997295,1.539441 h 0.93431 a 2.9818314,2.9818316 0 0 0 -2.931605,-2.452563 z m 2.933155,3.510897 h -0.93431 a 2.0685725,2.0685727 0 0 1 -1.998845,1.539441 2.0685725,2.0685727 0 0 1 -1.997295,-1.539441 h -0.934309 a 2.9818314,2.9818316 0 0 0 2.931604,2.452563 2.9818314,2.9818316 0 0 0 2.933155,-2.452563 z"
           style="opacity:0.75;fill:#c76540;fill-opacity:1;stroke:#c79a40;stroke-width:0.26458332;stroke-linecap:round;stroke-linejoin:bevel;stroke-miterlimit:4;stroke-dasharray:none;stroke-dashoffset:0;stroke-opacity:0.65490196;paint-order:normal"
           inkscape:connector-curvature="0" />
        <path
           inkscape:connector-curvature="0"
           style="opacity:0.75;fill:#c76040;fill-opacity:1;stroke:#c79a40;stroke-width:0.26458332;stroke-linecap:round;stroke-linejoin:bevel;stroke-miterlimit:4;stroke-dasharray:none;stroke-dashoffset:0;stroke-opacity:0.65490196;paint-order:normal"
           d="m 93.133336,30.573845 a 4.2333338,4.2333341 0 0 1 4.233333,4.233333 4.2333338,4.2333341 0 0 1 -4.233333,4.233333 4.2333338,4.2333341 0 0 1 -4.194577,-3.704166 h -4.309295 a 4.2333338,4.2333341 0 0 1 -4.196128,3.704166 4.2333338,4.2333341 0 0 1 -4.194577,-3.704166 h -0.03876 v -1.058334 h 0.03721 a 4.2333338,4.2333341 0 0 1 4.196128,-3.704166 4.2333338,4.2333341 0 0 1 4.194577,3.704166 h 4.309295 a 4.2333338,4.2333341 0 0 1 4.196128,-3.704166 z m 0,1.251603 a 2.9818314,2.9818316 0 0 0 -2.933155,2.452563 h 0.93431 a 2.0685725,2.0685727 0 0 1 1.998845,-1.539441 2.0685725,2.0685727 0 0 1 2.068608,2.068608 2.0685725,2.0685727 0 0 1 -2.068608,2.068608 2.0685725,2.0685727 0 0 1 -1.997295,-1.539441 h -0.93431 a 2.9818314,2.9818316 0 0 0 2.931605,2.452563 2.9818314,2.9818316 0 0 0 2.98173,-2.98173 2.9818314,2.9818316 0 0 0 -2.98173,-2.98173 z m -12.7,0 a 2.9818314,2.9818316 0 0 0 -2.933155,2.452563 h 0.93431 a 2.0685725,2.0685727 0 0 1 1.998845,-1.539441 2.0685725,2.0685727 0 0 1 1.997295,1.539441 h 0.93431 a 2.9818314,2.9818316 0 0 0 -2.931605,-2.452563 z m 2.933155,3.510897 h -0.93431 a 2.0685725,2.0685727 0 0 1 -1.998845,1.539441 2.0685725,2.0685727 0 0 1 -1.997295,-1.539441 h -0.934309 a 2.9818314,2.9818316 0 0 0 2.931604,2.452563 2.9818314,2.9818316 0 0 0 2.933155,-2.452563 z"
           id="path1063" />
        <path
           id="path1065"
           d="M 42.333333,30.573363 A 4.2333338,4.2333341 0 0 0 38.1,34.806696 a 4.2333338,4.2333341 0 0 0 4.233333,4.233333 4.2333338,4.2333341 0 0 0 4.194577,-3.704166 h 4.309295 a 4.2333338,4.2333341 0 0 0 4.196128,3.704166 4.2333338,4.2333341 0 0 0 4.194577,-3.704166 h 0.03876 v -1.058334 h -0.03721 a 4.2333338,4.2333341 0 0 0 -4.196128,-3.704166 4.2333338,4.2333341 0 0 0 -4.194577,3.704166 H 46.52946 a 4.2333338,4.2333341 0 0 0 -4.196128,-3.704166 z m 0,1.251603 a 2.9818314,2.9818316 0 0 1 2.933155,2.452563 h -0.93431 a 2.0685725,2.0685727 0 0 0 -1.998845,-1.539441 2.0685725,2.0685727 0 0 0 -2.068608,2.068608 2.0685725,2.0685727 0 0 0 2.068608,2.068608 2.0685725,2.0685727 0 0 0 1.997295,-1.539441 h 0.93431 a 2.9818314,2.9818316 0 0 1 -2.931605,2.452563 2.9818314,2.9818316 0 0 1 -2.98173,-2.98173 2.9818314,2.9818316 0 0 1 2.98173,-2.98173 z m 12.7,0 a 2.9818314,2.9818316 0 0 1 2.933155,2.452563 h -0.93431 a 2.0685725,2.0685727 0 0 0 -1.998845,-1.539441 2.0685725,2.0685727 0 0 0 -1.997295,1.539441 h -0.93431 a 2.9818314,2.9818316 0 0 1 2.931605,-2.452563 z m -2.933155,3.510897 h 0.93431 a 2.0685725,2.0685727 0 0 0 1.998845,1.539441 2.0685725,2.0685727 0 0 0 1.997295,-1.539441 h 0.934309 a 2.9818314,2.9818316 0 0 1 -2.931604,2.452563 2.9818314,2.9818316 0 0 1 -2.933155,-2.452563 z"
           style="opacity:0.75;fill:#c7a740;fill-opacity:1;stroke:#c79a40;stroke-width:0.26458332;stroke-linecap:round;stroke-linejoin:bevel;stroke-miterlimit:4;stroke-dasharray:none;stroke-dashoffset:0;stroke-opacity:0.65490196;paint-order:normal"
           inkscape:connector-curvature="0" />
        <path
           inkscape:connector-curvature="0"
           style="opacity:0.75;fill:#c76640;fill-opacity:1;stroke:#c79a40;stroke-width:1;stroke-linecap:round;stroke-linejoin:bevel;stroke-miterlimit:4;stroke-dasharray:none;stroke-dashoffset:0;stroke-opacity:0.65490196;paint-order:normal"
           d="m 208,65.777344 a 16.000002,16.000003 0 0 0 -16,16 16.000002,16.000003 0 0 0 16,16 16.000002,16.000003 0 0 0 15.85352,-14 h 1.65625 v -4.001953 h -1.65039 A 16.000002,16.000003 0 0 0 208,65.777344 Z m 0,4.730468 a 11.269914,11.269915 0 0 1 11.08594,9.267579 h -3.53321 A 7.818227,7.8182278 0 0 0 208,73.958984 a 7.818227,7.8182278 0 0 0 -7.81836,7.81836 7.818227,7.8182278 0 0 0 7.81836,7.818359 7.818227,7.8182278 0 0 0 7.54883,-5.818359 h 3.5332 A 11.269914,11.269915 0 0 1 208,93.046875 11.269914,11.269915 0 0 1 196.73047,81.777344 11.269914,11.269915 0 0 1 208,70.507812 Z"
           transform="scale(0.26458333)"
           id="path1067" />
        <path
           id="path1069"
           d="m 80.434881,17.403589 a 4.2333338,4.2333341 0 0 1 4.233333,4.233333 4.2333338,4.2333341 0 0 1 -4.233333,4.233333 4.2333338,4.2333341 0 0 1 -4.194578,-3.704166 h -0.438216 v -1.05885 h 0.436666 a 4.2333338,4.2333341 0 0 1 4.196128,-3.70365 z m 0,1.251603 a 2.9818314,2.9818316 0 0 0 -2.933155,2.452047 h 0.934828 a 2.0685725,2.0685727 0 0 1 1.998327,-1.538925 2.0685725,2.0685727 0 0 1 2.068607,2.068608 2.0685725,2.0685727 0 0 1 -2.068607,2.068608 2.0685725,2.0685727 0 0 1 -1.997295,-1.539441 H 77.50276 a 2.9818314,2.9818316 0 0 0 2.932121,2.452563 2.9818314,2.9818316 0 0 0 2.981729,-2.98173 2.9818314,2.9818316 0 0 0 -2.981729,-2.98173 z"
           style="opacity:0.75;fill:#c78b40;fill-opacity:1;stroke:#c79a40;stroke-width:0.26458332;stroke-linecap:round;stroke-linejoin:bevel;stroke-miterlimit:4;stroke-dasharray:none;stroke-dashoffset:0;stroke-opacity:0.65490196;paint-order:normal"
           inkscape:connector-curvature="0" />
      </g>
    </g>
  </g>
</svg>
